<svg xmlns="http://www.w3.org/2000/svg" fill="none" viewBox="0 0 16 16">
  <defs>
    <clipPath id="a">
      <rect width="16" height="16" rx="0"/>
    </clipPath>
  </defs>
  <g clip-path="url(#a)">
    <path d="M13.178 8.482c-.18 0-.316-.136-.316-.36V2.306c0-.315-.225-.586-.54-.586H4.478c-.316 0-.541.27-.541.586v4.327c0 .18-.135.36-.315.36s-.316-.135-.316-.36V2.307c0-.721.54-1.307 1.172-1.307h7.842c.631 0 1.172.586 1.172 1.307v5.814c0 .18-.18.36-.316.36ZM5.335 3.434h6.13c.18 0 .315-.18.315-.36 0-.181-.135-.361-.315-.361h-6.13c-.18 0-.315.18-.315.36s.135.36.315.36Zm0 2.163h6.13c.18 0 .315-.18.315-.36s-.135-.36-.315-.36h-6.13c-.18 0-.315.18-.315.36s.135.36.315.36Zm4.102 2.118H11.6c.09 0 .135-.18.135-.36s-.09-.36-.135-.36H9.437c-.09 0-.136.18-.136.36s.045.36.136.36Zm-4.733 4.282h1.127l-.586-1.577-.54 1.577Zm4.868-1.758h-.496v1.172h.496c.18 0 .315 0 .45-.045.136-.045.226-.09.271-.18.045-.09.09-.18.09-.36s-.045-.316-.135-.406c-.135-.09-.36-.18-.676-.18Zm4.462-1.622H8.986L8.265 7.58c-.135-.225-.36-.315-.631-.315H2.766A.79.79 0 0 0 2 8.03v5.634c0 .405.36.766.766.766h11.268a.79.79 0 0 0 .766-.766V9.383c0-.45-.316-.766-.766-.766Zm-7.121 4.822c-.09.09-.18.09-.27.09-.046 0-.09 0-.136-.044-.045-.046-.09-.046-.09-.09-.045-.046-.045-.09-.09-.18-.045-.091-.045-.136-.09-.226l-.18-.496H4.523l-.18.496c-.09.18-.136.315-.18.405-.046.09-.136.09-.226.09s-.18-.045-.27-.09c-.09-.09-.09-.135-.09-.225 0-.045 0-.09.045-.18 0-.045.045-.136.09-.226l.991-2.478c.045-.09.045-.136.09-.27.045-.091.09-.181.136-.226.045-.045.09-.135.18-.18.09-.046.18-.046.27-.046.09 0 .18 0 .27.045.09.046.136.09.181.136.045.045.09.135.09.225.045.09.09.18.135.316l.992 2.433c.09.18.135.316.135.406-.135.135-.18.225-.27.315Zm3.876-1.757c-.226.18-.586.315-1.082.315h-.721v1.082c0 .135-.045.27-.09.36-.09.09-.18.136-.27.136-.136 0-.226-.045-.271-.136-.09-.09-.09-.18-.09-.36v-2.93c0-.18.045-.27.135-.36.09-.09.18-.09.36-.09h.992c.27 0 .496 0 .676.045.135.045.27.135.406.225.135.09.18.225.27.36.045.136.09.316.09.496-.045.406-.135.676-.405.857Zm2.479 1.397a.85.85 0 0 1-.09.36c-.09.09-.18.136-.271.136-.09 0-.18-.045-.27-.136-.09-.09-.09-.18-.09-.36v-2.975c0-.135.044-.27.09-.36.09-.09.18-.136.27-.136.135 0 .225.046.27.136.09.09.09.18.09.36v2.975Z" fill="currentColor"/>
  </g>
</svg>