<svg xmlns="http://www.w3.org/2000/svg" xmlns:xlink="http://www.w3.org/1999/xlink" fill="none" version="1.1" width="40" height="40" viewBox="0 0 40 40"><defs><clipPath id="master_svg0_4060_78457"><rect x="0" y="0" width="40" height="40" rx="20"/></clipPath></defs><g clip-path="url(#master_svg0_4060_78457)"><rect x="0" y="0" width="40" height="40" rx="20" fill="#7C5CFC" fill-opacity="0.10000000149011612"/><g><g><path d="M12,19.95L25,19.95Q25.0542,19.95,25.107300000000002,19.960568Q25.1604,19.971136,25.2105,19.991866Q25.2605,20.012596,25.3056,20.042692Q25.3506,20.072787,25.3889,20.111091Q25.4272,20.149395,25.4573,20.194436Q25.4874,20.239477,25.5081,20.289524Q25.5289,20.339571,25.5394,20.3927Q25.55,20.4458297,25.55,20.5Q25.55,20.5541703,25.5394,20.6073Q25.5289,20.660429,25.5081,20.710476Q25.4874,20.760523,25.4573,20.805564Q25.4272,20.850605,25.3889,20.888909Q25.3506,20.927213,25.3056,20.957308Q25.2605,20.987404,25.2105,21.008134Q25.1604,21.028864,25.107300000000002,21.039432Q25.0542,21.05,25,21.05L12,21.05Q11.9458297,21.05,11.8927,21.039432Q11.839571,21.028864,11.789524,21.008134Q11.739477,20.987404,11.694436,20.957308Q11.649395,20.927213,11.611091,20.888909Q11.572787,20.850605,11.542692,20.805564Q11.512596,20.760523,11.491866,20.710476Q11.471136,20.660429,11.460568,20.6073Q11.45,20.5541703,11.45,20.5Q11.45,20.4458297,11.460568,20.3927Q11.471136,20.339571,11.491866,20.289524Q11.512596,20.239477,11.542692,20.194436Q11.572787,20.149395,11.611091,20.111091Q11.649395,20.072787,11.694436,20.042692Q11.739477,20.012596,11.789524,19.991866Q11.839571,19.971136,11.8927,19.960568Q11.9458297,19.95,12,19.95Z" fill-rule="evenodd" fill="#7C5CFC" fill-opacity="1"/></g><g><path d="M17.06389,15.05L22,15.05Q22.05417,15.05,22.107300000000002,15.039432Q22.160429999999998,15.028864,22.21047,15.008134Q22.26052,14.987404,22.30556,14.957308Q22.3506,14.927213,22.38891,14.888909Q22.427210000000002,14.850605,22.45731,14.805564Q22.4874,14.760523,22.50813,14.710476Q22.52886,14.660429,22.53943,14.6073Q22.55,14.5541703,22.55,14.5Q22.55,14.4458297,22.53943,14.3927Q22.52886,14.339571,22.50813,14.289524Q22.4874,14.239477,22.45731,14.194436Q22.427210000000002,14.149395,22.38891,14.111091Q22.3506,14.072787,22.30556,14.042692Q22.26052,14.012596,22.21047,13.991866Q22.160429999999998,13.971136,22.107300000000002,13.960568Q22.05417,13.95,22,13.95L17.06389,13.95Q16.2068,13.95,15.75111,14.675924L13.534236,18.20749L13.534174,18.20759Q13.45,18.34168,13.45,18.5Q13.45,18.55417,13.460568,18.607300000000002Q13.471136,18.660429999999998,13.491866,18.71047Q13.512596,18.76052,13.542692,18.80556Q13.572787,18.8506,13.611091,18.88891Q13.649395,18.92721,13.694436,18.95731Q13.739477,18.9874,13.789524,19.00813Q13.839571,19.02886,13.8927,19.03943Q13.9458297,19.05,14,19.05Q14.0698252,19.05,14.137435,19.03255Q14.205045,19.0151,14.266151,18.98131Q14.327256,18.94753,14.377979,18.899540000000002Q14.428703,18.85155,14.465826,18.79241L16.682760000000002,15.260752Q16.81506,15.05,17.06389,15.05Z" fill-rule="evenodd" fill="#7C5CFC" fill-opacity="1"/></g><g transform="matrix(1,0,0,-1,0,53)"><path d="M17.06389,27.05L22,27.05Q22.05417,27.05,22.107300000000002,27.039432Q22.160429999999998,27.028864,22.21047,27.008134Q22.26052,26.987404,22.30556,26.957308Q22.3506,26.927213,22.38891,26.888909Q22.427210000000002,26.850605,22.45731,26.805564Q22.4874,26.760523,22.50813,26.710476Q22.52886,26.660429,22.53943,26.6073Q22.55,26.5541703,22.55,26.5Q22.55,26.4458297,22.53943,26.3927Q22.52886,26.339571,22.50813,26.289524Q22.4874,26.239477,22.45731,26.194436Q22.427210000000002,26.149395,22.38891,26.111091Q22.3506,26.072787,22.30556,26.042692Q22.26052,26.012596,22.21047,25.991866Q22.160429999999998,25.971136,22.107300000000002,25.960568Q22.05417,25.95,22,25.95L17.06389,25.95Q16.2068,25.95,15.75111,26.675924L13.534236,30.20749L13.534174,30.20759Q13.45,30.34168,13.45,30.5Q13.45,30.55417,13.460568,30.607300000000002Q13.471136,30.660429999999998,13.491866,30.71047Q13.512596,30.76052,13.542692,30.80556Q13.572787,30.8506,13.611091,30.88891Q13.649395,30.92721,13.694436,30.95731Q13.739477,30.9874,13.789524,31.00813Q13.839571,31.02886,13.8927,31.03943Q13.9458297,31.05,14,31.05Q14.0698252,31.05,14.137435,31.03255Q14.205045,31.0151,14.266151,30.98131Q14.327256,30.94753,14.377979,30.899540000000002Q14.428703,30.85155,14.465826,30.79241L16.682760000000002,27.260752Q16.81506,27.05,17.06389,27.05Z" fill-rule="evenodd" fill="#7C5CFC" fill-opacity="1"/></g><g><path d="M24.94957,13.0504311Q24.34914,12.45,23.5,12.45Q22.650862,12.45,22.0504311,13.0504311Q21.45,13.650862,21.45,14.5Q21.45,15.34914,22.0504311,15.94957Q22.650862,16.55,23.5,16.55Q24.34914,16.55,24.94957,15.94957Q25.55,15.34914,25.55,14.5Q25.55,13.650862,24.94957,13.0504311ZM22.828249,13.828249Q23.1065,13.55,23.5,13.55Q23.8935,13.55,24.17175,13.828249Q24.45,14.1065,24.45,14.5Q24.45,14.8935,24.17175,15.17175Q23.8935,15.45,23.5,15.45Q23.1065,15.45,22.828249,15.17175Q22.55,14.8935,22.55,14.5Q22.55,14.1065,22.828249,13.828249Z" fill-rule="evenodd" fill="#7C5CFC" fill-opacity="1"/></g><g><path d="M24.94957,25.0504311Q24.34914,24.45,23.5,24.45Q22.650862,24.45,22.0504311,25.0504311Q21.45,25.650862,21.45,26.5Q21.45,27.34914,22.0504311,27.94957Q22.650862,28.55,23.5,28.55Q24.34914,28.55,24.94957,27.94957Q25.55,27.34914,25.55,26.5Q25.55,25.650862,24.94957,25.0504311ZM22.828249,25.828249Q23.1065,25.55,23.5,25.55Q23.8935,25.55,24.17175,25.828249Q24.45,26.1065,24.45,26.5Q24.45,26.8935,24.17175,27.17175Q23.8935,27.45,23.5,27.45Q23.1065,27.45,22.828249,27.17175Q22.55,26.8935,22.55,26.5Q22.55,26.1065,22.828249,25.828249Z" fill-rule="evenodd" fill="#7C5CFC" fill-opacity="1"/></g><g><path d="M27.94957,19.0504311Q27.34914,18.45,26.5,18.45Q25.650862,18.45,25.0504311,19.0504311Q24.45,19.650862,24.45,20.5Q24.45,21.34914,25.0504311,21.94957Q25.650862,22.55,26.5,22.55Q27.34914,22.55,27.94957,21.94957Q28.55,21.34914,28.55,20.5Q28.55,19.650862,27.94957,19.0504311ZM25.828249,19.828249Q26.1065,19.55,26.5,19.55Q26.8935,19.55,27.17175,19.828249Q27.45,20.1065,27.45,20.5Q27.45,20.8935,27.17175,21.17175Q26.8935,21.45,26.5,21.45Q26.1065,21.45,25.828249,21.17175Q25.55,20.8935,25.55,20.5Q25.55,20.1065,25.828249,19.828249Z" fill-rule="evenodd" fill="#7C5CFC" fill-opacity="1"/></g></g></g></svg>