<svg xmlns="http://www.w3.org/2000/svg" xmlns:xlink="http://www.w3.org/1999/xlink" fill="none" version="1.1" width="16" height="14" viewBox="0 0 16 14"><defs><clipPath id="master_svg0_4117_083945"><rect x="0" y="0" width="16" height="14" rx="0"/></clipPath></defs><g clip-path="url(#master_svg0_4117_083945)"><g><path d="M3.895263671875,9.090406250000001L5.256563671875,5.31640625L5.761863671875,5.31640625L7.212543671875,9.090406250000001L6.678193671875,9.090406250000001L6.264793671875,7.94717625L4.782534671875,7.94717625L4.393297671875,9.090406250000001L3.895263671875,9.090406250000001ZM4.918013671875,7.54065625L6.119683671875,7.54065625L5.749703671875,6.4954462500000005Q5.580433671875,6.01999625,5.498323671875,5.71283725C5.452313671875,5.95800325,5.388433671875,6.19897925,5.307253671875,6.43357625L4.918013671875,7.54065625ZM7.5872536718750005,9.090406250000001L7.5872536718750005,5.31640625L8.924403671875,5.31640625Q9.277323671875,5.31640625,9.463643671875001,5.35238425Q9.724823671875,5.39878585,9.901203671874999,5.52874425Q10.077583671875,5.65870125,10.185433671875,5.89306325C10.258043671875,6.05355025,10.294843671875,6.22972825,10.292963671875,6.40785625Q10.292963671875,6.88918625,10.005263671875,7.22256625Q9.717563671875,7.5559562499999995,8.965613671875001,7.5559562499999995L8.056393671875,7.5559562499999995L8.056393671875,9.09023625L7.5872536718750005,9.09023625L7.5872536718750005,9.090406250000001ZM8.056393671875,7.11076625L8.972243671874999,7.11076625Q9.426853671875,7.11076625,9.617763671875,6.93054625Q9.808673671874999,6.75031625,9.809303671875,6.42348625Q9.809303671875,6.18677225,9.696873671875,6.01797825C9.626053671874999,5.90872425,9.521053671875,5.82983025,9.400643671874999,5.79538525Q9.282213671874999,5.76176025,8.962933671875,5.76176025L8.056393671875,5.76176025L8.056393671875,7.11076625ZM10.969913671875,9.090406250000001L10.969913671875,5.31640625L11.439043671875,5.31640625L11.439043671875,9.090406250000001L10.969913671875,9.090406250000001Z" fill="#596780" fill-opacity="1"/></g><g><path d="M11.748932421875,12.513L8.001492421875,12.513C7.771702421875,12.5082,7.587752421875,12.3085,7.587752421875,12.0638C7.587752421875,11.8191,7.771702421875,11.6194,8.001492421875,11.6147L11.748932421875,11.6147C13.629432421875,11.6147,15.159632421875,9.98577,15.159632421875,7.98328C15.159632421875,6.15495,13.876732421875,4.60605,12.175232421875,4.38043L11.875232421875,4.34058L11.814432421875,4.02502C11.465032421875,2.21267,9.947842421875,0.897954,8.207092421875,0.897954C6.176422421875,0.897954,4.524412421875,2.65684,4.524412421875,4.81889C4.524412421875,4.86277,4.525362421875,4.90951,4.527252421875,4.96616L4.544462421875,5.48213L4.061432421875,5.42867C3.959752421875,5.41747,3.857972421875,5.41185,3.756522421875,5.41185C2.150462421875,5.41185,0.843790421875,6.80306,0.843790421875,8.51303C0.843790421875,10.223,2.150462421875,11.6142,3.756522421875,11.6142L4.771382421875,11.6142C5.001172421875,11.6189,5.185122421875,11.8186,5.185122421875,12.0633C5.185122421875,12.308,5.001172421875,12.5077,4.771382421875,12.5125L3.756522421875,12.5125C1.685272421875,12.513,0.000732421875,10.7188,0.000732421875,8.51353C0.000732421875,6.33232,1.649272421875,4.55342,3.689412421875,4.51476C3.796942421875,2.70839,4.845982421875,1.11846,6.405562421875,0.398152C7.965142421875,-0.322161,9.772302421875,-0.0514015,11.084632421875,1.0992C11.803432421875,1.73096,12.322432421875,2.58276,12.571332421875,3.53915C14.547032421875,3.95104,16.002732421875,5.80879,16.002732421875,7.98361C16.002532421875,10.4852,14.098132421875,12.513,11.748932421875,12.513Z" fill="#596780" fill-opacity="1"/></g><g><path d="M8.963460625,13.99760125C8.857940625,13.99785125,8.756200625,13.95584125,8.678440625,13.87991125L6.837890625,12.08236125L8.580220624999999,10.15030225C8.742740625,9.97814425,9.004630625,9.97565505,9.170010625,10.14469725C9.335390625,10.31373925,9.343730625,10.59244725,9.188790625,10.77235225L8.044450625,12.04150125L9.248640625,13.21751125C9.376710625,13.34274125,9.419500625,13.53879125,9.356430625,13.711321250000001C9.293360625,13.88384125,9.137340625,13.99750125,8.963460625,13.99760125Z" fill="#596780" fill-opacity="1"/></g></g></svg>