<svg xmlns="http://www.w3.org/2000/svg" xmlns:xlink="http://www.w3.org/1999/xlink" fill="none" version="1.1" width="16" height="16" viewBox="0 0 16 16"><g><path d="M5.70832,7.63893L1.2576,7.63893C0.560025,7.63893,0,7.07891,0,6.38133L0,1.93061C0,1.24286,0.56985,0.673012,1.2576,0.673012L5.70832,0.673012C6.4059,0.673012,6.96592,1.23304,6.96592,1.93061L6.96592,6.38133C6.96592,7.07891,6.4059,7.63893,5.70832,7.63893ZM5.70832,16L1.2576,16C0.560025,16,0,15.44,0,14.7424L0,10.2917C0,9.59411,0.560025,9.03408,1.2576,9.03408L5.70832,9.03408C6.4059,9.03408,6.96592,9.59411,6.96592,10.2917L6.96592,14.7424C6.96592,15.4302,6.4059,16,5.70832,16ZM14.0694,16L9.61867,16C8.92109,16,8.36107,15.44,8.36107,14.7424L8.36107,10.2917C8.36107,9.59411,8.92109,9.03408,9.61867,9.03408L14.0694,9.03408C14.767,9.03408,15.327,9.59411,15.327,10.2917L15.327,14.7424C15.327,15.4302,14.7571,16,14.0694,16ZM15.6316,3.27663L12.7234,0.368437C12.2321,-0.122812,11.4363,-0.122812,10.945,0.368437L8.03684,3.27663C7.54559,3.76788,7.54559,4.56371,8.03684,5.05496L10.945,7.96316C11.4363,8.45441,12.2321,8.45441,12.7234,7.96316L15.6316,5.05496C16.1228,4.55388,16.1228,3.75806,15.6316,3.27663ZM12.0946,6.61713C11.957,6.75468,11.7212,6.75468,11.5837,6.61713L9.38287,4.41633C9.24532,4.27878,9.24532,4.04298,9.38287,3.90543L11.5837,1.70464C11.7212,1.56709,11.957,1.56709,12.0946,1.70464L14.2954,3.90543C14.4329,4.04298,14.4329,4.27878,14.2954,4.41633L12.0946,6.61713Z" fill="#878787" fill-opacity="1"/></g></svg>