<svg xmlns="http://www.w3.org/2000/svg" xmlns:xlink="http://www.w3.org/1999/xlink" fill="none" version="1.1" width="18" height="16.890636444091797" viewBox="0 0 18 16.890636444091797"><g><path d="M13.0166,0.000212021C15.7648,0.000212021,18,2.03382,18,4.54824C18,5.3297,17.7705,6.09428,17.3565,6.78341C16.73,7.79008,15.7276,8.53551,14.515,8.89021C14.2577,8.97092,13.9903,9.01452,13.7208,9.0197C13.2007,9.02917,12.7745,8.60908,12.7758,8.08847C12.7758,7.56487,13.192,7.15837,13.7208,7.15837C13.7579,7.15837,13.8355,7.15837,13.93,7.12234C14.7445,6.89714,15.3879,6.43321,15.7479,5.81615C15.9931,5.42654,16.1079,4.99415,16.1079,4.54824C16.1079,3.07314,14.7242,1.86492,13.0368,1.86492C12.4548,1.86578,11.8823,2.01291,11.3719,2.29281C10.4787,2.79501,9.95,3.63278,9.95,4.54824L9.95,12.3584C9.95,13.9416,9.05793,15.3964,7.57978,16.2173C6.78558,16.6643,5.89238,16.8906,4.98344,16.8906C2.23636,16.8906,0,14.8559,0,12.3415C0,11.5611,0.230611,10.7954,0.64346,10.1063C1.27005,9.09965,2.27348,8.35422,3.48503,8.00064C3.82476,7.90718,4.05425,7.87115,4.27923,7.87115C4.81132,7.87115,5.2253,8.28215,5.2253,8.80125C5.22665,9.32186,4.80037,9.74194,4.28036,9.73248C4.24211,9.73248,4.16449,9.73248,4.07112,9.76851C3.25555,10.0106,2.61321,10.4779,2.25323,11.0736C2.00687,11.4643,1.89326,11.8956,1.89326,12.3426C1.89326,13.8177,3.27692,15.0248,4.98006,15.0248C5.56235,15.0245,6.13522,14.8777,6.64608,14.598C7.53815,14.0947,8.06687,13.2569,8.06687,12.3426L8.06687,4.55162C8.06687,2.96842,8.95894,1.51472,10.4371,0.692719C11.218,0.231273,12.1098,-0.00816063,13.0166,0.000212021Z" fill="#878787" fill-opacity="1"/></g></svg>