<svg xmlns="http://www.w3.org/2000/svg" xmlns:xlink="http://www.w3.org/1999/xlink" fill="none" version="1.1" width="40" height="40" viewBox="0 0 40 40"><defs><clipPath id="master_svg0_1346_085243"><rect x="0" y="0" width="40" height="40" rx="20"/></clipPath></defs><g clip-path="url(#master_svg0_1346_085243)"><rect x="0" y="0" width="40" height="40" rx="20" fill="#E0FFF8" fill-opacity="1"/><g><path d="M23.11159,14.000148415C25.0353,14.000148415,26.6,15.42367,26.6,17.18377C26.6,17.73079,26.4394,18.265990000000002,26.1496,18.74838C25.711,19.45305,25.0093,19.97485,24.1605,20.22314C23.98041,20.27964,23.793210000000002,20.31017,23.60454,20.31379C23.24052,20.32042,22.942140000000002,20.02636,22.943080000000002,19.661929999999998C22.943080000000002,19.29541,23.23444,19.01086,23.60454,19.01086C23.63052,19.01086,23.68486,19.01086,23.750999999999998,18.98564C24.3211,18.82799,24.7715,18.50325,25.0235,18.0713C25.1952,17.79858,25.2755,17.4959,25.2755,17.18377C25.2755,16.1512,24.3069,15.30544,23.12577,15.30544C22.71837,15.306049999999999,22.31764,15.409040000000001,21.960340000000002,15.60496C21.33511,15.95651,20.965,16.54295,20.965,17.18377L20.965,22.65086C20.965,23.7591,20.34055,24.7775,19.30584,25.3521C18.7499,25.665,18.124670000000002,25.8234,17.488410000000002,25.8234C15.56545,25.8234,14,24.3991,14,22.63904C14,22.0928,14.161427,21.55681,14.450422,21.07442C14.889032,20.36975,15.59144,19.84795,16.43952,19.600450000000002C16.67733,19.53503,16.83797,19.50981,16.99546,19.50981C17.36793,19.50981,17.65771,19.79751,17.65771,20.16087C17.65865,20.5253,17.36026,20.81936,16.99625,20.812730000000002C16.96948,20.812730000000002,16.91514,20.812730000000002,16.84978,20.83795C16.27888,21.00742,15.82925,21.33453,15.57726,21.7515C15.40481,22.02501,15.32528,22.326900000000002,15.32528,22.63983C15.32528,23.67239,16.29384,24.517400000000002,17.48604,24.517400000000002C17.89364,24.5171,18.29465,24.4144,18.65226,24.218600000000002C19.27671,23.866300000000003,19.646810000000002,23.27986,19.646810000000002,22.63983L19.646810000000002,17.18613C19.646810000000002,16.0779,20.271259999999998,15.0603,21.305970000000002,14.484903C21.85257,14.161891,22.476869999999998,13.99428756,23.11159,14.000148415Z" fill="#1CC29D" fill-opacity="1"/></g></g></svg>