<svg xmlns="http://www.w3.org/2000/svg" fill="none" viewBox="0 0 16 16">
  <defs>
    <clipPath id="a">
      <rect x="16" width="16" height="16" rx="4"/>
    </clipPath>
  </defs>
  <g transform="matrix(-1 0 0 1 32 0)" clip-path="url(#a)">
    <path d="M27.75 5.894 24 2.238l-3.75 3.656a.337.337 0 0 1-.246.106.337.337 0 0 1-.246-.106.337.337 0 0 1-.106-.246c0-.094.031-.172.094-.234l3.996-3.89A.35.35 0 0 1 24 1.417a.35.35 0 0 1 .258.105l3.996 3.88c.062.07.094.153.094.251s-.035.18-.106.246a.349.349 0 0 1-.492-.005ZM27.75 10.106 24 13.762l-3.75-3.656a.337.337 0 0 0-.246-.106.337.337 0 0 0-.246.106.337.337 0 0 0-.106.246c0 .094.031.172.094.234l3.996 3.89a.35.35 0 0 0 .258.106.35.35 0 0 0 .258-.105l3.996-3.88a.366.366 0 0 0 .094-.251.324.324 0 0 0-.106-.246.349.349 0 0 0-.492.005Z" fill="currentColor"/>
  </g>
</svg>