<svg xmlns="http://www.w3.org/2000/svg" xmlns:xlink="http://www.w3.org/1999/xlink" fill="none" version="1.1" width="16" height="16" viewBox="0 0 16 16"><g><path d="M8,0C10.1217,-2.53766e-16,12.1566,0.842855,13.6568,2.34314C15.1571,3.84344,16,5.87826,16,8C16,10.1217,15.1571,12.1566,13.6568,13.6568C12.1566,15.1571,10.1217,16,8,16C5.87826,16,3.84344,15.1571,2.34314,13.6568C0.842855,12.1566,6.34414e-16,10.1217,0,8C-2.53766e-16,5.87826,0.842855,3.84344,2.34314,2.34314C3.84344,0.842855,5.87826,1.77635e-15,8,0C8,0,8,0,8,0C8,0,8,0,8,0ZM8,14.8571C9.81863,14.8571,11.5627,14.1347,12.8487,12.8487C14.1347,11.5627,14.8571,9.81863,14.8571,8C14.8571,6.18137,14.1347,4.43723,12.8487,3.15127C11.5627,1.8653,9.81863,1.14286,8,1.14286C6.18137,1.14286,4.43723,1.8653,3.15127,3.15127C1.8653,4.43723,1.14286,6.18137,1.14286,8C1.14286,9.81863,1.8653,11.5627,3.15127,12.8487C4.43723,14.1347,6.18137,14.8571,8,14.8571C8,14.8571,8,14.8571,8,14.8571C8,14.8571,8,14.8571,8,14.8571ZM6.28571,5.14286C6.66666,5.14286,6.85714,5.33334,6.85714,5.71429C6.85714,5.71429,6.85714,10.2857,6.85714,10.2857C6.85714,10.6667,6.66666,10.8571,6.28571,10.8571C5.90477,10.8571,5.71429,10.6667,5.71429,10.2857C5.71429,10.2857,5.71429,5.71429,5.71429,5.71429C5.71429,5.33334,5.90477,5.14286,6.28571,5.14286C6.28571,5.14286,6.28571,5.14286,6.28571,5.14286ZM9.71429,5.14286C10.0952,5.14286,10.2857,5.33334,10.2857,5.71429C10.2857,5.71429,10.2857,10.2857,10.2857,10.2857C10.2857,10.6667,10.0952,10.8571,9.71429,10.8571C9.33334,10.8571,9.14286,10.6667,9.14286,10.2857C9.14286,10.2857,9.14286,5.71429,9.14286,5.71429C9.14286,5.33334,9.33334,5.14286,9.71429,5.14286C9.71429,5.14286,9.71429,5.14286,9.71429,5.14286Z" fill="#303133" fill-opacity="1"/></g></svg>