
<svg xmlns="http://www.w3.org/2000/svg" xmlns:xlink="http://www.w3.org/1999/xlink" fill="none" version="1.1" width="16" height="16" viewBox="0 0 16 16"><defs><clipPath id="master_svg0_863_20229"><rect x="0" y="0" width="16" height="16" rx="0"/></clipPath></defs><g clip-path="url(#master_svg0_863_20229)"><g><path d="M13.04375380859375,13.004296875C12.91865380859375,13.004296875,12.79375380859375,12.956596875,12.69835380859375,12.861196875C12.50755380859375,12.670396875,12.50755380859375,12.361296875,12.69835380859375,12.170496875C14.84215380859375,10.026736875,14.84215380859375,6.538196875,12.69835380859375,4.394266875C12.50755380859375,4.203596875000001,12.50755380859375,3.894226875,12.69835380859375,3.703556875C12.88915380859375,3.512726875,13.19825380859375,3.512726875,13.38905380859375,3.703556875C15.91385380859375,6.228336875,15.91385380859375,10.336426875,13.38905380859375,12.861196875C13.29755380859375,12.952996875,13.17325380859375,13.004496875,13.04375380859375,13.004296875ZM11.13866380859375,11.099266875C11.01360380859375,11.099266875,10.88872380859375,11.051556875,10.79330380859375,10.956146875C10.60247380859375,10.765316875,10.60247380859375,10.456266875,10.79330380859375,10.265436875C11.88665380859375,9.171736875,11.88665380859375,7.392536875,10.79330380859375,6.299326875C10.60247380859375,6.108496875,10.60247380859375,5.799286875,10.79330380859375,5.608626875C10.98413380859375,5.417786875,11.29315380859375,5.417786875,11.48405380859375,5.608626875C12.95805380859375,7.082846875,12.95805380859375,9.481916875,11.48405380859375,10.956306875C11.39245380859375,11.047976875,11.26820380859375,11.099416875,11.13866380859375,11.099266875ZM8.53247380859375,15.284496875C8.32177380859375,15.284496875,8.11189380859375,15.222196875,7.92496380859375,15.098396875L3.91359380859375,12.655696875L2.42243380859375,12.655696875C1.79408980859375,12.655696875,1.28265380859375,12.119896875,1.28265380859375,11.460896875L1.28265380859375,5.103856875C1.28265380859375,4.445066875,1.79408980859375,3.909046875,2.42243380859375,3.909046875L3.91359380859375,3.909046875L7.94027380859375,1.456402875C8.26983380859375,1.238378775,8.691873808593751,1.218839675,9.053513808593749,1.413416875C9.43582380859375,1.618902875,9.67339380859375,2.0264548749999998,9.67339380859375,2.4766668750000003L9.67339380859375,14.087796875C9.67339380859375,14.538096875,9.43582380859375,14.945896875,9.053513808593749,15.151196875C8.88775380859375,15.240296875,8.709953808593749,15.284496875,8.53247380859375,15.284496875ZM2.42243380859375,4.885996875C2.33418380859375,4.885996875,2.25960780859375,4.9856468750000005,2.25960780859375,5.103856875L2.25960780859375,11.460896875C2.25960780859375,11.578996875,2.33418380859375,11.678796875,2.42243380859375,11.678796875L4.05069380859375,11.678796875C4.140403808593749,11.678796875,4.228333808593749,11.703496875,4.304863808593749,11.750096875L8.44845380859375,14.273896875C8.49078380859375,14.301596875,8.53344380859375,14.321596875,8.59076380859375,14.290996875C8.61551380859375,14.277596875,8.69627380859375,14.223596875,8.69627380859375,14.087796875L8.69627380859375,2.4766668750000003C8.69627380859375,2.341036875,8.61551380859375,2.287136875,8.59076380859375,2.273787875C8.53361380859375,2.243176875,8.49094380859375,2.263041875,8.46375380859375,2.281116875L4.304863808593749,4.814846875000001C4.228333808593749,4.861416875,4.140403808593749,4.886166875,4.05069380859375,4.886166875L2.42243380859375,4.886166875L2.42243380859375,4.885996875ZM4.05069380859375,12.655696875C3.78089380859375,12.655696875,3.56221380859375,12.436896875,3.56221380859375,12.167196875L3.56221380859375,4.3975268750000005C3.56221380859375,4.127716875,3.78089380859375,3.909046875,4.05069380859375,3.909046875C4.32049380859375,3.909046875,4.5391638085937505,4.127716875,4.5391638085937505,4.3975268750000005L4.5391638085937505,12.167196875C4.5391638085937505,12.436896875,4.32049380859375,12.655696875,4.05069380859375,12.655696875Z" fill="#2F3447" fill-opacity="1"/></g></g></svg>
