<svg xmlns="http://www.w3.org/2000/svg" xmlns:xlink="http://www.w3.org/1999/xlink" fill="none" version="1.1" width="16" height="16" viewBox="0 0 16 16"><g><path d="M8,0C10.1218,-2.53765e-16,12.1566,0.842857,13.6568,2.34315C15.1572,3.84344,16,5.87827,16,8C16,10.1218,15.1572,12.1566,13.6568,13.6568C12.1566,15.1572,10.1218,16,8,16C5.87827,16,3.84344,15.1572,2.34315,13.6568C0.842857,12.1566,6.34413e-16,10.1218,0,8C-2.53765e-16,5.87827,0.842857,3.84344,2.34315,2.34315C3.84344,0.842857,5.87827,1.77636e-15,8,0C8,0,8,0,8,0C8,0,8,0,8,0ZM8,14.8571C9.81859,14.8571,11.5627,14.1347,12.8488,12.8488C14.1347,11.5627,14.8571,9.81859,14.8571,8C14.8571,6.18137,14.1347,4.43723,12.8488,3.15127C11.5627,1.8653,9.81859,1.14286,8,1.14286C6.18137,1.14286,4.43723,1.8653,3.15127,3.15127C1.8653,4.43723,1.14286,6.18137,1.14286,8C1.14286,9.81859,1.8653,11.5627,3.15127,12.8488C4.43723,14.1347,6.18137,14.8571,8,14.8571C8,14.8571,8,14.8571,8,14.8571C8,14.8571,8,14.8571,8,14.8571ZM7.14286,10.4354C7.14286,10.4354,10.7966,8,10.7966,8C10.7966,8,7.14286,5.56457,7.14286,5.56457C7.14286,5.56457,7.14286,10.4354,7.14286,10.4354C7.14286,10.4354,7.14286,10.4354,7.14286,10.4354ZM7.33257,4.31657C7.33257,4.31657,11.7874,7.28686,11.7874,7.28686C11.9048,7.36514,12.0011,7.47118,12.0677,7.59558C12.1342,7.72,12.1691,7.8589,12.1691,8C12.1691,8.1411,12.1342,8.28,12.0677,8.40442C12.0011,8.52884,11.9048,8.6349,11.7874,8.71314C11.7874,8.71314,7.33257,11.6834,7.33257,11.6834C7.20349,11.7694,7.05347,11.8189,6.89852,11.8264C6.74357,11.8338,6.58949,11.7992,6.45271,11.7259C6.31592,11.6527,6.20158,11.5438,6.12185,11.4107C6.04213,11.2776,6.00001,11.1254,6,10.9703C6,10.9703,6,5.02857,6,5.02857C6.00001,4.87344,6.04213,4.72121,6.12185,4.58814C6.20158,4.45506,6.31592,4.3461,6.45271,4.27291C6.58949,4.19971,6.74357,4.165,6.89852,4.17249C7.05347,4.17998,7.20349,4.22938,7.33257,4.31543C7.33257,4.31543,7.33257,4.31657,7.33257,4.31657C7.33257,4.31657,7.33257,4.31657,7.33257,4.31657Z" fill="#303133" fill-opacity="1"/></g></svg>