<svg xmlns="http://www.w3.org/2000/svg" fill="none" width="16" height="9.333">
  <path d="M7.703.112c.306.204.39.618.185.925L5.912 4h2.755a.667.667 0 0 1 .554 1.037l-2.666 4a.667.667 0 0 1-1.11-.74l1.976-2.964H4.667a.667.667 0 0 1-.555-1.036l2.667-4a.667.667 0 0 1 .924-.185ZM2 1.333A.667.667 0 0 0 1.333 2v5.333A.667.667 0 0 0 2 8h1.333a.667.667 0 1 1 0 1.333H2a2 2 0 0 1-2-2V2a2 2 0 0 1 2-2h2.127a.667.667 0 0 1 0 1.333H2ZM9.333.667C9.333.299 9.632 0 10 0h1.333a2 2 0 0 1 2 2v5.333a2 2 0 0 1-2 2H9.207a.667.667 0 1 1 0-1.333h2.126A.667.667 0 0 0 12 7.333V2a.667.667 0 0 0-.667-.667H10a.667.667 0 0 1-.667-.666Zm6 2.666c.368 0 .667.299.667.667v1.333a.667.667 0 0 1-1.333 0V4c0-.368.298-.667.666-.667Z" fill-rule="evenodd" fill="currentColor"/>
</svg>