<svg xmlns="http://www.w3.org/2000/svg" xmlns:xlink="http://www.w3.org/1999/xlink" fill="none" version="1.1" width="22" height="22.000001907348633" viewBox="0 0 22 22.000001907348633"><defs><clipPath id="master_svg0_3726_75995"><rect x="0" y="0" width="22" height="22.000001907348633" rx="0"/></clipPath></defs><g clip-path="url(#master_svg0_3726_75995)"><g><ellipse cx="11" cy="11" rx="10" ry="10" fill-opacity="0" stroke-opacity="1" stroke="#303133" fill="none" stroke-width="2"/></g><g><path d="M10.130690000000001,15.13052C10.130690000000001,15.60879,10.521989999999999,16.0001,11.00026,16.0001C11.47852,16.0001,11.86982,15.60878,11.86982,15.13052L11.86982,11.87415L15.13043,11.87415C15.6087,11.87415,16,11.48284,16,11.00458C16,10.526309999999999,15.6087,10.135,15.13043,10.135L11.86982,10.135L11.86982,6.869573C11.86982,6.391308,11.47852,6,11.00026,6C10.521989999999999,6,10.130690000000001,6.391308,10.130690000000001,6.869573L10.130690000000001,10.135L6.869565,10.135C6.391304,10.135,6,10.526309999999999,6,11.00458C6,11.48284,6.391304,11.87415,6.869565,11.87415L10.130690000000001,11.87415L10.130690000000001,15.13052Z" fill-rule="evenodd" fill="currentColor" fill-opacity="1"/></g></g></svg>