<svg xmlns="http://www.w3.org/2000/svg" fill="none" viewBox="0 0 16 16">
  <defs>
    <clipPath id="a">
      <rect width="16" height="16" rx="0"/>
    </clipPath>
  </defs>
  <g clip-path="url(#a)">
    <path d="M11 3.4v5.2a.4.4 0 0 1-.4.4H4.025C3.65 9 3.3 9.1 3 9.275V4.012C3 3.45 3.45 3 4.013 3H10.6c.22 0 .4.18.4.4M11 2H4.013C2.9 2 2 2.9 2 4.013v7.975C2 13.1 2.9 14 4.013 14H13a1 1 0 0 0 1-1V3.5a.5.5 0 0 0-1 0v9.1a.4.4 0 0 1-.4.4H4.025A1.03 1.03 0 0 1 3 11.975v-.95A1.03 1.03 0 0 1 4.025 10H11a1 1 0 0 0 1-1V3a1 1 0 0 0-1-1m.5 9h-7a.5.5 0 0 0 0 1h7a.5.5 0 0 0 0-1" fill="currentColor"/>
  </g>
</svg>