<svg xmlns="http://www.w3.org/2000/svg" viewBox="0 0 36 36" fill="none">
  <defs>
    <clipPath id="a">
      <rect width="36" height="36" rx="0"/>
    </clipPath>
    <clipPath id="b">
      <rect width="12.857" height="12.857" x="11.571" y="15.571" rx="0"/>
    </clipPath>
  </defs>
  <g clip-path="url(#a)">
    <path fill="#FFE282" d="M0 28.286a4 4 0 0 0 4 4h23.5a4 4 0 0 0 4-4V11.214a4 4 0 0 0-4-4H16.877a4 4 0 0 1-2.561-.927l-1.632-1.36A4 4 0 0 0 10.124 4H4a4 4 0 0 0-4 4v20.286Z"/>
    <path fill="#FFB31A" d="M.796 28.645a3 3 0 0 0 2.931 3.64H28.28a4 4 0 0 0 3.908-3.145l3.015-13.785a3 3 0 0 0-2.93-3.64H7.72a4 4 0 0 0-3.908 3.144L.796 28.645Z"/>
    <g clip-path="url(#b)">
      <path fill="#FFF" d="M18.134 16.642a.804.804 0 0 1 .536 1.402v.74h2.008c.851 0 1.555.664 1.605 1.513l.003.095v4.285c0 .851-.664 1.555-1.513 1.605l-.095.003h-5.357a1.607 1.607 0 0 1-1.604-1.513l-.003-.095v-4.285c0-.851.663-1.555 1.513-1.605l.094-.002h2.277v-.74a.804.804 0 0 1 .536-1.403Zm.67 6.428h-1.608a.536.536 0 0 0-.062 1.068l.062.004h1.607a.536.536 0 0 0 0-1.072Zm-2.277-2.143a.804.804 0 1 0 0 1.608.804.804 0 0 0 0-1.608Zm3.214 0a.804.804 0 1 0 0 1.608.804.804 0 0 0 0-1.608Zm-6.83 0c.271 0 .5.204.532.473l.003.063v2.143a.536.536 0 0 1-1.067.063l-.004-.063v-2.143c0-.296.24-.536.536-.536Zm10.178 0c.272 0 .5.204.532.473l.004.063v2.143a.536.536 0 0 1-1.068.063l-.004-.063v-2.143c0-.296.24-.536.536-.536Z"/>
    </g>
  </g>
</svg>