<svg xmlns="http://www.w3.org/2000/svg" fill="none" viewBox="0 0 32 32">
  <defs>
    <clipPath id="a">
      <rect width="32" height="32" rx="0"/>
    </clipPath>
  </defs>
  <g clip-path="url(#a)">
    <path d="M22.76 26.438H9.24c-.933 0-1.69.779-1.69 1.74s.756 1.74 1.69 1.74H22.76c.934 0 1.69-.779 1.69-1.74s-.756-1.74-1.69-1.74Zm1.691-24.36H7.549c-1.867 0-3.381 1.559-3.381 3.48v15.66c0 1.922 1.514 3.48 3.38 3.48h16.903c1.867 0 3.38-1.558 3.38-3.48V5.558c0-1.921-1.513-3.48-3.38-3.48Zm-14.02 5.568a2.088 2.088 0 1 1 0 4.176 2.088 2.088 0 0 1 0-4.176Zm11.833 11.136H9.736a1.392 1.392 0 1 1 0-2.784h12.528a1.392 1.392 0 1 1 0 2.784Zm-.696-6.96a2.088 2.088 0 1 1 0-4.176 2.088 2.088 0 0 1 0 4.176Z" fill="currentColor"/>
  </g>
</svg>