<svg xmlns="http://www.w3.org/2000/svg" xmlns:xlink="http://www.w3.org/1999/xlink" fill="none" version="1.1" width="16" height="16" viewBox="0 0 16 16"><g><path d="M8,0C12.418,0,16,3.582,16,8C16,12.418,12.418,16,8,16C3.582,16,0,12.418,0,8C0,3.582,3.582,0,8,0ZM8,4C7.63181,4,7.33333,4.29848,7.33333,4.66667L7.33333,8.66667L7.338,8.74467C7.35933,8.92591,7.45403,9.09048,7.6,9.2L10.2667,11.2L10.3367,11.246C10.6285,11.4122,10.9985,11.3354,11.2,11.0667L11.246,10.9967C11.4122,10.7048,11.3354,10.3348,11.0667,10.1333L8.666,8.33333L8.66667,4.66667L8.662,4.58867C8.62241,4.25296,8.33793,4,8,4Z" fill="#7C5CFC" fill-opacity="1"/></g></svg>