<svg xmlns="http://www.w3.org/2000/svg" xmlns:xlink="http://www.w3.org/1999/xlink" fill="none" version="1.1" width="16" height="16" viewBox="0 0 16 16"><defs><clipPath id="master_svg0_4796_70756"><rect x="0" y="0" width="16" height="16" rx="0"/></clipPath></defs><g clip-path="url(#master_svg0_4796_70756)"><g><path d="M15.3719,4.88597C14.9684,3.93315,14.3928,3.0782,13.6573,2.34269C12.9218,1.60718,12.0669,1.03165,11.114,0.628052C10.1278,0.210151,9.07939,0,8,0C6.92062,0,5.87224,0.212532,4.88597,0.628052C3.93315,1.03165,3.0782,1.60716,2.34269,2.34269C1.60718,3.0782,1.03165,3.93315,0.628052,4.88597C0.210151,5.87224,0,6.92062,0,8C0,9.07938,0.212532,10.1278,0.628052,11.114C1.03165,12.0669,1.60716,12.9218,2.34269,13.6573C3.0782,14.3928,3.93315,14.9684,4.88597,15.3719C5.87224,15.7898,6.92062,16,8,16C9.07939,16,10.1278,15.7875,11.114,15.3719C12.0669,14.9684,12.9218,14.3928,13.6573,13.6573C14.3928,12.9218,14.9684,12.0669,15.3719,11.114C15.7898,10.1278,16,9.07939,16,8C16,6.92062,15.7898,5.87224,15.3719,4.88597ZM11.3457,10.6293C11.5677,10.8513,11.5677,11.2167,11.3457,11.4388C11.1236,11.6609,10.7582,11.6609,10.5361,11.4388L7.92836,8.83346L5.323,11.4412C5.10092,11.6633,4.73554,11.6633,4.51344,11.4412C4.29135,11.2191,4.29137,10.8538,4.51344,10.6317L7.1188,8.02631L4.51104,5.41855C4.28897,5.19647,4.28897,4.83109,4.51104,4.60899C4.73312,4.38692,5.0985,4.38692,5.3206,4.60899L7.92596,7.21435L10.5313,4.60899C10.7534,4.38692,11.1188,4.38692,11.3409,4.60899C11.563,4.83107,11.5629,5.19645,11.3409,5.41855L8.74027,8.02391L11.3456,10.6293L11.3457,10.6293Z" fill="#EA0000" fill-opacity="1"/></g></g></svg>