<svg xmlns="http://www.w3.org/2000/svg" fill="none" width="14" height="14">
  <path d="M7.335 0h.404A6.636 6.636 0 0 1 14 6.261V6.65a6.65 6.65 0 0 1-6.65 6.65h-.016a6.602 6.602 0 0 1-2.69-.577L.92 13.964a.699.699 0 0 1-.885-.885l1.241-3.723A6.65 6.65 0 0 1 7.335 0Zm.346 1.4h-.346a5.191 5.191 0 0 0-2.33.555A5.25 5.25 0 0 0 2.1 6.65a5.192 5.192 0 0 0 .555 2.344.7.7 0 0 1 .04.537l-.888 2.66 2.66-.888a.701.701 0 0 1 .537.04 5.19 5.19 0 0 0 2.33.557h.015A5.25 5.25 0 0 0 12.6 6.65v-.33A5.237 5.237 0 0 0 7.68 1.4Z" fill="currentColor"/>
</svg>