<svg xmlns="http://www.w3.org/2000/svg" viewBox="0 0 24 24" fill="none">
  <path fill="currentColor" fill-rule="evenodd" d="M12 16a4 4 0 0 1-4-4V5a4 4 0 1 1 8 0v7a4 4 0 0 1-4 4Zm-1.697-2.303Q9.6 12.994 9.6 12V5q0-.994.703-1.697Q11.006 2.6 12 2.6q.994 0 1.697.703.703.703.703 1.697v7q0 .994-.703 1.697-.703.703-1.697.703-.994 0-1.697-.703Z"/>
  <path fill="currentColor" fill-rule="evenodd" d="M5 11.2a.8.8 0 0 0-.8.8q0 3.23 2.285 5.515Q8.769 19.8 12 19.8q3.23 0 5.515-2.285Q19.8 15.231 19.8 12a.8.8 0 0 0-1.6 0q0 2.568-1.816 4.384Q14.568 18.2 12 18.2q-2.568 0-4.384-1.816Q5.8 14.568 5.8 12a.8.8 0 0 0-.8-.8Z"/>
  <path fill="currentColor" fill-rule="evenodd" d="M11.2 19a.8.8 0 1 1 1.6 0v3a.8.8 0 1 1-1.6 0v-3Z"/>
</svg>