<svg xmlns="http://www.w3.org/2000/svg" xmlns:xlink="http://www.w3.org/1999/xlink" fill="none" version="1.1" width="24" height="24" viewBox="0 0 24 24"><g style="mix-blend-mode:passthrough"><g style="mix-blend-mode:passthrough"><g style="opacity:0;mix-blend-mode:passthrough"></g><g style="mix-blend-mode:passthrough"><path d="M18.46991796875,16.83C18.46991796875,16.83,18.85991796875,19.99,18.85991796875,19.99C18.95991796875,20.82,18.069917968749998,21.4,17.35991796875,20.97C17.35991796875,20.97,13.89989796875,18.91,13.89989796875,18.91C13.65989796875,18.77,13.59989796875,18.47,13.72989796875,18.23C14.22989796875,17.310000000000002,14.49989796875,16.27,14.49989796875,15.23C14.49989796875,11.57,11.359897968750001,8.59,7.49989796875,8.59C6.70989796875,8.59,5.9398979687499995,8.71,5.21989396875,8.95C4.84989396875,9.07,4.48989376875,8.73,4.57989376875,8.35C5.48989396875,4.71,8.98989796875,2,13.16989796875,2C18.04991796875,2,21.99991796875,5.6899999999999995,21.99991796875,10.24C21.99991796875,12.94,20.60991796875,15.33,18.46991796875,16.83C18.46991796875,16.83,18.46991796875,16.83,18.46991796875,16.83Z" fill="#FFFFFF" fill-opacity="1"/></g><g style="mix-blend-mode:passthrough"><path d="M13,15.22984375C13,16.41984375,12.56,17.51984375,11.82,18.38984375C10.83,19.58984375,9.26,20.35984375,7.5,20.35984375C7.5,20.35984375,4.890000000000001,21.90984375,4.890000000000001,21.90984375C4.45,22.17984375,3.8899999999999997,21.80984375,3.95,21.29984375C3.95,21.29984375,4.2,19.329843750000002,4.2,19.329843750000002C2.86,18.399843750000002,2,16.90984375,2,15.22984375C2,13.469843749999999,2.94,11.91984375,4.38,10.99984375C5.27,10.41984375,6.34,10.08984375,7.5,10.08984375C10.54,10.08984375,13,12.38984375,13,15.22984375C13,15.22984375,13,15.22984375,13,15.22984375Z" fill="#fff" fill-opacity="1"/></g></g></g></svg>
