<svg xmlns="http://www.w3.org/2000/svg" viewBox="0 0 24 24" fill="none">
  <path fill="currentColor" fill-rule="evenodd" d="M23 12c0 6.075-4.925 11-11 11S1 18.075 1 12 5.925 1 12 1s11 4.925 11 11Zm-1.6 0q0-1.793-.66-3.46-.717-1.81-2.093-3.187Q17.27 3.977 15.46 3.26 13.793 2.6 12 2.6t-3.46.66q-1.81.717-3.187 2.093Q3.977 6.73 3.26 8.54 2.6 10.207 2.6 12t.66 3.46q.717 1.81 2.093 3.187Q6.73 20.023 8.54 20.74q1.667.66 3.46.66t3.46-.66q1.81-.717 3.187-2.093 1.376-1.377 2.093-3.187.66-1.667.66-3.46Z"/>
  <path fill="currentColor" d="M9.4 8.2a1.2 1.2 0 1 1-2.4 0 1.2 1.2 0 0 1 2.4 0Zm4 0a1.2 1.2 0 1 1-2.4 0 1.2 1.2 0 0 1 2.4 0Zm4 0a1.2 1.2 0 1 1-2.4 0 1.2 1.2 0 0 1 2.4 0ZM9.4 12.2a1.2 1.2 0 1 1-2.4 0 1.2 1.2 0 0 1 2.4 0Zm4 0a1.2 1.2 0 1 1-2.4 0 1.2 1.2 0 0 1 2.4 0Zm4 0a1.2 1.2 0 1 1-2.4 0 1.2 1.2 0 0 1 2.4 0ZM8 16.4a.9.9 0 0 0 .9.9h6.2a.9.9 0 1 0 0-1.8H8.9a.9.9 0 0 0-.9.9Z"/>
</svg>