<svg xmlns="http://www.w3.org/2000/svg" xmlns:xlink="http://www.w3.org/1999/xlink" fill="none" version="1.1" width="13.96943187713623" height="12.629890441894531" viewBox="0 0 13.96943187713623 12.629890441894531"><g><path d="M5.19236,6.69098C5.19236,7.04609,5.48023,7.33395,5.83533,7.33395C6.19043,7.33395,6.4783,7.04608,6.4783,6.69098C6.4783,6.33588,6.19043,6.04801,5.83533,6.04801C5.48023,6.04801,5.19236,6.33588,5.19236,6.69098ZM2.3822,6.69098C2.38196,7.04626,2.6699,7.3344,3.02517,7.3344C3.38045,7.3344,3.66839,7.04626,3.66814,6.69098C3.66814,6.33588,3.38028,6.04801,3.02517,6.04801C2.67007,6.04801,2.3822,6.33588,2.3822,6.69098ZM8.00252,6.69098C8.00252,7.04608,8.29038,7.33395,8.64549,7.33395C9.00059,7.33395,9.28846,7.04608,9.28846,6.69098C9.28846,6.33588,9.00059,6.04801,8.64549,6.04801C8.29038,6.04801,8.00252,6.33588,8.00252,6.69098ZM10.6658,9.91583C10.6631,9.91583,10.6491,9.9263,10.6175,9.95989L10.6225,9.95676C10.632,9.94848,10.6419,9.94036,10.6506,9.93176C10.6558,9.92661,10.6608,9.92114,10.6658,9.91583ZM1.0533,3.42395L1.0483,3.42723C1.03877,3.43551,1.02877,3.44286,1.02017,3.45208C1.01486,3.45723,1.00986,3.4627,1.00455,3.4677C1.00767,3.46817,1.02158,3.45739,1.0533,3.42395ZM3.35267,0.998483L3.34767,1.00161C3.33814,1.00989,3.3283,1.01723,3.31955,1.02645C3.31424,1.03161,3.30939,1.03708,3.30392,1.04208C3.30705,1.04286,3.32111,1.03208,3.35267,0.998483ZM13.9089,0.842389C13.7299,0.354421,13.3081,0.047233,12.7928,0.00504553C12.6788,-0.00432944,12.5619,0.00223303,12.4477,0.00223303L3.57689,0.00223303C3.41596,0.00223303,3.25267,0.0233268,3.10299,0.083483C2.63127,0.273014,2.30736,0.69567,2.30033,1.21348C2.29549,1.58223,2.30033,1.95145,2.30033,2.32036L2.30033,2.42755L1.36767,2.42755C1.20424,2.42755,1.04158,2.43083,0.883299,2.47958C0.359861,2.64036,0.00236118,3.11317,0.000486135,3.66145C-0.00060761,4.04801,0.000486135,4.43458,0.000486135,4.82114L0.000486135,9.56458C0.000486135,9.7438,-0.00388885,9.92395,0.0540799,10.0972C0.17908,10.473,0.456424,10.7424,0.822517,10.8836C0.980799,10.9447,1.15236,10.9568,1.32064,10.9568L2.69924,10.9568C2.96205,11.3146,3.22455,11.6725,3.48267,12.0336L3.7433,12.398C3.84189,12.5358,3.9708,12.6299,4.14767,12.6299C4.32455,12.6299,4.45345,12.5361,4.55205,12.398C4.87267,11.9496,5.19564,11.5046,5.5258,11.0633C5.54908,11.0321,5.57267,11.0008,5.59549,10.9696L6.9922,10.9566C7.39127,10.9529,7.79049,10.9566,8.18955,10.9566L10.3997,10.9566C10.6141,10.9568,10.8256,10.9068,11.0172,10.8107C11.4338,10.6044,11.6697,10.1583,11.6697,9.7052L11.6697,8.53067L12.2791,8.53067C12.4275,8.53067,12.576,8.53239,12.7245,8.53067C13.1708,8.52583,13.6241,8.28536,13.8288,7.87755C13.9228,7.69017,13.971,7.48313,13.9694,7.27348L13.9694,1.27583C13.9692,1.12989,13.9594,0.980358,13.9089,0.842389ZM10.6341,9.94926C10.6303,9.95192,10.6263,9.95426,10.6225,9.95676C10.6164,9.96162,10.6106,9.96684,10.6052,9.97239L10.6175,9.95911C10.5985,9.97114,10.5789,9.98223,10.5589,9.99255C10.5295,10.0026,10.4996,10.011,10.4692,10.0177C10.3442,10.0261,10.2178,10.019,10.0942,10.019L7.33361,10.019C6.97767,10.019,6.62189,10.0229,6.26611,10.0261L5.41533,10.0341L5.36361,10.0341C5.18314,10.0444,5.0647,10.1261,4.95924,10.2661L4.95658,10.2696C4.94845,10.2802,4.94095,10.291,4.93267,10.3016L4.69486,10.6193Q4.41845,10.9885,4.14799,11.3613Q3.86314,10.9666,3.57533,10.5741L3.33814,10.2521Q3.31752,10.2236,3.29595,10.1982C3.2648,10.1582,3.22739,10.1234,3.18517,10.0954L3.1783,10.0907L3.17377,10.0879C3.138,10.0651,3.09902,10.0479,3.05814,10.0368C3.05017,10.0346,3.04252,10.0327,3.03377,10.031C3.00093,10.0237,2.9674,10.0201,2.93377,10.02L1.41392,10.02C1.34267,10.02,1.27064,10.0222,1.19939,10.0183C1.16968,10.0118,1.14031,10.0037,1.11142,9.99411Q1.07924,9.97739,1.04892,9.95786C1.03924,9.94942,1.02924,9.94223,1.02033,9.93255C1.01142,9.92286,1.00158,9.91317,0.992517,9.90333C0.980017,9.88301,0.968142,9.8627,0.956892,9.84208C0.950173,9.82114,0.944236,9.8002,0.939236,9.7788C0.936267,9.72036,0.93783,9.6613,0.93783,9.60286L0.93783,4.36145C0.93783,4.12192,0.935486,3.88239,0.93783,3.6427C0.93783,3.63036,0.93783,3.61817,0.93908,3.60598C0.943924,3.58442,0.950017,3.56333,0.956736,3.54239C0.96783,3.52176,0.979705,3.50176,0.991736,3.4813C0.996111,3.47661,1.00064,3.47192,1.00502,3.46708C1.00142,3.46708,1.01642,3.44723,1.03627,3.43364L1.04799,3.42629C1.05408,3.42098,1.06002,3.41551,1.06533,3.40989L1.05299,3.42301C1.07205,3.41098,1.09158,3.39989,1.11142,3.38958C1.14031,3.38001,1.16968,3.37193,1.19939,3.36536C1.28908,3.35989,1.38017,3.36364,1.46939,3.36364L9.32346,3.36364C9.68814,3.36364,10.0528,3.36192,10.4172,3.36364C10.435,3.36364,10.4528,3.36442,10.4706,3.36536C10.5005,3.37192,10.5299,3.38006,10.5589,3.38973C10.5803,3.40083,10.6013,3.4127,10.6214,3.42583C10.631,3.43426,10.6411,3.44239,10.65,3.45114C10.6589,3.45989,10.6686,3.47051,10.6777,3.48036C10.6902,3.50067,10.7022,3.52098,10.7135,3.54176C10.72,3.56254,10.7261,3.58348,10.731,3.60426C10.7339,3.66286,10.7324,3.72176,10.7324,3.7802L10.7324,9.02176C10.7324,9.26114,10.7349,9.50083,10.7324,9.74051C10.7324,9.75286,10.7324,9.76505,10.7313,9.77739C10.7263,9.79879,10.7203,9.82004,10.7136,9.84098C10.7024,9.86145,10.6906,9.88161,10.6785,9.90192C10.6741,9.90676,10.6697,9.91145,10.6652,9.91614C10.6694,9.91645,10.6544,9.93567,10.6341,9.94926ZM12.9336,7.52395C12.9297,7.52661,12.9258,7.52895,12.9219,7.53145C12.9158,7.53635,12.91,7.54156,12.9045,7.54708L12.9169,7.5338C12.8978,7.54583,12.8783,7.55692,12.8585,7.56723C12.828,7.57743,12.7969,7.58594,12.7655,7.5927C12.5877,7.60645,12.4039,7.5927,12.2272,7.5927L11.6697,7.5927L11.6697,3.7802C11.6697,3.52926,11.6428,3.28958,11.5203,3.06145C11.3016,2.65348,10.8522,2.42723,10.3994,2.4263L3.23705,2.4263L3.23705,1.35739C3.23705,1.29848,3.23564,1.23911,3.23861,1.1802C3.24353,1.15914,3.24932,1.13829,3.25595,1.1177C3.2672,1.09708,3.27892,1.07708,3.29111,1.05661L3.30439,1.04239C3.3008,1.04239,3.3158,1.02255,3.33564,1.00895L3.34736,1.00161C3.35344,0.99646,3.35923,0.990983,3.3647,0.985202L3.35236,0.998484C3.37142,0.986452,3.39095,0.975202,3.41095,0.96489C3.43985,0.955322,3.46921,0.947239,3.49892,0.940671C3.58845,0.935202,3.6797,0.938953,3.76892,0.938953L11.623,0.938953C11.9877,0.938953,12.3524,0.937234,12.7167,0.938953C12.7345,0.938953,12.7524,0.938953,12.77,0.940671C12.7999,0.947218,12.8294,0.955355,12.8585,0.965046C12.8799,0.97614,12.9008,0.988015,12.921,1.00114C12.9306,1.00958,12.9406,1.0177,12.9495,1.02645C12.9585,1.0352,12.9683,1.04583,12.9774,1.05583C12.9899,1.07598,13.0017,1.0963,13.013,1.11708C13.0197,1.13786,13.0256,1.15895,13.0306,1.17958C13.0336,1.23817,13.032,1.29708,13.032,1.35551L13.032,6.59583C13.032,6.8352,13.0344,7.07489,13.032,7.31458C13.032,7.32692,13.032,7.33926,13.0308,7.35145C13.026,7.37286,13.0199,7.39411,13.0131,7.41505C13.002,7.43551,12.9902,7.45567,12.9781,7.47598C12.9738,7.48083,12.9692,7.48551,12.9649,7.4902C12.9692,7.49114,12.9536,7.51036,12.9336,7.52395ZM12.9653,7.49051C12.9625,7.49051,12.9485,7.50098,12.9169,7.53458L12.9219,7.53145C12.9314,7.52317,12.9414,7.51583,12.95,7.50645C12.9553,7.50208,12.9603,7.49598,12.9653,7.49051Z" fill="#596780" fill-opacity="1"/></g></svg>