<svg xmlns="http://www.w3.org/2000/svg" fill="none" viewBox="0 0 24 24">
  <defs>
    <clipPath id="a">
      <rect width="24" height="24" rx="0"/>
    </clipPath>
  </defs>
  <g clip-path="url(#a)">
    <path d="M13.077 19.046v1.185a1.077 1.077 0 0 1-2.154 0v-1.185c-2.837-.378-5.093-2.5-5.746-5.2-.148-.61.356-1.154.985-1.154.562 0 1.02.45 1.197.982C7.99 15.575 9.876 17 12 17c2.143 0 3.963-1.45 4.624-3.375.177-.515.628-.933 1.173-.933.644 0 1.156.55.987 1.172-.73 2.69-2.97 4.805-5.707 5.182ZM12 3a2.666 2.666 0 0 1 2.692 2.692v6.462A2.666 2.666 0 0 1 12 14.846a2.666 2.666 0 0 1-2.692-2.692V5.692A2.666 2.666 0 0 1 12 3Z" fill="currentColor"/>
  </g>
</svg>