<svg xmlns="http://www.w3.org/2000/svg" viewBox="0 0 24 24" fill="none">
  <defs>
    <clipPath id="a">
      <rect width="24" height="24" rx="0"/>
    </clipPath>
  </defs>
  <g fill="currentColor" clip-path="url(#a)">
    <path d="M19.966 21.83c-.13-.923-.994-7.107-1.134-8.095-.221-1.571-1.578-1.993-2.352-1.993l-2.398.004v-7.56A2.196 2.196 0 0 0 11.852 2a1.993 1.993 0 0 0-1.51.69 2.3 2.3 0 0 0-.537 1.534v7.53l-2.398.003c-.898.039-2.61.62-2.66 2.534-.017.68-.494 5.316-.744 7.674a.594.594 0 0 0 .589.656h14.804a.593.593 0 0 0 .57-.79ZM10.989 4.218c-.003-.297.085-.564.248-.753a.814.814 0 0 1 .627-.28c.552.005 1.029.45 1.035 1.008v7.557l-1.91.003V4.217Zm4.789 17.22.182-3.271a.592.592 0 0 0-1.182-.066l-.186 3.337h-2.239l.187-3.27a.592.592 0 0 0-1.182-.068l-.19 3.338h-2.12l.18-3.272a.592.592 0 0 0-1.182-.065l-.182 3.338H5.249c.183-1.744.663-6.378.682-7.118.032-1.263 1.378-1.373 1.503-1.38l9.055-.014c.172 0 1.04.046 1.171.972l1.056 7.54h-2.938Z"/>
    <path fill-rule="evenodd" d="M19.404 22.671h.004q.332 0 .524-.272.19-.27.083-.58l-.567-4.052-.566-4.039q-.152-1.074-.991-1.62-.638-.416-1.411-.416l-2.348.004v-7.51q-.01-.938-.668-1.589-.664-.655-1.612-.647-.946.01-1.548.707-.559.647-.549 1.567v7.48l-2.349.003q-.928.04-1.676.573-1 .712-1.032 2.01-.022.854-.744 7.67-.03.284.16.497.192.214.478.214H19.404Zm.007-.1q.278-.001.439-.23.162-.23.069-.494l-.002-.004-.568-4.062-.566-4.039q-.146-1.029-.947-1.55-.613-.4-1.356-.4l-2.448.004v-7.61q-.009-.895-.639-1.518-.633-.626-1.54-.618-.9.01-1.473.673-.534.617-.525 1.5v7.582l-2.446.002q-.898.039-1.621.554-.959.683-.99 1.931-.022.858-.745 7.678-.025.24.136.42.162.181.403.181H19.41ZM10.939 4.217v7.585l2.01-.004V4.191q-.005-.436-.328-.747-.32-.306-.758-.31-.41.004-.664.297-.265.308-.26.786Zm.1 7.485 1.81-.003V4.192q-.004-.394-.298-.676-.29-.279-.686-.282-.366.003-.59.263-.241.279-.236.72v7.485Zm4.739 9.736-.05-.003.182-3.272q.012-.224-.137-.392-.15-.167-.374-.18-.226-.01-.393.14-.166.148-.178.371l-.188 3.386H12.3l.19-3.325q.013-.224-.137-.391-.15-.167-.372-.18-.227-.009-.394.139-.166.148-.18.371l-.192 3.386H8.996l.182-3.326q.012-.224-.138-.39-.15-.168-.374-.18-.224-.011-.391.138-.167.15-.18.373l-.184 3.385H5.194l.006-.055q.66-6.302.68-7.115.022-.825.744-1.203.382-.2.807-.225h.002l9.056-.014q.335 0 .624.144.51.255.597.871l.566 4.04.497 3.557h-2.995v-.05Zm.053-.05.179-3.22q.014-.265-.163-.463-.177-.198-.443-.213-.268-.012-.464.164-.197.176-.212.441l-.183 3.29h-2.139l.184-3.218q.015-.265-.162-.464-.177-.198-.443-.213-.268-.01-.464.164-.198.176-.213.44l-.188 3.291H9.102l.175-3.22q.015-.265-.163-.463-.177-.197-.443-.212-.265-.013-.463.163-.198.177-.212.443l-.18 3.29H5.305q.655-6.254.676-7.067.02-.767.69-1.117.362-.19.765-.214l9.053-.014q.311 0 .58.133.462.232.542.796l.566 4.04.481 3.443h-2.827Z"/>
  </g>
</svg>