<svg xmlns="http://www.w3.org/2000/svg" viewBox="0 0 28 28" fill="none">
  <defs>
    <clipPath id="a">
      <rect width="28" height="28" rx="0"/>
    </clipPath>
  </defs>
  <g clip-path="url(#a)">
    <path fill="currentColor" fill-rule="evenodd" d="M17.3 19.649h3c1.467 0 2.667-1.2 2.7-2.667V8.666C23 7.2 21.8 6 20.334 6H7.666A2.674 2.674 0 0 0 5 8.666v8.316a2.674 2.674 0 0 0 2.665 2.667h3a.303.303 0 0 1 .235.1l1.666 1.667c.8.766 2.068.766 2.834 0l1.667-1.667a.303.303 0 0 1 .233-.1ZM11 12.41c0-.566-.435-1-1-1-.568 0-1 .434-1.001 1v.667c0 .566.433 1 1 1 .566 0 1-.434 1-1v-.667Zm4 0c0-.566-.434-1-1-1-.566 0-1 .434-1 1v.667c0 .566.434 1 1 1 .566 0 1-.434 1-1v-.667Zm4.001 0c0-.566-.434-1-1-1-.567 0-1 .434-1 1v.667c0 .566.433 1 1 1 .566 0 1-.434 1-1v-.667Z"/>
  </g>
</svg>