<svg xmlns="http://www.w3.org/2000/svg" xmlns:xlink="http://www.w3.org/1999/xlink" fill="none" version="1.1" width="24.03173828125" height="24.03125" viewBox="0 0 24.03173828125 24.03125"><g style="mix-blend-mode:passthrough"><g><path d="M17.1428,15.3748L19.2628,13.2528L16.0818,10.07079L19.6168,6.53579L17.4968,4.41479L13.9608,7.94979L10.77878,4.76779L8.65679,6.88879L17.1428,15.3748ZM13.9608,5.12179L16.788800000000002,2.292786C17.179299999999998,1.9024045,17.8123,1.9024045,18.2028,2.292786L21.7388,5.82879C22.1292,6.21929,22.1292,6.85229,21.7388,7.24279L18.9098,10.07079L21.3848,12.5458C21.7758,12.9364,21.7758,13.5702,21.3848,13.9608L13.6068,21.7388C13.2163,22.1292,12.5833,22.1292,12.1928,21.7388L2.292786,11.83879C1.9024045,11.44829,1.9024045,10.81529,2.292786,10.42479L10.07079,2.646786C10.4614,2.255738,11.09517,2.255738,11.48579,2.646786L13.9608,5.12179Z" fill="#FFFFFF" fill-opacity="1"/><path d="M11.83934,2.293233L14.3143,4.76823L13.9608,5.12179L13.6072,4.7683L16.435200000000002,1.9392953Q16.8746,1.5,17.4958,1.5Q18.117,1.5,18.5563,1.9391786L22.0923,5.47523Q22.5316,5.9146,22.5316,6.53579Q22.5316,7.15697,22.0924,7.59629L19.2633,10.4244L18.9098,10.07079L19.2633,9.71723L21.7383,12.1922Q22.1781,12.6315,22.1781,13.2533Q22.1781,13.8751,21.7381,14.3145L13.9603,22.0923Q13.521,22.5316,12.8998,22.5316Q12.2786,22.5316,11.83929,22.0924L1.9392327,12.1923Q1.5,11.75297,1.5,11.13179Q1.5,10.5106,1.9391786,10.07129L9.71723,2.293233Q10.15648,1.8535,10.77829,1.8535Q11.40009,1.8535,11.83954,2.293429L11.83934,2.293233ZM11.13204,3.00014Q10.98556,2.8535,10.77829,2.8535Q10.57102,2.8535,10.42434,3.00034L2.646394,10.77829Q2.5,10.92472,2.5,11.13179Q2.5,11.33885,2.64634,11.48523L12.5463,21.3852Q12.6927,21.5316,12.8998,21.5316Q13.1068,21.5316,13.2532,21.3852L21.0314,13.607Q21.1781,13.4606,21.1781,13.2533Q21.1781,13.046,21.0312,12.8993L18.2026,10.07072L21.3852,6.88929Q21.5316,6.74285,21.5316,6.53579Q21.5316,6.32872,21.3852,6.18234L17.8493,2.646394Q17.7028,2.5,17.4958,2.5Q17.2887,2.5,17.142400000000002,2.646277L13.9608,5.82896L11.13223,3.00034L11.13204,3.00014ZM9.01034,6.53523L17.496299999999998,15.0212L17.1428,15.3748L16.789099999999998,15.0214L18.9091,12.8994L19.2628,13.2528L18.9092,13.6063L15.3747,10.07073L19.2632,6.18223L19.6168,6.53579L19.2631,6.88926L17.1431,4.76826L17.4968,4.41479L17.8503,4.76839L13.9607,8.656839999999999L10.42523,5.12134L10.77878,4.76779L11.13225,5.1214200000000005L9.010259999999999,7.24242L8.65679,6.88879L9.01034,6.53523ZM7.9496,6.8887L10.77887,4.06076L14.3143,7.59623L13.9608,7.94979L13.6073,7.59618L17.4969,3.70765L20.3238,6.53587L16.435299999999998,10.42434L16.0818,10.07079L16.4354,9.71729L19.9697,13.2527L17.143,16.0821L8.30323,7.24234L7.9496,6.8887Z" fill="#000000" fill-opacity="1"/></g></g></svg>