
<svg xmlns="http://www.w3.org/2000/svg" xmlns:xlink="http://www.w3.org/1999/xlink" fill="currentColor" version="1.1" width="14.018244937062263" height="14.043226435780525" viewBox="0 0 14.018244937062263 14.043226435780525"><g><path d="M8.987270001490115,3.132320001490116L8.987270001490115,2.379590001490116C12.310900001490117,2.772320001490116,12.536400001490117,5.910500001490116,12.543600001490116,6.063230001490116C12.560900001490117,6.352230001490116,12.799600001490116,6.578190001490116,13.089100001490117,6.579590001490116L13.118200001490116,6.579590001490116C13.419100001490117,6.565890001490116,13.651000001490116,6.309430001490116,13.634500001490116,6.0086800014901165C13.634500001490116,5.961410001490116,13.361800001490115,1.703230001490116,8.987270001490115,1.2814100014901162L8.987270001490115,0.4886810014901161C8.987680001490116,0.4024570014901161,8.937260001490117,0.3240840014901161,8.858630001490116,0.2887010014901161C8.780000001490116,0.25331700149011616,8.687910001490117,0.2675600014901161,8.623640001490116,0.32504400149011614L7.372730001490116,1.645040001490116C7.286330001490116,1.7384300014901162,7.286330001490116,1.882570001490116,7.372730001490116,1.9759500014901161L8.623640001490116,3.295950001490116C8.687900001490116,3.353440001490116,8.780000001490116,3.367680001490116,8.858630001490116,3.332300001490116C8.937260001490117,3.296910001490116,8.987670001490116,3.218540001490116,8.987270001490115,3.132320001490116ZM5.409090001490116,10.772300001490116C5.344820001490116,10.714800001490117,5.252730001490116,10.700600001490116,5.174100001490116,10.736000001490115C5.095470001490116,10.771400001490116,5.045050001490116,10.849700001490117,5.045450001490116,10.936000001490116L5.045450001490116,11.688700001490115C1.7000000014901162,11.296000001490116,1.4818200014901162,8.146860001490117,1.474550001490116,8.005040001490116C1.4569500014901162,7.704530001490116,1.2006800014901162,7.474210001490116,0.9000000014901162,7.488680001490116C0.6000480014901162,7.504350001490116,0.3692100014901161,7.759580001490116,0.3836360014901161,8.059590001490117C0.3836360014901161,8.106860001490116,0.6563640014901161,12.365000001490117,5.030910001490116,12.786900001490116L5.030910001490116,13.579600001490116C5.030510001490116,13.665800001490116,5.080920001490116,13.744200001490116,5.159550001490116,13.779600001490117C5.238190001490116,13.815000001490116,5.330280001490116,13.800700001490116,5.394550001490116,13.743200001490116L6.645450001490116,12.423200001490116C6.731850001490116,12.329800001490115,6.731850001490116,12.185700001490115,6.645450001490116,12.092300001490116L5.409090001490116,10.772300001490116ZM5.736360001490116,6.579590001490116C6.037610001490116,6.579590001490116,6.281820001490116,6.335380001490116,6.281820001490116,6.034140001490116C6.280510001490116,4.9093000014901165,5.667530001490116,3.874200001490116,4.681820001490116,3.332320001490116C5.358490001490116,2.539390001490116,5.296130001490116,1.3555300014901162,4.539890001490116,0.6380850014901162C3.7836600014901163,-0.07936199850988387,2.598160001490116,-0.07936199850988387,1.841930001490116,0.6380850014901162C1.0856910014901162,1.3555300014901162,1.0233280014901163,2.539390001490116,1.7000000014901162,3.332320001490116C0.7142930014901161,3.874200001490116,0.10131071149011613,4.9093000014901165,0.10000000149011612,6.034140001490116C0.10000000149011612,6.335380001490116,0.3442080014901161,6.579590001490116,0.6454550014901161,6.579590001490116L5.736360001490116,6.579590001490116ZM2.3218200014901162,2.077770001490116C2.319810001490116,1.597320001490116,2.708020001490116,1.206390001490116,3.1884800014901162,1.2050500014901162C3.668930001490116,1.203710001490116,4.059320001490116,1.592460001490116,4.059990001490116,2.0729200014901163C4.060660001490116,2.5533800014901162,3.671360001490116,2.9432300014901163,3.190910001490116,2.9432300014901163C2.7123400014901162,2.9432300014901163,2.323820001490116,2.556340001490116,2.3218200014901162,2.077770001490116ZM3.190910001490116,4.034140001490116C4.084790001490116,4.035600001490116,4.8695800014901165,4.629020001490116,5.114550001490116,5.488680001490116L1.2672700014901161,5.488680001490116C1.512240001490116,4.629020001490116,2.297030001490116,4.035600001490116,3.190910001490116,4.034140001490116ZM12.318200001490116,10.670500001490115C12.618400001490116,10.321200001490116,12.784600001490116,9.876540001490117,12.787300001490117,9.415950001490117C12.787300001490117,8.333480001490116,11.909800001490115,7.455950001490116,10.827300001490116,7.455950001490116C9.744790001490117,7.455950001490116,8.867270001490116,8.333480001490116,8.867270001490116,9.415950001490117C8.869900001490116,9.876530001490115,9.036160001490115,10.321200001490116,9.336360001490116,10.670500001490115C8.345510001490116,11.216100001490116,7.731820001490116,12.259400001490116,7.736360001490116,13.390500001490116C7.732280001490116,13.694600001490116,7.977680001490116,13.943200001490116,8.281820001490116,13.943200001490116L13.372700001490117,13.943200001490116C13.674000001490116,13.943200001490116,13.918200001490115,13.699000001490116,13.918200001490115,13.397800001490117C13.925400001490116,12.264000001490116,13.311300001490116,11.217300001490116,12.318200001490116,10.670500001490115ZM9.958180001490117,9.415950001490117C9.970160001490116,8.938990001490117,10.364400001490116,8.560870001490116,10.841500001490116,8.568800001490116C11.318500001490117,8.576740001490116,11.700000001490116,8.967770001490116,11.696100001490116,9.444860001490117C11.692200001490116,9.921960001490117,11.304400001490116,10.306700001490116,10.827300001490116,10.306900001490115C10.344400001490117,10.306900001490115,9.954140001490115,9.913320001490115,9.958180001490117,9.430500001490117L9.958180001490117,9.415950001490117ZM8.903640001490116,12.852300001490116C9.148250001490116,11.992700001490116,9.933520001490116,11.399700001490116,10.827300001490116,11.399700001490116C11.721000001490117,11.399700001490116,12.506300001490116,11.992700001490116,12.750900001490116,12.852300001490116L8.903640001490116,12.852300001490116Z" fill="currentColor" fill-opacity="1"/><path d="M0.18904930149011612,6.490540001490116Q0.3780990014901161,6.679590001490116,0.6454550014901161,6.679590001490116L5.736360001490116,6.679590001490116Q6.003720001490116,6.679590001490116,6.192770001490116,6.490540001490116Q6.381820001490116,6.301490001490116,6.381820001490116,6.034140001490116Q6.380800001490116,5.163070001490116,5.937010001490116,4.413660001490116Q5.523740001490116,3.715790001490116,4.833440001490116,3.303950001490116Q5.2881000014901165,2.711660001490116,5.248060001490116,1.9516300014901162Q5.204830001490116,1.1310800014901161,4.608720001490116,0.5655380014901161Q4.012610001490116,1.0149011611670922e-7,3.190910001490116,1.4901161138336505e-9Q2.3692100014901163,1.4901161138336505e-9,1.7731000014901162,0.5655380014901161Q1.176990001490116,1.1310800014901161,1.1337600014901161,1.9516300014901162Q1.093725001490116,2.711660001490116,1.548370001490116,3.303950001490116Q0.8580820014901162,3.715790001490116,0.4448070014901161,4.413660001490116Q0.0010150014901161158,5.163070001490116,1.0149011611670922e-7,6.034020001490116Q1.4901161138336505e-9,6.301490001490116,0.18904930149011612,6.490540001490116ZM8.556970001490116,3.3704900014901162Q8.711090001490117,3.508340001490116,8.899660001490115,3.423490001490116Q9.088230001490116,3.3386300014901162,9.087270001490117,3.131850001490116L9.087270001490117,2.493270001490116Q11.037400001490116,2.764900001490116,11.921600001490116,4.3598900014901165Q12.403800001490117,5.229710001490116,12.443800001490116,6.067980001490116Q12.459100001490116,6.325420001490116,12.645500001490117,6.501880001490116Q12.831900001490116,6.678340001490116,13.088600001490116,6.679590001490116L13.120500001490116,6.679590001490116L13.122700001490117,6.679490001490116Q13.390000001490115,6.667320001490116,13.569500001490116,6.468860001490116Q13.748100001490116,6.271430001490116,13.734500001490115,6.005980001490116Q13.733900001490117,5.7824700014901165,13.621100001490117,5.287220001490116Q13.431300001490117,4.453790001490116,13.039100001490116,3.737470001490116Q11.807400001490116,1.4881200014901161,9.087280001490116,1.191160001490116L9.087280001490116,0.4886810014901161Q9.088240001490115,0.2823650014901161,8.899670001490117,0.19750850149011612Q8.711100001490117,0.11265260149011612,8.556970001490116,0.2505090014901161L8.553890001490116,0.25326200149011613L7.300140001490116,1.576260001490116Q7.083420001490116,1.810500001490116,7.299320001490116,2.043860001490116L8.553890001490116,3.367740001490116L8.556970001490116,3.3704900014901162ZM5.736360001490116,6.479590001490116L0.6454550014901161,6.479590001490116Q0.46094100149011613,6.479590001490116,0.3304710014901161,6.349120001490116Q0.20000000149011612,6.218650001490116,0.19999990149011612,6.034250001490116Q0.20095100149011613,5.217950001490117,0.6168960014901161,4.515570001490116Q1.032839001490116,3.813190001490116,1.748170001490116,3.419950001490116L1.8557700014901162,3.3608000014901163L1.776070001490116,3.2674000014901163Q1.2944600014901162,2.703050001490116,1.333480001490116,1.9621600014901162Q1.3725100014901161,1.221260001490116,1.9107500014901162,0.7106310014901162Q2.4489900014901163,0.19999990149011612,3.190910001490116,0.19999990149011612Q3.932830001490116,0.20000000149011612,4.471070001490116,0.7106310014901162Q5.009310001490116,1.221260001490116,5.0483300014901165,1.9621600014901162Q5.087360001490116,2.703050001490116,4.605750001490116,3.2674000014901163L4.526050001490116,3.3608000014901163L4.633640001490116,3.419950001490116Q5.3489800014901165,3.813200001490116,5.7649200014901165,4.515570001490116Q6.180870001490116,5.217950001490117,6.181820001490116,6.034140001490116Q6.181820001490116,6.218650001490116,6.051350001490116,6.349120001490116Q5.920880001490116,6.479590001490116,5.736360001490116,6.479590001490116ZM8.887270001490116,3.132780001490116Q8.887630001490116,3.209590001490116,8.817590001490116,3.241100001490116Q8.749220001490116,3.2718700014901163,8.693050001490116,3.223820001490116L7.446130001490116,1.9080400014901162Q7.355890001490116,1.810500001490116,7.445310001490116,1.7138300014901162L8.693050001490116,0.39717900149011615Q8.749230001490115,0.3491290014901161,8.817590001490116,0.3798930014901161Q8.887630001490116,0.4114110014901161,8.887270001490116,0.4886810014901161L8.887270001490116,1.372230001490116L8.977680001490116,1.3809500014901162Q11.662500001490116,1.6398300014901162,12.863700001490116,3.833530001490116Q13.242500001490116,4.525380001490116,13.426100001490116,5.3316200014901165Q13.534500001490116,5.807950001490116,13.534500001490116,6.0086800014901165L13.534500001490116,6.011420001490116L13.534700001490116,6.014150001490116Q13.544800001490117,6.1980800014901165,13.421200001490115,6.334700001490116Q13.298400001490116,6.4705100014901165,13.115800001490117,6.479590001490116L13.089600001490115,6.479590001490116Q12.668600001490116,6.477550001490116,12.643500001490116,6.058470001490116Q12.601400001490116,5.173570001490116,12.096600001490117,4.262920001490116Q11.137500001490116,2.532970001490116,8.999010001490117,2.2802800014901163L8.887270001490116,2.267080001490116L8.887270001490116,3.132780001490116ZM2.5070900014901163,2.7608200014901163Q2.790680001490116,3.043230001490116,3.190910001490116,3.043230001490116Q3.5927100014901163,3.043230001490116,3.876630001490116,2.7589100014901162Q4.160550001490116,2.474590001490116,4.159990001490116,2.0727800014901163Q4.159430001490116,1.670970001490116,3.874710001490116,1.387450001490116Q3.5900000014901163,1.103930001490116,3.188200001490116,1.1050500014901161Q2.786390001490116,1.1061700014901161,2.503260001490116,1.391280001490116Q2.2201400014901163,1.676390001490116,2.221820001490116,2.078190001490116Q2.223490001490116,2.4784100014901163,2.5070900014901163,2.7608200014901163ZM3.735110001490116,2.6175800014901163Q3.509790001490116,2.843230001490116,3.190910001490116,2.843230001490116Q2.8732800014901163,2.843230001490116,2.648210001490116,2.619100001490116Q2.423150001490116,2.394980001490116,2.4218200014901163,2.077350001490116Q2.420480001490116,1.7584700014901162,2.6451800014901163,1.532210001490116Q2.869870001490116,1.3059400014901161,3.1887500014901162,1.305050001490116Q3.5076300014901163,1.304160001490116,3.733590001490116,1.5291700014901162Q3.959550001490116,1.754180001490116,3.959990001490116,2.0730600014901164Q3.960440001490116,2.391940001490116,3.735110001490116,2.6175800014901163ZM1.9254300014901162,4.3598200014901165Q1.363990001490116,4.784350001490116,1.171100001490116,5.461280001490116L1.134800001490116,5.588680001490116L5.2470200014901165,5.588680001490116L5.210720001490116,5.461280001490116Q5.017820001490116,4.784350001490116,4.456380001490116,4.3598200014901165Q3.894940001490116,3.935290001490116,3.190740001490116,3.9341400014901162Q2.486870001490116,3.935290001490116,1.9254300014901162,4.3598200014901165ZM1.4042300014901161,5.388680001490116L4.977580001490116,5.388680001490116Q4.789920001490116,4.862760001490116,4.335760001490116,4.519350001490116Q3.827700001490116,4.1351800014901166,3.1910700014901163,4.134140001490116Q2.554120001490116,4.1351800014901166,2.0460600014901162,4.519350001490116Q1.5919000014901161,4.862760001490116,1.4042300014901161,5.388680001490116ZM14.018200001490117,13.398400001490117L14.018200001490117,13.397800001490117Q14.023600001490117,12.520300001490115,13.579600001490116,11.763500001490117Q13.165700001490116,11.058100001490116,12.470000001490115,10.642300001490115Q12.883300001490117,10.106000001490116,12.887300001490116,9.416530001490116Q12.887300001490116,8.562670001490115,12.283900001490116,7.959310001490116Q11.680500001490117,7.355960001490116,10.827300001490116,7.3559500014901165Q9.973990001490115,7.3559500014901165,9.370630001490117,7.959310001490116Q8.767270001490116,8.562670001490115,8.767270001490116,9.415950001490117Q8.771220001490116,10.105900001490117,9.184520001490116,10.642300001490115Q8.490510001490117,11.057100001490117,8.076890001490117,11.760200001490116Q7.632840001490116,12.515100001490117,7.636360001490116,13.390900001490117Q7.632750001490116,13.659000001490115,7.8223300014901165,13.851100001490115Q8.011910001490115,14.043200001490115,8.281820001490116,14.043200001490115L13.372700001490117,14.043200001490115Q13.640100001490117,14.043200001490115,13.829100001490117,13.854200001490117Q14.018000001490115,13.665400001490116,14.018200001490117,13.398400001490117ZM6.718040001490116,12.492000001490116Q6.934760001490116,12.257800001490116,6.718860001490116,12.024400001490116L6.718440001490116,12.024000001490116L5.4790500014901165,10.700700001490116L5.475760001490116,10.697800001490116Q5.321630001490116,10.559900001490115,5.133060001490116,10.644800001490117Q4.9444900014901165,10.729600001490116,4.945460001490116,10.936400001490115L4.945450001490116,11.575100001490116Q2.982560001490116,11.303600001490116,2.0956300014901164,9.704280001490115Q1.617610001490116,8.842290001490117,1.5744100014901161,7.999920001490116Q1.558780001490116,7.732770001490116,1.3602700014901161,7.554370001490116Q1.1617700014901162,7.375970001490116,0.8951930014901162,7.388800001490116Q0.6285740014901161,7.4027300014901165,0.44976200149011614,7.600430001490116Q0.27176000149011614,7.797230001490116,0.28364000149011614,8.061980001490117Q0.28424200149011614,8.285460001490117,0.3970980014901161,8.781060001490117Q0.5868830014901161,9.614470001490115,0.9791060014901162,10.330800001490116Q2.210740001490116,12.580200001490116,4.930910001490116,12.877100001490117L4.930910001490116,13.579600001490116Q4.929950001490116,13.785900001490116,5.118520001490116,13.870800001490116Q5.307090001490116,13.955600001490117,5.461210001490116,13.817800001490117L5.464290001490116,13.815000001490116L6.718040001490116,12.492000001490116ZM13.407100001490116,11.864700001490116Q13.823400001490116,12.574300001490116,13.818200001490116,13.397100001490116L13.818200001490116,13.397800001490117Q13.818200001490116,13.582300001490117,13.687700001490116,13.712800001490116Q13.557200001490116,13.843200001490116,13.372700001490117,13.843200001490116L8.281820001490116,13.843200001490116Q8.095520001490115,13.843200001490116,7.9646900014901165,13.710600001490116Q7.8338500014901165,13.578100001490116,7.8363600014901165,13.390100001490117Q7.833060001490116,12.569200001490117,8.249280001490115,11.861600001490116Q8.665500001490116,11.154100001490116,9.384600001490115,10.758100001490115L9.492460001490116,10.698700001490115L9.412200001490117,10.605300001490116Q8.971140001490117,10.092100001490117,8.967270001490116,9.415950001490117Q8.967270001490116,8.645520001490116,9.512050001490117,8.100740001490117Q10.056840001490116,7.555960001490116,10.827300001490116,7.555950001490116Q11.597700001490116,7.555960001490116,12.142500001490117,8.100740001490117Q12.687300001490117,8.645520001490116,12.687300001490117,9.415380001490115Q12.683400001490115,10.092100001490117,12.242300001490117,10.605300001490116L12.162100001490115,10.698700001490115L12.269900001490116,10.758100001490115Q12.990700001490117,11.155000001490116,13.407100001490116,11.864700001490116ZM6.572050001490116,12.160200001490116L6.5724700014901165,12.160700001490117Q6.6620900014901165,12.258000001490116,6.5728700014901165,12.354400001490117L5.325140001490116,13.671100001490116Q5.268960001490116,13.719100001490116,5.2005900014901165,13.688400001490116Q5.130550001490116,13.656900001490117,5.130910001490117,13.579600001490116L5.130910001490117,12.696000001490116L5.040510001490116,12.687300001490117Q2.355690001490116,12.428400001490116,1.154530001490116,10.234700001490117Q0.7757000014901161,9.542880001490117,0.592106001490116,8.736650001490116Q0.4836360014901161,8.260310001490117,0.4836360014901161,8.059590001490117L0.4836360014901161,8.057190001490117L0.4835210014901161,8.054790001490115Q0.4746850014901161,7.871030001490116,0.5980910014901162,7.734590001490116Q0.7214970014901161,7.598150001490116,0.9048070014901162,7.588570001490116Q1.089247001490116,7.579690001490116,1.226590001490116,7.703120001490116Q1.363920001490116,7.826550001490116,1.3746800014901162,8.010170001490117Q1.420250001490116,8.898770001490115,1.920730001490116,9.801270001490115Q2.8824200014901162,11.535500001490115,5.033800001490116,11.788000001490117L5.145450001490116,11.801100001490116L5.145450001490116,10.935500001490116Q5.145100001490116,10.858700001490115,5.215140001490116,10.827200001490116Q5.283390001490116,10.796500001490116,5.339490001490116,10.844300001490117L6.572050001490116,12.160200001490116ZM9.858180001490116,9.414700001490116L9.858180001490116,9.430130001490117L9.858180001490116,9.430500001490117Q9.855100001490117,9.833740001490115,10.139100001490116,10.120200001490117Q10.423500001490115,10.406900001490117,10.827300001490116,10.406900001490117Q11.226300001490117,10.406700001490115,11.509600001490115,10.125700001490117Q11.792800001490116,9.844680001490117,11.796100001490116,9.445680001490116Q11.799300001490115,9.046690001490116,11.520700001490116,8.761070001490117Q11.242100001490115,8.475450001490117,10.843100001490116,8.468810001490116Q10.444200001490117,8.462180001490117,10.156200001490117,8.738370001490116Q9.868230001490117,9.014560001490116,9.858210001490116,9.413440001490116L9.858180001490116,9.414700001490116ZM10.281200001490117,9.979330001490116Q10.055490001490115,9.751780001490117,10.058180001490117,9.431340001490117L10.058180001490117,9.430500001490117L10.058180001490117,9.417250001490116Q10.066540001490116,9.101480001490117,10.294600001490116,8.882710001490116Q10.523200001490116,8.663520001490117,10.839800001490117,8.668790001490116Q11.156400001490116,8.674050001490116,11.377500001490116,8.900720001490116Q11.598700001490116,9.127400001490116,11.596100001490116,9.444050001490115Q11.593500001490115,9.760700001490116,11.368700001490117,9.983730001490116Q11.143900001490117,10.206800001490116,10.827200001490116,10.206900001490116Q10.506800001490117,10.206900001490116,10.281200001490117,9.979330001490116ZM8.771210001490116,12.952300001490116L12.883300001490117,12.952300001490116L12.847100001490116,12.824900001490116Q12.654500001490117,12.148000001490116,12.092800001490117,11.723800001490115Q11.531100001490117,11.299700001490116,10.827300001490116,11.299700001490116Q10.123400001490117,11.299700001490116,9.561760001490116,11.723800001490115Q9.000080001490117,12.148000001490116,8.807450001490116,12.824900001490116L8.771210001490116,12.952300001490116ZM12.614000001490115,12.752300001490116Q12.426500001490115,12.226500001490116,11.972300001490115,11.883400001490116Q11.464100001490117,11.499700001490115,10.827300001490116,11.499700001490115Q10.190500001490117,11.499700001490115,9.682290001490117,11.883400001490116Q9.228010001490116,12.226500001490116,9.040550001490116,12.752300001490116L12.614000001490115,12.752300001490116Z" fill-rule="evenodd" fill="currentColor" fill-opacity="1"/></g></svg>
