<svg xmlns="http://www.w3.org/2000/svg" viewBox="0 0 32 32" fill="none">
  <defs>
    <clipPath id="a">
      <rect width="32" height="32" rx="0"/>
    </clipPath>
  </defs>
  <g clip-path="url(#a)">
    <path fill="currentColor" d="M13.6 9.6a4 4 0 1 0-4 4h4v-4ZM9.6 4a5.6 5.6 0 0 1 5.6 5.6v5.6H9.6A5.6 5.6 0 0 1 9.6 4Zm12.8 9.6a4 4 0 1 0-4-4v4h4Zm0-9.6a5.6 5.6 0 1 1 0 11.2h-5.6V9.6A5.6 5.6 0 0 1 22.4 4ZM9.6 18.4a4 4 0 1 0 4 4v-4h-4Zm0-1.6h5.6v5.6a5.6 5.6 0 1 1-5.6-5.6Zm11.709 1.6a.8.8 0 0 1 0-1.6H22.4a5.6 5.6 0 1 1-5.6 5.6v-4.8a.8.8 0 0 1 1.6 0v4.8a4 4 0 1 0 4-4h-1.091Z"/>
  </g>
</svg>