<svg xmlns="http://www.w3.org/2000/svg" xmlns:xlink="http://www.w3.org/1999/xlink" fill="none" version="1.1" width="20" height="20" viewBox="0 0 20 20"><defs><clipPath id="master_svg0_3682_58914"><rect x="0" y="0" width="20" height="20" rx="0"/></clipPath></defs><g clip-path="url(#master_svg0_3682_58914)"><g><path d="M16.958871875,2.88220175C16.352771875000002,2.27268475,15.528071875,1.93108425,14.668571875,1.9336077571C13.803871875,1.9336077571,12.991371875,2.27001375,12.380871875,2.88095175L9.749771875,5.51251375L8.660711875,4.42345375C8.431181875,4.19373375,8.058841874999999,4.19373375,7.829301875,4.42345375C7.599591875,4.652983750000001,7.599591875,5.02532375,7.829301875,5.2548537500000005L9.329461875,6.75501375C9.331021875000001,6.75657375,9.332121875,6.75845375,9.333681875,6.76017375L9.470551875,6.89689375L3.769301875,12.59939375C3.2105718750000003,13.15429375,2.954421875,13.94499375,3.081651875,14.72209375L2.183992875,15.62019375C1.914143875,15.88829375,1.762790769,16.25319375,1.76368066669,16.63359375C1.762346265,17.013993749999997,1.913511875,17.37899375,2.183367875,17.64709375C2.451753875,17.91729375,2.817181875,18.06879375,3.198051875,18.06779375L3.198521875,18.06779375C3.578561875,18.06899375,3.943211875,17.91779375,4.2108718750000005,17.647993749999998L5.1041518749999994,16.755993750000002C5.238101875,16.77889375,5.373721875,16.79049375,5.509621875000001,16.79079375C6.148681875,16.79079375,6.770551875,16.53999375,7.240241875,16.07079375L12.942071875,10.36861375L13.079171875,10.50564375C13.081371875,10.50782375,13.083871875,10.50923375,13.086171875,10.51142375L14.584571875,12.00969375C14.813971875,12.23989375,15.186671875,12.23989375,15.416071875,12.00969375C15.645771875,11.78017375,15.645771875,11.40782375,15.416071875,11.17829375L14.326971875,10.08939375L16.958871875,7.45814375C18.220371875,6.19720375,18.220371875,4.14454375,16.958871875,2.88220175ZM6.408841875,15.23889375C6.081801875,15.56529375,5.613211875,15.68499375,5.171021875,15.56629375C4.974261875,15.47739375,4.744591874999999,15.50369375,4.573051875,15.63489375C4.552501875,15.65049375,4.532441875,15.66679375,4.512901875,15.68379375L3.378841875,16.81719375C3.3310218750000002,16.86499375,3.266161875,16.89189375,3.198521875,16.89189375L3.198051875,16.89189375C3.093881875,16.89159375,3.0000818750000002,16.82869375,2.960191875,16.73249375C2.920301875,16.63629375,2.9421318750000003,16.525493750000003,3.015551875,16.45159375L4.110871875,15.35579375C4.118521875,15.34909375,4.194621875,15.26579375,4.212431875,15.23969375C4.220401875,15.22849375,4.2543018749999995,15.16999375,4.262741875,15.15159375C4.272591875,15.13079375,4.294461875,15.06719375,4.297271875,15.05659375C4.305401874999999,15.02629375,4.314931875,14.95889375,4.315241875,14.95579375C4.324631875,14.86239375,4.311501874999999,14.76809375,4.276961875,14.68079375C4.150871875,14.23419375,4.271021875000001,13.76019375,4.600561875,13.43079375L10.302271875,7.72845375L12.110871875,9.537043749999999L6.408841875,15.23889375ZM16.127471874999998,6.62642375L13.495371875,9.25782375L10.581341875,6.34407375L13.212471875,3.7125137500000003C13.990371875,2.9347037499999997,15.348371875,2.9353237500000002,16.127471874999998,3.71360375C16.930071875,4.51720375,16.930071875,5.8237637499999995,16.127471874999998,6.62642375Z" fill="#303133" fill-opacity="1"/></g></g></svg>