<svg xmlns="http://www.w3.org/2000/svg" fill="none" viewBox="0 0 16 16">
  <defs>
    <clipPath id="a">
      <rect width="16" height="16" rx="0"/>
    </clipPath>
  </defs>
  <g clip-path="url(#a)">
    <path d="M14.366 7.27 8.303 1.213a.732.732 0 0 0-1.03 0L1.21 7.27a.734.734 0 0 0 .516 1.25h.703v4.749c0 .843.683 1.527 1.527 1.527h7.664c.842-.001 1.524-.683 1.525-1.525V8.525h.703a.737.737 0 0 0 .516-1.25l.002-.004Zm-2.394 6a.357.357 0 0 1-.352.351H3.956a.357.357 0 0 1-.352-.351V8.13a.603.603 0 0 0-.011-.097.59.59 0 0 0-.58-.686H2.79L7.788 2.35l4.997 4.999h-.226c-.389 0-.67.37-.565.744a.591.591 0 0 0-.022.158v5.018ZM8.995 6.444c-.409 0-.81.106-1.167.306-1.593-.893-3.56.258-3.559 2.084 0 2.69 3.205 4.103 3.341 4.162a.59.59 0 0 0 .527-.032c.332-.193 3.249-1.945 3.249-4.13a2.393 2.393 0 0 0-2.39-2.39ZM7.81 11.788c-.668-.354-2.367-1.407-2.367-2.954a1.216 1.216 0 0 1 2.005-.927c.219.186.54.186.76 0a1.216 1.216 0 0 1 2.005.927c0 1.154-1.55 2.4-2.403 2.954Z" fill="currentColor"/>
    <path d="m14.513 7.261.005-.007-6.13-6.127q-.25-.247-.6-.247t-.6.247l-6.062 6.06Q.73 7.59.945 8.11q.215.523.779.53h.585v4.629q0 .682.482 1.164.482.483 1.165.483h7.664q.68 0 1.163-.482.481-.482.482-1.163V8.645h.583q.566-.008.781-.53.197-.476-.116-.854Zm-.3.027L8.22 1.297q-.179-.177-.43-.177-.253 0-.432.177L1.295 7.356q-.283.289-.129.663.155.377.561.383h.821v4.868q0 .582.413.995.412.412.995.412h7.664q.581 0 .993-.412.411-.412.412-.993V8.405h.823q.405-.006.56-.382.154-.375-.13-.664l-.066-.068.002-.003Zm-2.12.964q0-.064.017-.126l.01-.032-.01-.033q-.063-.223.077-.407.14-.185.372-.184h.515L7.788 2.181 2.502 7.466h.51q.194 0 .332.138.137.137.137.331 0 .04-.006.078l-.004.022.004.021q.007.037.009.076v5.14q.003.193.14.33.136.137.332.14h7.665q.194-.003.331-.14t.14-.332V8.252Zm-.223-.158q-.018.078-.018.158v5.018q-.003.229-.234.231H3.956q-.229-.003-.232-.233V8.126q-.002-.048-.01-.095.007-.047.007-.095 0-.294-.208-.502-.183-.184-.434-.205l4.71-4.708 4.708 4.711q-.308.022-.501.277-.202.266-.126.585ZM9.97 11.733q1.537-1.466 1.537-2.899-.002-1.04-.736-1.774-.735-.734-1.775-.736-.621 0-1.167.29-1.225-.656-2.438.055-1.241.727-1.24 2.165 0 1.744 1.66 3.16.849.721 1.752 1.112.132.057.28.056.19 0 .355-.095.953-.553 1.772-1.334Zm1.297-2.899q0 1.33-1.463 2.725-.798.762-1.726 1.3-.11.064-.235.063-.099 0-.184-.036-.871-.377-1.692-1.076Q4.39 10.467 4.39 8.834q0-1.3 1.123-1.958 1.122-.658 2.257-.021l.059.032.059-.032q.516-.29 1.108-.29.94 0 1.605.665.665.664.666 1.604ZM7.81 11.788l-.056.106q-.858-.454-1.462-1.05-.97-.955-.97-2.01-.001-.856.775-1.216.776-.358 1.428.197.303.256.605 0 .651-.555 1.427-.197.777.36.776 1.216 0 .813-.914 1.784-.649.69-1.543 1.27l-.066-.1Zm-.006-.14q.833-.55 1.44-1.195.849-.901.849-1.619 0-.703-.637-.998-.636-.294-1.17.162-.199.168-.458.168-.26 0-.458-.167-.536-.457-1.172-.163-.637.295-.635.998 0 .955.897 1.84.558.549 1.344.975Z" fill-rule="evenodd" fill="#FFF"/>
  </g>
</svg>