<svg xmlns="http://www.w3.org/2000/svg" fill="none" viewBox="0 0 16 16">
  <defs>
    <clipPath id="a">
      <rect width="16" height="16" rx="0"/>
    </clipPath>
  </defs>
  <g clip-path="url(#a)">
    <path d="M8.656 13.273a.657.657 0 1 1-1.312 0v-2.92c0-.365.29-.66.656-.66v-.111c.365 0 .656.406.656.771v2.92Z" fill="currentColor"/>
    <path d="M13.953 13.883c0 .272-.22.492-.492.492H2.523a.492.492 0 0 1 0-.984h10.938c.272 0 .492.22.492.492Zm.516-11.158c0-.608-.49-1.084-1.098-1.084H2.629c-.608 0-1.098.476-1.098 1.084v5.603H14.47V2.725ZM1.53 9.86c0 .609.49 1.11 1.098 1.11h10.742c.608 0 1.098-.501 1.098-1.11v-.546H1.53v.546Z" fill="#FFF"/>
  </g>
</svg>