<svg xmlns="http://www.w3.org/2000/svg" xmlns:xlink="http://www.w3.org/1999/xlink" fill="none" version="1.1" width="14.933980941772461" height="13.432154655456543" viewBox="0 0 14.933980941772461 13.432154655456543"><g><path d="M0.156057,7.06995L0.156057,7.06941C-0.0520189,6.8636,-0.0520189,6.5275,0.156057,6.32168L0.156057,6.32061L3.89579,2.58408C4.10227,2.37745,4.43716,2.37733,4.64379,2.58381C4.85042,2.7903,4.85054,3.12519,4.64406,3.33181L1.27819,6.69555L4.64406,10.0593C4.85159,10.2654,4.85207,10.6009,4.64512,10.8075C4.43751,11.013,4.10311,11.0128,3.89579,10.807L0.156589,7.07048L0.156057,7.06995ZM8.50806,0.397947C8.58314,0.112146,8.8763,-0.0581257,9.16175,0.018262C9.44721,0.0946498,9.61614,0.388575,9.53846,0.673681L6.22646,13.0342C6.15137,13.32,5.85822,13.4903,5.57276,13.4139C5.28731,13.3375,5.11837,13.0436,5.19606,12.7585L8.50806,0.397947ZM14.7779,7.06995L11.0382,10.807C10.8309,11.0128,10.4965,11.013,10.2889,10.8075C10.0819,10.6009,10.0824,10.2654,10.2899,10.0593L13.6558,6.69555L10.2899,3.33181C10.0834,3.12519,10.0836,2.7903,10.2902,2.58381C10.4968,2.37733,10.8317,2.37745,11.0382,2.58408L14.7774,6.32061L14.7779,6.32115L14.7779,6.32168C14.986,6.5275,14.986,6.8636,14.7779,7.06942L14.7779,7.06995Z" fill="#596780" fill-opacity="1"/></g></svg>