<svg xmlns="http://www.w3.org/2000/svg" xmlns:xlink="http://www.w3.org/1999/xlink" fill="none" version="1.1" width="28" height="28" viewBox="0 0 28 28"><defs><clipPath id="master_svg0_2100_58301"><rect x="0" y="0" width="28" height="28" rx="0"/></clipPath></defs><g clip-path="url(#master_svg0_2100_58301)"><g><path d="M17.1476153125,17.13101375C16.6342753125,17.13101375,16.2142753125,16.71101375,16.2142753125,16.19767375L16.2142753125,15.21067775C16.2142753125,14.69734475,16.6342753125,14.27734375,17.1476153125,14.27734375C17.6609453125,14.27734375,18.0809453125,14.69734375,18.0809453125,15.21067575L18.0809453125,16.19767375C18.0809453125,16.71101375,17.6609453125,17.13101375,17.1476153125,17.13101375ZM10.8522783125,17.13101375C10.3389453125,17.13101375,9.9189453125,16.71101375,9.9189453125,16.19767375L9.9189453125,15.21067775C9.9189453125,14.69734475,10.3389453125,14.27734375,10.8522783125,14.27734375C11.3656153125,14.27734375,11.7856153125,14.69734375,11.7856153125,15.21067575L11.7856153125,16.19767375C11.7856153125,16.71101375,11.3656153125,17.13101375,10.8522783125,17.13101375Z" fill="#FFFFFF" fill-opacity="1"/></g><g><path d="M20.120201953124997,9.761653124999999L21.331201953125,7.649983125C21.975201953125,7.652323125000001,22.602801953125,7.316323125,22.952801953125,6.709653125C23.473201953125,5.801983125,23.174501953125,4.637654125,22.283201953125,4.105655125C21.394201953125,3.575988125,20.250801953125,3.881654825,19.730501953125,4.786988125C19.382801953125,5.393653125,19.403801953125,6.116983125,19.721201953125,6.688653125L18.552201953125,8.725653125000001C17.150501953125,7.983273125,15.588301953125,7.595533125,14.002171953125,7.596323125C12.485231953125,7.595683125,10.989241953125,7.950503125,9.634171953125,8.632323125L8.521171953125,6.690983125C8.850731953124999,6.099063125,8.847191953125,5.377983125,8.511831953125,4.789321125C7.991501953125,3.881654425,6.848171953125,3.575988125,5.959171953125,4.107988125C5.070168953125,4.637654125,4.769167953125,5.804323125,5.289501953125,6.711983125C5.621061953125,7.294803125,6.2406419531249995,7.654073125,6.911171953125001,7.652323125000001L8.047501953125,9.635653125000001C5.732831953125,11.418323125,4.239501953125,14.216003125,4.239501953125,17.356703125L4.239501953125,21.346603125C4.239501953125,23.404703125,5.914831953125,25.080003125,7.9728319531250005,25.080003125L20.029201953125,25.080003125C22.087201953125,25.080003125,23.762501953125,23.404703125,23.762501953125,21.346603125L23.762501953125,17.356703125C23.760201953125,14.290703125,22.339201953125,11.551323125,20.120201953124997,9.761653124999999ZM21.893501953125,21.349003125C21.893501953125,22.378003125,21.055801953125,23.215703125,20.026801953125002,23.215703125L7.9728319531250005,23.215703125C6.943831953125001,23.215703125,6.106171953125,22.378003125,6.106171953125,21.349003125L6.106171953125,17.359003125C6.106171953125,13.004993125,9.648171953125,9.465323125000001,13.999831953125,9.465323125000001C18.353801953125,9.465323125000001,21.893501953125,13.007323125,21.893501953125,17.359003125L21.893501953125,21.349003125Z" fill="#FFFFFF" fill-opacity="1"/></g><g><path d="M15.866621171875,21.735654375L12.133284171875,21.735654375C11.619951171875,21.735654375,11.199951171875,21.315654375,11.199951171875,20.802319375L11.199951171875,20.767318375C11.199951171875,20.253985375,11.619951171875,19.83398604393,12.133284171875,19.833984375L15.866621171875,19.833984375C16.379951171875,19.833984375,16.799951171875,20.253984375,16.799951171875,20.767318375L16.799951171875,20.802319375C16.799951171875,21.315654375,16.379951171875,21.735654375,15.866621171875,21.735654375Z" fill="#FFFFFF" fill-opacity="1"/></g><g><path d="M15.1387871875,6.50578875C14.868117187500001,6.50578875,14.6137871875,6.38911875,14.4364471875,6.18611875L13.7224471875,5.36945875L13.2137871875,6.10445875C13.0393671875,6.35652875,12.7526471875,6.50728875,12.4461171875,6.5081187499999995L10.8034501875,6.5081187499999995C10.2877831875,6.5081187499999995,9.8701171875,6.09045875,9.8701171875,5.57478875C9.8701171875,5.05911875,10.2877831875,4.64145875,10.8034501875,4.64145875L11.9584471875,4.64145875L12.8707871875,3.32078875C13.0341171875,3.08278875,13.297787187499999,2.93578895,13.5871171875,2.91945556C13.8764471875,2.90312215,14.154117187499999,3.02212275,14.343117187499999,3.23912175L15.5634471875,4.63911875L17.4301171875,4.62745875L17.4371171875,4.62745875C17.9524071875,4.62577875,18.371557187500002,5.041998749999999,18.3734971875,5.55728875C18.3754271875,6.07257875,17.959397187500002,6.49193875,17.444117187499998,6.49411875L15.148117187499999,6.5081187499999995C15.1434471875,6.50578875,15.1411171875,6.50578875,15.1387871875,6.50578875Z" fill="#FFFFFF" fill-opacity="1"/></g></g></svg>