<svg xmlns="http://www.w3.org/2000/svg" viewBox="0 0 16 16" fill="none">
  <defs>
    <clipPath id="a">
      <rect width="16" height="16" rx="0"/>
    </clipPath>
  </defs>
  <g clip-path="url(#a)">
    <path fill="currentColor" d="M8.875 5.667h-3.5a.583.583 0 0 0 0 1.166h3.5a.583.583 0 0 0 0-1.166Zm1.756 3.5H5.37a.576.576 0 0 0-.577.577v.012c0 .319.258.577.577.577h5.262a.576.576 0 0 0 .577-.577v-.012a.576.576 0 0 0-.577-.577Zm2.036-.584v5.25H3.333V2.167h4.083a.583.583 0 0 0 0-1.165H3.333c-.644 0-1.167.521-1.167 1.167v11.667c0 .644.522 1.167 1.167 1.167h9.333c.643 0 1.167-.522 1.167-1.167v-5.25a.583.583 0 0 0-1.166-.003Zm.583-5.833h-1.167V1.583a.583.583 0 0 0-1.166 0V2.75H9.75a.583.583 0 0 0 0 1.166h1.167v1.167a.583.583 0 0 0 1.166 0V3.916h1.167a.583.583 0 0 0 0-1.166Z"/>
  </g>
</svg>