<svg xmlns="http://www.w3.org/2000/svg" viewBox="0 0 28 28" fill="none">
  <path fill="currentColor" d="M10.778 6.763q.482 0 .824.334.343.334.343.817v4.638q0 .483-.343.826-.342.343-.824.343h-4.63q-.481 0-.814-.343Q5 13.035 5 12.552V7.914q0-.483.334-.817.333-.334.814-.334h4.63Zm0 9.278q.482 0 .824.333.343.334.343.817v4.657q0 .483-.343.817-.342.334-.824.334h-4.63q-.481 0-.814-.334Q5 22.33 5 21.848v-4.657q0-.483.334-.817.333-.333.814-.333h4.63Zm9.278 0q.482 0 .815.333.334.334.334.817v4.657q0 .483-.334.817-.333.334-.815.334h-4.63q-.48 0-.823-.334-.343-.334-.343-.817v-4.657q0-.483.343-.817.342-.333.824-.333h4.63Zm2.573-7.236q.37.371.37.872t-.37.854l-3.444 3.45q-.37.372-.861.372t-.861-.371l-3.445-3.451q-.352-.353-.352-.854 0-.5.352-.872l3.445-3.451q.37-.353.86-.353.492 0 .862.353l3.444 3.451Z"/>
</svg>