<svg xmlns="http://www.w3.org/2000/svg" viewBox="0 0 32 32" fill="none">
  <defs>
    <clipPath id="a">
      <rect width="32" height="32" rx="0"/>
    </clipPath>
  </defs>
  <g clip-path="url(#a)">
    <path fill="currentColor" d="M14.852 2.773a.36.36 0 0 0-.361-.361H4.225a.36.36 0 0 0-.36.361v26.442c0 .199.161.361.36.361h10.266c.2 0 .36-.161.36-.36V2.772Zm2.25 7.147H27.71a2.6 2.6 0 0 1 2.6 2.6v16.842a2.6 2.6 0 0 1-2.6 2.6H14.87v-.027a2.645 2.645 0 0 1-.371.027H4.264a2.6 2.6 0 0 1-2.6-2.6V2.611c0-1.436 1.165-2.6 2.6-2.6h10.238c1.436 0 2.6 1.164 2.6 2.6V9.92Zm.108 19.865 10.577-.018a.364.364 0 0 0 .363-.364V12.43a.365.365 0 0 0-.364-.364l-10.577.018.001 17.7Z"/>
    <path fill="currentColor" d="M11.034 9.402c.443 0 .852.195 1.072.511a.87.87 0 0 1 0 1.022c-.22.316-.63.51-1.072.51H7.731c-.443 0-.852-.194-1.072-.51a.87.87 0 0 1 0-1.022c.22-.316.63-.51 1.072-.51h3.303Zm0 4.955c.684 0 1.24.457 1.24 1.021 0 .564-.556 1.022-1.24 1.022H7.731c-.684 0-1.24-.458-1.24-1.022 0-.564.556-1.021 1.24-1.021h3.303Zm13.209 3.302c.683 0 1.239.457 1.239 1.021 0 .564-.556 1.022-1.24 1.022H20.94c-.683 0-1.238-.458-1.238-1.022 0-.564.554-1.021 1.238-1.021h3.303Zm-13.209 1.65c.684 0 1.24.458 1.24 1.022 0 .564-.556 1.022-1.24 1.022H7.731c-.684 0-1.24-.458-1.24-1.022 0-.564.556-1.021 1.24-1.021h3.303Zm13.21 3.302c.442 0 .85.195 1.071.511a.87.87 0 0 1 0 1.022c-.22.316-.63.51-1.072.51h-3.302c-.443 0-.852-.194-1.072-.51a.87.87 0 0 1 0-1.022c.221-.316.63-.51 1.072-.51h3.302Z"/>
  </g>
</svg>