<svg xmlns="http://www.w3.org/2000/svg" xmlns:xlink="http://www.w3.org/1999/xlink" fill="none" version="1.1" width="40" height="40" viewBox="0 0 40 40"><defs><clipPath id="master_svg0_1181_26613"><rect x="0" y="0" width="40" height="40" rx="20"/></clipPath><clipPath id="master_svg1_1181_26616"><rect x="8" y="8" width="24" height="24" rx="0"/></clipPath></defs><g clip-path="url(#master_svg0_1181_26613)"><rect x="0" y="0" width="40" height="40" rx="20" fill="#E0EAFF" fill-opacity="1"/><g clip-path="url(#master_svg1_1181_26616)"><g><path d="M24.6217640625,23.9061060546875L27.2977640625,23.9061060546875C25.6333640625,26.2329060546875,24.0325640625,28.4697060546875,22.4317640625,30.7065060546875C22.393364062499998,30.6933060546875,22.354964062500002,30.6789060546875,22.3165640625,30.6657060546875C22.6657640625,29.1969060546875,23.0149640625,27.7269060546875,23.3785640625,26.1957060546875L21.2869240625,26.1957060546875C21.5245240625,25.1109060546875,21.747724062499998,24.0921060546875,21.9913640625,22.9785060546875C21.3961240625,23.1573060546875,20.8777240625,23.2617060546875,20.4037240625,23.4681060546875C19.3789240625,23.9145060546875,18.4561240625,23.7237060546875,17.6245240625,23.0637060546875C17.0737240625,22.626906054687502,16.5361240625,22.1505060546875,16.0873240625,21.6129060546875C15.6193240625,21.0513060546875,15.7657240625,20.7309060546875,16.4785240625,20.6109060546875C17.9857240625,20.3565060546875,19.497724062499998,20.133306054687502,21.0121240625,19.852506054687503C20.6953240625,19.852506054687503,20.3785240625,19.8549060546875,20.061724062499998,19.852506054687503C18.7585240625,19.839306054687498,17.4553240625,19.818906054687503,16.1509240625,19.8141060546875C15.3505240625,19.811706054687498,14.7877240625,19.3965060546875,14.3041240625,18.8168660546875C13.6801240625,18.0680660546875,13.2685240625,17.2136660546875,13.0357240625,16.2728660546875C12.8881240625,15.6764660546875,13.0513240625,15.5120660546875,13.6669240625,15.6548660546875C15.2245240625,16.0172660546875,16.7773240625,16.391666054687498,18.3349240625,16.7564660546875C19.1305240625,16.9424660546875,19.9285240625,17.1152660546875,20.7481240625,17.2184660546875C19.8037240625,16.9064660546875,18.8497240625,16.6208660546875,17.9173240625,16.2752660546875C16.4965240625,15.748466054687501,15.0925240625,15.174866054687499,13.6765240625,14.633666054687499C13.2469240625,14.4692660546875,12.9625240625,14.1836660546875,12.7825200625,13.770866054687499C12.2293200625,12.5084660546875,11.8165202625,11.2112660546875,11.8057202101,9.8180650546875C11.8021203325,9.3104645546875,11.9713200625,9.1856650546875,12.4081200625,9.3968646546875C16.8529240625,11.5448660546875,21.4393240625,13.3544660546875,26.0437640625,15.122066054687501C26.4853640625,15.291266054687501,26.9053640625,15.5408660546875,27.3025640625,15.8036660546875C28.0669640625,16.3124660546875,28.3165640625,16.9544660546875,27.9205640625,17.7596660546875C27.106964062499998,19.4133060546875,26.2129640625,21.028506054687497,25.3453640625,22.6557060546875C25.1305640625,23.0577060546875,24.8893640625,23.4453060546875,24.6217640625,23.9061060546875Z" fill="#2595E8" fill-opacity="1"/></g><g><path d="M25.8969171875,15.064445351562501C21.3416671875,13.3160453515625,16.8068771875,11.5208453515625,12.4100731875,9.3956439515625C11.9744731875,9.1844443515625,11.8040727375,9.3092438515625,11.8076729774,9.8168443515625C11.8184729875,11.2100453515625,12.2312731875,12.5072453515625,12.7844731875,13.769645351562499C12.9656771875,14.1824453515625,13.2488771875,14.4680453515625,13.6784771875,14.632445351562499C15.0944771875,15.173645351562499,16.4984771875,15.747245351562501,17.9192771875,16.2740453515625C18.8516771875,16.6196453515625,19.8056771875,16.9052453515625,20.7500771875,17.2172453515625C19.9304771875,17.1140453515625,19.1324771875,16.9412453515625,18.3368771875,16.7552453515625C16.7804771875,16.3916453515625,15.2264771875,16.0160453515625,13.6688771875,15.6536453515625C13.0532771875,15.5108453515625,12.8900771875,15.6752453515625,13.0376771875,16.2716453515625C13.2704771875,17.213645351562498,13.6820771875,18.0668453515625,14.3060771875,18.8156453515625C14.7884771875,19.3952853515625,15.3524771875,19.8092853515625,16.1528671875,19.8128853515625C17.4560771875,19.817685351562503,18.7592671875,19.839285351562502,20.063667187500002,19.851285351562503C20.380467187500003,19.8548853515625,20.6972771875,19.851285351562503,21.0140771875,19.851285351562503C19.499667187500002,20.132085351562502,17.9876671875,20.356485351562497,16.4804771875,20.6096853515625C15.767667187499999,20.7296853515625,15.6224771875,21.0500853515625,16.0892771875,21.6116853515625C16.5368771875,22.1492853515625,17.0756671875,22.625685351562502,17.6264771875,23.0624853515625C18.4580671875,23.7224853515625,19.3796671875,23.9132853515625,20.4056771875,23.4668853515625C20.8796771875,23.2604853515625,21.399277187499997,23.1572853515625,21.9933171875,22.9772853515625C21.872117187500002,23.5304853515625,21.755677187499998,24.0608853515625,21.6404771875,24.5876853515625C24.2037171875,22.2056853515625,25.8273171875,18.826445351562498,25.8969171875,15.064445351562501Z" fill="#3A9CED" fill-opacity="1"/></g><g><path d="M13.6777140625,14.631163613281249C15.0937140625,15.172363613281249,16.497714062500002,15.745963613281251,17.9185140625,16.27276361328125C18.6949140625,16.56076361328125,19.4869140625,16.80796361328125,20.2753140625,17.06236361328125C20.9533140625,15.96076361328125,21.4765140625,14.75476361328125,21.8125640625,13.47196361328125C18.6373140625,12.20956361328125,15.4885240625,10.88476361328125,12.4081200625,9.39436221328125C11.9725200625,9.18316261328125,11.8021196125,9.30796211328125,11.8057198524,9.81556261328125C11.8165198625,11.20876361328125,12.2293200625,12.50596361328125,12.7825200625,13.768363613281249C12.9649240625,14.18116361328125,13.2493240625,14.467963613281249,13.6777140625,14.631163613281249ZM18.336114062500002,16.75396361328125C16.7797140625,16.39036361328125,15.2257240625,16.01476361328125,13.6681240625,15.65236361328125C13.0525240625,15.50956361328125,12.8893140625,15.67396361328125,13.0369240625,16.27036361328125C13.2697240625,17.212363613281248,13.6813240625,18.06556361328125,14.305314062499999,18.81436361328125C14.787714062500001,19.39400361328125,15.351714062500001,19.80800361328125,16.1521140625,19.81160361328125C16.7713140625,19.81400361328125,17.3917140625,19.82000361328125,18.0109140625,19.82720361328125C18.860514062500002,19.03276361328125,19.6069140625,18.13036361328125,20.226114062500002,17.139163613281248C19.5889140625,17.03716361328125,18.9613140625,16.90036361328125,18.336114062500002,16.75396361328125ZM16.4785140625,20.61080361328125C15.8545140625,20.71640361328125,15.6661240625,20.97440361328125,15.9421140625,21.41480361328125C16.3993140625,21.13040361328125,16.8373140625,20.818403613281248,17.2561140625,20.48240361328125C16.9969140625,20.52440361328125,16.7377140625,20.566403613281253,16.4785140625,20.61080361328125Z" fill="#59ADF8" fill-opacity="1"/></g><g><path d="M13.6777240625,14.631163613281249C14.026924062500001,14.764363613281251,14.3761240625,14.899963613281251,14.7241240625,15.03676361328125C15.7645240625,14.05156361328125,16.6465240625,12.90196361328125,17.326924062499998,11.62636361328125C15.6721240625,10.91716361328125,14.0305240625,10.17916261328125,12.4081200625,9.39436221328125C11.9725200625,9.18316261328125,11.8021196125,9.30796211328125,11.8057198524,9.81556261328125C11.8165198625,11.20876361328125,12.2293200625,12.50596361328125,12.7825200625,13.768363613281249C12.9649240625,14.18116361328125,13.2493240625,14.467963613281249,13.6777240625,14.631163613281249ZM13.6681240625,15.65356361328125C13.0525240625,15.510763613281249,12.8893240625,15.67516361328125,13.0369240625,16.271563613281252C13.0453240625,16.30756361328125,13.0573240625,16.34236361328125,13.0669240625,16.378363613281252C13.3705240625,16.17076361328125,13.6645240625,15.951163613281249,13.9501240625,15.719563613281249C13.8553240625,15.69796361328125,13.7617240625,15.67516361328125,13.6681240625,15.65356361328125Z" fill="#6BC2FC" fill-opacity="1"/></g></g></g></svg>