<svg xmlns="http://www.w3.org/2000/svg" xmlns:xlink="http://www.w3.org/1999/xlink" fill="none" version="1.1" width="17" height="22.66666603088379" viewBox="0 0 17 22.66666603088379"><g><path d="M16.9618,8.47691C16.8954,8.71812,16.809,8.9527,16.7028,9.17843L16.705,9.17843L16.6917,9.2072Q15.9368,10.9024,13.9645,14.2307L13.9556,14.2086L13.38,15.262L16.156,15.262L10.852,22.6667L12.0563,17.6299L9.86915,17.6299L10.6284,14.2993C10.013,14.4542,9.28917,14.6689,8.42805,14.9588Q7.26587,15.6736,5.07654,13.5823Q3.60001,12.2191,4.45671,11.8761C4.81975,11.7322,6.22322,11.5486,7.32785,11.3892Q8.81765,11.1768,9.73633,11.0639Q5.13852,11.1369,4.04718,10.9555C2.95583,10.7762,1.5745,8.86418,1.27787,7.18451Q0.821849,6.26169,2.25631,6.69765Q3.69299,7.13361,9.63671,8.39724Q1.90876,5.91204,1.39519,5.30568C0.881618,4.69931,-0.118965,1.9906,0.0116425,0.32864Q0.0691981,-0.0874042,0.474301,0.0232458Q6.19002,2.76737,10.0972,4.26557C14.0043,5.76819,17.4001,6.53389,16.9618,8.47691Z" fill="#878787" fill-opacity="1"/></g></svg>