<svg xmlns="http://www.w3.org/2000/svg" viewBox="0 0 16 16" fill="none">
  <defs>
    <clipPath id="a">
      <rect width="16" height="16" rx="0"/>
    </clipPath>
  </defs>
  <g clip-path="url(#a)">
    <path fill="currentColor" d="M10.127 12.56a.56.56 0 0 0-.56-.56H4.56a.563.563 0 0 0 0 1.127h5a.56.56 0 0 0 .567-.567Zm2-2.5a.56.56 0 0 0-.56-.56H4.56a.563.563 0 0 0 0 1.127h7a.56.56 0 0 0 .567-.567Zm-3-2.5a.56.56 0 0 0-.56-.56h-4a.563.563 0 1 0 0 1.127h4a.56.56 0 0 0 .56-.567Zm3.733 7.333H3.127V1.127H8v3.746A1.14 1.14 0 0 0 9.127 6h3.733v8.893ZM9.107 1.727l3.14 3.153h-3.14V1.727Zm4.56 2.986L9.333.333a1.2 1.2 0 0 0-.226-.18L9.04.12h-.047a1.12 1.12 0 0 0-.46-.12H3.14A1.14 1.14 0 0 0 2 1.127v13.746A1.14 1.14 0 0 0 3.14 16h9.733A1.113 1.113 0 0 0 14 14.873V5.507c0-.299-.12-.585-.333-.794Z"/>
  </g>
</svg>