<svg xmlns="http://www.w3.org/2000/svg" viewBox="0 0 32 32" fill="none">
  <defs>
    <clipPath id="a">
      <rect width="32" height="32" rx="0"/>
    </clipPath>
  </defs>
  <g clip-path="url(#a)">
    <path fill="currentColor" d="M24.725 8.313A.998.998 0 0 0 24 8h-5.197l.088-.39 5.665-3.779a1.001 1.001 0 0 0-1.11-1.665l-6 4a.997.997 0 0 0-.421.615l-.272 1.216H8a.993.993 0 0 0-.725.313c-.188.2-.288.468-.272.743l1 18a.999.999 0 0 0 1 .944h14c.531 0 .969-.416 1-.944l1-18c.01-.272-.087-.54-.278-.74ZM22.944 10l-.335 6h-3.584l-2.047 9.216a1.003 1.003 0 0 1-1.194.76.993.993 0 0 1-.765-.954L18.359 10h4.585Zm-6.635 0-1.334 6H9.39l-.335-6h7.253Z"/>
  </g>
</svg>