<svg xmlns="http://www.w3.org/2000/svg" fill="none" viewBox="0 0 32 32">
  <defs>
    <clipPath id="a">
      <rect width="32" height="32" rx="0"/>
    </clipPath>
  </defs>
  <g clip-path="url(#a)">
    <path d="M31.28 11.2q-.24-.752-.544-1.472a16.005 16.005 0 0 0-1.472-2.72q-.464-.608-.912-1.184A16 16 0 0 0 16 0a15.888 15.888 0 0 0-7.6 1.92 16 16 0 0 0-7.136 7.856Q.96 10.496.72 11.2A16 16 0 0 0 0 16a16 16 0 0 0 .72 4.8q.24.752.544 1.472a16 16 0 0 0 2.4 3.952q.496.592 1.04 1.136a16.001 16.001 0 0 0 3.68 2.752A15.887 15.887 0 0 0 12.8 31.68a16 16 0 0 0 17.936-9.456q.304-.72.544-1.472c.478-1.539.72-3.14.72-4.752a16 16 0 0 0-.72-4.8ZM16 28.8h-.384a13.118 13.118 0 0 1 0-2.144 10.479 10.479 0 0 1 2.592-4.48 5.023 5.023 0 0 1 1.792-.4 4.288 4.288 0 0 0 2.4-.752c.374-.365.532-.898.416-1.408a5.36 5.36 0 0 0-2.496-3.296 7.377 7.377 0 0 0-2.24-.352 9.6 9.6 0 0 1-3.264-.608 4.701 4.701 0 0 1-.832-.752A5.024 5.024 0 0 0 12 13.168a2.304 2.304 0 0 0-1.84.48 5.888 5.888 0 0 1-3.76.976A22.712 22.712 0 0 1 3.328 14 12.8 12.8 0 0 1 16 3.2h1.072a9.183 9.183 0 0 0 .224 3.376A3.2 3.2 0 0 0 19.2 8l.48.224c.175.65.175 1.334 0 1.984a2.064 2.064 0 0 0 0 1.312 7.84 7.84 0 0 0 3.84 2.144h.368c.284.011.561-.092.768-.288.368-.464.61-1.015.704-1.6a2.048 2.048 0 0 0 1.84-.256c.247-.298.387-.67.4-1.056 4.087 8.52-2.15 18.38-11.6 18.336Z" fill="currentColor"/>
  </g>
</svg>