<svg xmlns="http://www.w3.org/2000/svg" xmlns:xlink="http://www.w3.org/1999/xlink" fill="none" version="1.1" width="20" height="19.479110717773438" viewBox="0 0 20 19.479110717773438"><g><path d="M18.8791,15.5615C18.5055,15.6508,18.1493,15.8237,17.8291,16.0712C17.5152,16.4661,17.119,16.7532,16.6815,16.9027C16.7399,16.433,16.934,16.0043,17.2274,15.6874C17.473,15.2378,17.65,14.7393,17.7499,14.2153C17.7485,13.4705,18.2508,12.8652,18.8719,12.8632C19.493,12.8612,19.998,13.4632,20,14.208C20.002,14.9529,19.5002,15.5588,18.8791,15.5615L18.8791,15.5615ZM16.8207,12.3305C16.4475,12.0338,16.0333,11.8193,15.5973,11.6969C14.976,11.6969,14.4723,11.0928,14.4723,10.3477C14.4723,9.60255,14.976,8.99851,15.5973,8.99851C16.2187,8.99851,16.7224,9.60255,16.7224,10.3477C16.7957,10.7964,16.9381,11.2248,17.1424,11.6109C17.4696,11.9903,17.7067,12.4674,17.8291,12.9931C17.4401,12.9187,17.0849,12.6844,16.8241,12.3305L16.8199,12.3305L16.8207,12.3305ZM14.9673,7.57538C14.6281,4.16846,11.6863,1.49908,8.12704,1.49908C4.33519,1.49908,1.25007,4.52524,1.25007,8.24697C1.31078,10.3367,2.2309,12.2546,3.70684,13.3679C3.94629,13.5794,4.19681,13.7724,4.45688,13.9455L4.15188,15.4056C4.26187,15.4676,4.36854,15.5335,4.48104,15.5905L6.02111,14.6671C6.24611,14.737,6.4828,14.782,6.71779,14.83C6.8678,14.8619,7.01781,14.8949,7.17199,14.9169C8.1324,15.0621,9.10687,14.995,10.0471,14.719C10.0762,15.2187,10.1522,15.7129,10.2738,16.1921C9.57005,16.39,8.84981,16.4909,8.12702,16.4929C7.47858,16.4885,6.83229,16.4031,6.19862,16.2381L3.40429,17.9111C3.18702,18.0444,2.92466,18.0115,2.73509,17.8272C2.54477,17.6443,2.46051,17.3454,2.51926,17.0616L3.01927,14.6471C1.18696,13.2497,0.0549644,10.8502,0,8.24697C0,3.69176,3.63847,0,8.12702,0C12.3888,0,15.879,3.33197,16.219,7.56739C16.0233,7.53127,15.826,7.50791,15.6282,7.49744C15.4073,7.50743,15.1865,7.5324,14.9673,7.57438L14.9673,7.57538ZM12.3714,12.8951C12.7456,12.8052,13.1014,12.6333,13.4214,12.3855C13.7357,11.9911,14.1322,11.7047,14.5698,11.556C14.5101,12.0241,14.3169,12.4529,14.0231,12.7692C13.7773,13.2189,13.6006,13.7186,13.5006,14.2423C13.5015,14.987,12.9991,15.5918,12.378,15.5935C11.757,15.5951,11.2524,14.993,11.2505,14.2483C11.2487,13.5036,11.7504,12.8979,12.3714,12.8951ZM14.3981,16.1412C14.7698,16.44,15.1832,16.6558,15.6182,16.7808C16.2395,16.7808,16.7432,17.3848,16.7432,18.1299C16.7432,18.8751,16.2395,19.4791,15.6182,19.4791C14.9968,19.4791,14.4931,18.8751,14.4931,18.1299C14.4214,17.6807,14.2801,17.2515,14.0764,16.8647C13.7504,16.4836,13.5151,16.0051,13.3947,15.4786C13.784,15.5554,14.1388,15.7925,14.3981,16.1492L14.3981,16.1412Z" fill="#878787" fill-opacity="1"/></g></svg>