
<svg xmlns="http://www.w3.org/2000/svg" xmlns:xlink="http://www.w3.org/1999/xlink" fill="none" version="1.1" width="26.199951171875" height="24.7119140625" viewBox="0 0 26.199951171875 24.7119140625"><g><path d="M2.7194855859375,7.5755775L2.7194855859375,22.8896875L0.9611405859375,22.8896875C0.4874995859375,22.8896875,0.0999755859375,23.2771875,0.0999755859375,23.7507875C0.0999755859375,24.2244875,0.4874995859375,24.6119875,0.9611405859375,24.6119875L25.2387755859375,24.6119875C25.7196755859375,24.6119875,26.0999755859375,24.2244875,26.0999755859375,23.7507875C26.0999755859375,23.2771875,25.7124755859375,22.8896875,25.2387755859375,22.8896875L23.9182755859375,22.8896875L23.9182755859375,10.5174875C23.9182755859375,9.5558475,23.4015755859375,8.6516275,22.5763755859375,8.1564575L14.0150755859375,3.0659875L14.0150755859375,1.4756575C14.0150755859375,0.9876685,13.7495755859375,0.5283804999999999,13.3189755859375,0.2915605C12.8883755859375,0.0475638,12.3573755859375,0.0619164,11.9410755859375,0.3202655L4.0327555859375,5.2145475C3.2074755859375,5.7240775,2.7194855859375,6.6067675,2.7194855859375,7.5755775ZM14.0150755859375,5.0700475L14.0150755859375,22.8896875L22.1959755859375,22.8896875L22.1959755859375,10.5246875C22.1959755859375,10.1658875,22.0022755859375,9.8285475,21.6936755859375,9.6419675L14.0150755859375,5.0700475ZM12.2927755859375,2.1287075L12.2927755859375,22.8896875L4.4418155859375,22.8896875L4.4418155859375,7.5827575C4.4418155859375,7.2167575,4.6283955859375,6.8794675,4.9441555859375,6.6857075L12.2927755859375,2.1287075ZM6.5586755859375,11.3427875L10.2544755859375,11.3427875C10.7281755859375,11.3427875,11.1156755859375,10.9552875,11.1156755859375,10.4815875C11.1156755859375,10.0079575,10.7281755859375,9.6204375,10.2544755859375,9.6204375L6.5586755859375,9.6204375C6.0850355859375,9.6204375,5.6975055859375,10.0079575,5.6975055859375,10.4815875C5.6975055859375,10.9552875,6.0850355859375,11.3427875,6.5586755859375,11.3427875ZM19.6054755859375,14.0914875L15.9096755859375,14.0914875C15.4359755859375,14.0914875,15.0484755859375,13.7039875,15.0484755859375,13.2302875C15.0484755859375,12.7566875,15.4359755859375,12.3691875,15.9096755859375,12.3691875L19.6054755859375,12.3691875C20.0790755859375,12.3691875,20.4665755859375,12.7566875,20.4665755859375,13.2302875C20.4665755859375,13.7039875,20.0862755859375,14.0914875,19.6054755859375,14.0914875ZM6.5586755859375,15.6198875L10.2544755859375,15.6198875C10.7281755859375,15.6198875,11.1156755859375,15.2323875,11.1156755859375,14.7586875C11.1156755859375,14.2850875,10.7281755859375,13.8975875,10.2544755859375,13.8975875L6.5586755859375,13.8975875C6.0850355859375,13.8975875,5.6975055859375,14.2850875,5.6975055859375,14.7586875C5.6975055859375,15.2323875,6.0850355859375,15.6198875,6.5586755859375,15.6198875ZM19.6054755859375,18.7273875L15.9096755859375,18.7273875C15.4359755859375,18.7273875,15.0484755859375,18.3398875,15.0484755859375,17.8662875C15.0484755859375,17.3925875,15.4359755859375,17.0050875,15.9096755859375,17.0050875L19.6054755859375,17.0050875C20.0790755859375,17.0050875,20.4665755859375,17.3925875,20.4665755859375,17.8662875C20.4665755859375,18.3398875,20.0862755859375,18.7273875,19.6054755859375,18.7273875ZM6.5586755859375,19.8969875L10.2544755859375,19.8969875C10.7281755859375,19.8969875,11.1156755859375,19.5094875,11.1156755859375,19.0357875C11.1156755859375,18.5621875,10.7281755859375,18.1746875,10.2544755859375,18.1746875L6.5586755859375,18.1746875C6.0850355859375,18.1746875,5.6975055859375,18.5621875,5.6975055859375,19.0357875C5.6975055859375,19.5094875,6.0850355859375,19.8969875,6.5586755859375,19.8969875Z" fill-rule="evenodd" fill="currentColor" fill-opacity="1"/><path d="M2.8194855859375,7.5755775L2.8194855859375,22.9896875L0.9611405859375,22.9896875Q0.6473305859375,22.9896875,0.4236535859375,23.2132875Q0.1999755859375,23.4369875,0.1999755859375,23.7507875Q0.1999755859375,24.0645875,0.4236535859375,24.2882875Q0.6473305859375,24.5119875,0.9611405859375,24.5119875L25.2387755859375,24.5119875Q25.5565755859375,24.5119875,25.7787755859375,24.2884875Q25.9999755859375,24.0660875,25.9999755859375,23.7507875Q25.9999755859375,23.4369875,25.7762755859375,23.2132875Q25.5525755859375,22.9896875,25.2387755859375,22.9896875L23.8182755859375,22.9896875L23.8182755859375,10.5174875Q23.8183755859375,9.8236075,23.4698755859375,9.2115175Q23.1221755859375,8.6005575,22.5248755859375,8.2422075L13.9150755859375,3.1228675L13.9150755859375,1.4756575Q13.9150755859375,0.7335465,13.2707755859375,0.3791815Q12.6251755859375,0.013356499999999993,11.9938755859375,0.4052295L4.0853855859375,5.2995875Q2.8194855859375,6.0811375,2.8194855859375,7.5755775L2.8194855859375,7.5755775ZM2.6194855859375,7.5755775Q2.6194855859375,5.9695775,3.9801355859375,5.1295175L11.8883755859375,0.2353025Q12.6205755859375,-0.21915449999999997,13.3671755859375,0.2039387Q14.1150755859375,0.6152925,14.1150755859375,1.4756575L14.1150755859375,3.0659875L14.0150755859375,3.0659875L14.0661755859375,2.9800275L22.6277755859375,8.070707500000001Q23.2699755859375,8.4560275,23.6436755859375,9.1125775Q24.0183755859375,9.7706675,24.0182755859375,10.5174875L24.0182755859375,22.8896875L23.9182755859375,22.8896875L23.9182755859375,22.7896875L25.2387755859375,22.7896875Q25.6354755859375,22.7896875,25.9176755859375,23.0718875Q26.1999755859375,23.3541875,26.1999755859375,23.7507875Q26.1999755859375,24.1485875,25.9205755859375,24.4294875Q25.6397755859375,24.7119875,25.2387755859375,24.7119875L0.9611405859375,24.7119875Q0.5644875859375,24.7119875,0.2822325859375,24.4296875Q-0.00002441406250000555,24.1474875,-0.00002441406250000555,23.7507875Q-0.000024314062500002676,23.3541875,0.2822325859375,23.0718875Q0.5644875859375,22.7896875,0.9611405859375,22.7896875L2.7194855859375,22.7896875L2.7194855859375,22.8896875L2.6194855859375,22.8896875L2.6194855859375,7.5755775L2.6194855859375,7.5755775ZM14.1150755859375,5.0700475L14.1150755859375,22.8896875L14.0150755859375,22.8896875L14.0150755859375,22.7896875L22.1959755859375,22.7896875L22.1959755859375,22.8896875L22.0959755859375,22.8896875L22.0959755859375,10.5246875Q22.0959755859375,10.0020975,21.6418755859375,9.7275375L13.9639755859375,5.1559775L14.0150755859375,5.0700475L14.1150755859375,5.0700475ZM13.9150755859375,4.8941275L21.7453755859375,9.5563875Q22.2959755859375,9.8893175,22.2959755859375,10.5246875L22.2959755859375,22.9896875L13.9150755859375,22.9896875L13.9150755859375,5.0700475L13.9150755859375,4.8941275ZM12.3927755859375,2.1287075L12.3927755859375,22.9896875L4.3418155859375,22.9896875L4.3418155859375,7.5827575Q4.3418155859375,6.9380075,4.8918555859375,6.6004775L12.3927755859375,1.9490375L12.3927755859375,2.1287075ZM12.1927755859375,2.1287075L12.2927755859375,2.1287075L12.3454755859375,2.2136975L4.9964555859375,6.7709375Q4.5418155859375,7.0499275,4.5418155859375,7.5827575L4.5418155859375,22.8896875L4.4418155859375,22.8896875L4.4418155859375,22.7896875L12.2927755859375,22.7896875L12.2927755859375,22.8896875L12.1927755859375,22.8896875L12.1927755859375,2.1287075ZM6.5586755859375,11.2427875L10.2544755859375,11.2427875Q10.5682755859375,11.2427875,10.7919755859375,11.0190875Q11.0156755859375,10.7953875,11.0156755859375,10.4815875Q11.0156755859375,10.1677875,10.7919755859375,9.9441075Q10.5682755859375,9.7204375,10.2544755859375,9.7204375L6.5586755859375,9.7204375Q6.2448655859375,9.7204375,6.0211855859375,9.9441175Q5.7975055859375,10.1677875,5.7975055859375,10.4815875Q5.7975055859375,10.7953875,6.0211855859375,11.0190875Q6.2448655859375,11.2427875,6.5586755859375,11.2427875ZM6.5586755859375,11.4427875Q6.1620255859375,11.4427875,5.8797655859375,11.1604875Q5.5975055859375,10.8782875,5.5975055859375,10.4815875Q5.5975055859375,10.0849475,5.8797655859375,9.8026875Q6.1620155859375,9.5204375,6.5586755859375,9.5204375L10.2544755859375,9.5204375Q10.6511755859375,9.5204375,10.9333755859375,9.8026875Q11.2156755859375,10.0849475,11.2156755859375,10.4815875Q11.2156755859375,10.8782875,10.9333755859375,11.1604875Q10.6511755859375,11.4427875,10.2544755859375,11.4427875L6.5586755859375,11.4427875ZM19.6054755859375,14.1914875L15.9096755859375,14.1914875Q15.5129755859375,14.1914875,15.2306755859375,13.9091875Q14.9484755859375,13.6269875,14.9484755859375,13.2302875Q14.9484755859375,12.8336875,15.2306755859375,12.5513875Q15.5129755859375,12.2691875,15.9096755859375,12.2691875L19.6054755859375,12.2691875Q20.0020755859375,12.2691875,20.2843755859375,12.5513875Q20.5665755859375,12.8336875,20.5665755859375,13.2302875Q20.5665755859375,13.6279875,20.2872755859375,13.9089875Q20.0063755859375,14.1914875,19.6054755859375,14.1914875ZM19.6054755859375,13.9914875Q19.9232755859375,13.9914875,20.1454755859375,13.7679875Q20.3665755859375,13.5454875,20.3665755859375,13.2302875Q20.3665755859375,12.9164875,20.1429755859375,12.6927875Q19.9192755859375,12.4691875,19.6054755859375,12.4691875L15.9096755859375,12.4691875Q15.5957755859375,12.4691875,15.3721755859375,12.6927875Q15.1484755859375,12.9164875,15.1484755859375,13.2302875Q15.1484755859375,13.5440875,15.3721755859375,13.7677875Q15.5957755859375,13.9914875,15.9096755859375,13.9914875L19.6054755859375,13.9914875ZM6.5586755859375,15.5198875L10.2544755859375,15.5198875Q10.5682755859375,15.5198875,10.7919755859375,15.2961875Q11.0156755859375,15.0724875,11.0156755859375,14.7586875Q11.0156755859375,14.4448875,10.7919755859375,14.2211875Q10.5682755859375,13.9975875,10.2544755859375,13.9975875L6.5586755859375,13.9975875Q6.2448655859375,13.9975875,6.0211855859375,14.2211875Q5.7975055859375,14.4448875,5.7975055859375,14.7586875Q5.7975055859375,15.0724875,6.0211855859375,15.2961875Q6.2448655859375,15.5198875,6.5586755859375,15.5198875ZM6.5586755859375,15.7198875Q6.1620255859375,15.7198875,5.8797655859375,15.4375875Q5.5975055859375,15.1553875,5.5975055859375,14.7586875Q5.5975055859375,14.3620875,5.8797655859375,14.0797875Q6.1620255859375,13.7975875,6.5586755859375,13.7975875L10.2544755859375,13.7975875Q10.6511755859375,13.7975875,10.9333755859375,14.0797875Q11.2156755859375,14.3620875,11.2156755859375,14.7586875Q11.2156755859375,15.1553875,10.9333755859375,15.4375875Q10.6511755859375,15.7198875,10.2544755859375,15.7198875L6.5586755859375,15.7198875ZM19.6054755859375,18.8273875L15.9096755859375,18.8273875Q15.5129755859375,18.8273875,15.2306755859375,18.5451875Q14.9484755859375,18.2628875,14.9484755859375,17.8662875Q14.9484755859375,17.4695875,15.2306755859375,17.1872875Q15.5129755859375,16.9050875,15.9096755859375,16.9050875L19.6054755859375,16.9050875Q20.0020755859375,16.9050875,20.2843755859375,17.1872875Q20.5665755859375,17.4695875,20.5665755859375,17.8662875Q20.5665755859375,18.2639875,20.2872755859375,18.5449875Q20.0063755859375,18.8273875,19.6054755859375,18.8273875ZM19.6054755859375,18.6273875Q19.9232755859375,18.6273875,20.1454755859375,18.4038875Q20.3665755859375,18.1814875,20.3665755859375,17.8662875Q20.3665755859375,17.5523875,20.1429755859375,17.3287875Q19.9192755859375,17.1050875,19.6054755859375,17.1050875L15.9096755859375,17.1050875Q15.5957755859375,17.1050875,15.3721755859375,17.3287875Q15.1484755859375,17.5523875,15.1484755859375,17.8662875Q15.1484755859375,18.1800875,15.3721755859375,18.4036875Q15.5957755859375,18.6273875,15.9096755859375,18.6273875L19.6054755859375,18.6273875ZM6.5586755859375,19.7969875L10.2544755859375,19.7969875Q10.5682755859375,19.7969875,10.7919755859375,19.5732875Q11.0156755859375,19.3496875,11.0156755859375,19.0357875Q11.0156755859375,18.7219875,10.7919755859375,18.4983875Q10.5682755859375,18.2746875,10.2544755859375,18.2746875L6.5586755859375,18.2746875Q6.2448655859375,18.2746875,6.0211855859375,18.4983875Q5.7975055859375,18.7219875,5.7975055859375,19.0357875Q5.7975055859375,19.3496875,6.0211855859375,19.5732875Q6.2448655859375,19.7969875,6.5586755859375,19.7969875ZM6.5586755859375,19.9969875Q6.1620155859375,19.9969875,5.8797655859375,19.7147875Q5.5975055859375,19.4324875,5.5975055859375,19.0357875Q5.5975055859375,18.6391875,5.8797655859375,18.3568875Q6.1620155859375,18.0746875,6.5586755859375,18.0746875L10.2544755859375,18.0746875Q10.6511755859375,18.0746875,10.9333755859375,18.3568875Q11.2156755859375,18.6391875,11.2156755859375,19.0357875Q11.2156755859375,19.4324875,10.9333755859375,19.7147875Q10.6511755859375,19.9969875,10.2544755859375,19.9969875L6.5586755859375,19.9969875Z" fill="currentColor" fill-opacity="1"/></g></svg>
