<svg xmlns="http://www.w3.org/2000/svg" viewBox="0 0 20 20" fill="none">
  <path fill="currentColor" d="M17.242 12.058 16.717 12v.007l-.001.007.526.043Zm-.282 3.516.525.052.001-.01-.526-.042Zm-13.04 0-.526.042.001.01.525-.052Zm-.281-3.516.526-.043-.001-.008-.525.05Zm.457-1.54-.373-.374-.021.021-.019.024.413.328Zm.014-.015.373.373.018-.018.017-.02-.408-.335Zm12.646-.014-.406.337.016.019.017.017.373-.373Zm.014.021h-.527v.19l.122.147.405-.337Zm-.054 1.505-.282 3.517 1.052.084.281-3.516-1.051-.085Zm-.28 3.508c-.058.584-.105.881-.26 1.075-.121.15-.412.348-1.312.348V18c1.007 0 1.71-.214 2.135-.744.39-.487.438-1.14.486-1.631l-1.05-.103Zm-1.572 1.423H6.016V18h8.848v-1.055Zm-8.848 0c-.9 0-1.19-.197-1.312-.348-.155-.194-.202-.49-.259-1.075l-1.05.103c.048.491.096 1.144.486 1.631.424.53 1.128.744 2.135.744v-1.055Zm-1.57-1.414-.282-3.517-1.051.085.281 3.516 1.052-.084Zm-.282-3.525c-.043-.44.094-.847.344-1.161l-.825-.657a2.66 2.66 0 0 0-.57 1.92l1.05-.102Zm.305-1.117.007-.007.007-.007-.746-.746-.007.007-.007.007.746.746Zm.049-.052c.29-.353.725-.574 1.217-.574V9.209a2.62 2.62 0 0 0-2.033.96l.816.669Zm1.217-.574h9.41V9.209h-9.41v1.055Zm9.41 0c.492 0 .922.22 1.205.562l.812-.674a2.613 2.613 0 0 0-2.016-.943v1.055Zm1.238.598c.01.01-.015-.014-.04-.046a.51.51 0 0 1-.1-.306h1.055a.546.546 0 0 0-.152-.376c-.008-.01-.016-.017-.017-.018l-.746.746Zm-.018-.015c.26.313.4.715.352 1.154l1.05.113a2.585 2.585 0 0 0-.59-1.94l-.812.673Z"/>
  <path fill="currentColor" d="M3.934 10.04a.528.528 0 1 0 1.055 0H3.934ZM9.78 4.144l.423-.315v-.001l-.423.316Zm.893 1.196-.422.316.003.004.42-.32Zm5.212 4.727a.528.528 0 0 0 1.055 0h-1.055ZM4.99 10.039V6.417H3.934v3.622H4.99Zm0-3.622c0-1.2.163-1.738.444-2.018.28-.28.819-.444 2.018-.444V2.9c-1.192 0-2.148.137-2.764.753-.617.616-.753 1.572-.753 2.764H4.99Zm2.462-2.462h.893V2.9h-.893v1.055Zm.893 0c.4 0 .565.061.654.115.102.061.179.152.36.392l.843-.633c-.157-.21-.351-.478-.66-.663-.32-.193-.703-.266-1.197-.266v1.055Zm1.013.506.893 1.196.845-.632-.893-1.195-.845.631Zm.896 1.2c.098.129.247.337.484.481.252.152.544.205.892.205V5.292c-.25 0-.323-.04-.345-.052-.035-.021-.065-.053-.192-.219l-.84.64Zm1.376.686h1.794V5.292h-1.794v1.055Zm1.794 0c1.2 0 1.737.163 2.018.443.28.28.443.82.443 2.019h1.055c0-1.192-.136-2.149-.752-2.765-.616-.616-1.573-.752-2.764-.752v1.055Zm2.461 2.462v1.259h1.055v-1.26h-1.055ZM8.633 13.428a.528.528 0 1 0 0 1.055v-1.055Zm3.615 1.055a.528.528 0 0 0 0-1.055v1.055Zm-3.615 0h3.615v-1.055H8.633v1.055Z"/>
</svg>