<svg xmlns="http://www.w3.org/2000/svg" xmlns:xlink="http://www.w3.org/1999/xlink" fill="none" version="1.1" width="16" height="16" viewBox="0 0 16 16"><g style="mix-blend-mode:passthrough"><g style="mix-blend-mode:passthrough"><g style="mix-blend-mode:passthrough"><g style="mix-blend-mode:passthrough"><path d="M14.446468372726441,9.53297848701477C14.446468372726441,9.53297848701477,13.94926837272644,9.47970848701477,13.94926837272644,9.47970848701477C13.94926837272644,9.47970848701477,13.94856837272644,9.486398487014771,13.94856837272644,9.486398487014771C13.94856837272644,9.486398487014771,13.948068372726441,9.493108487014771,13.948068372726441,9.493108487014771C13.948068372726441,9.493108487014771,14.446468372726441,9.53297848701477,14.446468372726441,9.53297848701477C14.446468372726441,9.53297848701477,14.446468372726441,9.53297848701477,14.446468372726441,9.53297848701477ZM14.179768372726441,12.86630848701477C14.179768372726441,12.86630848701477,14.677468372726441,12.91510848701477,14.677468372726441,12.91510848701477C14.677468372726441,12.91510848701477,14.678268372726441,12.90618848701477,14.678268372726441,12.90618848701477C14.678268372726441,12.90618848701477,14.179768372726441,12.86630848701477,14.179768372726441,12.86630848701477C14.179768372726441,12.86630848701477,14.179768372726441,12.86630848701477,14.179768372726441,12.86630848701477ZM1.8198093727264404,12.86630848701477C1.8198093727264404,12.86630848701477,1.3213213727264406,12.90618848701477,1.3213213727264406,12.90618848701477C1.3213213727264406,12.90618848701477,1.3221943727264405,12.91509848701477,1.3221943727264405,12.91509848701477C1.3221943727264405,12.91509848701477,1.8198093727264404,12.86630848701477,1.8198093727264404,12.86630848701477C1.8198093727264404,12.86630848701477,1.8198093727264404,12.86630848701477,1.8198093727264404,12.86630848701477ZM1.5531423727264404,9.53297848701477C1.5531423727264404,9.53297848701477,2.0516183727264403,9.49309848701477,2.0516183727264403,9.49309848701477C2.0516183727264403,9.49309848701477,2.0508383727264405,9.48500848701477,2.0508383727264405,9.48500848701477C2.0508383727264405,9.48500848701477,1.5531423727264404,9.53297848701477,1.5531423727264404,9.53297848701477C1.5531423727264404,9.53297848701477,1.5531423727264404,9.53297848701477,1.5531423727264404,9.53297848701477ZM1.9864753727264404,8.07297848701477C1.9864753727264404,8.07297848701477,1.6329223727264406,7.719425487014771,1.6329223727264406,7.719425487014771C1.6329223727264406,7.719425487014771,1.6129733727264406,7.73937348701477,1.6129733727264406,7.73937348701477C1.6129733727264406,7.73937348701477,1.5953953727264403,7.761439487014771,1.5953953727264403,7.761439487014771C1.5953953727264403,7.761439487014771,1.9864753727264404,8.07297848701477,1.9864753727264404,8.07297848701477C1.9864753727264404,8.07297848701477,1.9864753727264404,8.07297848701477,1.9864753727264404,8.07297848701477ZM1.9998093727264403,8.05964848701477C1.9998093727264403,8.05964848701477,2.3533683727264405,8.413198487014771,2.3533683727264405,8.413198487014771C2.3533683727264405,8.413198487014771,2.3707083727264404,8.39584848701477,2.3707083727264404,8.39584848701477C2.3707083727264404,8.39584848701477,2.38626837272644,8.37688848701477,2.38626837272644,8.37688848701477C2.38626837272644,8.37688848701477,1.9998093727264403,8.05964848701477,1.9998093727264403,8.05964848701477C1.9998093727264403,8.05964848701477,1.9998093727264403,8.05964848701477,1.9998093727264403,8.05964848701477ZM13.98646837272644,8.04630848701477C13.98646837272644,8.04630848701477,13.60186837272644,8.36581848701477,13.60186837272644,8.36581848701477C13.60186837272644,8.36581848701477,13.61656837272644,8.38355848701477,13.61656837272644,8.38355848701477C13.61656837272644,8.38355848701477,13.63286837272644,8.399868487014771,13.63286837272644,8.399868487014771C13.63286837272644,8.399868487014771,13.98646837272644,8.04630848701477,13.98646837272644,8.04630848701477C13.98646837272644,8.04630848701477,13.98646837272644,8.04630848701477,13.98646837272644,8.04630848701477ZM13.999768372726441,8.066308487014771C13.999768372726441,8.066308487014771,13.499768372726441,8.066308487014771,13.499768372726441,8.066308487014771C13.499768372726441,8.066308487014771,13.499768372726441,8.24686848701477,13.499768372726441,8.24686848701477C13.499768372726441,8.24686848701477,13.61516837272644,8.38576848701477,13.61516837272644,8.38576848701477C13.61516837272644,8.38576848701477,13.999768372726441,8.066308487014771,13.999768372726441,8.066308487014771C13.999768372726441,8.066308487014771,13.999768372726441,8.066308487014771,13.999768372726441,8.066308487014771ZM13.948068372726441,9.493108487014771C13.948068372726441,9.493108487014771,13.68136837272644,12.82643848701477,13.68136837272644,12.82643848701477C13.68136837272644,12.82643848701477,14.678268372726441,12.90618848701477,14.678268372726441,12.90618848701477C14.678268372726441,12.90618848701477,14.944868372726441,9.57284848701477,14.944868372726441,9.57284848701477C14.944868372726441,9.57284848701477,13.948068372726441,9.493108487014771,13.948068372726441,9.493108487014771C13.948068372726441,9.493108487014771,13.948068372726441,9.493108487014771,13.948068372726441,9.493108487014771ZM13.68216837272644,12.81752848701477C13.627868372726441,13.37164848701477,13.58326837272644,13.65266848701477,13.43626837272644,13.83621848701477C13.32166837272644,13.97922848701477,13.04546837272644,14.16630848701477,12.19306837272644,14.16630848701477C12.19306837272644,14.16630848701477,12.19306837272644,15.16630848701477,12.19306837272644,15.16630848701477C13.14746837272644,15.16630848701477,13.814568372726441,14.96337848701477,14.21666837272644,14.46137848701477C14.58626837272644,13.99997848701477,14.631668372726441,13.380968487014771,14.677468372726441,12.91509848701477C14.677468372726441,12.91509848701477,13.68216837272644,12.81752848701477,13.68216837272644,12.81752848701477C13.68216837272644,12.81752848701477,13.68216837272644,12.81752848701477,13.68216837272644,12.81752848701477ZM12.19306837272644,14.16630848701477C12.19306837272644,14.16630848701477,3.8064783727264406,14.16630848701477,3.8064783727264406,14.16630848701477C3.8064783727264406,14.16630848701477,3.8064783727264406,15.16630848701477,3.8064783727264406,15.16630848701477C3.8064783727264406,15.16630848701477,12.19306837272644,15.16630848701477,12.19306837272644,15.16630848701477C12.19306837272644,15.16630848701477,12.19306837272644,14.16630848701477,12.19306837272644,14.16630848701477C12.19306837272644,14.16630848701477,12.19306837272644,14.16630848701477,12.19306837272644,14.16630848701477ZM3.8064783727264406,14.16630848701477C2.9540883727264404,14.16630848701477,2.6779383727264405,13.97922848701477,2.5633783727264405,13.83621848701477C2.41634837272644,13.65266848701477,2.37174837272644,13.37164848701477,2.3174283727264404,12.81752848701477C2.3174283727264404,12.81752848701477,1.3221943727264405,12.91509848701477,1.3221943727264405,12.91509848701477C1.3678683727264405,13.380968487014771,1.4132703727264404,13.99997848701477,1.7829043727264404,14.46137848701477C2.1850183727264403,14.96337848701477,2.8521983727264404,15.16630848701477,3.8064783727264406,15.16630848701477C3.8064783727264406,15.16630848701477,3.8064783727264406,14.16630848701477,3.8064783727264406,14.16630848701477C3.8064783727264406,14.16630848701477,3.8064783727264406,14.16630848701477,3.8064783727264406,14.16630848701477ZM2.3182183727264407,12.82643848701477C2.3182183727264407,12.82643848701477,2.0515483727264403,9.493108487014771,2.0515483727264403,9.493108487014771C2.0515483727264403,9.493108487014771,1.0547344727264405,9.57284848701477,1.0547344727264405,9.57284848701477C1.0547344727264405,9.57284848701477,1.3214013727264404,12.90618848701477,1.3214013727264404,12.90618848701477C1.3214013727264404,12.90618848701477,2.3182183727264407,12.82643848701477,2.3182183727264407,12.82643848701477C2.3182183727264407,12.82643848701477,2.3182183727264407,12.82643848701477,2.3182183727264407,12.82643848701477ZM2.0508383727264405,9.48500848701477C2.0106283727264405,9.067848487014771,2.1405283727264406,8.682058487014771,2.3775583727264404,8.38451848701477C2.3775583727264404,8.38451848701477,1.5953953727264403,7.761439487014771,1.5953953727264403,7.761439487014771C1.2057543727264404,8.250568487014771,0.9889897727264404,8.89143848701477,1.0554491727264403,9.580948487014771C1.0554491727264403,9.580948487014771,2.0508383727264405,9.48500848701477,2.0508383727264405,9.48500848701477C2.0508383727264405,9.48500848701477,2.0508383727264405,9.48500848701477,2.0508383727264405,9.48500848701477ZM2.34002837272644,8.426528487014771C2.34335837272644,8.42320848701477,2.3450283727264405,8.42153848701477,2.3466883727264403,8.41986848701477C2.34835837272644,8.41820848701477,2.3500283727264404,8.41653848701477,2.3533683727264405,8.413198487014771C2.3533683727264405,8.413198487014771,1.6462553727264404,7.7060914870147705,1.6462553727264404,7.7060914870147705C1.6429263727264405,7.709421487014771,1.6412623727264404,7.7110854870147705,1.6395973727264406,7.71274948701477C1.6379293727264406,7.714417487014771,1.6362593727264403,7.716087487014771,1.6329223727264406,7.719425487014771C1.6329223727264406,7.719425487014771,2.34002837272644,8.426528487014771,2.34002837272644,8.426528487014771C2.34002837272644,8.426528487014771,2.34002837272644,8.426528487014771,2.34002837272644,8.426528487014771ZM2.38626837272644,8.37688848701477C2.6610383727264404,8.04217848701477,3.0742683727264404,7.8329784870147705,3.5398083727264402,7.8329784870147705C3.5398083727264402,7.8329784870147705,3.5398083727264402,6.8329784870147705,3.5398083727264402,6.8329784870147705C2.7653483727264403,6.8329784870147705,2.0719083727264405,7.1837814870147705,1.6133453727264404,7.74239848701477C1.6133453727264404,7.74239848701477,2.38626837272644,8.37688848701477,2.38626837272644,8.37688848701477C2.38626837272644,8.37688848701477,2.38626837272644,8.37688848701477,2.38626837272644,8.37688848701477ZM3.5398083727264402,7.8329784870147705C3.5398083727264402,7.8329784870147705,12.45976837272644,7.8329784870147705,12.45976837272644,7.8329784870147705C12.45976837272644,7.8329784870147705,12.45976837272644,6.8329784870147705,12.45976837272644,6.8329784870147705C12.45976837272644,6.8329784870147705,3.5398083727264402,6.8329784870147705,3.5398083727264402,6.8329784870147705C3.5398083727264402,6.8329784870147705,3.5398083727264402,7.8329784870147705,3.5398083727264402,7.8329784870147705C3.5398083727264402,7.8329784870147705,3.5398083727264402,7.8329784870147705,3.5398083727264402,7.8329784870147705ZM12.45976837272644,7.8329784870147705C12.92526837272644,7.8329784870147705,13.33306837272644,8.04225848701477,13.60186837272644,8.36581848701477C13.60186837272644,8.36581848701477,14.371068372726441,7.726801487014771,14.371068372726441,7.726801487014771C13.919868372726441,7.183695487014771,13.23426837272644,6.8329784870147705,12.45976837272644,6.8329784870147705C12.45976837272644,6.8329784870147705,12.45976837272644,7.8329784870147705,12.45976837272644,7.8329784870147705C12.45976837272644,7.8329784870147705,12.45976837272644,7.8329784870147705,12.45976837272644,7.8329784870147705ZM13.63286837272644,8.399868487014771C13.64276837272644,8.409728487014771,13.618668372726441,8.38695848701477,13.59566837272644,8.35630848701477C13.57656837272644,8.33092848701477,13.499768372726441,8.22612848701477,13.499768372726441,8.066308487014771C13.499768372726441,8.066308487014771,14.499768372726441,8.066308487014771,14.499768372726441,8.066308487014771C14.499768372726441,7.899828487014771,14.41966837272644,7.7883654870147705,14.39566837272644,7.75631248701477C14.37926837272644,7.73448748701477,14.36436837272644,7.71810648701477,14.35606837272644,7.70934248701477C14.348068372726441,7.700767487014771,14.340568372726441,7.69334148701477,14.34006837272644,7.69275848701477C14.34006837272644,7.69275848701477,13.63286837272644,8.399868487014771,13.63286837272644,8.399868487014771C13.63286837272644,8.399868487014771,13.63286837272644,8.399868487014771,13.63286837272644,8.399868487014771ZM13.61516837272644,8.38576848701477C13.86176837272644,8.682708487014771,13.99386837272644,9.06350848701477,13.94926837272644,9.47970848701477C13.94926837272644,9.47970848701477,14.94366837272644,9.586248487014771,14.94366837272644,9.586248487014771C15.01906837272644,8.88244848701477,14.79116837272644,8.236578487014771,14.38446837272644,7.746861487014771C14.38446837272644,7.746861487014771,13.61516837272644,8.38576848701477,13.61516837272644,8.38576848701477C13.61516837272644,8.38576848701477,13.61516837272644,8.38576848701477,13.61516837272644,8.38576848701477Z" fill="#596780" fill-opacity="1"/></g><g style="mix-blend-mode:passthrough"><path d="M1.8333632946014404,7.620156299514771C1.8333632946014404,7.896296299514771,2.0572202946014406,8.120156299514772,2.3333632946014404,8.120156299514772C2.6095062946014407,8.120156299514772,2.8333632946014404,7.896296299514771,2.8333632946014404,7.620156299514771C2.8333632946014404,7.620156299514771,1.8333632946014404,7.620156299514771,1.8333632946014404,7.620156299514771C1.8333632946014404,7.620156299514771,1.8333632946014404,7.620156299514771,1.8333632946014404,7.620156299514771ZM7.3733632946014405,2.0334862995147702C7.3733632946014405,2.0334862995147702,7.773933294601441,1.7342402995147705,7.773933294601441,1.7342402995147705C7.773933294601441,1.7342402995147705,7.773363294601441,1.7334862995147704,7.773363294601441,1.7334862995147704C7.773363294601441,1.7334862995147704,7.3733632946014405,2.0334862995147702,7.3733632946014405,2.0334862995147702C7.3733632946014405,2.0334862995147702,7.3733632946014405,2.0334862995147702,7.3733632946014405,2.0334862995147702ZM8.22003329460144,3.1668162995147706C8.22003329460144,3.1668162995147706,7.81945329460144,3.4660762995147705,7.81945329460144,3.4660762995147705C7.81945329460144,3.4660762995147705,7.82231329460144,3.4698362995147707,7.82231329460144,3.4698362995147707C7.82231329460144,3.4698362995147707,8.22003329460144,3.1668162995147706,8.22003329460144,3.1668162995147706C8.22003329460144,3.1668162995147706,8.22003329460144,3.1668162995147706,8.22003329460144,3.1668162995147706ZM13.160063294601441,7.646816299514771C13.160063294601441,7.92295629951477,13.38386329460144,8.146816299514771,13.660063294601441,8.146816299514771C13.93616329460144,8.146816299514771,14.160063294601441,7.92295629951477,14.160063294601441,7.646816299514771C14.160063294601441,7.646816299514771,13.160063294601441,7.646816299514771,13.160063294601441,7.646816299514771C13.160063294601441,7.646816299514771,13.160063294601441,7.646816299514771,13.160063294601441,7.646816299514771ZM2.8333632946014404,7.620156299514771C2.8333632946014404,7.620156299514771,2.8333632946014404,4.186816299514771,2.8333632946014404,4.186816299514771C2.8333632946014404,4.186816299514771,1.8333632946014404,4.186816299514771,1.8333632946014404,4.186816299514771C1.8333632946014404,4.186816299514771,1.8333632946014404,7.620156299514771,1.8333632946014404,7.620156299514771C1.8333632946014404,7.620156299514771,2.8333632946014404,7.620156299514771,2.8333632946014404,7.620156299514771C2.8333632946014404,7.620156299514771,2.8333632946014404,7.620156299514771,2.8333632946014404,7.620156299514771ZM2.8333632946014404,4.186816299514771C2.8333632946014404,3.0499162995147704,2.9875832946014405,2.5396962995147705,3.2535832946014405,2.2737062995147705C3.5195732946014404,2.0077062995147705,4.02979329460144,1.8534862995147705,5.1666932946014406,1.8534862995147705C5.1666932946014406,1.8534862995147705,5.1666932946014406,0.8534862995147705,5.1666932946014406,0.8534862995147705C4.0369332946014405,0.8534862995147705,3.1304832946014405,0.9825952995147705,2.5464762946014403,1.5665992995147704C1.9624722946014403,2.1506062995147706,1.8333632946014404,3.0570562995147705,1.8333632946014404,4.186816299514771C1.8333632946014404,4.186816299514771,2.8333632946014404,4.186816299514771,2.8333632946014404,4.186816299514771C2.8333632946014404,4.186816299514771,2.8333632946014404,4.186816299514771,2.8333632946014404,4.186816299514771ZM5.1666932946014406,1.8534862995147705C5.1666932946014406,1.8534862995147705,6.01336329460144,1.8534862995147705,6.01336329460144,1.8534862995147705C6.01336329460144,1.8534862995147705,6.01336329460144,0.8534862995147705,6.01336329460144,0.8534862995147705C6.01336329460144,0.8534862995147705,5.1666932946014406,0.8534862995147705,5.1666932946014406,0.8534862995147705C5.1666932946014406,0.8534862995147705,5.1666932946014406,1.8534862995147705,5.1666932946014406,1.8534862995147705C5.1666932946014406,1.8534862995147705,5.1666932946014406,1.8534862995147705,5.1666932946014406,1.8534862995147705ZM6.01336329460144,1.8534862995147705C6.391753294601441,1.8534862995147705,6.54855329460144,1.9111262995147704,6.63334329460144,1.9620662995147704C6.72965329460144,2.0199362995147707,6.8026032946014405,2.1058062995147706,6.97336329460144,2.3334862995147705C6.97336329460144,2.3334862995147705,7.773363294601441,1.7334862995147704,7.773363294601441,1.7334862995147704C7.62412329460144,1.5344992995147706,7.4404132946014405,1.2803682995147705,7.14838329460144,1.1049022995147704C6.8448332946014405,0.9225135995147705,6.4816332946014406,0.8534862995147705,6.01336329460144,0.8534862995147705C6.01336329460144,0.8534862995147705,6.01336329460144,1.8534862995147705,6.01336329460144,1.8534862995147705C6.01336329460144,1.8534862995147705,6.01336329460144,1.8534862995147705,6.01336329460144,1.8534862995147705ZM6.97279329460144,2.3327362995147705C6.97279329460144,2.3327362995147705,7.819463294601441,3.4660662995147704,7.819463294601441,3.4660662995147704C7.819463294601441,3.4660662995147704,8.620593294601441,2.8675762995147704,8.620593294601441,2.8675762995147704C8.620593294601441,2.8675762995147704,7.773933294601441,1.7342412995147705,7.773933294601441,1.7342412995147705C7.773933294601441,1.7342412995147705,6.97279329460144,2.3327362995147705,6.97279329460144,2.3327362995147705C6.97279329460144,2.3327362995147705,6.97279329460144,2.3327362995147705,6.97279329460144,2.3327362995147705ZM7.82231329460144,3.4698362995147707C7.91567329460144,3.5923762995147706,8.05654329460144,3.7895362995147703,8.28159329460144,3.9260162995147705C8.51994329460144,4.07055629951477,8.79669329460144,4.12015629951477,9.126693294601441,4.12015629951477C9.126693294601441,4.12015629951477,9.126693294601441,3.1201562995147705,9.126693294601441,3.1201562995147705C8.89003329460144,3.1201562995147705,8.820113294601441,3.0830762995147705,8.80013329460144,3.0709562995147706C8.76685329460144,3.0507762995147707,8.737713294601441,3.0212562995147705,8.61774329460144,2.8637962995147705C8.61774329460144,2.8637962995147705,7.82231329460144,3.4698362995147707,7.82231329460144,3.4698362995147707C7.82231329460144,3.4698362995147707,7.82231329460144,3.4698362995147707,7.82231329460144,3.4698362995147707ZM9.126693294601441,4.12015629951477C9.126693294601441,4.12015629951477,10.82669329460144,4.12015629951477,10.82669329460144,4.12015629951477C10.82669329460144,4.12015629951477,10.82669329460144,3.1201562995147705,10.82669329460144,3.1201562995147705C10.82669329460144,3.1201562995147705,9.126693294601441,3.1201562995147705,9.126693294601441,3.1201562995147705C9.126693294601441,3.1201562995147705,9.126693294601441,4.12015629951477,9.126693294601441,4.12015629951477C9.126693294601441,4.12015629951477,9.126693294601441,4.12015629951477,9.126693294601441,4.12015629951477ZM10.82669329460144,4.12015629951477C11.96366329460144,4.12015629951477,12.47386329460144,4.2743762995147705,12.73986329460144,4.5403762995147705C13.00586329460144,4.806366299514771,13.160063294601441,5.316576299514771,13.160063294601441,6.45348629951477C13.160063294601441,6.45348629951477,14.160063294601441,6.45348629951477,14.160063294601441,6.45348629951477C14.160063294601441,5.323726299514771,14.03086329460144,4.4172762995147705,13.44686329460144,3.8332662995147704C12.862863294601441,3.2492562995147707,11.956463294601441,3.1201562995147705,10.82669329460144,3.1201562995147705C10.82669329460144,3.1201562995147705,10.82669329460144,4.12015629951477,10.82669329460144,4.12015629951477C10.82669329460144,4.12015629951477,10.82669329460144,4.12015629951477,10.82669329460144,4.12015629951477ZM13.160063294601441,6.45348629951477C13.160063294601441,6.45348629951477,13.160063294601441,7.646816299514771,13.160063294601441,7.646816299514771C13.160063294601441,7.646816299514771,14.160063294601441,7.646816299514771,14.160063294601441,7.646816299514771C14.160063294601441,7.646816299514771,14.160063294601441,6.45348629951477,14.160063294601441,6.45348629951477C14.160063294601441,6.45348629951477,13.160063294601441,6.45348629951477,13.160063294601441,6.45348629951477C13.160063294601441,6.45348629951477,13.160063294601441,6.45348629951477,13.160063294601441,6.45348629951477Z" fill="#596780" fill-opacity="1"/></g><g style="mix-blend-mode:passthrough"><path d="M6.28661036491394,10.83297848701477C6.01046736491394,10.83297848701477,5.78661036491394,11.056835487014771,5.78661036491394,11.33297848701477C5.78661036491394,11.60912148701477,6.01046736491394,11.83297848701477,6.28661036491394,11.83297848701477C6.28661036491394,11.83297848701477,6.28661036491394,10.83297848701477,6.28661036491394,10.83297848701477C6.28661036491394,10.83297848701477,6.28661036491394,10.83297848701477,6.28661036491394,10.83297848701477ZM9.71328036491394,11.83297848701477C9.98942036491394,11.83297848701477,10.21328036491394,11.60912148701477,10.21328036491394,11.33297848701477C10.21328036491394,11.056835487014771,9.98942036491394,10.83297848701477,9.71328036491394,10.83297848701477C9.71328036491394,10.83297848701477,9.71328036491394,11.83297848701477,9.71328036491394,11.83297848701477C9.71328036491394,11.83297848701477,9.71328036491394,11.83297848701477,9.71328036491394,11.83297848701477ZM6.28661036491394,11.83297848701477C6.28661036491394,11.83297848701477,9.71328036491394,11.83297848701477,9.71328036491394,11.83297848701477C9.71328036491394,11.83297848701477,9.71328036491394,10.83297848701477,9.71328036491394,10.83297848701477C9.71328036491394,10.83297848701477,6.28661036491394,10.83297848701477,6.28661036491394,10.83297848701477C6.28661036491394,10.83297848701477,6.28661036491394,11.83297848701477,6.28661036491394,11.83297848701477C6.28661036491394,11.83297848701477,6.28661036491394,11.83297848701477,6.28661036491394,11.83297848701477Z" fill="#596780" fill-opacity="1"/></g><g style="opacity:0;mix-blend-mode:passthrough"></g></g></g></g></svg>