<svg xmlns="http://www.w3.org/2000/svg" xmlns:xlink="http://www.w3.org/1999/xlink" fill="none" version="1.1" width="16" height="16" viewBox="0 0 16 16"><defs><clipPath id="master_svg0_3392_59301"><rect x="0" y="0" width="16" height="16" rx="0"/></clipPath></defs><g clip-path="url(#master_svg0_3392_59301)"><g><path d="M13.6375732421875,11.81046009L13.6385326381875,11.81046009L13.6385326381875,11.8046875L13.6375732421875,11.81046009Z" fill="#272536" fill-opacity="1"/></g><g><path d="M12.65454912109375,3.347015C10.08808912109375,0.780162,5.91191912109375,0.780162,3.34550912109375,3.347015C0.77862812109375,5.913435,0.77862812109375,10.089625,3.34550912109375,12.656075C5.91192912109375,15.222875,10.08810912109375,15.222875,12.65454912109375,12.656075C15.22144912109375,10.089625,15.22144912109375,5.913435,12.65454912109375,3.347015ZM11.98644912109375,11.987975C9.78833912109375,14.186575,6.21121912109375,14.186175,4.01332912109375,11.987975C1.81498112109375,9.789865,1.81498112109375,6.213195,4.01332912109375,4.014845C6.21121912109375,1.8169629999999999,9.78835912109375,1.8164989999999999,11.98644912109375,4.014845C14.18454912109375,6.212755,14.18454912109375,9.790325,11.98644912109375,11.987975Z" fill="#231F20" fill-opacity="1"/></g><g><path d="M9.41397361328125,5.29296875C8.90999361328125,5.29296875,8.41445361328125,5.55264875,7.999533613281249,6.02909375C7.586023613281251,5.55266475,7.08997361328125,5.29296875,6.58601361328125,5.29296875C5.40934061328125,5.29296875,4.45245361328125,6.32559875,4.45245361328125,7.59481875C4.45245361328125,8.19739875,4.82939861328125,8.99645875,5.31327861328125,9.436988750000001C5.75852361328125,9.987098750000001,7.56690361328125,11.63463875,8.00555361328125,11.63463875C8.42374361328125,11.63463875,10.186433613281249,10.059828750000001,10.667103613281249,9.45705875C11.16918361328125,8.99877875,11.54774361328125,8.198308749999999,11.54774361328125,7.59481875C11.547773613281251,6.32559875,10.59066361328125,5.29296875,9.41397361328125,5.29296875ZM10.07178361328125,8.80482875L10.020053613281249,8.85191875L9.97621361328125,8.90646875C9.60747361328125,9.36940875,8.52124361328125,10.32929875,8.00420361328125,10.67194875C7.47319361328125,10.31947875,6.34545361328125,9.307858750000001,5.99956361328125,8.88126875L5.95761361328125,8.82952875L5.90818361328125,8.78432875C5.5799736132812505,8.48596875,5.33567961328125,7.9099587499999995,5.33567961328125,7.59481875C5.33567961328125,6.8125487499999995,5.89653361328125,6.17617775,6.58601361328125,6.17617775C6.82564361328125,6.17617775,7.090903613281251,6.3293187500000005,7.3333536132812505,6.6081087499999995L7.999533613281249,7.37524875L8.66615361328125,6.60856875C8.908603613281251,6.32979875,9.17432361328125,6.17617675,9.41397361328125,6.17617675C10.103473613281249,6.17617675,10.66477361328125,6.81252875,10.66477361328125,7.59481875C10.66477361328125,7.911368749999999,10.420953613281249,8.48641875,10.07178361328125,8.80482875Z" fill="#231F20" fill-opacity="1"/></g></g></svg>