<svg xmlns="http://www.w3.org/2000/svg"
  xmlns:xlink="http://www.w3.org/1999/xlink" fill="none" version="1.1" width="20" height="20" viewBox="0 0 20 20">
  <defs>
    <clipPath id="master_svg0_5096_67895">
      <rect x="0" y="0" width="20" height="20" rx="0"/>
    </clipPath>
  </defs>
  <g clip-path="url(#master_svg0_5096_67895)">
    <g>
      <path d="M16.335928125000002,5.0352106249999995L15.780628125,5.0352106249999995C16.062228125,4.557830624999999,16.185728125,4.102500624999999,16.146328125,3.680150625C16.113528125000002,3.326670625,15.946028125,2.821111625,15.332128125,2.418205625C14.823128125,2.083372445,14.168628125,2.001248125,13.442428125,2.182665125C12.264828125,2.478324625,10.871148125,3.494770625,9.954788125,4.723160625C9.037868125,3.4947906250000003,7.645298125,2.478324625,6.467728125,2.182665025C5.740968125,2.000068825,5.085868125,2.082772675,4.576958125,2.418205625C3.9635881250000002,2.821111625,3.7960281250000003,3.326670625,3.763288125,3.680150625C3.7238081249999997,4.102500624999999,3.846228125,4.557830624999999,4.128918125,5.0352106249999995L3.573698125,5.0352106249999995C2.733004125,5.0352106249999995,2.048828125,5.719910625,2.048828125,6.561240625L2.048828125,8.526780625C2.048828125,9.192310625000001,2.487790125,9.780510625,3.1228781249999997,9.978040625C3.062518125,10.145050625,3.030922125,10.317690625,3.030922125,10.492630625L3.030922125,16.389590625C3.030922125,17.230290625000002,3.7158781249999997,17.915290625,4.556648125000001,17.915290625L15.354628125,17.915290625C16.195328125,17.915290625,16.879228124999997,17.230390625,16.879228124999997,16.389590625L16.879228124999997,10.492610625C16.879228124999997,10.316550625,16.848828125,10.143350625,16.788428125,9.977440625C17.422628125,9.778810625,17.860528125000002,9.190610625,17.860528125000002,8.526760625L17.860528125000002,6.561730625C17.860528125000002,5.720470625,17.176628125,5.0352106249999995,16.335928125000002,5.0352106249999995ZM15.354628125,16.828590625L10.497618125,16.828590625L10.497618125,10.053070625L15.354628125,10.053070625C15.596728125,10.053070625,15.793028125,10.250540625,15.793028125,10.492610625L15.793028125,16.389590625C15.793028125,16.631690624999997,15.596728125,16.828590625,15.354628125,16.828590625ZM11.095718125,5.0352106249999995C11.868168125,4.1442106249999995,12.882128125,3.444030625,13.705328125,3.237490625C14.133028125,3.1303006250000003,14.482828125,3.1596406249999998,14.736228125,3.326670625C15.005428125,3.503530625,15.053328125,3.661220625,15.064028125,3.780320625C15.106928125,4.217030625,14.638628125,4.8058106249999994,14.417428125,5.0352106249999995L11.095718125,5.0352106249999995ZM16.773728124999998,6.561760625L16.773728124999998,8.526780625C16.773728124999998,8.768860625,16.577928125,8.965730624999999,16.335928125000002,8.965730624999999L10.497618125,8.965730624999999L10.497618125,6.122490625L16.335928125000002,6.122490625C16.577928125,6.122490625,16.773728124999998,6.319720625,16.773728124999998,6.561760625ZM9.411418125,10.053070625L9.411418125,16.828590625L4.556628125,16.828590625C4.313968125000001,16.828590625,4.117608125,16.631590625,4.117608125,16.389590625L4.117608125,10.492610625C4.117608125,10.250530625,4.313968125000001,10.053070625,4.556628125,10.053070625L9.411418125,10.053070625ZM4.8455281249999995,3.780320625C4.8562281249999995,3.661220625,4.904768125,3.503510625,5.1728081249999995,3.326670625C5.424418125,3.1596406249999998,5.774258124999999,3.1288606249999997,6.204248125,3.237490625C7.022958125,3.4428706250000003,8.035768125,4.143120625,8.809928124999999,5.0352106249999995L5.491018125,5.0352106249999995C5.292968125,4.834630625,4.802058125,4.227500624999999,4.8455281249999995,3.780320625ZM3.134708125,6.561760625C3.134708125,6.319740625,3.331078125,6.122490625,3.573678125,6.122490625L9.411398125,6.122490625L9.411398125,8.965730624999999L3.573678125,8.965730624999999C3.331078125,8.965730624999999,3.134708125,8.768860625,3.134708125,8.526780625L3.134708125,6.561760625Z" fill="currentColor" fill-opacity="1"/>
    </g>
  </g>
</svg>
