<svg xmlns="http://www.w3.org/2000/svg" xmlns:xlink="http://www.w3.org/1999/xlink" fill="none" version="1.1" width="156.7998046875" height="151.8359375" viewBox="0 0 156.7998046875 151.8359375"><defs><filter id="master_svg0_3567_52679" filterUnits="objectBoundingBox" color-interpolation-filters="sRGB" x="-44" y="-33" width="178.8000030517578" height="138.5"><feFlood flood-opacity="0" result="BackgroundImageFix"/><feColorMatrix in="SourceAlpha" type="matrix" values="0 0 0 0 0 0 0 0 0 0 0 0 0 0 0 0 0 0 127 0"/><feOffset dy="11" dx="0"/><feGaussianBlur stdDeviation="11"/><feColorMatrix type="matrix" values="0 0 0 0 0.3960784375667572 0 0 0 0 0.47843137383461 0 0 0 0 0.5764706134796143 0 0 0 0.27000001072883606 0"/><feBlend mode="normal" in2="BackgroundImageFix" result="effect1_dropShadow"/><feBlend mode="normal" in="SourceGraphic" in2="effect1_dropShadow" result="shape"/></filter><linearGradient x1="0.4996841251850128" y1="-0.02316455729305744" x2="0.4996841251850128" y2="1.0107594728469849" id="master_svg1_2590_49477"><stop offset="0%" stop-color="#FDFEFF" stop-opacity="1"/><stop offset="99.6399998664856%" stop-color="#ECF0F5" stop-opacity="1"/></linearGradient></defs><g><g><path d="M137.69964103698732,65.83571910858154Q137.69964103698732,67.28411910858154,137.6276410369873,68.73071910858155Q137.5566410369873,70.17731910858154,137.41364103698731,71.61871910858154Q137.27064103698729,73.06011910858155,137.0566410369873,74.49281910858154Q136.8426410369873,75.92551910858154,136.5586410369873,77.34601910858154Q136.2736410369873,78.76661910858154,135.9196410369873,80.17151910858155Q135.5656410369873,81.57651910858154,135.14164103698732,82.96251910858155Q134.71864103698732,84.34851910858154,134.2276410369873,85.71221910858154Q133.73564103698732,87.07591910858154,133.17764103698732,88.41401910858154Q132.6196410369873,89.75211910858154,131.99664103698728,91.06141910858155Q131.37264103698732,92.37071910858154,130.6856410369873,93.64811910858154Q129.9986410369873,94.92541910858154,129.2486410369873,96.16771910858154Q128.4986410369873,97.41011910858154,127.6886410369873,98.61431910858154Q126.8786410369873,99.81861910858154,126.01064103698731,100.98201910858154Q125.14164103698731,102.14531910858155,124.2166410369873,103.26491910858154Q123.2916410369873,104.38451910858154,122.31164103698731,105.45771910858154Q121.33264103698731,106.53081910858154,120.3016410369873,107.55471910858154Q119.2706410369873,108.57871910858154,118.1902410369873,109.55171910858154Q117.1098410369873,110.52471910858154,115.9826410369873,111.44371910858155Q114.8554410369873,112.36171910858154,113.6841410369873,113.22471910858154Q112.5129410369873,114.08771910858154,111.3005410369873,114.89271910858155Q110.0880410369873,115.69671910858155,108.83734103698731,116.44171910858154Q107.5866410369873,117.18671910858154,106.3006410369873,117.86871910858154Q105.0146410369873,118.55171910858154,103.69644103698731,119.17071910858154Q102.3782410369873,119.79071910858154,101.0310410369873,120.34471910858154Q99.6838410369873,120.89871910858155,98.3108410369873,121.38671910858154Q96.93794103698731,121.87471910858154,95.5425410369873,122.29471910858155Q94.1471410369873,122.71571910858154,92.7326410369873,123.06771910858154Q91.3181410369873,123.41971910858155,89.8880410369873,123.70171910858154Q88.4578410369873,123.98471910858154,87.0154410369873,124.19671910858155Q85.5730410369873,124.40971910858154,84.1218410369873,124.55171910858154Q82.6707410369873,124.69371910858155,81.2142410369873,124.76471910858155Q79.7578410369873,124.83571910858154,78.29964103698731,124.83571910858154Q76.8414410369873,124.83571910858154,75.3850410369873,124.76471910858155Q73.9285410369873,124.69371910858155,72.4774410369873,124.55171910858154Q71.0262410369873,124.40971910858154,69.58384103698731,124.19671910858155Q68.1414410369873,123.98471910858154,66.7112410369873,123.70171910858154Q65.28114103698731,123.41971910858155,63.8666410369873,123.06771910858154Q62.45214103698731,122.71571910858154,61.056741036987304,122.29471910858155Q59.6613410369873,121.87471910858154,58.288341036987305,121.38671910858154Q56.9154410369873,120.89871910858155,55.5682410369873,120.34471910858154Q54.2210410369873,119.79071910858154,52.902841036987304,119.17071910858154Q51.58464103698731,118.55171910858154,50.298641036987306,117.86871910858154Q49.012641036987304,117.18671910858154,47.76194103698731,116.44171910858154Q46.5112410369873,115.69671910858155,45.29874103698731,114.89271910858155Q44.08634103698731,114.08771910858154,42.91514103698731,113.22471910858154Q41.743841036987305,112.36171910858154,40.6166410369873,111.44371910858155Q39.4894410369873,110.52471910858154,38.409041036987304,109.55171910858154Q37.32864103698731,108.57871910858154,36.297541036987305,107.55471910858154Q35.2664410369873,106.53081910858154,34.28714103698731,105.45771910858154Q33.307841036987305,104.38451910858154,32.3828410369873,103.26491910858154Q31.457741036987304,102.14531910858155,30.589141036987307,100.98201910858154Q29.720441036987303,99.81861910858154,28.910341036987305,98.61431910858154Q28.100221036987307,97.41011910858154,27.350561036987305,96.16771910858154Q26.600901036987306,94.92541910858154,25.913521036987305,93.64811910858154Q25.226131036987304,92.37071910858154,24.602671036987303,91.06141910858155Q23.979221036987305,89.75211910858154,23.421191036987306,88.41401910858154Q22.863171036987303,87.07591910858154,22.371921036987306,85.71221910858154Q21.880671036987305,84.34851910858154,21.457381036987304,82.96251910858155Q21.034091036987306,81.57651910858154,20.679781036987304,80.17151910858155Q20.325471036987306,78.76661910858154,20.040991036987304,77.34601910858154Q19.756517036987304,75.92551910858154,19.542556036987303,74.49281910858154Q19.328596036987303,73.06011910858155,19.185668036987305,71.61871910858154Q19.042741036987305,70.17731910858154,18.971190936987306,68.73071910858155Q18.899641036987305,67.28411910858154,18.899641036987305,65.83571910858154Q18.899641036987305,64.38731910858155,18.971190936987306,62.94071910858154Q19.042741036987305,61.49411910858154,19.185668036987305,60.05271910858154Q19.328596036987303,58.61131910858154,19.542556036987303,57.17861910858154Q19.756517036987304,55.745919108581546,20.040991036987304,54.32541910858154Q20.325471036987306,52.90481910858154,20.679781036987304,51.499919108581544Q21.034091036987306,50.09491910858154,21.457381036987304,48.70891910858154Q21.880671036987305,47.322919108581544,22.371921036987306,45.95921910858154Q22.863171036987303,44.59551910858154,23.421191036987306,43.257419108581544Q23.979221036987305,41.91931910858154,24.602671036987303,40.60991910858154Q25.226131036987304,39.30061910858154,25.913521036987305,38.023319108581546Q26.600901036987306,36.745919108581546,27.350561036987305,35.503619108581546Q28.100221036987307,34.261319108581546,28.910341036987305,33.057119108581546Q29.720441036987303,31.852819108581542,30.589141036987307,30.689419108581543Q31.457741036987304,29.526119108581543,32.3828410369873,28.40651910858154Q33.307841036987305,27.286919108581543,34.28714103698731,26.213719108581543Q35.2664410369873,25.140519108581543,36.297541036987305,24.116419108581542Q37.32864103698731,23.092219108581542,38.409041036987304,22.119619108581542Q39.4894410369873,21.146919108581542,40.6166410369873,20.228119108581545Q41.743841036987305,19.309219108581544,42.91514103698731,18.44651910858154Q44.08634103698731,17.58371910858154,45.29874103698731,16.77900910858154Q46.5112410369873,15.974339108581542,47.76194103698731,15.229729108581543Q49.012641036987304,14.485119108581543,50.298641036987306,13.802369108581543Q51.58464103698731,13.119609108581543,52.902841036987304,12.500349108581542Q54.2210410369873,11.881089108581543,55.5682410369873,11.326829108581542Q56.9154410369873,10.772559108581543,58.288341036987305,10.284619108581543Q59.6613410369873,9.796679108581543,61.056741036987304,9.376239108581544Q62.45214103698731,8.955799108581543,63.8666410369873,8.603879108581543Q65.28114103698731,8.251949108581544,66.7112410369873,7.969389108581543Q68.1414410369873,7.686825108581543,69.58384103698731,7.474305108581543Q71.0262410369873,7.261785108581543,72.4774410369873,7.119820108581543Q73.9285410369873,6.977855108581543,75.3850410369873,6.906787208581543Q76.8414410369873,6.835719108581543,78.29964103698731,6.835719108581543Q79.7578410369873,6.835719108581543,81.2142410369873,6.906787208581543Q82.6707410369873,6.977855108581543,84.1218410369873,7.119820108581543Q85.5730410369873,7.261785108581543,87.0154410369873,7.474305108581543Q88.4578410369873,7.686825108581543,89.8880410369873,7.969389108581543Q91.3181410369873,8.251949108581544,92.7326410369873,8.603879108581543Q94.1471410369873,8.955799108581543,95.5425410369873,9.376239108581544Q96.93794103698731,9.796679108581543,98.3108410369873,10.284619108581543Q99.6838410369873,10.772559108581543,101.0310410369873,11.326829108581542Q102.3782410369873,11.881089108581543,103.69644103698731,12.500349108581542Q105.0146410369873,13.119609108581543,106.3006410369873,13.802359108581543Q107.5866410369873,14.485119108581543,108.83734103698731,15.229729108581543Q110.0880410369873,15.974339108581542,111.3005410369873,16.77900910858154Q112.5129410369873,17.58371910858154,113.6841410369873,18.44651910858154Q114.8553410369873,19.309219108581544,115.9826410369873,20.228119108581545Q117.1097410369873,21.146919108581542,118.1902410369873,22.119619108581542Q119.2706410369873,23.092219108581542,120.3016410369873,24.116419108581542Q121.33264103698731,25.140519108581543,122.31164103698731,26.213719108581543Q123.2916410369873,27.286919108581543,124.2166410369873,28.40651910858154Q125.14164103698731,29.526119108581543,126.01064103698731,30.689419108581543Q126.8786410369873,31.852819108581542,127.6886410369873,33.057119108581546Q128.4986410369873,34.261319108581546,129.2486410369873,35.503619108581546Q129.9986410369873,36.745919108581546,130.6856410369873,38.023319108581546Q131.37264103698732,39.30061910858154,131.99664103698728,40.60991910858154Q132.6196410369873,41.91931910858154,133.17764103698732,43.257419108581544Q133.73564103698732,44.59551910858154,134.2276410369873,45.95921910858154Q134.71864103698732,47.322919108581544,135.14164103698732,48.70891910858154Q135.5656410369873,50.09491910858154,135.9196410369873,51.499919108581544Q136.2736410369873,52.90481910858154,136.5586410369873,54.32541910858154Q136.8426410369873,55.745919108581546,137.0566410369873,57.17861910858154Q137.27064103698729,58.61131910858154,137.41364103698731,60.05271910858154Q137.5566410369873,61.49411910858154,137.6276410369873,62.94071910858154Q137.69964103698732,64.38731910858155,137.69964103698732,65.83571910858154Z" fill="#EAEEF9" fill-opacity="1"/></g><g><path d="M123.79964141845703,58.13571891784668L123.79964141845703,94.23571891784668C123.79964141845703,101.73571891784668,117.69964141845703,107.83571891784668,110.09964141845703,107.83571891784668L46.699641418457034,107.83571891784668C39.199641418457034,107.83571891784668,33.09964141845703,101.83571891784668,32.99964141845703,94.33571891784668C32.99964141845703,94.23571891784668,32.99964141845703,94.23571891784668,32.99964141845703,94.13571891784667L32.99964141845703,58.13571891784668C32.99964141845703,58.03571891784668,32.99964141845703,58.03571891784668,32.99964141845703,57.93571891784668C32.99964141845703,57.73571891784668,32.99964141845703,57.53571891784668,33.09964141845703,57.33571891784668C33.199641418457034,57.03571891784668,33.29964141845703,56.83571891784668,33.39964141845703,56.53571891784668L50.39964141845703,24.03571891784668C50.99964141845703,22.73571891784668,52.29964141845703,22.03571891784668,53.699641418457034,22.03571891784668L102.99964141845703,22.03571891784668C104.39964141845704,22.03571891784668,105.59964141845703,22.73571891784668,106.29964141845703,24.03571891784668L123.29964141845703,56.53571891784668C123.39964141845704,56.73571891784668,123.49964141845703,57.03571891784668,123.59964141845703,57.33571891784668C123.79964141845703,57.53571891784668,123.79964141845703,57.83571891784668,123.79964141845703,58.13571891784668Z" fill="#D5DDEA" fill-opacity="1"/></g><g filter="url(#master_svg0_3567_52679)"><path d="M123.79964141845703,58.13572006225586L123.79964141845703,97.93572006225585C123.79964141845703,103.43572006225585,119.39964141845704,107.83572006225586,113.79964141845703,107.83572006225586L42.99964141845703,107.83572006225586C37.49964141845703,107.83572006225586,32.99964141845703,103.43572006225585,32.99964141845703,97.93572006225585L32.99964141845703,57.93572006225586C32.99964141845703,57.73572006225586,32.99964141845703,57.53572006225586,33.09964141845703,57.33572006225586L55.89964141845703,57.33572006225586C59.29964141845703,57.33572006225586,62.09964141845703,60.03572006225586,62.09964141845703,63.53572006225586C62.09964141845703,65.23572006225587,62.79964141845703,66.83572006225586,63.89964141845703,67.93572006225585C65.09964141845703,69.13572006225586,66.49964141845703,69.73572006225587,68.29964141845703,69.73572006225587L88.59964141845703,69.73572006225587C91.99964141845703,69.73572006225587,94.79964141845703,67.03572006225586,94.79964141845703,63.53572006225586C94.79964141845703,61.83572006225586,95.49964141845703,60.23572006225586,96.59964141845703,59.13572006225586C97.79964141845703,57.93572006225586,99.19964141845703,57.33572006225586,100.89964141845704,57.33572006225586L123.59964141845703,57.33572006225586C123.79964141845703,57.53572006225586,123.79964141845703,57.83572006225586,123.79964141845703,58.13572006225586Z" fill="url(#master_svg1_2590_49477)" fill-opacity="1"/></g><g><path d="M136.1816421508789,37.635718536376956C138.4456421508789,37.635718536376956,140.2816421508789,35.79571853637695,140.2816421508789,33.535718536376955C140.2816421508789,31.275718536376953,138.4456421508789,29.435718536376953,136.1816421508789,29.435718536376953C133.9166421508789,29.435718536376953,132.0816421508789,31.275718536376953,132.0816421508789,33.535718536376955C132.0816421508789,35.79571853637695,133.9166421508789,37.635718536376956,136.1816421508789,37.635718536376956Z" fill="#EAEEF9" fill-opacity="1"/></g><g><path d="M132.0816390991211,24.335719680786134C133.6276390991211,24.335719680786134,134.8816390991211,23.085719680786134,134.8816390991211,21.535719680786134C134.8816390991211,19.985719680786133,133.6276390991211,18.735719680786133,132.0816390991211,18.735719680786133C130.53463909912108,18.735719680786133,129.2816390991211,19.985719680786133,129.2816390991211,21.535719680786134C129.2816390991211,23.085719680786134,130.53463909912108,24.335719680786134,132.0816390991211,24.335719680786134Z" fill="#EAEEF9" fill-opacity="1"/></g><g><path d="M18.681640434265137,33.535718536376955C20.227640434265137,33.535718536376955,21.481640434265138,32.285718536376955,21.481640434265138,30.735718536376954C21.481640434265138,29.185718536376953,20.227640434265137,27.935718536376953,18.681640434265137,27.935718536376953C17.134640434265137,27.935718536376953,15.881640434265137,29.185718536376953,15.881640434265137,30.735718536376954C15.881640434265137,32.285718536376955,17.134640434265137,33.535718536376955,18.681640434265137,33.535718536376955Z" fill="#EAEEF9" fill-opacity="1"/></g><g><path d="M17.581640625,89.9357177734375Q17.581640625,90.0633677734375,17.575340625000003,90.1908677734375Q17.569140625,90.3183677734375,17.556640625,90.4454077734375Q17.544040625,90.5724477734375,17.525340625,90.6987177734375Q17.506640625,90.8249877734375,17.481740625,90.9501877734375Q17.456840624999998,91.0753877734375,17.425840625,91.1992177734375Q17.394740625,91.3230377734375,17.357740624999998,91.4451977734375Q17.320640625,91.5673477734375,17.277640625,91.6875477734375Q17.234640625,91.8077377734375,17.185840625,91.9256677734375Q17.136960625,92.0436077734375,17.082380625,92.1590077734375Q17.027800624999998,92.2743977734375,16.967630624999998,92.3869777734375Q16.907450625,92.4995577734375,16.841830625,92.6090477734375Q16.776200625,92.7185377734375,16.705280625,92.8246777734375Q16.634360625,92.9308177734375,16.558320625,93.0333477734375Q16.482280625,93.1358877734375,16.401290625,93.2345577734375Q16.320310624999998,93.3332377734375,16.234580625,93.4278277734375Q16.148860624999998,93.5224077734375,16.058590625,93.6126677734375Q15.968330625,93.7029377734375,15.873750625,93.7886677734375Q15.779160625,93.8743877734375,15.680480625,93.9553677734375Q15.581810625,94.0363477734375,15.479270625,94.1123977734375Q15.376740625,94.1884377734375,15.270600625,94.2593577734375Q15.164460625,94.3302777734375,15.054970625,94.3959077734375Q14.945480625,94.4615277734375,14.832900625,94.5217077734375Q14.720320625,94.5818777734375,14.604930625,94.6364577734375Q14.489530625,94.6910377734375,14.371590625,94.7399177734375Q14.253660625,94.7887177734375,14.133470625000001,94.8317177734375Q14.013270625,94.8747177734375,13.891120625,94.9118177734375Q13.768960625,94.9488177734375,13.645140625,94.9799177734375Q13.521310625,95.0109177734375,13.396110625,95.0358177734375Q13.270910624999999,95.0607177734375,13.144640625000001,95.0794177734375Q13.018370625,95.0981177734375,12.891330625,95.1107177734375Q12.764290625000001,95.1232177734375,12.636790625,95.1294177734375Q12.509290625,95.1357177734375,12.381640625,95.1357177734375Q12.253990625,95.1357177734375,12.126490624999999,95.1294177734375Q11.998990625000001,95.1232177734375,11.871950625,95.1107177734375Q11.744910625,95.0981177734375,11.618640625000001,95.0794177734375Q11.492370625,95.0607177734375,11.367170625,95.0358177734375Q11.241970625,95.0109177734375,11.118140625,94.9799177734375Q10.994320625,94.9488177734375,10.872160625,94.9118177734375Q10.750000625,94.8747177734375,10.629810625000001,94.8317177734375Q10.509620625,94.7887177734375,10.391690624999999,94.7399177734375Q10.273750625,94.6910377734375,10.158350625,94.6364577734375Q10.042960625,94.5818777734375,9.930380625,94.5217077734375Q9.817800625,94.4615277734375,9.708310625,94.3959077734375Q9.598810625,94.3302777734375,9.492670625,94.2593577734375Q9.386540625,94.1884377734375,9.284000625000001,94.1123977734375Q9.181470625,94.0363577734375,9.082790625,93.9553677734375Q8.984120625,93.8743877734375,8.889530624999999,93.7886577734375Q8.794950625,93.7029377734375,8.704680625,93.6126677734375Q8.614420625,93.5224077734375,8.528690625,93.4278277734375Q8.442970625000001,93.3332377734375,8.361990625,93.2345577734375Q8.281000625,93.1358877734375,8.204960625,93.0333477734375Q8.128918625,92.9308177734375,8.057998625,92.8246777734375Q7.987078625,92.7185377734375,7.9214516249999996,92.6090477734375Q7.855824625,92.4995577734375,7.795649625,92.3869777734375Q7.735474625,92.2743977734375,7.680896625,92.1590077734375Q7.626317625,92.0436077734375,7.577466625,91.9256677734375Q7.528616625,91.8077377734375,7.485611625,91.6875477734375Q7.442606625,91.5673477734375,7.405550625,91.4451977734375Q7.3684956249999995,91.3230377734375,7.337477625,91.1992177734375Q7.306460625,91.0753877734375,7.281557125,90.9501877734375Q7.256653325,90.8249877734375,7.237922725,90.6987177734375Q7.219192225,90.5724477734375,7.206680025,90.4454077734375Q7.194167925,90.3183677734375,7.187904255,90.1908677734375Q7.181640625,90.0633677734375,7.181640625,89.9357177734375Q7.181640625,89.8080677734375,7.187904255,89.6805677734375Q7.194167925,89.5530677734375,7.206680025,89.4260277734375Q7.219192225,89.2989877734375,7.237922725,89.1727177734375Q7.256653325,89.0464477734375,7.281557125,88.9212477734375Q7.306460625,88.7960477734375,7.337477625,88.6722177734375Q7.3684956249999995,88.5483977734375,7.405550625,88.4262377734375Q7.442606625,88.3040777734375,7.485611625,88.1838877734375Q7.528616625,88.0636977734375,7.577466625,87.9457677734375Q7.626317625,87.8278277734375,7.680896625,87.7124277734375Q7.735474625,87.5970377734375,7.795649625,87.4844577734375Q7.855824625,87.3718777734375,7.9214516249999996,87.2623877734375Q7.987078625,87.1528877734375,8.057998625,87.0467477734375Q8.128918625,86.9406177734375,8.204960625,86.8380777734375Q8.281000625,86.7355477734375,8.361990625,86.6368677734375Q8.442970625000001,86.5381977734375,8.528690625,86.4436077734375Q8.614420625,86.3490277734375,8.704680625,86.2587577734375Q8.794950625,86.1684977734375,8.889530624999999,86.0827677734375Q8.984120625,85.9970477734375,9.082790625,85.9160677734375Q9.181470625,85.8350777734375,9.284000625000001,85.7590377734375Q9.386540625,85.6829957734375,9.492670625,85.6120757734375Q9.598810625,85.5411557734375,9.708310625,85.4755287734375Q9.817800625,85.4099017734375,9.930380625,85.3497267734375Q10.042960625,85.2895517734375,10.158350625,85.2349737734375Q10.273750625,85.1803947734375,10.391690624999999,85.1315437734375Q10.509620625,85.0826937734375,10.629810625000001,85.0396887734375Q10.750000625,84.9966837734375,10.872160625,84.9596277734375Q10.994320625,84.9225727734375,11.118140625,84.8915547734375Q11.241970625,84.8605377734375,11.367170625,84.8356342734375Q11.492370625,84.8107304734375,11.618640625000001,84.7919998734375Q11.744910625,84.7732693734375,11.871950625,84.7607571734375Q11.998990625000001,84.7482450734375,12.126490624999999,84.7419814034375Q12.253990625,84.7357177734375,12.381640625,84.7357177734375Q12.509290625,84.7357177734375,12.636790625,84.7419814034375Q12.764290625000001,84.7482450734375,12.891330625,84.7607571734375Q13.018370625,84.7732693734375,13.144640625000001,84.7919998734375Q13.270910624999999,84.8107304734375,13.396110625,84.8356342734375Q13.521310625,84.8605377734375,13.645140625,84.8915547734375Q13.768960625,84.9225727734375,13.891120625,84.9596277734375Q14.013270625,84.9966837734375,14.133470625000001,85.0396887734375Q14.253660625,85.0826937734375,14.371590625,85.1315437734375Q14.489530625,85.1803947734375,14.604930625,85.2349737734375Q14.720320625,85.2895517734375,14.832900625,85.3497267734375Q14.945480625,85.4099017734375,15.054970625,85.4755287734375Q15.164460625,85.5411557734375,15.270600625,85.6120757734375Q15.376740625,85.6829957734375,15.479270625,85.7590377734375Q15.581810625,85.8350777734375,15.680480625,85.9160677734375Q15.779160625,85.9970477734375,15.873750625,86.0827677734375Q15.968330625,86.1684977734375,16.058590625,86.2587577734375Q16.148860624999998,86.3490277734375,16.234590625,86.4436077734375Q16.320310624999998,86.5381977734375,16.401290625,86.6368677734375Q16.482270624999998,86.7355477734375,16.558320625,86.8380777734375Q16.634360625,86.9406177734375,16.705280625,87.0467477734375Q16.776200625,87.1528877734375,16.841830625,87.2623877734375Q16.907450625,87.3718777734375,16.967630624999998,87.4844577734375Q17.027800624999998,87.5970377734375,17.082380625,87.7124277734375Q17.136960625,87.8278277734375,17.185840625,87.9457677734375Q17.234640625,88.0636977734375,17.277640625,88.1838877734375Q17.320640625,88.3040777734375,17.357740624999998,88.4262377734375Q17.394740625,88.5483977734375,17.425840625,88.6722177734375Q17.456840624999998,88.7960477734375,17.481740625,88.9212477734375Q17.506640625,89.0464477734375,17.525340625,89.1727177734375Q17.544040625,89.2989877734375,17.556640625,89.4260277734375Q17.569140625,89.5530677734375,17.575340625000003,89.6805677734375Q17.581640625,89.8080677734375,17.581640625,89.9357177734375Z" fill="#EAEEF9" fill-opacity="1"/></g><g><path d="M104.59609063720703,11.866069184875489L104.41539063720703,9.913579584875489L102.42389063720702,10.097858784875488L102.60459063720702,12.050349184875488L104.59609063720703,11.866069184875489ZM105.28229063720703,19.601569184875487Q105.16809063720703,18.061669184875488,104.95539063720703,15.728779184875489L102.96369063720704,15.910379184875488Q103.17489063720703,18.226349184875488,103.28779063720702,19.749449184875488L105.28229063720703,19.601569184875487ZM105.47039063720703,27.44621918487549Q105.55559063720703,25.579919184875486,105.49579063720702,23.52531918487549L103.49659063720704,23.583519184875488Q103.55419063720703,25.56331918487549,103.47249063720703,27.355119184875488L105.47039063720703,27.44621918487549ZM104.52159063720703,35.26301918487549Q104.90349063720703,33.18661918487549,105.12959063720703,31.384319184875487L103.14509063720703,31.135319184875488Q102.92609063720704,32.881019184875484,102.55459063720703,34.90131918487549L104.52159063720703,35.26301918487549ZM79.46214063720703,34.004319184875484Q79.24041063720703,34.164019184875485,79.03023063720703,34.34061918487549L80.31670063720703,35.87191918487549Q80.45772063720703,35.753519184875486,80.60569063720703,35.64551918487549Q81.80456063720703,34.90131918487549,83.32736063720704,34.81431918487549L83.21329063720702,32.81751918487549Q81.15908063720703,32.93491918487549,79.51431063720703,33.969219184875485L79.48767063720703,33.985919184875485L79.46214063720703,34.004319184875484ZM89.21829063720703,34.88451918487549Q88.45179063720703,34.175119184875484,87.48049063720703,33.68811918487549L86.58402063720703,35.47591918487549Q87.31159063720703,35.84071918487549,87.87539063720703,36.36681918487549L87.89669063720703,36.38671918487549L87.91919063720704,36.40531918487549Q88.60789063720703,36.97671918487549,89.14599063720703,37.69691918487548L90.74809063720703,36.49971918487549Q90.07649063720703,35.60081918487549,89.21829063720703,34.88451918487549ZM76.59363363720703,37.96341918487549Q75.87031063720703,40.06311918487549,76.16829163720703,42.25251918487549L78.15002063720704,41.98281918487549Q77.91619263720703,40.26481918487549,78.48457063720703,38.614819184875486L76.59363363720703,37.96341918487549ZM103.38619063720704,40.68461918487549L103.74269063720703,39.095919184875484L101.79119063720702,38.65791918487549L101.45709063720703,40.146919184875486Q101.39989063720704,40.31791918487549,101.29879063720703,40.62171918487549Q100.92879063720703,41.73301918487549,100.73389063720703,42.28691918487549L102.62049063720703,42.95071918487549Q102.82109063720704,42.38071918487549,103.19639063720703,41.25341918487548Q103.31219063720704,40.90551918487549,103.36989063720704,40.73321918487549L103.38619063720704,40.68461918487549ZM92.85059063720703,43.881519184875486Q92.93409063720704,42.06081918487549,92.52819063720703,40.36451918487549L90.58309063720704,40.82991918487549Q90.92319063720703,42.25151918487549,90.85269063720703,43.78991918487549Q90.83969063720703,44.07401918487549,90.81419063720703,44.36171918487549L92.80639063720703,44.53821918487549Q92.83569063720704,44.207919184875486,92.85059063720703,43.881519184875486ZM77.33089263720703,46.25401918487549Q78.22201063720703,48.165519184875485,79.66737063720703,49.715819184875485L81.13021063720703,48.35191918487549Q79.90087063720703,47.03341918487549,79.14360063720703,45.40891918487549L77.33089263720703,46.25401918487549ZM99.18729063720703,49.281519184875485Q100.20789063720703,48.19071918487549,101.03529063720703,46.665319184875486L99.27719063720703,45.71171918487549Q98.56609063720703,47.02281918487549,97.71229063720703,47.930519184875486L97.69399063720704,47.94991918487549L97.67689063720704,47.97021918487549Q97.41939063720703,48.274919184875486,97.13059063720704,48.56131918487549L98.53899063720704,49.98131918487549Q98.88059063720704,49.64251918487549,99.18729063720703,49.281519184875485ZM90.34559063720704,52.27251918487549Q91.34489063720703,50.429019184875486,91.96119063720703,48.54961918487549L90.06079063720703,47.926419184875485Q89.50059063720703,49.63441918487549,88.58729063720703,51.319419184875485L90.34559063720704,52.27251918487549ZM85.83848063720703,53.404419184875486Q86.38199063720702,53.543719184875485,86.94846063720703,53.63251918487549L87.25849063720703,51.65671918487549Q86.78611063720703,51.58261918487549,86.33480063720702,51.46701918487549Q85.08357063720703,51.156519184875485,83.92667063720702,50.52751918487549L82.97139063720704,52.28471918487549Q84.35331063720703,53.036019184875485,85.83848063720703,53.404419184875486ZM91.12649063720703,53.61491918487549Q93.21619063720703,53.28621918487549,95.09839063720703,52.382119184875485L94.23239063720703,50.57931918487549Q92.61519063720704,51.35611918487549,90.81579063720703,51.63911918487549L91.12649063720703,53.61491918487549ZM86.11657063720703,58.925819184875486Q87.43129063720703,57.21521918487549,88.38349063720703,55.69491918487549L86.68853063720704,54.633219184875486Q85.78713063720703,56.072419184875486,84.53083063720703,57.70701918487549L86.11657063720703,58.925819184875486ZM81.42418063720703,65.07111918487549Q82.54727063720703,63.51451918487549,83.72832063720703,61.98371918487549L82.14482063720703,60.76201918487549Q80.94417063720704,62.31821918487549,79.80226063720703,63.90091918487549L81.42418063720703,65.07111918487549ZM78.12983063720704,69.8347191848755L79.22173063720703,68.2149191848755L77.56334863720703,67.09701918487548L76.47144963720703,68.71671918487549L78.12983063720704,69.8347191848755Z" fill-rule="evenodd" fill="#ABB5CC" fill-opacity="1"/></g><g><path d="M111.07263678710937,4.695716874065399C110.55063678710937,6.605716874065399,108.46363678710938,7.295716874065399,106.37663678710938,6.085716874065399C104.11563678710938,5.045716874065399,102.55063878710938,4.175716874065399,102.89763868710938,2.445716874065399C103.41963878710938,0.7157188740653992,105.50663678710937,0.5457188740653992,107.94163678710937,0.37571887406539917C110.89863678710938,0.02571887406539919,111.42063678710937,2.7957168740653993,111.07263678710937,4.695716874065399Z" fill="#DAE2EB" fill-opacity="1"/></g><g><path d="M94.2016426904297,6.4257145971679686C95.07164769042969,7.985714597167969,97.50664769042969,9.025714597167969,99.24564769042969,7.465714597167969C101.15864769042969,5.735714597167969,102.72364769042969,4.525714597167969,101.85464769042969,2.7957145971679687C100.98464769042968,1.2357185971679687,99.59364769042969,1.7557188971679687,96.63664769042968,2.105718597167969C94.2016426904297,2.625718597167969,93.15764269042968,4.695714597167969,94.2016426904297,6.4257145971679686Z" fill="#DAE2EB" fill-opacity="1"/></g><g><path d="M101.85463916015625,0.0257189C103.07163916015625,-0.144281,104.28963916015626,0.545719,104.63763916015625,1.58572C104.81163916015625,1.92572,104.98563916015625,2.44572,104.98563916015625,2.79572C105.33263916015625,5.21572,104.46363916015625,7.29572,103.07163916015625,7.46572C101.50663916015625,7.81572,99.94163916015626,6.08572,99.76763916015625,3.83572C99.76763916015625,3.13572,99.76763916015625,2.79572,99.76763916015625,2.27572C99.94163916015626,1.06572,100.63663916015625,0.195719,101.85463916015625,0.0257189C102.02863916015625,0.0257189,101.85463916015625,0.0257189,101.85463916015625,0.0257189Z" fill="#989FB0" fill-opacity="1"/></g><g><path d="M66.98964056396484,84.09572204589844C68.25664056396485,84.09572204589844,69.28364056396484,83.06572204589844,69.28364056396484,81.79572204589844C69.28364056396484,80.53572204589844,68.25664056396485,79.50572204589844,66.98964056396484,79.50572204589844C65.72264056396484,79.50572204589844,64.69564056396484,80.53572204589844,64.69564056396484,81.79572204589844C64.69564056396484,83.06572204589844,65.72264056396484,84.09572204589844,66.98964056396484,84.09572204589844Z" fill="#989FB0" fill-opacity="1"/></g><g><path d="M89.80864080810547,84.09572204589844C91.07564080810548,84.09572204589844,92.10264080810546,83.06572204589844,92.10264080810546,81.79572204589844C92.10264080810546,80.53572204589844,91.07564080810548,79.50572204589844,89.80864080810547,79.50572204589844C88.54164080810547,79.50572204589844,87.51464080810547,80.53572204589844,87.51464080810547,81.79572204589844C87.51464080810547,83.06572204589844,88.54164080810547,84.09572204589844,89.80864080810547,84.09572204589844Z" fill="#989FB0" fill-opacity="1"/></g><g><path d="M82.1196381225586,99.16571960449218L74.9266381225586,99.16571960449218C73.8106381225586,99.16571960449218,72.8806381225586,98.23571960449219,72.8806381225586,97.11571960449218C72.8806381225586,95.9957196044922,73.8106381225586,95.06571960449219,74.9266381225586,95.06571960449219L82.05763812255859,95.06571960449219C83.1736381225586,95.06571960449219,84.10363812255859,95.9957196044922,84.10363812255859,97.11571960449218C84.16563812255859,98.23571960449219,83.2356381225586,99.16571960449218,82.1196381225586,99.16571960449218Z" fill="#989FB0" fill-opacity="1"/></g></g></svg>