<svg xmlns="http://www.w3.org/2000/svg" xmlns:xlink="http://www.w3.org/1999/xlink" fill="currentColor" version="1.1" width="20" height="20" viewBox="0 0 20 20"><g style="mix-blend-mode:passthrough"><g style="mix-blend-mode:passthrough"><g style="mix-blend-mode:passthrough"><g style="mix-blend-mode:passthrough"><path d="M6.99169921875,15.40761875C6.99169921875,15.40761875,6.99169921875,6.94094875,6.99169921875,6.94094875C6.99169921875,6.60761875,7.09169841875,6.28261875,7.27503121875,6.00761875C7.27503121875,6.00761875,9.55002921875,2.62428775,9.55002921875,2.62428775C9.90836921875,2.08262075,10.80002921875,1.69928775,11.55836921875,1.98262095C12.37502921875,2.25762075,12.91669921875,3.17428875,12.74169921875,3.99094875C12.74169921875,3.99094875,12.30836921875,6.71594875,12.30836921875,6.71594875C12.27502921875,6.96594875,12.34169921875,7.19094875,12.48336921875,7.36594875C12.62502921875,7.52428875,12.83336921875,7.62428875,13.05836921875,7.62428875C13.05836921875,7.62428875,16.48336921875,7.62428875,16.48336921875,7.62428875C17.14169921875,7.62428875,17.70839921875,7.89094875,18.04169921875,8.35761875C18.35839921875,8.80761875,18.41669921875,9.39094875,18.20839921875,9.98261875C18.20839921875,9.98261875,16.15836921875,16.224318750000002,16.15836921875,16.224318750000002C15.90002921875,17.25761875,14.77502921875,18.09931875,13.65836921875,18.09931875C13.65836921875,18.09931875,10.40836921875,18.09931875,10.40836921875,18.09931875C9.85002921875,18.09931875,9.06669921875,17.90761875,8.70836921875,17.549318749999998C8.70836921875,17.549318749999998,7.64169921875,16.724318750000002,7.64169921875,16.724318750000002C7.23336621875,16.41591875,6.99169921875,15.92431875,6.99169921875,15.40761875C6.99169921875,15.40761875,6.99169921875,15.40761875,6.99169921875,15.40761875Z" fill="currentColor" fill-opacity="1"/></g><g style="mix-blend-mode:passthrough"><path d="M4.34150390625,5.31640625C4.34150390625,5.31640625,3.4831739062500002,5.31640625,3.4831739062500002,5.31640625C2.19150390625,5.31640625,1.66650390625,5.81640625,1.66650390625,7.0497362500000005C1.66650390625,7.0497362500000005,1.66650390625,15.43310625,1.66650390625,15.43310625C1.66650390625,16.66640625,2.19150390625,17.16640625,3.4831739062500002,17.16640625C3.4831739062500002,17.16640625,4.34150390625,17.16640625,4.34150390625,17.16640625C5.633173906250001,17.16640625,6.15817390625,16.66640625,6.15817390625,15.43310625C6.15817390625,15.43310625,6.15817390625,7.0497362500000005,6.15817390625,7.0497362500000005C6.15817390625,5.81640625,5.633173906250001,5.31640625,4.34150390625,5.31640625C4.34150390625,5.31640625,4.34150390625,5.31640625,4.34150390625,5.31640625Z" fill="currentColor" fill-opacity="1"/></g><g style="opacity:0;mix-blend-mode:passthrough" transform="matrix(-1,-1.2246469849340659e-16,1.2246469849340659e-16,-1,40,40)"><path d="" fill="currentColor" fill-opacity="1"/></g></g></g></g></svg>
