<svg xmlns="http://www.w3.org/2000/svg" viewBox="0 0 20 20" fill="none">
  <path fill="currentColor" d="m9.568 16.938.379-.379-.024-.024-.027-.02-.328.423Zm6.08-1.072-.51-.168-.006.019-.005.018.52.13Zm1.716-5.222-.505-.18-.002.006-.002.006.51.168ZM12.43 7.926l-.53-.083-.001.007.53.076Zm.357-2.29-.523-.115-.004.016-.003.017.53.083Zm-.93-1.573-.188.503.01.003.009.003.17-.509Zm-1.573.5.445.3.001-.001-.446-.298ZM7.022 15.647l2.217 1.717.657-.849-2.217-1.716-.657.848Zm2.166 1.672c.239.238.575.377.858.458.296.085.614.128.88.128v-1.073c-.162 0-.38-.028-.585-.086-.218-.063-.346-.138-.394-.186l-.759.759Zm1.739.586h2.718v-1.073h-2.718v1.073Zm2.718 0c.558 0 1.114-.206 1.56-.533.446-.326.82-.8.963-1.375l-1.04-.26c-.072.283-.27.56-.557.77a1.62 1.62 0 0 1-.926.325v1.073Zm2.512-1.87 1.717-5.223-1.02-.335-1.716 5.222 1.02.335Zm1.713-5.21c.231-.649.151-1.304-.217-1.804-.365-.496-.966-.772-1.648-.772V9.32c.392 0 .65.152.784.336.133.18.196.454.07.807l1.01.36Zm-1.865-2.576h-2.86V9.32h2.86V8.248Zm-2.86 0a.187.187 0 0 1-.144-.06c-.026-.03-.056-.085-.041-.186l-1.062-.152c-.12.833.5 1.47 1.246 1.47V8.249Zm-.186-.24.358-2.288-1.06-.166-.358 2.289 1.06.166Zm.351-2.255c.207-.931-.398-1.904-1.284-2.199l-.34 1.018c.403.134.656.592.577.949l1.047.232Zm-1.265-2.192a1.87 1.87 0 0 0-1.257.004c-.373.128-.73.37-.951.701l.892.596a.82.82 0 0 1 .408-.282.802.802 0 0 1 .531-.014l.377-1.005Zm-2.207.704L6.905 8.628l.89.599 2.933-4.364-.89-.598Z"/>
  <path fill="currentColor" d="M4.239 15.222v-7.01H3.166v7.01h1.073Zm0-7.01c0-.44.096-.596.167-.661.081-.075.267-.162.727-.162V6.316c-.542 0-1.07.092-1.455.447-.394.364-.512.888-.512 1.449h1.073Zm.894-.823h.715V6.316h-.715V7.39Zm.715 0c.46 0 .646.087.727.162.07.065.167.22.167.66h1.073c0-.56-.118-1.084-.512-1.448-.384-.355-.913-.447-1.455-.447V7.39Zm.894.823v7.01h1.073v-7.01H6.742Zm0 7.01c0 .44-.096.595-.167.66-.08.076-.267.162-.727.162v1.073c.542 0 1.071-.092 1.455-.446.394-.364.512-.888.512-1.45H6.742Zm-.894.822h-.715v1.073h.715v-1.073Zm-.715 0c-.46 0-.646-.086-.727-.161-.07-.066-.167-.221-.167-.661H3.166c0 .56.118 1.085.512 1.45.384.353.913.445 1.455.445v-1.073Z"/>
</svg>