<svg xmlns="http://www.w3.org/2000/svg" viewBox="0 0 16 16" fill="none">
  <path fill="currentColor" d="m7.568 15.023.379-.384-.024-.025-.027-.02-.328.429Zm6.08-1.086-.51-.17-.006.019-.005.019.52.132Zm1.716-5.285-.505-.183-.002.007-.002.006.51.17ZM10.43 5.9l-.53-.084-.001.007.53.077Zm.357-2.317-.523-.118-.004.017-.003.017.53.084Zm-.93-1.593-.188.509.01.003.009.003.17-.515Zm-1.573.507.445.303.001-.002-.446-.301ZM5.022 13.715l2.217 1.737.657-.859-2.217-1.737-.657.859Zm2.166 1.692c.239.24.575.382.858.464.296.085.614.129.88.129v-1.086c-.162 0-.38-.029-.585-.088-.218-.062-.346-.14-.394-.187l-.759.768ZM8.927 16h2.718v-1.086H8.927V16Zm2.718 0c.558 0 1.114-.209 1.56-.54.446-.33.82-.81.963-1.392l-1.04-.263c-.072.288-.27.567-.557.78-.287.212-.626.329-.926.329V16Zm2.512-1.894 1.717-5.285-1.02-.339-1.716 5.285 1.02.34Zm1.713-5.272c.231-.656.151-1.32-.217-1.826-.365-.502-.966-.782-1.648-.782v1.086c.392 0 .65.155.784.34.133.183.196.46.07.817l1.01.365Zm-1.865-2.608h-2.86v1.086h2.86V6.226Zm-2.86 0a.186.186 0 0 1-.144-.06c-.026-.03-.056-.086-.041-.189l-1.062-.153c-.12.843.5 1.488 1.246 1.488V6.226Zm-.186-.242.358-2.316-1.06-.168-.358 2.317 1.06.167Zm.351-2.282c.207-.943-.398-1.927-1.284-2.226l-.34 1.03c.403.136.656.6.577.96l1.047.236Zm-1.265-2.22a1.849 1.849 0 0 0-1.257.005c-.373.13-.73.374-.951.71l.892.602a.82.82 0 0 1 .408-.285.793.793 0 0 1 .531-.014l.377-1.017Zm-2.207.713L4.905 6.611l.89.606 2.933-4.416-.89-.606Z"/>
  <path fill="currentColor" d="M2.239 13.285V6.19H1.166v7.095h1.073Zm0-7.095c0-.445.096-.603.167-.669.081-.075.267-.163.727-.163V4.272c-.542 0-1.07.093-1.455.451-.394.369-.512.9-.512 1.467h1.073Zm.894-.832h.715V4.272h-.715v1.086Zm.715 0c.46 0 .646.088.727.163.07.066.167.224.167.67h1.073c0-.569-.118-1.1-.512-1.468-.384-.358-.913-.451-1.455-.451v1.086Zm.894.832v7.095h1.073V6.19H4.742Zm0 7.095c0 .446-.096.603-.167.669-.08.076-.267.164-.727.164v1.086c.542 0 1.071-.094 1.455-.452.394-.369.512-.899.512-1.467H4.742Zm-.894.833h-.715v1.086h.715v-1.086Zm-.715 0c-.46 0-.646-.088-.727-.164-.07-.066-.167-.223-.167-.669H1.166c0 .568.118 1.098.512 1.467.384.358.913.452 1.455.452v-1.086Z"/>
</svg>