<svg xmlns="http://www.w3.org/2000/svg" fill="none" width="16.776" height="16.576" viewBox="0 0 16.776 16.576">
  <path d="m7.935 15.563.398-.398-.026-.025-.028-.022-.344.445Zm6.375-1.125-.535-.176-.006.02-.005.02.546.136Zm1.8-5.475-.53-.19-.002.007-.003.007.535.176Zm-5.175-2.85-.556-.087-.001.007.557.08Zm.375-2.4-.55-.122-.003.017-.003.018.556.087Zm-.975-1.65-.198.527.01.003.01.003.178-.533Zm-1.65.525.467.314V2.9l-.467-.312Zm-3.42 11.62 2.325 1.8.69-.89-2.326-1.8-.689.89Zm2.272 1.753c.25.25.603.395.9.48.31.089.643.134.923.134V15.45c-.17 0-.4-.03-.614-.09-.228-.066-.363-.145-.413-.195l-.796.796Zm1.823.614h2.85V15.45H9.36v1.125Zm2.85 0c.585 0 1.168-.216 1.635-.558.468-.343.86-.84 1.01-1.443l-1.09-.273c-.075.298-.283.588-.584.808-.301.22-.656.341-.971.341v1.125Zm2.634-1.961 1.8-5.475-1.069-.352-1.8 5.475 1.07.352Zm1.796-5.462c.243-.68.159-1.368-.227-1.892-.384-.52-1.014-.81-1.728-.81v1.125c.41 0 .68.16.822.353.139.188.205.476.073.846l1.06.378ZM14.685 6.45h-3v1.125h3V6.45Zm-3 0a.196.196 0 0 1-.15-.062c-.028-.031-.058-.09-.043-.196l-1.114-.159c-.125.874.524 1.542 1.307 1.542V6.45Zm-.194-.25.375-2.4-1.112-.174-.375 2.4 1.112.174Zm.368-2.365c.217-.977-.418-1.996-1.346-2.306l-.356 1.067c.421.141.687.621.604.995l1.098.244Zm-1.327-2.299c-.447-.168-.922-.132-1.318.004-.39.135-.765.388-.997.736l.936.624a.86.86 0 0 1 .427-.296.84.84 0 0 1 .557-.014l.395-1.054Zm-2.314.738L5.143 6.85l.934.628 3.075-4.575-.934-.628Z" fill="currentColor"/>
  <path d="M2.348 13.763v-7.35H1.223v7.35h1.125Zm0-7.35c0-.462.1-.625.175-.693.085-.079.28-.17.762-.17V4.425c-.568 0-1.123.097-1.525.468-.414.382-.537.931-.537 1.52h1.125Zm.937-.863h.75V4.425h-.75V5.55Zm.75 0c.482 0 .677.091.762.17.074.068.176.231.176.693h1.125c0-.589-.124-1.138-.538-1.52-.402-.371-.957-.468-1.525-.468V5.55Zm.938.863v7.35h1.125v-7.35H4.973Zm0 7.35c0 .461-.102.624-.176.693-.085.078-.28.17-.762.17v1.124c.568 0 1.123-.096 1.525-.468.414-.381.538-.93.538-1.52H4.973Zm-.938.862h-.75v1.125h.75v-1.125Zm-.75 0c-.482 0-.677-.09-.762-.17-.074-.068-.175-.23-.175-.692H1.223c0 .588.123 1.138.537 1.52.402.37.957.467 1.525.467v-1.125Z" fill="currentColor"/>
</svg>