<svg xmlns="http://www.w3.org/2000/svg" fill="none" viewBox="0 0 32 32">
  <defs>
    <clipPath id="a">
      <rect width="32" height="32" rx="0"/>
    </clipPath>
  </defs>
  <g clip-path="url(#a)">
    <path d="M32.011 23.469c0 1.6-.64 1.92-3.093 1.92-.64-6.187-3.734-9.174-6.934-10.667 2.134-2.88 2.24-7.04.214-10.133 2.453-.747 5.013.96 5.653 3.626.533 2.347-.533 4.907-2.667 5.867 4.054 1.067 6.827 4.907 6.827 9.387Zm-13.12-8.214c3.947.854 8.533 3.627 8.533 11.627 0 2.133-2.666 2.133-11.306 2.133-8.747 0-11.307 0-11.307-2.133 0-7.893 4.587-10.773 8.533-11.627-3.093-1.706-4.16-5.653-2.666-8.853 1.493-3.2 5.226-4.373 8.107-2.667 2.88 1.707 4.053 5.654 2.453 8.747-.534 1.28-1.387 2.133-2.347 2.773Zm-8.853-.533c-3.2 1.493-6.294 4.587-6.934 10.667-2.453 0-3.093-.32-3.093-1.92-.213-4.48 2.667-8.427 6.72-9.387C4.384 12.91 3.318 10.03 4.384 7.47c.96-2.24 3.2-3.414 5.44-2.774-2.026 2.987-1.92 7.04.214 10.027Z" fill="currentColor"/>
  </g>
</svg>