<svg xmlns="http://www.w3.org/2000/svg" fill="none" width="48" height="48"><path d="M28.1 12.109v.008c-7.92 0-14.4 5.284-14.4 11.792S20.18 35.7 28.1 35.7c.286.01.567.076.828.192 1.555.605 4.133 2.514 5.94 3.944.204.166.457.261.72.272.34-.007.663-.15.895-.398.236-.25.364-.584.358-.928 0-2.403.137-5.558.857-6.088 2.952-2.16 4.802-5.3 4.802-8.793 0-6.515-6.48-11.792-14.4-11.792v-.001Z" fill="#3269F0"/><path d="M22.5 7.472v.01c9.35 0 17 6.238 17 13.92 0 7.684-7.65 13.922-17 13.922a2.65 2.65 0 0 0-.977.227c-1.836.714-4.88 2.967-7.013 4.656-.241.196-.54.308-.85.32a1.489 1.489 0 0 1-1.057-.469 1.56 1.56 0 0 1-.422-1.096c0-2.836-.161-6.561-1.011-7.187-3.486-2.55-5.67-6.256-5.67-10.38 0-7.692 7.65-13.922 17-13.922Z" fill="#F2F3F5"/><path d="M28.41 18.675h-12v-1h12v1ZM28.41 24.277h-12v-1h12v1Z" fill-rule="evenodd" fill="#303133"/></svg>