<svg xmlns="http://www.w3.org/2000/svg" fill="none" width="48" height="48"><circle cx="24" cy="13.324" fill="#7C5CFC" r="7"/><path d="M41.193 41.676H6.8a.771.771 0 0 1-.784-.794C6.402 30.57 14.305 22.926 24 22.926c9.694 0 17.598 7.643 17.985 17.956.017.442-.35.794-.792.794" fill="#E4E7ED"/><path d="m16.82 31.995.01.507 5.866 6.882.695-.344-3.378-15.601-.48-.306-4.622 1.055-.311.39v4.5l.4.4h3.799l-1.98 2.517Zm.83.237 4.622 5.423-2.955-13.652-3.917.894v3.781h4.222l.314.647-2.285 2.907ZM30.78 31.995l-.01.507-5.866 6.882-.695-.344 3.378-15.601.48-.306 4.622 1.055.31.39v4.5l-.4.4h-3.798l1.98 2.517Zm-.831.237-4.622 5.423 2.956-13.652 3.917.894v3.781h-4.222l-.315.647 2.286 2.907Z" fill-rule="evenodd" fill="#303133"/></svg>