<svg xmlns="http://www.w3.org/2000/svg" fill="none" width="48" height="48"><defs><clipPath id="a"><rect x="9" y="9" width="30" height="30" rx="0"/></clipPath></defs><g clip-path="url(#a)"><path d="M37.019 22.946a.704.704 0 0 0-.021-.123V22.8l-.012-.065c-.208-1.013-.879-1.667-1.713-1.667h-.138a2.582 2.582 0 0 1-2.578-2.578c0-.328.152-.794.216-.958.405-.943-.026-2.018-1.025-2.566l-3.143-1.778-.06-.021c-.234-.076-.506-.167-.81-.167a2.4 2.4 0 0 0-1.603.66c-.495.488-1.5 1.218-2.098 1.218-.594 0-1.602-.727-2.097-1.219A2.3 2.3 0 0 0 20.334 13c-.313 0-.577.088-.812.167l-.052.02-3.296 1.785-.02.011c-.8.501-1.126 1.65-.718 2.561l.005.012.006.011c.065.144.264.63.264 1.055a2.582 2.582 0 0 1-2.578 2.578h-.138c-.873 0-1.526.645-1.714 1.679l-.011.059v.02c0 .03-.012.07-.021.123-.073.442-.249 1.485-.249 2.338s.173 1.896.249 2.338a.703.703 0 0 0 .02.123v.023l.012.065c.208 1.013.88 1.667 1.714 1.667h.07a2.582 2.582 0 0 1 2.579 2.578c0 .328-.153.794-.217.958-.39.888-.02 2.027.84 2.602l.024.011 3.105 1.729.06.02c.233.076.5.167.805.167.65 0 1.236-.249 1.602-.659.035-.026.07-.061.112-.097.375-.328 1.382-1.195 2.047-1.195.496 0 1.325.519 2.16 1.354a2.3 2.3 0 0 0 1.602.659c.405 0 .703-.112 1.043-.279l.012-.005 3.184-1.761.012-.012c.8-.5 1.125-1.65.718-2.56l-.006-.012-.006-.012c-.006-.003-.255-.521-.208-.987l.006-.03v-.029a2.582 2.582 0 0 1 2.578-2.578h.147c.873 0 1.526-.644 1.713-1.679l.012-.058v-.02c.006-.024.012-.06.02-.106.077-.43.253-1.436.253-2.356.006-.85-.167-1.89-.243-2.332Zm-12.891 6.516a4.077 4.077 0 1 1 4.078-4.078 4.077 4.077 0 0 1-4.078 4.078Z" fill="#D7DDE8"/><path d="m21.588 23.487 3.533-3.533a.288.288 0 0 1 .407 0l2.477 2.478a.288.288 0 0 1 0 .406L24.45 26.39c-.101.102-.06.284.082.335.64.213 1.34.305 2.06.244 2.539-.213 4.57-2.305 4.701-4.843a4.969 4.969 0 0 0-.314-2.061l5.898-5.909a.429.429 0 0 0 0-.599l-2.447-2.437a.43.43 0 0 0-.599 0l-5.898 5.9a5.177 5.177 0 0 0-2.254-.295c-2.457.213-4.437 2.193-4.66 4.65-.061.72.02 1.4.223 2.04.061.142.244.183.345.071Z" fill="#0256FF"/><path d="M18.91 30.203h-8v-1h8v1ZM26.91 34.805h-16v-1h16v1Z" fill-rule="evenodd" fill="#303133"/></g></svg>