<svg xmlns="http://www.w3.org/2000/svg" viewBox="0 0 32 32" fill="none">
  <defs>
    <clipPath id="a">
      <rect width="32" height="32" rx="0"/>
    </clipPath>
  </defs>
  <g clip-path="url(#a)">
    <path fill="currentColor" d="M22.402 3.4c3.733 0 6.8 3.141 6.934 7.017v1.07c-.6 8.82-8.401 12.964-11.801 14.3-.534.268-1 .334-1.534.334-.533 0-1-.066-1.533-.267-3.334-1.403-11.201-5.48-11.801-14.3v-1.07C2.8 6.541 5.867 3.401 9.6 3.401c2.467 0 4.6 1.336 5.867 3.408.133.2.333.267.533.267s.4-.067.534-.267c1.2-2.072 3.4-3.408 5.867-3.408Zm0-2.672c-2.4 0-4.667.868-6.4 2.472C14.267 1.596 12 .728 9.6.728 4.467.728.2 4.938 0 10.284v1.403C.733 21.978 9.667 26.723 13.468 28.26c.8.334 1.667.468 2.533.468.867 0 1.734-.134 2.534-.468 3.8-1.537 12.734-6.282 13.468-16.573v-1.403c-.2-5.346-4.467-9.556-9.601-9.556Z"/>
  </g>
</svg>