<svg xmlns="http://www.w3.org/2000/svg" viewBox="0 0 36 36" fill="none">
  <defs>
    <clipPath id="a">
      <rect width="36" height="36" rx="0"/>
    </clipPath>
  </defs>
  <g clip-path="url(#a)">
    <path fill="currentColor" d="M31.564 10c-1.233-2.137-4.123-2.973-7.747-2.582C22.344 4.085 20.174 2 17.708 2c-2.463 0-4.631 2.08-6.104 5.407-.152-.017-.307-.043-.457-.055-3.543-.297-6.136.64-7.296 2.648-1.232 2.136-.512 5.057 1.638 8-2.15 2.942-2.87 5.864-1.638 8 1.018 1.762 3.139 2.703 6.042 2.703.403 0 .822-.019 1.254-.055.15-.013.305-.038.456-.055C13.077 31.92 15.245 34 17.708 34c2.466 0 4.637-2.085 6.11-5.419.57.061 1.127.104 1.657.104 2.838 0 5.05-.885 6.089-2.685 1.233-2.136.512-5.058-1.637-8 2.15-2.943 2.87-5.864 1.637-8Zm-6.071-.5c2.077 0 3.584.566 4.178 1.593.674 1.168.231 3.062-1.188 5.165a25.706 25.706 0 0 0-2.997-2.748 25.694 25.694 0 0 0-.881-3.97c.303-.022.605-.04.888-.04Zm-4.83 13.618a30.196 30.196 0 0 1-2.956 1.492 29.924 29.924 0 0 1-2.954-1.492 30.03 30.03 0 0 1-2.77-1.813A29.987 29.987 0 0 1 11.798 18c0-1.157.07-2.257.185-3.305a30.19 30.19 0 0 1 5.717-3.308c.988.435 1.98.93 2.962 1.496a29.95 29.95 0 0 1 2.77 1.813c.116 1.047.184 2.148.184 3.304 0 1.157-.068 2.257-.184 3.305a29.884 29.884 0 0 1-2.77 1.813Zm2.264 1.178a21.443 21.443 0 0 1-.513 1.854 21.425 21.425 0 0 1-1.86-.482c.402-.21.803-.427 1.202-.657a33.07 33.07 0 0 0 1.17-.715Zm-10.438 0c.383.243.769.484 1.17.716.406.233.81.446 1.216.658a21.34 21.34 0 0 1-1.87.487 21.347 21.347 0 0 1-.516-1.86Zm-2.843-4.924A21.36 21.36 0 0 1 8.296 18c.408-.456.86-.914 1.35-1.372A33.02 33.02 0 0 0 9.612 18c0 .464.015.92.034 1.372Zm3.359-9.529c.61.129 1.233.292 1.866.486-.404.212-.808.427-1.211.66-.402.232-.788.473-1.17.715.151-.655.322-1.278.515-1.86Zm7.54.484a21.01 21.01 0 0 1 1.87-.472c.19.58.36 1.199.512 1.85-.383-.243-.77-.484-1.171-.716-.402-.232-.806-.45-1.21-.662Zm5.225 6.302c.49.457.942.915 1.349 1.371a21.4 21.4 0 0 1-1.35 1.371c.02-.452.035-.907.035-1.37 0-.464-.015-.92-.034-1.372ZM17.708 4.187c1.348 0 2.767 1.33 3.879 3.61a25.69 25.69 0 0 0-3.872 1.219 26.062 26.062 0 0 0-3.88-1.23c1.11-2.273 2.527-3.6 3.873-3.6ZM5.745 11.093c.688-1.19 2.536-1.76 5.07-1.569a25.696 25.696 0 0 0-.885 3.986 25.679 25.679 0 0 0-2.998 2.748c-1.419-2.103-1.86-3.997-1.187-5.165Zm0 13.814c-.674-1.168-.232-3.062 1.187-5.165a25.68 25.68 0 0 0 2.998 2.749c.204 1.426.505 2.76.886 3.986-2.536.186-4.383-.38-5.07-1.57Zm11.963 6.906c-1.346 0-2.763-1.326-3.873-3.599 1.264-.29 2.57-.702 3.887-1.232a25.83 25.83 0 0 0 3.863 1.225c-1.111 2.278-2.53 3.606-3.877 3.606Zm11.963-6.906c-.675 1.167-2.536 1.731-5.066 1.554.379-1.221.678-2.55.881-3.97a25.681 25.681 0 0 0 2.998-2.748c1.418 2.102 1.86 3.996 1.186 5.164Z"/>
  </g>
</svg>