<svg xmlns="http://www.w3.org/2000/svg" xmlns:xlink="http://www.w3.org/1999/xlink" fill="none" version="1.1" width="16" height="16" viewBox="0 0 16 16"><defs><clipPath id="master_svg0_1135_24965"><rect x="16" y="0" width="16" height="16" rx="0"/></clipPath></defs><g transform="matrix(-1,0,0,1,32,0)" clip-path="url(#master_svg0_1135_24965)"><g><path d="M30.8488,8.217410000000001L17.405404,1.0300066C17.210774,0.9326915,16.9744376,1.085615,17.00224195,1.294147L18.0449,13.7088C18.0588,13.9034,18.25343,14.0146,18.43416,13.9451L22.771630000000002,12.1239L25.14889,14.8209C25.30182,14.9878,25.56596,14.9182,25.62157,14.7097L26.76154,10.44175L30.8488,8.71789C31.0434,8.62057,31.057299999999998,8.32863,30.8488,8.217410000000001ZM25.14889,13.528L23.8977,11.3037L17.502718,1.433169L25.98302,10.19151L25.14889,13.528Z" fill="#3B437B" fill-opacity="1"/></g></g></svg>