<svg xmlns="http://www.w3.org/2000/svg" xmlns:xlink="http://www.w3.org/1999/xlink" fill="none" version="1.1" width="16" height="15.999645233154297" viewBox="0 0 16 15.999645233154297"><defs><clipPath id="master_svg0_1135_042737"><rect x="16" y="0" width="16" height="15.999645233154297" rx="0"/></clipPath></defs><g transform="matrix(-1,0,0,1,32,0)" clip-path="url(#master_svg0_1135_042737)"><g><path d="M23.9996778125,14.6660078125C27.6815078125,14.6660078125,30.6663078125,11.6813078125,30.6663078125,7.9995278125C30.6663078125,4.3177778125,27.6815078125,1.3330078125,23.9996778125,1.3330078125C20.3178378125,1.3330078125,17.3330078125,4.3177778125,17.3330078125,7.9995278125C17.3330078125,11.6813078125,20.3178378125,14.6660078125,23.9996778125,14.6660078125ZM21.1461778125,10.1459778125L23.4996778125,7.7923678125L23.4996778125,4.999597812499999C23.4996778125,4.7234578124999995,23.723527812500002,4.4996078125,23.9996778125,4.4996078125C24.2758178125,4.4996078125,24.4996778125,4.7234578124999995,24.4996778125,4.999597812499999L24.4996778125,7.9995278125C24.4996478125,8.132117812499999,24.4469478125,8.259277812499999,24.3531778125,8.3530178125L21.8531778125,10.8529678125C21.658977812499998,11.0540378125,21.3376378125,11.0568278125,21.1399678125,10.8591678125C20.9422978125,10.6615078125,20.9450978125,10.3401778125,21.1461778125,10.1459778125Z" fill="#3B437B" fill-opacity="1"/></g></g></svg>