<svg xmlns="http://www.w3.org/2000/svg" xmlns:xlink="http://www.w3.org/1999/xlink" fill="none" version="1.1" width="439.833984375" height="311.0078125" viewBox="0 0 439.833984375 311.0078125"><g transform="matrix(-1,0,0,1,879.66796875,0)"><g><g><path d="M730.697484375,91.9801L649.955604375,91.9801C649.446024375,91.9742,648.938814375,91.9099,648.443884375,91.7885C645.402864375,91.05799999999999,643.262219235,88.33420000000001,643.2715209961,85.207L643.2715209961,57.76691C643.277380375,54.02971,646.307774375,51.00251733,650.045504375,51.0000274618L730.697484375,51.0000274618C731.784684375,50.99716228,732.856184375,51.259386,733.819084375,51.763978C734.202584375,51.962774,734.565184375,52.19937,734.901584375,52.47022C736.5298843749999,53.74461,737.478284375,55.6994,737.471484375,57.76691L737.471484375,85.207C737.4673843749999,88.946,734.436984375,91.976,730.697484375,91.9801Z" fill="#FFFFFF" fill-opacity="1"/></g><g><path d="M725.833984375,91.45233437499999Q731.332974375,78.08933437499999,737.419984375,64.990234375L737.419984375,79.796034375C734.652964375,84.005134375,731.451404375,87.912034375,727.867994375,91.45233437499999L725.833984375,91.45233437499999Z" fill="#CBD2DF" fill-opacity="1"/></g><g><path d="M734.983984375,52.6340885Q724.102984375,72.1521875,712.213974375,91.0764875L710.833984375,91.0764875Q722.920984375,71.8552875,733.999984375,51.9921875C734.348484375,52.1728585,734.678184375,52.3878935,734.983984375,52.6340885Z" fill="#CBD2DF" fill-opacity="1"/></g><g><path d="M681.725984375,67.07828275C676.985584375,75.45832125,671.754484375,83.55118125,666.059994375,91.31478125L657.833984375,91.31478125Q665.916044375,81.47018125,674.009984375,71.62561125C675.557984375,69.73589125,677.237984375,67.75616825,679.559984375,66.98828125L681.725984375,67.07828275Z" fill="#CBD2DF" fill-opacity="1"/></g><g><path d="M717.005984375,70.9457875L701.237984375,65.1806675L693.407984375,62.3190775C690.857984375,61.3892175,688.313984375,60.3273675,685.679984375,59.6554675C683.389384375,59.0009075,680.957084375,59.0321975,678.683984375,59.7454475C676.657084375,60.4954475,674.802184375,61.646187499999996,673.229984375,63.1289575Q672.185984375,64.0918175,671.207984375,65.1146675C670.349984375,66.0085275,669.527984375,66.93839750000001,668.753984375,67.9042475C667.049984375,69.9559875,665.3699843750001,72.0256875,663.683984375,74.0893875C662.633984375,75.3731875,661.583984375,76.6569875,660.545984375,77.9407875Q655.344004375,84.3028875,650.202004375,90.6948875C649.740832375,90.6895875,649.281823375,90.63118750000001,648.833984375,90.52098749999999Q654.197984375,83.8618875,659.609984375,77.2328875C660.023984375,76.7169875,660.449984375,76.1950875,660.869984375,75.67908750000001Q663.506984375,72.4485875,666.149984375,69.2240875C667.511984375,67.5623175,668.861984375,65.8885575,670.337984375,64.3227775C670.469984375,64.1787975,670.601984375,64.0408175,670.739984375,63.896837500000004C673.733984375,60.8012875,677.471984375,58.0656936,681.947984375,57.99370705C684.581984375,57.9517088,687.125984375,58.7855955,689.573984375,59.6674575C692.207984375,60.6213175,694.835984375,61.5931775,697.469984375,62.5590375L713.345984375,68.3661875L717.317984375,69.8179875C718.019984375,70.0699875,717.719984375,71.2097875,717.005984375,70.9457875Z" fill="#CBD2DF" fill-opacity="1"/></g><g><path d="M731.259984375,91.9722875L650.518104375,91.9722875C650.008524375,91.9663875,649.501314375,91.9020875,649.006384375,91.7806875C645.965364375,91.05018749999999,643.824719235,88.32638750000001,643.8340209961,85.1991875L643.8340209961,57.7590975C643.839880375,54.0218975,646.870274375,50.99470483,650.608004375,50.9922149618L731.259984375,50.9922149618C732.347184375,50.98934978,733.418684375,51.2515735,734.381584375,51.7561655C734.765084375,51.9549615,735.127684375,52.1915575,735.464084375,52.4624075C737.0923843749999,53.7367975,738.040784375,55.6915875,738.033984375,57.7590975L738.033984375,85.1991875C738.0298843749999,88.9381875,734.999484375,91.9681875,731.259984375,91.9722875ZM650.608044375,52.1920375C647.532754375,52.1938575,645.039254375,54.6842575,645.034054375,57.7590975L645.034054375,85.1991875C645.026514375,87.7726875,646.788244375,90.0142875,649.290894375,90.6153875C649.695114375,90.71448749999999,650.109304375,90.7671875,650.525464375,90.7724875L731.259984375,90.7724875C734.336984375,90.7688875,736.830384375,88.2757875,736.833984375,85.1992875L736.833984375,57.7590975C736.839084375,56.0577175,736.057884375,54.4493975,734.717284375,53.4015275C734.441184375,53.1788475,734.143484375,52.9843475,733.828684375,52.8209475C733.036284375,52.4055775,732.154584375,52.1897075,731.259884375,52.1920375L650.608044375,52.1920375Z" fill="#CBD2DF" fill-opacity="1"/></g><g><path d="M670.324284375,65.605794375C669.466284375,66.499664375,668.644284375,67.429534375,667.870284375,68.395384375C666.166284375,70.447094375,664.486264375,72.516774375,662.800264375,74.580434375C661.750264375,75.864334375,660.700264375,77.148134375,659.662284375,78.431934375C659.332654375,78.220234375,659.019724375,77.983534375,658.726284375,77.724034375C655.278039375,74.731334375,654.854187375,69.531884375,657.772194375,66.020344375C660.690234375,62.508819375,665.880084375,61.972854375,669.454284375,64.813924375C669.763984375,65.055424375,670.054784375,65.320144375,670.324284375,65.605794375Z" fill="#7B8AA4" fill-opacity="1"/></g></g><g><g><path d="M673.867578125,83.9955125L522.067578125,83.9955125C514.449598125,83.9869125,508.276147465,77.8144125,508.267578125,70.1975125L508.267578125,13.8058125C508.276239015,6.1889625,514.449638125,0.01646297,522.067578125,0.0078125L673.867578125,0.0078125C681.485578125,0.01647212,687.658578125,6.1889725,687.667578125,13.8058125L687.667578125,70.1975125C687.658578125,77.8144125,681.485578125,83.9870125,673.867578125,83.9955125Z" fill="#FFFFFF" fill-opacity="1"/></g><g><path d="M673.867578125,83.9877L522.067578125,83.9877C514.449598125,83.9791,508.276147465,77.8066,508.267578125,70.1897L508.267578125,13.798C508.276239015,6.18115,514.449638125,0.00865047,522.067578125,0L673.867578125,0C681.485578125,0.00865962,687.658578125,6.18116,687.667578125,13.798L687.667578125,70.1897C687.658578125,77.8066,681.485578125,83.9792,673.867578125,83.9877ZM522.067578125,1.19982C515.112028125,1.20762,509.475378125,6.84344,509.467578125,13.798L509.467578125,70.1897C509.475468125,77.1442,515.112058125,82.78,522.067578125,82.7879L673.867578125,82.7879C680.823578125,82.78,686.459578125,77.1442,686.467578125,70.1897L686.467578125,13.798C686.459578125,6.84345,680.823578125,1.20762,673.867578125,1.19982L522.067578125,1.19982Z" fill="#CBD2DF" fill-opacity="1"/></g><g><path d="M605.233984375,32.79539375L581.233984375,32.79539375C579.908504375,32.79539375,578.833984375,31.72103375,578.833984375,30.39574375C578.833984375,29.07045375,579.908504375,27.99609375,581.233984375,27.99609375L605.233984375,27.99609375C606.559484375,27.99609375,607.633984375,29.07045375,607.633984375,30.39574375C607.633984375,31.72103375,606.559484375,32.79539375,605.233984375,32.79539375Z" fill="#CBD2DF" fill-opacity="1"/></g><g><path d="M656.433984375,46.7914875L580.233984375,46.7914875C578.908504375,46.7914875,577.833984375,45.717127500000004,577.833984375,44.3918375C577.833984375,43.0665475,578.908504375,41.9921875,580.233984375,41.9921875L656.433984375,41.9921875C657.759484375,41.9921875,658.833984375,43.0665475,658.833984375,44.3918375C658.833984375,45.717127500000004,657.759484375,46.7914875,656.433984375,46.7914875Z" fill="#CBD2DF" fill-opacity="1"/></g><g><ellipse cx="552.9253234863281" cy="37.085079193115234" rx="16.091339111328125" ry="16.088985443115234" fill="#7B8AA4" fill-opacity="1"/></g></g><g><g><path d="M570.033984375,125.993L453.633984375,125.993C446.016004375,125.9845,439.842535405,119.81190000000001,439.833984375,112.195L439.833984375,91.798C439.842645265,84.18116,446.016044375,78.00865962,453.633984375,78L570.033984375,78C577.651984375,78.00865962,583.824984375,84.18116,583.833984375,91.798L583.833984375,112.195C583.824984375,119.81190000000001,577.651984375,125.9844,570.033984375,125.993Z" fill="#FFFFFF" fill-opacity="1"/></g><g><path d="M570.033984375,125.993L453.633984375,125.993C446.016004375,125.9845,439.842535405,119.81190000000001,439.833984375,112.195L439.833984375,91.798C439.842645265,84.18116,446.016044375,78.00865962,453.633984375,78L570.033984375,78C577.651984375,78.00865962,583.824984375,84.18116,583.833984375,91.798L583.833984375,112.195C583.824984375,119.81190000000001,577.651984375,125.9844,570.033984375,125.993ZM453.633984375,79.19982C446.678434375,79.20762,441.041774375,84.84344,441.033984375,91.798L441.033984375,112.195C441.041884375,119.1495,446.678474375,124.7852,453.633984375,124.7932L570.033984375,124.7932C576.989984375,124.7852,582.625984375,119.1495,582.633984375,112.195L582.633984375,91.798C582.625984375,84.84344,576.989984375,79.20762,570.033984375,79.19982L453.633984375,79.19982Z" fill="#CBD2DF" fill-opacity="1"/></g><g><path d="M487.319784375,114.0476L468.606784375,114.0476C466.524064375,114.0453,464.836273195,112.3578,464.833984375,110.2754L464.833984375,92.77224C464.836291505,90.68983,466.524084375,89.00228848,468.606784375,89L487.319784375,89C489.402484375,89.0023251,491.090184375,90.68985,491.092584375,92.77224L491.092584375,110.2754C491.090184375,112.3578,489.402484375,114.0453,487.319784375,114.0476Z" fill="#7B8AA4" fill-opacity="1"/></g><g><path d="M520.319784375,114.0476L501.606784375,114.0476C499.524064375,114.0453,497.836273195,112.3578,497.833984375,110.2754L497.833984375,92.77224C497.836291505,90.68983,499.524084375,89.00228848,501.606784375,89L520.319784375,89C522.402484375,89.0023251,524.090184375,90.68985,524.092584375,92.77224L524.092584375,110.2754C524.090184375,112.3578,522.402484375,114.0453,520.319784375,114.0476Z" fill="#CBD2DF" fill-opacity="1"/></g><g><path d="M554.319784375,114.0476L535.606784375,114.0476C533.524084375,114.0453,531.836291505,112.3577,531.833984375,110.2754L531.833984375,92.77224C531.836291505,90.68985,533.524084375,89.00230679,535.606784375,89L554.319784375,89C556.402484375,89.0023251,558.090284375,90.68985,558.092584375,92.77224L558.092584375,110.2754C558.090284375,112.3578,556.402484375,114.0453,554.319784375,114.0476Z" fill="#CBD2DF" fill-opacity="1"/></g></g><g><g><path d="M727.433984375,207.969375L575.633784375,207.969375C568.015814375,207.960375,561.842553715,201.788275,561.833984375,194.171375L561.833984375,117.782375C561.842645265,110.165535,568.016044375,103.99303462,575.633984375,103.984375L727.433984375,103.984375C735.051984375,103.99303462,741.224984375,110.165535,741.233984375,117.782375L741.233984375,194.171375C741.225984375,201.788275,735.051984375,207.960375,727.433984375,207.969375Z" fill="#FFFFFF" fill-opacity="1"/></g><g><path d="M727.433984375,207.969375L575.633784375,207.969375C568.015814375,207.960375,561.842553715,201.788275,561.833984375,194.171375L561.833984375,117.782375C561.842645265,110.165535,568.016044375,103.99303462,575.633984375,103.984375L727.433984375,103.984375C735.051984375,103.99303462,741.224984375,110.165535,741.233984375,117.782375L741.233984375,194.171375C741.225984375,201.788275,735.051984375,207.960375,727.433984375,207.969375ZM575.633984375,105.184195C568.678444375,105.192015,563.041804375,110.827815,563.033984375,117.782375L563.034184375,194.171375C563.042094375,201.125875,568.678294375,206.761375,575.633784375,206.769375L727.433984375,206.769375C734.3889843750001,206.761375,740.025984375,201.125875,740.033984375,194.171375L740.033984375,117.782375C740.025984375,110.827815,734.389984375,105.192015,727.433984375,105.184195L575.633984375,105.184195Z" fill="#CBD2DF" fill-opacity="1"/></g><g><path d="M634.773684375,129.84968875L609.275654375,129.84968875C607.928254375,129.85341875,606.833984375,128.76232875,606.833984375,127.41510875C606.833984375,126.06786875,607.928254375,124.97677056,609.275654375,124.9804870579L634.773684375,124.9804870579C636.115784375,124.98420356,637.201884375,126.07313875,637.201884375,127.41510875C637.201884375,128.75706875,636.115784375,129.84598875,634.773684375,129.84968875Z" fill="#7B8AA4" fill-opacity="1"/></g><g><path d="M691.931684375,139.84966875L609.275654375,139.84966875C607.928254375,139.85337875,606.833984375,138.76228875,606.833984375,137.41506875C606.833984375,136.06784875,607.928254375,134.97675225,609.275654375,134.9804870579L691.931684375,134.9804870579C693.273784375,134.98418525,694.359884375,136.07309875,694.359884375,137.41506875C694.359884375,138.75703875,693.273784375,139.84594875,691.931684375,139.84966875Z" fill="#CBD2DF" fill-opacity="1"/></g><g><path d="M691.931684375,150.847715625L609.275654375,150.847715625C607.928254375,150.851425625,606.833984375,149.760335625,606.833984375,148.413115625C606.833984375,147.065895625,607.928254375,145.974799125,609.275654375,145.9785339329L691.931684375,145.9785339329C693.273784375,145.982250435,694.359884375,147.071165625,694.359884375,148.413115625C694.359884375,149.755085625,693.273784375,150.844015625,691.931684375,150.847715625Z" fill="#CBD2DF" fill-opacity="1"/></g><g><path d="M691.924984375,161.8457625L609.268924375,161.8457625C607.924154375,161.8457625,606.833984375,160.7557425,606.833984375,159.4111625C606.833984375,158.0665725,607.924154375,156.9765625,609.268924375,156.9765625L691.924984375,156.9765625C693.269684375,156.9765625,694.359884375,158.0665725,694.359884375,159.4111625C694.359884375,160.7557425,693.269684375,161.8457625,691.924984375,161.8457625Z" fill="#CBD2DF" fill-opacity="1"/></g><g><path d="M691.931684375,173.843809375L609.275654375,173.843809375C607.928254375,173.847519375,606.833984375,172.756429375,606.833984375,171.409209375C606.833984375,170.061989375,607.928254375,168.970892875,609.275654375,168.9746276829L691.931684375,168.9746276829C693.273784375,168.978344185,694.359884375,170.067259375,694.359884375,171.409209375C694.359884375,172.751179375,693.273784375,173.840109375,691.931684375,173.843809375Z" fill="#CBD2DF" fill-opacity="1"/></g><g><path d="M691.931684375,185.84185625L609.275654375,185.84185625C607.928254375,185.84556625,606.833984375,184.75447625,606.833984375,183.40725625C606.833984375,182.06003625,607.928254375,180.96893975,609.275654375,180.9726745579L691.931684375,180.9726745579C693.273784375,180.97639106,694.359884375,182.06530625,694.359884375,183.40725625C694.359884375,184.74922625,693.273784375,185.83815625,691.931684375,185.84185625Z" fill="#CBD2DF" fill-opacity="1"/></g></g><g><path d="M799.9374015625,300.905784375L791.6058015625,300.905184375L787.6416015625,268.771484375L799.9392015625,268.772070227L799.9374015625,300.905784375Z" fill="#FFB6B6" fill-opacity="1"/></g><g><path d="M800.2323515625,309.5962L774.6103515625,309.5953L774.6103515625,309.2712C774.6110839845,303.76412,779.0758515625,299.30012,784.5831515625,299.30012L784.5831515625,299.30012L789.2639515625,295.75L797.9961515625,299.30066L800.2327515625,299.30074L800.2323515625,309.5962Z" fill="#2F2E41" fill-opacity="1"/></g><g><path d="M858.3377453125,285.581921875L851.5223453125,290.372721875L829.7939453125,266.367251875L839.8535453125,259.294921875L858.3377453125,285.581921875Z" fill="#FFB6B6" fill-opacity="1"/></g><g><path d="M863.5777109375,292.521669375L842.6180709375,307.256609375L842.4316609375,306.991509375C839.2639809375,302.486709375,840.3481079375,296.267309375,844.8532309375,293.099499375L844.8532309375,293.099499375L846.6398709375,287.503449375L855.8255109375,285.385879375L857.6552109375,284.099609375L863.5777109375,292.521669375Z" fill="#2F2E41" fill-opacity="1"/></g><g><path d="M833.134103125,141.0442709375L833.826403125,142.5230509375C838.377103125,152.2435609375,839.540603125,163.1096609375,837.772203125,173.6956609375C837.640703125,174.1088609375,837.665803125,174.5558609375,837.842703125,174.9517609375C838.939503125,176.2379609375,837.218803125,181.82606093750002,836.232503125,184.9462609375L835.343503125,190.4639609375Q836.817603125,195.5884609375,834.578503125,195.2118609375C832.339503125,194.8352609375,835.673703125,200.3012609375,833.537903125,201.6706609375L827.997503125,236.0585609375L851.112503125,274.1499609375L842.551403125,286.5619609375L808.306903125,242.4779609375L807.878903125,202.6750609375L802.742203125,234.7744609375L802.314203125,285.2779609375L786.739423125,283.62196093750003L781.033203125,234.65886093749998L786.476163125,166.9445609375L795.037303125,137.5849609375L833.134103125,141.0442709375Z" fill="#2F2E41" fill-opacity="1"/></g><g><path d="M736.678745,129.2861659375C738.358005,127.4117359375,741.224595,127.2148759375,743.144455,128.8421159375C743.329655,129.0041359375,743.501075,129.1812159375,743.657005,129.3715259375L758.920525,123.9130859375L764.415625,130.6824559375L742.698045,135.8995859375C740.972095,137.1034859375,738.651455,136.9932859375,737.047375,135.6312859375C735.195923,134.0283859375,734.994653,131.2282859375,736.597815,129.3771259375Q736.637625,129.3311159375,736.678745,129.2861659375Z" fill="#FFB6B6" fill-opacity="1"/></g><g><path d="M822.434765625,52.8857421875L809.834765625,53.4856541875L803.809565625,63.893142187500004L795.248465625,66.4611421875L787.971495625,84.4368421875L792.434765625,140.4729421875Q793.329415625,143.8622421875,791.682095625,143.3674421875Q790.034765625,142.87254218750002,790.706215625,147.1202421875L784.634765625,170.4687421875L839.834765625,165.6697421875L836.769665625,140.9317421875Q841.031165625,141.06924218749998,838.034765625,138.0733421875C835.038365625,135.0773421875,833.581165625,136.03174218750002,836.459665625,132.48984218750002Q839.338065625,128.94794218750002,839.766065625,126.3800421875L841.050265625,108.83234218749999L843.167365625,84.1367421875C843.849765625,76.1765421875,840.479965625,68.4072421875,834.201365625,63.465242187499996L822.434765625,52.8857421875Z" fill="#6C63FF" fill-opacity="1"/></g><g><path d="M852.1718115625,175.2081796875C853.5788315625,173.1216796875,853.0686315625,170.2943796875,851.0209915625,168.8311796875C850.8185915625,168.6912796875,850.6049815625,168.5683796875,850.3822515625,168.4637796875L851.9425315625,152.3309696875L844.0338012625,148.6591796875L844.2861205625,170.9901796875C843.5407345625,172.9578796875,844.2151485625,175.1807796875,845.9283215625,176.40277968750001C847.9355915625,177.8056796875,850.7002315625,177.3159796875,852.1033715625,175.3089796875Q852.1383015625,175.2590796875,852.1718115625,175.2081796875Z" fill="#FFB6B6" fill-opacity="1"/></g><g><path d="M840.23746875,70.4599609375Q858.3819687499999,113.6763609375,857.83376875,130.2719609375L851.83376875,160.8674609375L843.43376875,160.26756093749998L844.03376875,132.6715609375C847.09876875,129.5385609375,834.27123875,111.8431609375,830.04296875,99.3897609375L840.23746875,70.4599609375Z" fill="#6C63FF" fill-opacity="1"/></g><g><path d="M796.1031984374999,66.0322265625Q773.5779984375,107.0416265625,764.8551884375,119.1032265625L758.2333984375,124.2744265625L758.2333984375,132.6731265625L773.6302984375,133.0129265625Q796.5311984375,113.9673265625,795.6750984375,104.5515265625Q794.8189984375,95.1357265625,796.1031984374999,66.0322265625Z" fill="#6C63FF" fill-opacity="1"/></g><g><ellipse cx="815.9009122848511" cy="34.01869297027588" rx="15.979037284851074" ry="15.976700782775879" fill="#FFB6B6" fill-opacity="1"/></g><g><path d="M822.075403125,48.6860640625C817.490103125,48.5356640625,817.073503125,47.3246640625,812.488103125,47.1741640625C811.028103125,47.1263640625,809.305203125,46.9262640625,808.599403125,45.6474640625C808.096603125,44.7366640625,808.328003125,43.589764062499995,808.770403125,42.648264062500004C809.293603125,41.7496640625,809.765303125,40.822064062500004,810.183003125,39.8698640625C811.271303125,36.6406640625,808.779103125,33.325064062500005,805.374203125,33.4721640625C803.978793125,33.5324640625,802.668313125,34.1885640625,801.276743125,34.3084640625C799.368343125,34.4729640625,795.148352125,28.1727640625,796.027002125,26.470964062500002C796.882288125,24.814364062499997,798.603513125,23.5645640625,798.874003125,21.7199940625C799.050953125,20.5135840625,798.552873125,19.3148740625,798.484823125,18.0974540625C798.383933125,16.2923540625,802.960323125,20.3624640625,802.122183125,18.7604940625C800.066233125,14.830744062499999,819.440103125,9.9588940625,822.629703125,14.8812540625C823.821803125,16.7209540625,825.946303125,16.5954740625,827.839803125,17.700324062500002C829.080803125,18.4244540625,832.2146031249999,20.9226540625,832.927103125,22.4797340625C833.581703125,24.068564062500002,833.891103125,25.7783640625,833.834503125,27.4958640625C833.863203125,35.4832640625,832.646203125,42.830364062499996,826.202603125,47.5517640625" fill="#2F2E41" fill-opacity="1"/></g><g><path d="M747.3985453125,306.269128125C738.6233453125,307.042528125,729.9677453125,303.814128125,723.8430453125,297.483328125C719.8887453125,293.314828125,717.1751253125,287.949328125,714.5508153125,282.760528125C713.7869053125,281.250528125,712.9972453125,279.689128125,712.1938853125,278.192628125C710.3615113125,274.854628125,710.7444213125,270.737888125,713.1609353125,267.795048125C715.4767453125,264.853007125,719.3498253125,263.615725125,722.9427453125,264.670221125L723.3256453125,264.780838125L726.7721453125,278.227328125C727.2863453125,276.221728125,728.3899453125,271.702748125,729.0868453125,267.275288125L729.1454453125,266.904438125L729.4886453125,267.057278125C733.0873453125,268.649368125,736.4711453125,270.688168125,739.5603453125,273.125598125C750.6367453125,282.008928125,757.2443453125,295.314028125,757.6276453125,309.506128125L757.6367453125,309.924228125L747.3985453125,306.269128125Z" fill="#E5E8EE" fill-opacity="1"/></g><g><path d="M878.9473984374999,310.82336125L461.6982424375,311.00781125C461.3036874375,311.00781125,460.9833984375,310.68752125,460.9833984375,310.29296925C460.9833984375,309.89841325,461.3036874375,309.57910125,461.6982424375,309.57910125L878.9473984374999,309.3945537155C879.3443984375,309.39144092,879.6673984375,309.71220525,879.6673984375,310.10895825C879.6673984375,310.50571125,879.3443984375,310.82647125,878.9473984374999,310.82336125Z" fill="#CBD2DF" fill-opacity="1"/></g></g></svg>