<svg xmlns="http://www.w3.org/2000/svg" xmlns:xlink="http://www.w3.org/1999/xlink" fill="none" version="1.1" width="16" height="75" viewBox="0 0 16 75"><defs><linearGradient x1="-0.7822903990745544" y1="-1.0887359380722046" x2="1.274919033050537" y2="1.1853946447372437" id="master_svg0_1005_32333"><stop offset="0%" stop-color="#0547FF" stop-opacity="1"/><stop offset="100%" stop-color="#D683FF" stop-opacity="1"/></linearGradient></defs><g><path d="M11,15.4162Q11.2751,15.3049,11.5412,15.1736Q11.8072,15.0422,12.0629,14.8915Q12.3185,14.7408,12.5622,14.5716Q12.806,14.4024,13.0365,14.2156Q13.2671,14.0287,13.4832,13.8254Q13.6992,13.622,13.8997,13.4032Q14.1001,13.1843,14.2837,12.9513Q14.4674,12.7182,14.6332,12.4721Q14.7991,12.2261,14.9463,11.9684Q15.0935,11.7108,15.2212,11.4429Q15.3489,11.1751,15.4564,10.8985Q15.564,10.6219,15.6507,10.3382Q15.7374,10.0544,15.8029,9.76496Q15.8683,9.47553,15.9122,9.18206Q15.956,8.88858,15.978,8.59266Q16,8.29674,16,8Q16,7.80361,15.9904,7.60746Q15.9807,7.41131,15.9615,7.21586Q15.9422,7.02042,15.9134,6.82616Q15.8846,6.63189,15.8463,6.43928Q15.808,6.24666,15.7602,6.05616Q15.7125,5.86565,15.6555,5.67772Q15.5985,5.48979,15.5324,5.30488Q15.4662,5.11997,15.391,4.93853Q15.3159,4.75709,15.2319,4.57956Q15.1479,4.40203,15.0554,4.22883Q14.9628,4.05563,14.8618,3.88718Q14.7609,3.71873,14.6518,3.55544Q14.5426,3.39215,14.4257,3.23441Q14.3087,3.07666,14.1841,2.92485Q14.0595,2.77304,13.9276,2.62753Q13.7957,2.48201,13.6569,2.34315Q13.518,2.20428,13.3725,2.07239Q13.227,1.9405,13.0751,1.81592Q12.9233,1.69133,12.7656,1.57434Q12.6079,1.45735,12.4446,1.34824Q12.2813,1.23914,12.1128,1.13817Q11.9444,1.03721,11.7712,0.94463Q11.598,0.852053,11.4204,0.768086Q11.2429,0.684118,11.0615,0.608964Q10.88,0.533809,10.6951,0.467647Q10.5102,0.401486,10.3223,0.344477Q10.1343,0.287469,9.94384,0.23975Q9.75334,0.192031,9.56072,0.153718Q9.36811,0.115404,9.17384,0.0865879Q8.97958,0.0577717,8.78414,0.0385222Q8.58869,0.0192727,8.39254,0.00963635Q8.19639,0,8,0Q7.80361,0,7.60746,0.00963635Q7.41131,0.0192727,7.21586,0.0385222Q7.02042,0.0577717,6.82616,0.0865879Q6.63189,0.115404,6.43928,0.153718Q6.24666,0.192031,6.05616,0.23975Q5.86565,0.287469,5.67772,0.344477Q5.48979,0.401486,5.30488,0.467647Q5.11997,0.533809,4.93853,0.608964Q4.75709,0.684118,4.57956,0.768086Q4.40203,0.852053,4.22883,0.94463Q4.05563,1.03721,3.88718,1.13817Q3.71873,1.23914,3.55544,1.34824Q3.39215,1.45735,3.23441,1.57434Q3.07666,1.69133,2.92485,1.81592Q2.77304,1.9405,2.62753,2.07239Q2.48201,2.20428,2.34315,2.34315Q2.20428,2.48201,2.07239,2.62753Q1.9405,2.77304,1.81592,2.92485Q1.69133,3.07666,1.57434,3.23441Q1.45735,3.39215,1.34824,3.55544Q1.23914,3.71873,1.13817,3.88718Q1.03721,4.05563,0.94463,4.22883Q0.852053,4.40203,0.768086,4.57956Q0.684118,4.75709,0.608964,4.93853Q0.533809,5.11997,0.467647,5.30488Q0.401486,5.48979,0.344477,5.67772Q0.287469,5.86565,0.23975,6.05616Q0.192031,6.24666,0.153718,6.43928Q0.115404,6.63189,0.0865879,6.82616Q0.0577717,7.02042,0.0385222,7.21586Q0.0192727,7.41131,0.00963635,7.60746Q0,7.80361,0,8Q0,8.29674,0.0219828,8.59266Q0.0439656,8.88858,0.0878104,9.18206Q0.131655,9.47553,0.197121,9.76496Q0.262587,10.0544,0.349314,10.3382Q0.436041,10.6219,0.543553,10.8985Q0.651064,11.1751,0.77877,11.4429Q0.906475,11.7108,1.05367,11.9684Q1.20087,12.2261,1.36675,12.4721Q1.53263,12.7182,1.71628,12.9513Q1.89993,13.1843,2.10035,13.4032Q2.30076,13.622,2.51684,13.8254Q2.73291,14.0287,2.96346,14.2156Q3.19401,14.4024,3.43776,14.5716Q3.68151,14.7408,3.93713,14.8915Q4.19275,15.0422,4.45884,15.1736Q4.72492,15.3049,5,15.4162L5,75L11,75L11,15.4162Z" fill-rule="evenodd" fill="url(#master_svg0_1005_32333)" fill-opacity="1"/></g></svg>