<svg xmlns="http://www.w3.org/2000/svg" xmlns:xlink="http://www.w3.org/1999/xlink" fill="none" version="1.1" width="16" height="15.999645233154297" viewBox="0 0 16 15.999645233154297"><defs><clipPath id="master_svg0_1135_043025"><rect x="0" y="0" width="16" height="15.999645233154297" rx="0"/></clipPath></defs><g clip-path="url(#master_svg0_1135_043025)"><g><path d="M14.6878703125,9.31231L13.5003703125,8.41234C13.5128703125,8.28734,13.5253703125,8.149840000000001,13.5253703125,7.99984C13.5253703125,7.84985,13.5128703125,7.71235,13.5003703125,7.58735L14.6878703125,6.68737C15.0128703125,6.43738,15.1003703125,5.99989,14.8878703125,5.6249L13.5628703125,3.38745C13.4128703125,3.12495,13.1253703125,2.96246,12.8253703125,2.96246C12.7253703125,2.96246,12.6378703125,2.9749600000000003,12.5378703125,3.01245L11.1253703125,3.56244C10.8879003125,3.39995,10.6379003125,3.26245,10.3879003125,3.14995L10.1754003125,1.712484C10.1129003125,1.299993,9.7629003125,1,9.3379003125,1L6.6629003125,1C6.2379003125,1,5.8879003125,1.299993,5.8254003125,1.6999840000000002L5.6254003125,3.14995C5.3754003125,3.26245,5.1379003125,3.39995,4.887900312499999,3.56244L3.4754003125,3.01245C3.3754003125,2.9749600000000003,3.2754003125,2.96246,3.1754003125,2.96246C2.8754003125,2.96246,2.5879003125,3.11245,2.4504003125000002,3.37495L1.1129033125,5.6249C0.9004035125000001,5.97489,0.9879035325,6.43738,1.3129033125,6.68737L2.5004003125,7.58735C2.4879003125,7.73735,2.4754003124999997,7.87485,2.4754003124999997,7.99984C2.4754003124999997,8.124839999999999,2.4754003124999997,8.26234,2.5004003125,8.41234L1.3129033125,9.31231C0.9879035925,9.56231,0.9004035125000001,9.9998,1.1129033125,10.37479L2.4379003125,12.6122C2.5879003125,12.8747,2.8754003125,13.0372,3.1754003125,13.0372C3.2754003125,13.0372,3.3629003125,13.0247,3.4629003125,12.9872L4.8754003125,12.4372C5.1129003125,12.5997,5.3629003125,12.7372,5.6129003125,12.8497L5.8254003125,14.2872C5.8754003125,14.6872,6.2379003125,14.9997,6.6629003125,14.9997L9.3379003125,14.9997C9.7629003125,14.9997,10.1129003125,14.6997,10.1754003125,14.2997L10.3879003125,12.8497C10.6379003125,12.7372,10.8754003125,12.5997,11.1253703125,12.4372L12.5378703125,12.9872C12.6378703125,13.0247,12.7378703125,13.0372,12.8378703125,13.0372C13.1378703125,13.0372,13.4253703125,12.8872,13.5628703125,12.6247L14.9003703125,10.36229C15.1003703125,9.9998,15.0128703125,9.56231,14.6878703125,9.31231ZM11.0003703125,7.99984C11.0003703125,9.64981,9.6504003125,10.99978,8.0004003125,10.99978C6.3504003125,10.99978,5.0004003125,9.64981,5.0004003125,7.99984C5.0004003125,6.34988,6.3504003125,4.99991,8.0004003125,4.99991C9.6504003125,4.99991,11.0003703125,6.34988,11.0003703125,7.99984Z" fill="#3B437B" fill-opacity="1"/></g></g></svg>