<svg xmlns="http://www.w3.org/2000/svg" xmlns:xlink="http://www.w3.org/1999/xlink" fill="none" version="1.1" width="475.2021484375" height="369.1953125" viewBox="0 0 475.2021484375 369.1953125"><g><g><path d="M383.3986375,67.249895625C381.0339375,93.303865625,374.2972375,120.776365625,363.7320375,147.283665625C350.6668375,180.063765625,332.8164375,208.935765625,312.1100375,230.778765625L310.9609375,229.776765625C331.5670375,208.038765625,349.3363375,179.293765625,362.3470375,146.64986562500002C374.1054375,117.14986562499999,381.0993375,86.450765625,382.58153749999997,57.884765625L384.0499375,58.130593625Q383.81633750000003,62.655975624999996,383.3986375,67.249895625Z" fill="#F0F1F4" fill-opacity="1"/></g><g><path d="M392.8168828125,218.5668391875C363.7331828125,264.8365171875,328.4488828125,297.8963171875,293.4626218125,311.6557171875L292.7548828125,310.35821718750003C327.4989828125,296.69381718750003,362.5767828125,263.8032171875,391.5273828125,217.7451171875L392.8168828125,218.5668391875Z" fill="#F0F1F4" fill-opacity="1"/></g><g><path d="M382.693559375,99.6883921875C380.328859375,125.7423421875,373.592159375,153.21484218749998,363.026959375,179.7221421875C349.961759375,212.5022421875,332.111359375,241.3742421875,311.404959375,263.2172421875L310.255859375,262.2152421875C330.861959375,240.4772421875,348.631259375,211.7322421875,361.641959375,179.08834218750002C373.400359375,149.5883421875,380.394259375,118.8892421875,381.87645937499997,90.3232421875L383.344859375,90.5690791875Q383.111159375,95.0944621875,382.693559375,99.6883921875Z" fill="#F0F1F4" fill-opacity="1"/></g><g><path d="M56.195476562500005,166.5767234375L37.1132565625,166.5767234375C36.2872965625,166.5784234375,35.5059565625,166.2020234375,34.9924525625,165.55512343750001C34.4851685625,164.9246234375,34.2944365625,164.0966234375,34.4747775625,163.3077234375C36.2921665625,155.2886234375,36.1779865625,146.9524234375,34.1416717625,138.9860434375C33.8781465625,137.9129434375,34.2937225625,136.7874234375,35.1913765625,136.1430834375C45.0034765625,129.0860434375,52.7307765625,129.2908334375,58.1589765625,136.7527434375C58.403676562499996,137.0928434375,58.5662765625,137.4850434375,58.6338765625,137.8985434375C60.084176562500005,146.6177234375,60.1644765625,155.5098234375,58.8717765625,164.2537234375C58.6859765625,165.5883234375,57.5428765625,166.5804234375,56.195476562500005,166.5767234375Z" fill="#E5E8EE" fill-opacity="1"/></g><g><path d="M50.279669687500004,147.46780875L43.7153596875,147.46780875C42.9594606875,147.46780875,42.3466796875,146.85501875,42.3466796875,146.09912875C42.3466796875,145.34323075,42.9594606875,144.73046875,43.7153596875,144.73046875L50.279669687500004,144.73046875C51.0334796875,144.73341675,51.6429996875,145.34533675,51.6429996875,146.09914875C51.6429996875,146.85295875,51.0334796875,147.46485875,50.279669687500004,147.46780875Z" fill="#FFFFFF" fill-opacity="1"/></g><g><path d="M50.279669687500004,152.2676134375L43.7153596875,152.2676134375C42.9594606875,152.2676134375,42.3466796875,151.6548434375,42.3466796875,150.8989534375C42.3466796875,150.1430544375,42.9594606875,149.5302734375,43.7153596875,149.5302734375L50.279669687500004,149.5302734375C51.0334796875,149.5332214375,51.6429996875,150.1451234375,51.6429996875,150.8989334375C51.6429996875,151.6527434375,51.0334796875,152.2646434375,50.279669687500004,152.2676134375Z" fill="#FFFFFF" fill-opacity="1"/></g><g><path d="M50.279669687500004,157.067418125L43.7153596875,157.067418125C42.9594606875,157.067398125,42.3466796875,156.454628125,42.3466796875,155.698738125C42.3466796875,154.942840125,42.9594606875,154.3300598145,43.7153596875,154.330078125L50.279669687500004,154.330078125C51.0334796875,154.333044435,51.6429996875,154.944946125,51.6429996875,155.698758125C51.6429996875,156.452568125,51.0334796875,157.064468125,50.279669687500004,157.067418125Z" fill="#FFFFFF" fill-opacity="1"/></g><g><path d="M402.99528125,251.77691875L383.91305125,251.77691875C383.08710125,251.77861875,382.30575125,251.40231875,381.79224825,250.75531875000001C381.28493625,250.12481875,381.09421425,249.29681875,381.27457325,248.50791875C383.09189125,240.48881875,382.97775125,232.15261875,380.94146725,224.18623875C380.67794225,223.11313875,381.09351825,221.98761875,381.99117125,221.34327875C391.80328125,214.28623875,399.53058125,214.49102875,404.95878125,221.95293875C405.20348125,222.29307875,405.36598125,222.68525875,405.43368125,223.09873875C406.88398125,231.81791875,406.96428125,240.71001875,405.67158125,249.45391875C405.48568124999997,250.78841875,404.34268125,251.78061875,402.99528125,251.77691875Z" fill="#E5E8EE" fill-opacity="1"/></g><g><path d="M397.0789871875,232.6670075L390.5146571875,232.6670075C389.7608891875,232.6640775,389.1513671875,232.0521775,389.1513671875,231.2983675C389.1513671875,230.5445555,389.7608891875,229.93265381,390.5146571875,229.9296875L397.0789571875,229.9296875C397.8348471875,229.9296875,398.4475971875,230.5424315,398.4475971875,231.2983275C398.4475971875,232.0542275,397.8348471875,232.6670075,397.0789871875,232.6670075Z" fill="#FFFFFF" fill-opacity="1"/></g><g><path d="M397.0789871875,237.46778875L390.5146571875,237.46778875C389.7608891875,237.46485875,389.1513671875,236.85295875,389.1513671875,236.09914875C389.1513671875,235.34533675,389.7608891875,234.73339844,390.5146571875,234.73046875L397.0789571875,234.73046875C397.8348471875,234.73046875,398.4475971875,235.34321275,398.4475971875,236.09910875C398.4475971875,236.85500875,397.8348471875,237.46778875,397.0789871875,237.46778875Z" fill="#FFFFFF" fill-opacity="1"/></g><g><path d="M397.0789871875,242.2675934375L390.5146571875,242.2675934375C389.7608891875,242.2646634375,389.1513671875,241.6527634375,389.1513671875,240.8989534375C389.1513671875,240.1451414375,389.7608891875,239.5332397475,390.5146571875,239.5302734375L397.0789571875,239.5302734375C397.8348471875,239.5302734375,398.4475971875,240.1430174375,398.4475971875,240.8989134375C398.4475971875,241.6548134375,397.8348471875,242.2675934375,397.0789871875,242.2675934375Z" fill="#FFFFFF" fill-opacity="1"/></g><g><path d="M475.202,368.481583125C475.203,368.876428125,474.883,369.196788125,474.488,369.195588125L0.713867,369.195308125C0.319531,369.195308125,0,368.875778125,0,368.481445125C0,368.087109125,0.319531,367.767578125,0.713867,367.767578125L474.488,367.7675813298C474.883,367.766409455,475.203,368.086771125,475.202,368.481583125Z" fill="#CBD2DF" fill-opacity="1"/></g><g><path d="M139.702446875,324.7655234375L138.512346875,308.2124134375C130.716346875,304.3152334375,122.086746875,302.3800654375,113.373046875,302.5748901375C125.632046875,312.0506334375,124.650146875,330.9894234375,133.140146875,343.9506234375C138.566646875,352.0982234375,147.404246875,357.3356234375,157.156746875,358.1836234375L167.359146875,364.0531234375C169.721146875,348.4423234375,165.128946875,332.5801234375,154.792646875,320.6455234375C151.894546875,317.3656234375,148.595046875,314.4637234375,144.971846875,312.0083734375Q142.741846875,318.4110234375,139.702446875,324.7655234375Z" fill="#E5E8EE" fill-opacity="1"/></g><g><path d="M355.4997515625,327.1659140625L356.6898515625,310.6128040625C364.4859515625,306.7156940625,373.1155515625,304.7804930625,381.8291515625,304.9752807625C369.5702515625,314.4510240625,370.5521515625,333.3898140625,362.0621515625,346.3510140625C356.6355515625,354.4986140625,347.7980515625,359.7360140625,338.0455515625,360.5840140625L327.8430785625,366.4535140625C325.4811615625,350.8427140625,330.0732715625,334.9805140625,340.4096515625,323.0459140625C343.3076515625,319.7660140625,346.6071515625,316.8641140625,350.2303515625,314.4087640625Q352.4604515625,320.8114140625,355.4997515625,327.1659140625Z" fill="#E5E8EE" fill-opacity="1"/></g><g><ellipse cx="242.2007818222046" cy="128.9654302597046" rx="11.40000057220459" ry="11.40000057220459" fill="#6C63FF" fill-opacity="1"/></g><g><path d="M248.0527484375,124.213830375C247.6964484375,123.874023475,247.1361184375,123.874023475,246.7799084375,124.213830375C244.3610084375,126.143044375,242.1883584375,128.362234375,240.3108284375,130.821524375Q239.6194184375,129.483774375,238.9280884375,128.145984375C238.3960584375,127.116564375,236.8422604375,128.025944375,237.3738524375,129.054484375Q238.3851084375,131.011204375,239.3963284375,132.967884375C239.7513284375,133.549244375,240.5955984375,133.549244375,240.9505984375,132.967884375C242.9513584375,130.150054375,245.3426384375,127.631074375,248.0527484375,125.486634375C248.4011484375,125.133934375,248.4011484375,124.566528375,248.0527484375,124.213830375Z" fill="#FFFFFF" fill-opacity="1"/></g><g><path d="M191.1918765625,161.2921890625L174.0009765625,134.2947890625L193.9076765625,123.6337890625L199.1324765625,144.2315890625L235.9456765625,164.1244890625C239.99697656249998,162.6664890625,244.47327656250002,164.6942890625,246.0488765625,168.7013890625C247.6243765625,172.7084890625,245.7278765625,177.2419890625,241.76847656249998,178.9336890625C237.8090765625,180.6253890625,233.2221765625,178.86188906249998,231.4156765625,174.9534890625L191.1918765625,161.2921890625Z" fill="#FFB8B8" fill-opacity="1"/></g><g><path d="M161.4410428125,101.9131690625Q156.0395528125,109.84378906250001,175.2349828125,138.6707890625C176.1700828125,136.6550890625,185.1091828125,159.2903890625,186.6064828125,157.9532890625C190.8616828125,154.1530890625,197.5227828125,143.5674890625,201.2254828125,143.09558906249998Q203.3429828125,142.8257890625,196.3145828125,127.8085890625Q193.1023828125,118.94088906249999,188.7435828125,107.6132890625C186.3596828125,101.0576990625,180.7828828125,96.1807890625,173.9679828125,94.6920349625Q166.8425228125,93.9825930625,161.4410428125,101.9131690625Z" fill="#3F3D56" fill-opacity="1"/></g><g><path d="M161.70492859,360.294334375L169.869125,360.293734375L173.752925,328.802734375L161.703125,328.803320313L161.70492859,360.294334375Z" fill="#A0616A" fill-opacity="1"/></g><g><path d="M159.6220703125,357.62920875L161.9200603125,357.62909875L170.8918703125,353.98046875L175.7005703125,357.62854875L175.7011703125,357.62854875C181.3603703125,357.62924875,185.9476703125,362.21647875,185.9476703125,367.87486875L185.9476703125,368.20786875L159.6225097655,368.20886875L159.6220703125,357.62920875Z" fill="#2F2E41" fill-opacity="1"/></g><g><path d="M199.63400269,360.294334375L207.7982025,360.293734375L211.6826125,328.802734375L199.6328125,328.803320313L199.63400269,360.294334375Z" fill="#A0616A" fill-opacity="1"/></g><g><path d="M197.5517578125,357.62920875L199.8498078125,357.62909875L208.8216578125,353.98046875L213.6302578125,357.62854875L213.63095781250001,357.62854875C219.2901578125,357.62920875,223.8774578125,362.21643875,223.8774578125,367.87486875L223.8774578125,368.20786875L197.5522705075,368.20886875L197.5517578125,357.62920875Z" fill="#2F2E41" fill-opacity="1"/></g><g><path d="M203.1691078125,188.130859375L150.0647978125,189.458469375C139.9791478125,194.936469375,139.8259978125,206.792859375,143.1305978125,220.869859375Q142.0150088125,229.236759375,144.2462078125,231.467959375C146.4773978125,233.699059375,147.5929678125,233.699059375,146.4773778125,237.603659375C145.3617878125,241.508159375,151.2559078125,247.885459375,150.5400478125,248.60135937500002Q149.8241478125,249.317259375,148.1507678125,253.221859375L153.7287078125,285.016059375Q157.6333078125,340.23785937499997,158.7488078125,341.352859375C159.8644078125,342.46885937499997,160.9800078125,341.352859375,159.8644078125,344.14185937499997C158.7488078125,346.930859375,157.6333078125,345.815859375,158.7488078125,346.930859375C159.7370078125,347.996859375,160.6680078125,349.113859375,161.5378078125,350.277859375L175.0237078125,350.277859375Q176.0404078125,344.69985937499996,176.0404078125,344.14185937499997C176.0404078125,343.584859375,177.1560078125,340.23785937499997,177.1560078125,339.679859375Q177.1560078125,339.121859375,176.1700078125,338.135859375C175.8293078125,337.001859375,175.5991078125,335.837859375,175.4827078125,334.659859375Q175.4827078125,333.543859375,172.1359078125,290.59385937499997L178.8294078125,234.814759375L195.0054078125,289.478859375Q195.0054078125,337.448859375,196.1210078125,338.563859375C197.23660781249998,339.679859375,197.23660781249998,339.121859375,196.6788078125,341.352859375C196.1210078125,343.584859375,193.8898078125,343.02685937499996,195.5632078125,344.69985937499996C197.23660781249998,346.373859375,197.7944078125,343.584859375,197.23660781249998,346.373859375L196.6788078125,349.16285937500004L213.4126078125,349.40185937499996Q215.6438078125,344.69985937499996,214.5282078125,343.02685937499996C213.4126078125,341.352859375,213.4795078125,341.809859375,214.8406078125,339.07185937500003C216.20160781250001,336.332859375,216.7594078125,335.774859375,216.20160781250001,335.217859375Q215.6438078125,334.659859375,215.6438078125,331.692859375L212.85490781250002,278.32255937499997Q212.2971078125,221.985359375,212.2971078125,220.312059375C212.2550078125,219.450959375,212.4136078125,218.591959375,212.7604078125,217.802659375L212.7604078125,215.531359375L210.62370781250002,207.482859375L203.1691078125,188.130859375Z" fill="#2F2E41" fill-opacity="1"/></g><g><ellipse cx="171.26837539672852" cy="61.208805084228516" rx="16.499820709228516" ry="16.499820709228516" fill="#FFB8B8" fill-opacity="1"/></g><g><path d="M179.5176265625,88.6141265625C183.0723265625,90.7274265625,185.19872656249998,94.6102265625,186.4193265625,98.5613265625C188.6792265625,105.8763265625,190.0395265625,113.4394265625,190.4701265625,121.0835265625L191.7594265625,143.9683265625L207.7270265625,192.6967265625Q193.8884265625,204.4057265625,141.8713665625,195.3577265625Q140.2746065625,194.8257265625,141.8713665625,193.22872656250001C143.4681165625,191.6317265625,145.0225665625,193.0467265625,143.4258365625,191.44972656250002C141.8291065625,189.85372656250001,142.9298265625,191.6317265625,143.4620865625,190.0357265625C143.9943565625,188.4387265625,143.4620865625,189.50272656250002,142.9298365625,188.9707265625Q142.3975865625,188.4387265625,147.05026656249998,183.6487265625L142.7922365625,155.6778265625L137.4697265625,99.2591265625Q143.8567765625,91.2753265625,156.7019265625,86.5689665625L160.0209265625,80.5947265625L176.6160265625,81.92233656249999L179.5176265625,88.6141265625Z" fill="#3F3D56" fill-opacity="1"/></g><g><path d="M184.869128125,52.4435328125C186.151528125,53.4000328125,187.10152812500002,54.734632812499996,187.585528125,56.259432812499995C187.771528125,53.7675328125,187.783328125,51.2657328125,187.620928125,48.7722028125C187.426428125,47.0199928125,186.192828125,46.6258528125,184.764428125,46.1691628125C183.474428125,45.7565528125,182.015528125,45.2904628125,181.623028125,43.5894728125C176.436428125,38.5438448125,167.407628125,38.7982788125,161.228528125,40.5582728125C157.828478125,41.5267528125,155.872068125,42.7710728125,155.697038125,43.5000028125L155.660748125,43.6500828125L155.522668125,43.719122812500004C152.901807125,45.0295528125,152.391638225,49.1676328125,152.425347905,52.4082328125C152.489196825,58.513732812499995,154.597288125,65.4480328125,155.784878125,66.0113328125C155.847758125,66.0411328125,155.863628125,66.02953281250001,155.890858125,66.0068328125C157.679048125,64.5777328125,159.860728125,66.1154328125,160.81946812500001,66.9513328125C161.983178125,59.142432812500005,168.324728125,53.135132812500004,176.185128125,52.3956328125C177.432628125,52.2750328125,178.670028125,52.0675328125,179.888628125,51.7746328125C180.506728125,51.6146328125,181.142028125,51.5313328125,181.780528125,51.5263328125C182.879528125,51.5096328125,183.957328125,51.8297328125,184.869128125,52.4435328125Z" fill="#2F2E41" fill-opacity="1"/></g><g><path d="M287.2986234375,201.278071875L319.0382234375,169.047171875L327.4005234375,143.269201875L313.9437234375,137.826171875Q307.2774234375,144.550331875,300.4153234375,165.135171875L278.7519634375,194.21017187500001C278.5789634375,194.27447187500002,278.4065234375,194.342371875,278.2365634375,194.422771875C273.8795284375,196.479971875,273.2631634375,202.427871875,277.1057734375,205.334771875C280.9483934375,208.241671875,286.5043234375,206.030471875,287.2986234375,201.278071875Z" fill="#FFB8B8" fill-opacity="1"/></g><g><path d="M310.2724609375,140.7759125L327.2903609375,145.6988125L327.3537609375,145.6865125C333.6091609375,144.4720125,338.5574609375,134.0764125,341.6067609375,125.5694125C343.6882609375,119.7473425,340.9048609375,113.3078225,335.2378609375,110.8349065C331.1159609375,109.0692565,326.3491609375,109.7961121,322.9407609375,112.7100125L314.4558309375,120.0164125L310.2724609375,140.7759125Z" fill="#6C63FF" fill-opacity="1"/></g><g><path d="M295.7120546875,359.33675625L286.5596646875,359.33615625L282.2060546875,324.03515625L295.7132546875,324.035742188L295.7120546875,359.33675625Z" fill="#FFB8B8" fill-opacity="1"/></g><g><path d="M298.0471328125,356.3489990625L295.47103281249997,356.3488890625L285.4136328125,352.2587890625L280.0231328125,356.3482690625L280.0224328125,356.3482690625C273.6785028125,356.3490690625,268.5361694336,361.4913290625,268.5361328125,367.8343890625L268.5361328125,368.2075890625L298.0465328125,368.2086890625L298.0471328125,356.3489990625Z" fill="#2F2E41" fill-opacity="1"/></g><g><path d="M336.32240625,359.33675625L327.17001625,359.33615625L322.81640625,324.03515625L336.32420625,324.035742188L336.32240625,359.33675625Z" fill="#FFB8B8" fill-opacity="1"/></g><g><path d="M338.657484375,356.3489990625L336.08138437499997,356.3488890625L326.023984375,352.2587890625L320.633484375,356.3482690625L320.632784375,356.3482690625C314.288814375,356.3490690625,309.146484375,361.4913290625,309.146484375,367.8343890625L309.146484375,368.2075890625L338.656884375,368.2086890625L338.657484375,356.3489990625Z" fill="#2F2E41" fill-opacity="1"/></g><g><path d="M350.2777671875,207.281345625Q351.3464671875,220.105515625,348.6747671875,232.395315625Q346.0030671875,244.685215625,346.0030671875,279.297415625L340.1252671875,346.744015625L322.49206718749997,345.141015625L317.6829671875,232.395315625L300.5840671875,270.333515625L302.1870671875,275.676915625L300.0517671875,277.01281562500003Q301.6527671875,287.432415625,300.5840671875,287.432415625Q299.5153671875,287.432415625,296.8436671875,289.035415625L298.9809671875,344.07301562500004L280.8134271875,343.538015625L274.4013671875,266.058815625L281.3478071875,221.708615625L281.8821371875,213.159125625L284.2866771875,213.257985625L285.5110671875,209.685925625L287.7598671875,203.541015625L350.2777671875,207.281345625Z" fill="#2F2E41" fill-opacity="1"/></g><g><path d="M351.20143125,209.97468750000002L351.29663125,209.8416875C356.38283125,202.7206875,348.73323125,185.6096875,347.57953125,183.1292875L352.43893125,181.5522875L351.34463125,172.2506875L350.82623125,168.1037875L354.54023125000003,164.3897875L354.55073125,164.2971875L356.68803125,145.59528749999998L359.79573125,133.1735875C362.17983125,123.61258749999999,359.22073125,113.50908749999999,352.05533125,106.7448875L344.87203125,99.9719875L336.14203125,87.0546875L322.06393125,87.0546875L317.23683125,96.1723875C307.57933125,98.4043875,300.89793125,107.2209875,301.36053125,117.1222875L302.45453125,141.0352875L298.17173125,170.8091875L298.16913125,176.1974875L293.34938125,181.5538875L294.40183125,186.8161875L290.73375125,188.3876875L289.11404125,195.94568750000002C288.44376125,196.8306875,284.01953125,202.7296875,284.01953125,204.3426875C284.01953125,204.5846875,284.19824225,204.8186875,284.58177525,205.0786875C287.59683125,207.1196875,304.26163125,211.2816875,311.63723125,208.3306875C319.49373125,205.1896875,350.72443125,209.90168749999998,351.03913124999997,209.94968749999998L351.20143125,209.97468750000002Z" fill="#6C63FF" fill-opacity="1"/></g><g><ellipse cx="327.2843246459961" cy="64.2403793334961" rx="18.644676208496094" ry="18.644676208496094" fill="#FFB8B8" fill-opacity="1"/></g><g><path d="M325.497984375,83.1870421875C328.385384375,83.1575421875,331.265084375,82.8815421875,334.105584375,82.3618421875C336.917584375,81.71394218750001,343.121984375,76.9164421875,344.812984375,74.0821421875C346.069284375,71.9763421875,346.823284375,68.7191421875,347.23468437500003,66.35774218750001C348.358184375,60.037442187500005,346.749084375,53.5372421875,342.807084375,48.4708721875C342.055684375,47.4213421875,341.034584375,46.5944021875,339.851784375,46.077552187500004C339.747184375,46.0397221875,339.639684375,46.0065821875,339.531184375,45.9786821875C337.816684375,45.5745821875,336.262084375,44.6672621875,335.066984375,43.3732221875C334.834984375,43.1112421875,334.584384375,42.8663021875,334.317184375,42.6403221875C332.976484375,41.5669121875,331.400784375,40.8260071875,329.718884375,40.4781801875C327.001784375,39.8256471875,323.115084375,40.6433501875,318.166884375,42.9106321875C315.680984375,44.0497621875,312.921884375,43.7319721875,310.795194375,43.3278221875C310.552574375,43.2874421875,310.306774375,43.3788221875,310.149454375,43.5678521875C309.271464375,44.4357821875,308.097534375,44.9392321875,306.863584375,44.9770221875C306.108534375,45.0297221875,305.342494375,46.0968321875,304.419124375,47.4864321875C304.209614375,47.8018721875,303.965134375,48.1700121875,303.787744375,48.3946621875L303.752254375,47.9727721875L303.336904375,48.4551721875C300.494294375,51.7556421875,302.061499375,56.8921421875,306.262454375,58.0435421875C307.028084375,58.2262421875,307.810314375,58.330242187500005,308.597044375,58.3540421875C309.074004375,58.3845421875,309.567354375,58.4161421875,310.041164375,58.4858421875C313.137084375,59.0369421875,315.715784375,61.1740421875,316.832084375,64.1138421875C317.387384375,65.5453421875,319.148384375,66.0619421875,320.389084375,65.1575421875C321.366384375,64.35514218750001,322.674484375,64.0818421875,323.891284375,64.4259421875C324.412584375,64.6984421875,324.824384375,65.1418421875,325.057484375,65.6819421875C325.339484375,66.2830421875,325.794084375,66.7864421875,326.363384375,67.1281421875C328.304584375,68.0663421875,328.549584375,72.4384421875,327.955684375,76.1036421875C327.383284375,79.6366421875,326.137884375,82.2138421875,324.927384375,82.37094218749999C323.995384375,82.4917421875,323.890284375,82.5608421875,323.826884375,82.7278421875L323.770184375,82.8773421875L323.878784375,83.01304218749999C324.399684375,83.18684218749999,324.951984375,83.2461421875,325.497984375,83.1870421875Z" fill="#2F2E41" fill-opacity="1"/></g><g><path d="M310.0300828125,142.76968593750001L301.0679828125,131.3505859375Q291.9391828125,133.8643859375,275.7413828125,148.30218593749998L242.4764328125,162.7377859375C239.4067728125,162.2219859375,236.4103628125,163.9864859375,235.3724858125,166.9209859375C234.3346068125,169.8555859375,235.5554078125,173.1115859375,238.2667628125,174.6403859375C240.9781528125,176.1691859375,244.3959928125,175.5286859375,246.3698828125,173.1218859375L289.9460828125,160.96488593750001L310.0300828125,142.76968593750001Z" fill="#FFB8B8" fill-opacity="1"/></g><g><path d="M307.88136875,145.3804984375L322.02226875,129.6168984375L322.80736875,118.4472984375C323.10546875,113.9730484375,320.83856875,109.7173184375,316.95916875,107.4683384375C311.58906875,104.4033584375,304.76256875,106.0216244375,301.33981875,111.1710084375C296.34323875,118.7013984375,290.96798875,128.8827984375,293.73380175,134.6230984375L293.76181675,134.6812984375L307.88136875,145.3804984375Z" fill="#6C63FF" fill-opacity="1"/></g><g><path d="M177.5470265625,204.62964375L140.7943965625,185.80694375000002C138.1802001625,184.46804375,137.3142395625,180.91684375,138.8640995625,177.89064375L162.8276265625,131.10041375C164.3774265625,128.07422475,167.7651265625,126.70148275,170.3794265625,128.04035075L207.13202656250002,146.86314375C209.7462265625,148.20194375,210.61222656249998,151.75324375,209.0623265625,154.77944374999998L185.0988265625,201.56964375C183.5490265625,204.59584375,180.1612265625,205.96854374999998,177.5470265625,204.62964375Z" fill="#E5E8EE" fill-opacity="1"/></g><g><path d="M171.26833125,195.9767640625L146.29809125,183.1883640625C143.84969485,181.9344640625,143.03851925,178.6085640625,144.49005125,175.7743640625L164.39853125,136.9018640625C165.85003125,134.0676640625,169.02283125,132.7822260625,171.47123125,134.0361510625L201.63023125,149.4819640625C204.07853125,150.7358640625,204.88953125,154.0615640625,203.43803125,156.8957640625L192.62263124999998,178.0134640625C186.15723125,190.6376640625,182.17423125,201.56216406250002,171.26833125,195.9767640625Z" fill="#FFFFFF" fill-opacity="1"/></g><g><path d="M183.613615625,174.7482328125L161.496752625,163.4211428125C160.937750225,163.0228928125,160.755340625,162.2749528125,161.068212625,161.6640808125C161.381103625,161.0531678125,162.094615625,160.7640628125,162.744465625,160.9848877125L184.861315625,172.3119328125C185.420315625,172.7102328125,185.602615625,173.4581328125,185.289815625,174.0690328125C184.976915625,174.6799328125,184.263415625,174.9690328125,183.613615625,174.7482328125Z" fill="#6C63FF" fill-opacity="1"/></g><g><path d="M164.079121875,170.819669375L159.031835875,168.234709375C158.472888175,167.836379375,158.290514875,167.088469375,158.603387875,166.477557375C158.916259875,165.866662375,159.629751875,165.577557375,160.279621875,165.798327675L165.326911875,168.383279375C165.885861875,168.781609375,166.068231875,169.529519375,165.755361875,170.140439375C165.442481875,170.751329375,164.729001875,171.040459375,164.079121875,170.819669375Z" fill="#6C63FF" fill-opacity="1"/></g><g><path d="M170.553728125,180.2114359375L156.567047125,173.0482259375C156.008062725,172.6499159375,155.825671125,171.9019659375,156.138544125,171.2910519375C156.451434125,170.6801389375,157.164958125,170.3910159375,157.814838125,170.6118408375L171.801528125,177.7750759375C172.360428125,178.1733859375,172.542828125,178.9213159375,172.22992812500001,179.5322059375C171.917028125,180.1431259375,171.203628125,180.4322259375,170.553728125,180.2114359375Z" fill="#6C63FF" fill-opacity="1"/></g><g><path d="M192.36546875,157.659365625L170.24865075,146.332275625C169.68970335,145.934025625,169.50731175,145.186105625,169.82018475,144.575213625C170.13303875,143.964318625,170.84652875,143.675213625,171.49636875,143.896020525L193.61316875,155.223065625C194.17216875,155.621365625,194.35456875,156.369265625,194.04166874999999,156.980165625C193.72886875,157.591065625,193.01536875,157.880165625,192.36546875,157.659365625Z" fill="#6C63FF" fill-opacity="1"/></g><g><path d="M172.831075,153.7308021875L167.783789,151.1458421875C167.2248413,150.7475121875,167.042468,149.9996021875,167.355341,149.3887081875C167.668213,148.7777951875,168.381705,148.4886901875,169.031575,148.7094604875L174.078865,151.2944121875C174.637815,151.6927221875,174.820185,152.4406521875,174.507315,153.0515521875C174.194435,153.6624621875,173.480955,153.9515721875,172.831075,153.7308021875Z" fill="#6C63FF" fill-opacity="1"/></g><g><path d="M179.30558125,163.12258875L165.31894525,155.95933875C164.75999755,155.56100875,164.57762425,154.81309875,164.89047825,154.20218475C165.20335125,153.59129075,165.91684125,153.30216675,166.56673125,153.52295535L180.55338125,160.68618875C181.11238125,161.08449875,181.29468125,161.83242875,180.98188125000001,162.44331875C180.66898125,163.05423875,179.95548125,163.34333875,179.30558125,163.12258875Z" fill="#6C63FF" fill-opacity="1"/></g><g><path d="M147.0919625,163.8946796875L138.7890625,132.9843096875L160.9766625,128.7841796875L159.7835625,150.0007796875L188.9361625,180.0185796875C193.2382625,179.8426796875,196.9003625,183.1196796875,197.2015625,187.41477968750002C197.5028625,191.7098796875,194.33406250000002,195.4659796875,190.0495625,195.89227968749998C185.7649625,196.31867968749998,181.9181625,193.2606796875,181.3670625,188.9904796875L147.0919625,163.8946796875Z" fill="#FFB8B8" fill-opacity="1"/></g><g><path d="M136.518833125,98.326695625Q128.987563125,104.272295625,138.653973125,137.529215625C140.150583125,135.886715625,141.889723125,160.161015625,143.719003125,159.334515625C148.918103125,156.985415625,158.447403125,148.884815625,162.121103125,149.545115625Q164.22200312500001,149.922715625,162.020903125,133.488815625Q161.616003125,124.066015625,160.855103125,111.952715625C160.547003125,104.983815625,156.689503125,98.658925625,150.634803125,95.194879625Q144.050103125,92.381135625,136.518833125,98.326695625Z" fill="#3F3D56" fill-opacity="1"/></g><g><path d="M261.83195,232.502021875L241.77626,223.031521875C240.907275,222.623421875,240.272852,221.840121875,240.0542603,220.905321875C239.834021,219.990821875,240.0444824,219.025921875,240.625549,218.286321875C246.43508,210.861421875,250.42425,202.178721875,252.27325,192.934161875C252.56135,191.474411875,253.84075,190.421606445,255.32865,190.419921875C265.55735,190.454730275,273.20195,194.189591875,278.04945,201.519421875C278.56675,202.291121875,278.71785,203.251621875,278.46245,204.144921875C275.65565,213.819221875,271.38455,223.006821875,265.79765,231.388821875C264.93995,232.699221875,263.24625,233.174621875,261.83195,232.502021875Z" fill="#7B8AA4" fill-opacity="1"/></g><g><path d="M267.7321515625,219.22011875L252.3972535625,211.97887875C251.6027955625,211.60371875,251.2628785625,210.65555875,251.6380245625,209.86110275C252.0131715625,209.06666275,252.9613315625,208.72674575,253.7557815625,209.10191075L269.0906515625,216.34317875C269.8873515625,216.71706875,270.2290515625,217.66675874999999,269.8533515625,218.46257875C269.4775515625,219.25841875,268.5270515625,219.59781875,267.7321515625,219.22011875Z" fill="#FFFFFF" fill-opacity="1"/></g><g><path d="M270.1139875,214.175196875L254.7790895,206.933956875C253.9846315,206.558796875,253.6447145,205.610636875,254.0198605,204.816180875C254.3950075,204.021740875,255.3431675,203.681823875,256.1376175,204.056988875L271.4724875,211.298246875C272.2646875,211.674666875,272.6027875,212.621266875,272.2282875,213.414396875C271.8537875,214.207496875,270.9079875,214.547796875,270.1139875,214.175196875Z" fill="#FFFFFF" fill-opacity="1"/></g><g><path d="M249.6230859375,55.8091L248.1960859375,55.9654C241.8310859375,30.9548,229.4950859375,13.6277,212.5190859375,5.85702C190.9380859375,-4.0209,164.2528859375,2.6123,137.3784859375,24.535C110.3673859375,46.5697,86.4554859375,81.3748,70.0481459375,122.541L68.6630859375,121.907C85.1424859375,80.5612,109.17708593750001,45.5878,136.3395859375,23.4307C163.6381859375,1.16158,190.86808593749998,-5.52027,213.0130859375,4.61629C230.4760859375,12.6097,243.1350859375,30.3119,249.6230859375,55.8091Z" fill="#F0F1F4" fill-opacity="1"/></g><g><path d="M92.13874687500001,88.3818785C88.405746875,96.2458375,84.855046875,104.3929875,81.585246875,112.5966875C62.768946875,159.80598750000001,53.233599875,208.0196875,54.012806875,252.0266875L52.542211875,251.8696875C51.762218875,207.6986875,61.324956875,159.3193875,80.200146875,111.9628875C83.479346875,103.7359875,87.040146875,95.5658375,90.783946875,87.6796875L92.13874687500001,88.3818785Z" fill="#F0F1F4" fill-opacity="1"/></g><g><path d="M91.43366875000001,120.8203920625C87.70066875,128.6843540625,84.14996875,136.8314640625,80.88016875,145.0351640625C62.06376875,192.2445640625,52.52852175,240.4581640625,53.30772875,284.4651640625L51.83713375,284.3081640625C51.05714075,240.1371640625,60.61987875,191.7578640625,79.49506875,144.4013640625C82.77426875,136.1744640625,86.33506875,128.0043340625,90.07886875,120.1181640625L91.43366875000001,120.8203920625Z" fill="#F0F1F4" fill-opacity="1"/></g><g transform="matrix(0.5539150834083557,-0.8325731754302979,0.8325731754302979,0.5539150834083557,-91.15724127349677,90.39531974331476)"><ellipse cx="44.09234046936035" cy="136.38242149353027" rx="5.314020156860352" ry="6.116796493530273" fill="#CBD2DF" fill-opacity="1"/></g><g transform="matrix(0.5539150834083557,-0.8325731754302979,0.8325731754302979,0.5539150834083557,-10.205068260605913,417.9669318192755)"><ellipse cx="390.25835609436035" cy="224.62363243103027" rx="5.314020156860352" ry="6.116796493530273" fill="#CBD2DF" fill-opacity="1"/></g></g></svg>