<svg xmlns="http://www.w3.org/2000/svg" viewBox="0 0 36 36" fill="none">
  <defs>
    <clipPath id="a">
      <rect width="36" height="36" rx="0"/>
    </clipPath>
  </defs>
  <g clip-path="url(#a)">
    <path fill="currentColor" d="M14.368 20.331H9a1 1 0 0 1-.935-1.356L13.4 4.978a1 1 0 0 1 .934-.644h9a1 1 0 0 1 .925 1.377l-3.105 7.621h5.845c.86 0 1.319 1.014.752 1.66l-14.332 16.33c-.696.794-1.988.106-1.718-.915l2.668-10.076Zm.654-13.997-4.57 11.997h5.214a1 1 0 0 1 .967 1.256l-1.91 7.217L24.79 15.332h-5.125a1 1 0 0 1-.926-1.377l3.105-7.621h-6.823Z"/>
  </g>
</svg>