<svg xmlns="http://www.w3.org/2000/svg" xmlns:xlink="http://www.w3.org/1999/xlink" fill="none" version="1.1" width="16" height="15.999645233154297" viewBox="0 0 16 15.999645233154297"><defs><clipPath id="master_svg0_1135_24941"><rect x="0" y="0" width="16" height="15.999645233154297" rx="0"/></clipPath></defs><g clip-path="url(#master_svg0_1135_24941)"><g><path d="M11.6004453125,2.175870625Q12.0324453125,2.559860625,12.2884453125,2.823850625Q12.5444453125,3.0878506249999997,12.6804453125,3.271840625Q12.8164453125,3.455840625,12.8484453125,3.583830625Q12.8804453125,3.711830625,12.8804453125,3.807830625L12.8804453125,4.063820625L10.5284453125,4.063820625Q10.3524453125,4.063820625,10.2324453125,3.943830625Q10.1124453125,3.823830625,10.0324453125,3.663830625Q9.9524453125,3.503840625,9.9124453125,3.335840625Q9.8724453125,3.167840625,9.8724453125,3.0558506249999997L9.8724453125,1.087890625L9.9044453125,1.087890625Q10.0484453125,1.087890625,10.1764453125,1.119889825Q10.3044453125,1.151889125,10.4884453125,1.271886625Q10.6724453125,1.391883625,10.9364453125,1.6078786250000001Q11.2004453125,1.823873625,11.6004453125,2.175870625ZM8.8644453125,3.0878506249999997Q8.8644453125,3.391840625,8.9604453125,3.743830625Q9.0564453125,4.095820625,9.264445312500001,4.391820624999999Q9.4724453125,4.687810625,9.7924453125,4.887810625Q10.1124453125,5.087800625,10.5444453125,5.087800625L12.8804453125,5.087800625L12.8804453125,13.103590625Q12.8804453125,13.567590625,12.6964453125,13.935590625Q12.5124453125,14.303590625,12.2084453125,14.567590625Q11.9044453125,14.831590625,11.5364453125,14.975590625Q11.1684453125,15.119590625,10.8164453125,15.119590625L3.9204453125,15.119590625Q3.6164453125,15.119590625,3.2564453125,14.943590625Q2.8964453125,14.767590625,2.5844453124999998,14.479590625Q2.2724453125,14.191590625,2.0644453125,13.815590625Q1.856445074081,13.439590625,1.8564453125,13.039590625L1.8564453125,3.151850625Q1.8564453125,2.815850625,2.0164453125,2.4478606249999997Q2.1764453125,2.079869625,2.4404453125,1.783876625Q2.7044453125,1.4878826250000001,3.0404453125,1.287887625Q3.3764453125,1.08789169786,3.7444453125,1.08789169786L8.8644453125,1.08789169786L8.8644453125,3.0878506249999997ZM7.5844453125,10.303690625Q7.7764453125,10.111690625,7.7924453125,9.791700625Q7.8084453125,9.471700625,7.6164453125,9.295710625L4.9924453125,6.655770625Q4.8004453125,6.463770625,4.5204453125,6.463770625Q4.2404453125,6.463770625,4.0484453125,6.655770625Q3.8564453125,6.863760625,3.8564453125,7.143750625Q3.8564453125,7.423750625,4.0484453125,7.615740625L6.1924453125,9.791700625L4.0484453125,11.951690625Q3.8564453125,12.143690625,3.8564453125,12.423590625Q3.8564453125,12.703590625,4.0484453125,12.911590625Q4.2404453125,13.103590625,4.5204453125,13.103590625Q4.8004453125,13.103590625,4.9924453125,12.911590625L7.5844453125,10.303690625ZM10.8644453125,12.079690625L7.8564453125,12.079690625L7.8564453125,13.087590625L10.8644453125,13.087590625L10.8644453125,12.079690625Z" fill="#3B437B" fill-opacity="1"/></g></g></svg>