<svg xmlns="http://www.w3.org/2000/svg" xmlns:xlink="http://www.w3.org/1999/xlink" fill="none" version="1.1" width="38" height="38" viewBox="0 0 38 38"><defs><clipPath id="master_svg0_1005_34252"><rect x="0" y="0" width="38" height="38" rx="0"/></clipPath></defs><g clip-path="url(#master_svg0_1005_34252)"><g><path d="M8.50313,22.4899C8.02273,22.4899,7.56733,22.3988,7.1366700000000005,22.2166C6.7060200000000005,22.0345,6.33335,21.7861,6.01866,21.4713C5.703974,21.1566,5.455528,20.784,5.273325,20.3533C5.0911199,19.9227,5.00000324144,19.4673,5.00000324144,18.9869C5.00000324144,18.506700000000002,5.0911199,18.055300000000003,5.273325,17.633C5.455531,17.2106,5.703977,16.842100000000002,6.01866,16.5274C6.33335,16.212699999999998,6.7060200000000005,15.9643,7.1366700000000005,15.7821C7.56733,15.5999,8.02273,15.5088,8.50313,15.5088C8.60248,15.5088,8.69359,15.513,8.77645,15.5213C8.85918,15.5295,8.94204,15.5337,9.024899999999999,15.5337L13.86961,9.670539999999999C13.78675,9.504950000000001,13.73287,9.322759999999999,13.70799,9.12407C13.68327,8.925229999999999,13.67076,8.71828,13.67076,8.50298C13.67076,8.0226,13.76187,7.56721,13.94408,7.13658C14.12628,6.70595,14.37473,6.33329,14.68942,6.01862C15.0041,5.703943,15.3768,5.455506,15.8074,5.27331C16.2381,5.0911136,16.6936,5,17.1739,5C17.6542,5,18.1097,5.0911136,18.540300000000002,5.27331C18.971,5.455506,19.3437,5.703943,19.6583,6.01862C19.973,6.33329,20.2215,6.70595,20.4037,7.13658C20.585900000000002,7.56721,20.677,8.02272,20.677,8.50298C20.677,8.90051,20.6149,9.27726,20.4907,9.6333C20.3664,9.989460000000001,20.1966,10.324760000000001,19.981299999999997,10.63956L24.1801,20.0304L26.59,15.7325C26.4078,15.4509,26.2588,15.1404,26.1428,14.80087C26.0269,14.46132,25.9689,14.10102,25.9689,13.72014C25.9689,13.23976,26.06,12.78437,26.2422,12.35374C26.4244,11.923110000000001,26.6728,11.55045,26.9875,11.23578C27.3022,10.9211,27.6749,10.67267,28.1055,10.49047C28.5362,10.30827,28.9917,10.21716,29.472,10.21716C29.9523,10.21716,30.4078,10.30827,30.8385,10.49047C31.2691,10.67267,31.6459,10.9211,31.9688,11.23578C32.2919,11.55045,32.5445,11.923110000000001,32.7267,12.35374C32.9089,12.78437,33,13.23988,33,13.72014C33,14.21701,32.9089,14.68075,32.7267,15.1114C32.5445,15.5419,32.2919,15.9188,31.9688,16.2417C31.6459,16.5646,31.2691,16.8173,30.8385,16.9994C30.4077,17.1816,29.9523,17.2727,29.472,17.2727L28.8758,17.2727L26.5155,21.5708C26.8799,21.9019,27.1699,22.2912,27.3851,22.7383C27.6004,23.1856,27.708,23.6741,27.708,24.2041C27.708,24.6844,27.6169,25.1399,27.4347,25.5704C27.2526,26.0011,26.9999,26.3779,26.677,26.7009C26.3541,27.0238,25.9814,27.2764,25.559,27.4586C25.1365,27.6408,24.677,27.7319,24.1801,27.7319C23.6833,27.7319,23.2236,27.6408,22.8012,27.4586C22.3789,27.2764,22.0103,27.0238,21.6957,26.7009C21.3809,26.3779,21.1324,26.0011,20.9503,25.5704C20.7681,25.1399,20.677,24.6844,20.677,24.2041C20.677,23.6741,20.7805,23.1856,20.9876,22.7383C21.1945,22.2912,21.4803,21.9019,21.8446,21.5708L17.5714,12.00596C17.4057,12.03906,17.2732,12.05555,17.1739,12.05555C16.9088,12.05555,16.6562,12.02245,16.4162,11.956209999999999C16.176000000000002,11.88997,15.9481,11.807120000000001,15.733,11.70777L11.484490000000001,17.073999999999998C11.650079999999999,17.355600000000003,11.782530000000001,17.657899999999998,11.88204,17.980800000000002C11.98138,18.3037,12.03098,18.6391,12.03098,18.9869C12.03098,19.4673,11.9399,19.922800000000002,11.75781,20.3533C11.57558,20.784,11.32303,21.1566,10.99996,21.4713C10.67704,21.7861,10.304369999999999,22.0345,9.88195,22.2166C9.459679999999999,22.3988,9.00002,22.4899,8.50313,22.4899ZM5,29.5207L33,29.5207L33,32.8993L5.000000810359,32.8993L5,29.5207Z" fill="#3B437B" fill-opacity="1"/></g></g></svg>