<svg xmlns="http://www.w3.org/2000/svg" xmlns:xlink="http://www.w3.org/1999/xlink" fill="none" version="1.1" width="507.115234375" height="381.12890625" viewBox="0 0 507.115234375 381.12890625"><g><g><ellipse cx="277.8449249267578" cy="139.8000030517578" rx="139.8000030517578" ry="139.8000030517578" fill="#F0F1F4" fill-opacity="1"/></g><g><path d="M58.47273,337.7732C66.1955,340.48789999999997,74.7751,338.9766,81.1054,333.7864C89.0326,327.1329,91.518,316.1713,93.5403,306.02139999999997L99.5219,276L86.99889999999999,284.62288C77.9931,290.8239,68.7844,297.2236,62.54884,306.2056C56.313275,315.1875,53.59145,327.4486,58.60153,337.1674" fill="#E5E8EE" fill-opacity="1"/></g><g><path d="M59.97437,373.9792C58.706879,364.7467,57.403571,355.3957,58.292639,346.0642C59.08224,337.7769,61.61057,329.6825,66.75793,323.0457C69.4902,319.52957,72.8147,316.51693,76.5822,314.143225C77.5647,313.52312,78.4689,315.08007,77.4907,315.69746C70.9719,319.81737,65.92977,325.9011,63.09139,333.0713C59.95646,341.045,59.45303,349.737,59.99327,358.2073C60.31996,363.3297,61.01234,368.4184,61.71006,373.5007C61.82419,373.9776,61.54948,374.4614,61.08146,374.6078C60.60255,374.7368,60.10895,374.4566,59.97437,373.9792Z" fill="#F2F2F2" fill-opacity="1"/></g><g><path d="M144,361.5398C147.01458,365.1006,151.66859,366.8306,156.2771,366.1035C162.0927,365.1172,166.4744,360.4441,170.3945,356.0365L181.98919999999998,343L173.3464,343.62981C167.131,344.08274,160.7586,344.57489,155.1036,347.19366C149.44869,349.81244,144.576105,355.0563,144.237946,361.279" fill="#E5E8EE" fill-opacity="1"/></g><g><path d="M134.0168823,379.6329C136.05497,374.7281,138.10966,369.7548,141.2366,365.423C144.0137,361.57598,147.59,358.32498,152.034,356.54556C154.3909,355.604358,156.8939,355.0814453,159.4305,355.00032959C160.0923,354.9786133,160.0881,356.00477,159.4292,356.02638C155.03640000000001,356.17297,150.8037,357.71077,147.3413,360.41802C143.50147,363.43483,140.74848,367.5633,138.57245,371.8837C137.25655,374.4964,136.13012,377.198,135.0082,379.898C134.926843,380.1654,134.652295,380.324,134.379999,380.2611C134.107336,380.1865,133.9454163,379.9064,134.0168823,379.6329Z" fill="#F2F2F2" fill-opacity="1"/></g><g><path d="M72,357.6796C75.31216,362.7137,81.01079,365.6548,87.0328,365.4384C94.6427,365.0772,100.987,359.766,106.69800000000001,354.7236L123.5899,339.809216L112.4103,339.274255C104.37049999999999,338.889514,96.1233,338.530627,88.4657,341.00991C80.80811,343.4892,73.74586,349.4561,72.34563,357.3823" fill="#E5E8EE" fill-opacity="1"/></g><g><path d="M56.118488,379.8584C62.219120000000004,369.0637,69.2953,357.06664,81.9393,353.23219C85.455,352.169666,89.1414,351.789026,92.8,352.110779C93.9531,352.210205,93.6651,353.98765,92.5141,353.8884C86.3815,353.37922,80.2607,354.99857,75.1822,358.4738C70.2953,361.80021,66.4903,366.4248,63.26976,371.3289C61.29709,374.3329,59.53009,377.4643,57.76276,380.5915C57.19795,381.5909,55.547089,380.8694,56.118488,379.8584Z" fill="#F2F2F2" fill-opacity="1"/></g><g><path d="M289.7993775,195.4089934375C301.9296875,188.7420634375,317.0265875,190.0800534375,330.0962875,194.6382634375C343.1658875,199.1964734375,355.0094875,206.6641234375,367.7013875,212.1875234375C406.4851875,229.0660234375,453.2301875,226.34442343749998,489.7931875,205.0790234375C493.2511875,213.1226234375,489.5421875,222.3232234375,485.4671875,230.0725234375C481.3921875,237.8217234375,476.7471875,246.2209234375,478.4251875,254.8141234375C480.5711875,265.8104234375,492.10118750000004,272.40332343750003,496.7721875,282.5868234375C501.20718750000003,292.2535234375,498.8261875,303.6065234375,495.4241875,313.6835234375C492.0231875,323.7595234375,487.6081875,333.9125234375,488.18618749999996,344.5325234375C488.7641875,355.15152343750003,496.47918749999997,366.3815234375,507.1151875,366.3905234375C491.3531875,368.8395234375,475.28218749999996,371.2895234375,459.5301875,368.7805234375C443.7781875,366.2705234375,428.1081875,357.9395234375,420.7951875,343.7645234375C417.1391875,336.6795234375,415.7301875,328.5325234375,411.5311875,321.7545234375C404.38018750000003,310.2105234375,390.6571875,304.7815234375,377.7082875,300.6905234375C364.7595875,296.59852343750003,350.9025875,292.6575234375,341.7856875,282.5930234375C333.0989875,273.0036234375,330.34758750000003,259.6453234375,325.7451875,247.55262343750002C317.9939875,227.30932343749998,304.5312875,209.7524234375,286.9921875,197.0146634375" fill="#6C63FF" fill-opacity="1"/></g><g><path d="M303.8540875,145.166045C299.5958875,143.18512,294.3677875,142.535718,290.0349875,144.376445C285.7020875,146.217165,282.7482375,150.935365,284.1492875,155.110925C284.7845175,157.004125,286.2312875,158.865925,285.6675875,160.777925C285.2337575,162.249625,283.7203175,163.221325,282.2340475,163.912225C280.7477775,164.603025,279.1218775,165.183925,278.0470075,166.34912500000002C276.9721475,167.51432499999999,276.7479475,169.520325,278.0907375,170.423925C278.5331175,170.721625,279.0860575,170.862825,279.5150075,171.176525C280.2644875,171.785425,280.5450475,172.80282499999998,280.2135875,173.709925C279.8560875,174.600125,279.2652075,175.377525,278.5030875,175.960325C276.9787675,177.274825,274.9642455,178.779425,275.4375366,180.645525C275.7939335,181.657725,276.6220075,182.43222500000002,277.6557475,182.720225C278.7135875,183.025325,279.8111175,183.17022500000002,280.9118775,183.150025L325.8915875,184.566925C327.3763875,184.678525,328.8693875,184.595125,330.3325875,184.318825C331.7702875,184.056625,333.0339875,183.207725,333.8203875,181.975825C334.6816875,180.381525,334.1161875,178.417525,333.0524875,176.928725C331.9887875,175.43992500000002,330.4832875,174.265525,329.2393875,172.898525C327.9953875,171.531425,326.9776875,169.824825,327.1969875,168.058025C327.3724875,166.643625,328.3052875,165.421125,328.9748875,164.136025C329.64448749999997,162.850925,330.0333875,161.244925,329.1661875,160.062625C327.9440875,158.396725,325.0100875,158.547325,323.6204875,156.994925C322.5717875,155.823425,322.7742875,154.136925,322.6699875,152.62616500000001C322.4191875,148.992235,319.9033875,145.560295,316.3218875,143.966635C312.6272875,142.380646,308.39538749999997,142.668854,304.9498875,144.741115L303.8540875,145.166045Z" fill="#2F2E41" fill-opacity="1"/></g><g><path d="M275.4303621875,373.2589140625L268.3857421875,371.1421140625L273.1971721875,342.9619140625L283.5945421875,346.0860940625L275.4303621875,373.2589140625Z" fill="#FFB6B6" fill-opacity="1"/></g><g><path d="M275.1761375,380.6277L252.4609375,373.80297L252.5472534,373.51564C254.0140775,368.63254,259.1618275,365.86326,264.04483749999997,367.330334L264.04483749999997,367.330334L277.9190375,371.49891L275.1761375,380.6277Z" fill="#2F2E41" fill-opacity="1"/></g><g><path d="M341.9089109375,373.4974234375L334.5528909375,373.4968234375L331.0537109375,345.1240234375L341.9101109375,345.1246459965L341.9089109375,373.4974234375Z" fill="#FFB6B6" fill-opacity="1"/></g><g><path d="M343.78470625,380.628323125L320.06640625,380.627443125L320.06640625,380.327443125C320.066223145,375.228983125,324.19953625,371.0957397461,329.29828625,371.095703125L329.29828625,371.095703125L343.78520625,371.096289063L343.78470625,380.628323125Z" fill="#2F2E41" fill-opacity="1"/></g><g><path d="M331.6982421875,352.0376171875C330.3724421875,352.0366171875,329.2432421875,351.0736171875,329.0333421875,349.7646171875L318.1113421875,281.6318171875C317.9626421875,280.7045171875,317.2164421875,279.9887171875,316.2837421875,279.8786171875C315.3511421875,279.7686171875,314.4587421875,280.2912171875,314.0984421875,281.1583171875L285.8015421875,349.2796171875C285.2550421875,350.5846171875,283.7974421875,351.24861718750003,282.4544421875,350.8066171875L272.2339021875,347.3996171875C270.9150271875,346.9636171875,270.1440061875,345.5966171875,270.4541137875,344.2426171875L293.6434421875,241.6298471875C293.8750421875,240.6214871875,294.6595421875,239.8323771875,295.6665421875,239.5948871875L326.7660421875,232.3755859875C327.5394421875,232.1999881875,328.3509421875,232.3684081875,328.9905421875,232.8373051875C349.4688421875,247.7166171875,347.7388421875,296.3301171875,343.9223421875,349.1156171875C343.8236421875,350.4836171875,342.7157421875,351.5606171875,341.3456421875,351.6206171875L331.8165421875,352.0356171875C331.7770421875,352.0366171875,331.7374421875,352.0376171875,331.6982421875,352.0376171875Z" fill="#2F2E41" fill-opacity="1"/></g><g><ellipse cx="305.5188446044922" cy="169.4827117919922" rx="14.736618041992188" ry="14.736618041992188" fill="#FFB6B6" fill-opacity="1"/></g><g><path d="M306.1551640625,245.8604609375C302.6177640625,245.8378609375,299.1293640625,245.0316609375,295.9408640625,243.4997609375L295.83136406250003,243.4487609375L295.7878640625,243.3356609375L282.5701050625,209.0899609375L282.3187377625,203.1397609375C281.9620480625,194.7143709375,288.9534540625,187.8205749375,297.3729640625,188.2956237375L311.4055640625,189.0860539375C318.9290640625,189.5137009375,324.8238640625,195.71672093749999,324.8676640625,203.2522609375C325.2320640625,203.9524609375,327.8204640625,209.4274609375,322.7478640625,214.5713609375C322.55826406250003,215.7426609375,320.7839640625,227.9196609375,327.4798640625,234.6157609375L327.6680640625,234.8038609375L327.5035640625,235.0129609375C327.3969640625,235.1489609375,318.7974640625,245.8587609375,306.1551640625,245.8604609375Z" fill="#3F3D56" fill-opacity="1"/></g><g><path d="M325.8599265625,248.4440140625C329.3911765625,247.1636140625,330.9067765625,243.0025140625,329.0260765625,239.7510140625L343.0414765625,223.5250440625L331.9927765625,222.0869140625L320.3774865625,237.7159140625C317.8244145625,239.4274140625,316.9549195625,242.7780140625,318.3536255625,245.5150140625C319.7522965625,248.2521140625,322.9770765625,249.5104140625,325.8599265625,248.4440140625Z" fill="#FFB6B6" fill-opacity="1"/></g><g><path d="M334.62315156249997,235.9202296875C334.0965515625,235.9201296875,333.5815515625,235.7657296875,333.1418515625,235.4760296875L326.2100515625,230.92972968750001C324.9990515625,230.13872968750002,324.6286515625,228.5327296875,325.3707515625,227.29112968750002L330.3889515625,218.8600296875C331.5399515625,216.9264296875,330.7479515625,214.4216296875,328.6945515625,213.5010296875L314.2778915625,207.0376296875C310.6263715625,205.3799296875,308.6066035625,201.4173296875,309.4106565625,197.4885896875C310.5664515625,191.9716596875,316.6535815625,189.0658096875,321.6700515625,191.6362426875L343.5413515625,202.8434296875C349.8128515625,206.0572296875,351.74815156249997,214.1025296875,347.6243515625,219.8169296875L336.8121515625,234.79872968749999C336.3057515625,235.5033296875,335.4908515625,235.9208296875,334.62315156249997,235.9202296875Z" fill="#3F3D56" fill-opacity="1"/></g><g><path d="M290.442798125,167.387409375C295.096648125,167.013709375,298.960578125,162.364609375,298.476578125,157.720879375C298.363678125,161.683009375,301.238378125,165.100809375,305.161378125,165.668309375C307.296078125,165.903509375,309.636378125,165.25760937500002,311.494478125,166.334609375C313.552478125,167.527409375,314.211078125,170.424009375,316.355078125,171.454309375C318.426578125,172.449709375,321.057678125,171.092109375,322.081078125,169.034309375C323.104578125,166.976509375,322.853378125,164.504209375,322.175078125,162.308309375C317.947078125,148.619561375,300.662378125,144.363129375,290.561418125,154.523209375C288.604568125,156.491499375,287.050806125,159.000109375,286.798815925,161.764109375C286.546826125,164.528209375,287.829008125,167.52730937500002,290.311328125,168.769009375L290.442798125,167.387409375Z" fill="#2F2E41" fill-opacity="1"/></g><g><path d="M256.1589275,126.5660095C259.4652875,128.3483425,260.3569875,132.6861825,258.0215875,135.6281525L269.5169875,153.7270125L258.3766875,153.5362125L249.1685075,136.3784125C246.8927615,134.3123625,246.5219355,130.8707125,248.3053475,128.3673125C250.0887975,125.8639099,253.4627675,125.0900695,256.1589275,126.5660095Z" fill="#FFB6B6" fill-opacity="1"/></g><g><path d="M265.424309375,139.4547475L280.228509375,174.4357875L295.749709375,200.7542875C298.553209375,205.5085875,296.161209375,211.6326875,290.877509375,213.2283875C286.831309375,214.4291875,282.513809375,212.50118750000001,280.707109375,208.68678749999998L250.792688375,144.7674575C250.103259375,143.29407750000001,250.863623375,141.5500875,252.412329375,141.0525575L262.111909375,137.9367615C262.295709375,137.8776184,262.485209375,137.8379395,262.677409375,137.8183655C263.853409375,137.6995845,264.968809375,138.3640195,265.424309375,139.4547475Z" fill="#3F3D56" fill-opacity="1"/></g><g><path d="M404.2,381.127734375L0.599609,381.127934375C0.268234,381.127934375,0,380.858728375,0,380.527343375C0,380.195959375,0.268234,379.927734375,0.599609,379.927734375L404.2,379.927734375C404.531,379.927734375,404.8,380.196350375,404.8,380.527734375C404.8,380.859118375,404.531,381.127734375,404.2,381.127734375Z" fill="#CBD2DF" fill-opacity="1"/></g><g><path d="M308.7146484375,64.928125L308.7146484375,114.128125C308.7146484375,114.459525,308.4460324375,114.728125,308.1146484375,114.728125C307.7832644375,114.728125,307.5146484375,114.459525,307.5146484375,114.128125L307.5146484375,64.928125C307.5146484375,64.59675,307.7832644375,64.328125,308.1146484375,64.328125C308.4460324375,64.328125,308.7146484375,64.59675,308.7146484375,64.928125Z" fill="#CBD2DF" fill-opacity="1"/></g><g><path d="M360.8102828125,106.666745L343.8397728125,123.637325C343.6051758125,123.86982499999999,343.2266968125,123.869025,342.9931278125,123.635425C342.7595581125,123.401825,342.7587158125,123.023425,342.9912598125,122.788825L359.9617828125,105.818219C360.1957828125,105.5821594,360.5771828125,105.5813171,360.8121828125,105.81637C361.0471828125,106.051404,361.0463828125,106.432739,360.8102828125,106.666745Z" fill="#CBD2DF" fill-opacity="1"/></g><g><path d="M255.4197635,106.666745L272.3903875,123.637325C272.6246875,123.871625,273.0045875,123.871625,273.2388875,123.637325C273.4731875,123.403025,273.4731875,123.023125,273.2388875,122.788825L256.2683075,105.818219C256.0343015,105.5821594,255.6529665,105.5813171,255.4179325,105.81637C255.1828979,106.051404,255.1837402,106.432739,255.4197635,106.666745Z" fill="#CBD2DF" fill-opacity="1"/></g></g></svg>