<svg xmlns="http://www.w3.org/2000/svg" xmlns:xlink="http://www.w3.org/1999/xlink" fill="none" version="1.1" width="16" height="16" viewBox="0 0 16 16"><defs><clipPath id="master_svg0_1135_042699"><rect x="0" y="0" width="16" height="16" rx="0"/></clipPath></defs><g clip-path="url(#master_svg0_1135_042699)"><g><path d="M4.06187,8.01635L6.40348,9.94962L8.26728,6.63375L10.14802,11.5576C10.15819,11.5847,10.1836,11.605,10.21241,11.6084C10.24121,11.6118,10.27001,11.5982,10.28696,11.5728L12.6235,7.94011L13.7384,7.94011C13.5588,8.80254,13.2945,9.64464,12.9488,10.45623C11.9576,12.7792,10.28018,14.3041,7.91824,15.031C5.60713,14.2262,3.97377,12.6996,3.01645,10.45285C2.680968,9.66836,2.4268140000000002,8.85167,2.255683,8.01635L4.06187,8.01635ZM7.91824,1C9.011099999999999,1.6286079999999998,10.01755,2.11658,10.93759,2.46562C11.85763,2.81466,12.8183,3.05865,13.8231,3.19759C14.0061,4.32942,14.0467,5.44262,13.9468,6.53548L11.85933,6.53548L10.52417,8.60938L8.57057,3.4941C8.5604,3.4653,8.533290000000001,3.44666,8.50449,3.44496C8.47399,3.44327,8.44519,3.45852,8.43163,3.48393L6.00192,7.79778L4.56679,6.61173L2.0523596,6.61173C1.9540866,5.48159,1.9947514,4.34467,2.16927,3.2247C3.12997,3.01629,4.073729999999999,2.73503,4.99208,2.3826C6.00022,1.994591,6.97787,1.53203,7.91824,1Z" fill="#3B437B" fill-opacity="1"/></g></g></svg>