<svg xmlns="http://www.w3.org/2000/svg" xmlns:xlink="http://www.w3.org/1999/xlink" fill="none" version="1.1" width="415.001953125" height="312.130859375" viewBox="0 0 415.001953125 312.130859375"><g><g><g><path d="M168.8611828125,242.2397446875L120.6469428125,242.2397446875C119.4314228125,242.2397446875,118.4423828125,241.2506746875,118.4423828125,240.03516468750001C118.4423828125,238.8196596875,119.4314268125,237.8310546875,120.6469428125,237.8310546875L168.8611828125,237.8310546875C170.0766828125,237.8310546875,171.06528281250002,238.8196406875,171.06528281250002,240.03516468750001C171.06528281250002,241.2506946875,170.0766828125,242.2397446875,168.8611828125,242.2397446875Z" fill="#7B8AA4" fill-opacity="1"/></g><g><path d="M82.7529296875,254.040172875C82.7529296875,254.436191875,83.0709476875,254.754171875,83.4669656875,254.754171875L206.0409296875,254.754171875C206.4369296875,254.754171875,206.7549296875,254.436191875,206.7549296875,254.040172875C206.7549296875,253.644189875,206.4369296875,253.326171875,206.0409296875,253.326171875L83.4669656875,253.326171875C83.0709476875,253.326171875,82.7529296875,253.644189875,82.7529296875,254.040172875Z" fill="#CBD2DF" fill-opacity="1"/></g></g><g><path d="M379.4171,67.82135C378.5783,67.05969999999999,377.4736,66.64295,376.3312,66.64295C376.227,66.64295,376.1229,66.64295,376.0188,66.65014C375.9558,66.65726000000001,375.2284,66.70059,374.0915,66.70059C372.2074,66.70059,368.5289,66.57124,365.0444,65.74508C360.5451,64.67452,355.3525,59.717,353.8418,58.739899C353.0802,58.244315,352.2037,58,351.3254,58C350.4507,58,349.5742,58.244315,348.8144,58.732784C348.6312,58.854941,343.1942,64.48041,337.876,65.74508C334.3933,66.57124,330.64471,66.70059,328.7623,66.70059C327.62531,66.70059,326.8998,66.65726000000001,326.82801,66.65014C326.7292,66.64295,326.63039,66.64295,326.52981,66.64295C325.38563,66.64295,324.27742,67.05963,323.43503,67.82135C322.520847,68.64750000000001,322,69.8042,322,71.0184L322,81.96039999999999C322,122.4096,349.366,127.6184,350.5262,127.8265C350.7921,127.8699,351.0597,127.8913,351.3273,127.8913C351.5932,127.8913,351.8643,127.8699,352.1266,127.8265C353.2886,127.6183,380.8557,122.4095,380.8557,81.96039999999999L380.8557,71.0184C380.8557,69.8042,380.3331,68.6476,379.4171,67.82135ZM369.3012,83.4692L350.3287,101.8258C350.2101,102.0196,350.0646,102.2139,349.8886,102.3791C349.3317,102.9179,348.5953,103.1765,347.866,103.16210000000001C347.1369,103.1765,346.4021,102.9179,345.8455,102.3791C345.66949999999997,102.2139,345.5222,102.0196,345.4037,101.8258L335.2645,92.01169999999999C334.1849,90.96979999999999,334.1849,89.2816,335.2645,88.2326C336.344,87.191,338.0951,87.191,339.17470000000003,88.2326L347.8661,96.64580000000001L365.3929,79.6904C366.4724,78.6485,368.2217,78.6485,369.30129999999997,79.6904C370.3807,80.73179999999999,370.3807,82.4275,369.3012,83.4692Z" fill="#6C63FF" fill-opacity="1"/></g><g><path d="M0,303.321288875C0,303.717311875,0.317849,304.035151875,0.713867,304.035151875L364.088,304.035421875C364.484,304.035421875,364.802,303.717441875,364.802,303.321422875C364.802,302.925439875,364.484,302.607421875,364.088,302.607421875L0.713867,302.607421875C0.317849,302.607421875,0,302.925304875,0,303.321288875Z" fill="#CBD2DF" fill-opacity="1"/></g><g><g><path d="M39.773322,265.5361557006836L39,264.68615570068357L114.4755,195.5651557006836L141.668,207.7991557006836L171.032,157.2609557006836L195.157,145.5902557006836L217.51,182.97915570068358C229.578,151.62385570068358,259.84299999999996,118.8189557006836,296.108,85.5361557006836L297,86.26109270068359C262.98699999999997,118.9429557006836,233.885,151.7731557006836,217.37,184.9835557006836L196.694,150.2983557006836C195.717,148.6597557006836,193.665,148.0268557006836,191.94,148.8323557006836C178.753,154.99045570068358,167.753,165.0424557006836,160.412,177.6439557006836L142.019,209.2191557006836L137.81990000000002,207.33015570068358C123.7777,201.0121557006836,107.3388,203.6601557006836,95.9714,214.07015570068359L39.773322,265.5361557006836Z" fill="#CBD2DF" fill-opacity="1"/></g><g><path d="M299.45707,91.4489957006836L297.97168,91.5521457006836L295.57483,86.3576157006836L290.208411,85.2675857006836L290,83.7932357006836L298.84590000000003,82.5361557006836L299.45707,91.4489957006836Z" fill="#CBD2DF" fill-opacity="1"/></g></g><g><path d="M236.4111328125,62.524212500000004L241.6703628125,42.3058315L262.1586328125,41.3203125L268.2884328125,69.1906125L236.4111328125,62.524212500000004Z" fill="#FFB6B6" fill-opacity="1"/></g><g style="opacity:0.10000000149011612;"><path d="M229,87.0835L233.73331,68.886967L252.1728,68L257.6896,93.08330000000001L229,87.0835Z" fill="#000000" fill-opacity="1"/></g><g><ellipse cx="241.25679206848145" cy="56.256792068481445" rx="22.256792068481445" ry="22.256792068481445" fill="#FFB6B6" fill-opacity="1"/></g><g><path d="M254.002,61.3129Q245.547,44.5608,235.6406,45.5279Q225.73412,46.4951,220.515182,47.6714Q217.57455,34.624,231.41910000000001,29.6053Q213.8161,12.253,234.774,3.74096Q255.732,-4.77112,267.4595,6.08495Q282.97270000000003,21.5718,263.4343,33.1469Q277.9424,52.6618,260.3769,68.7466Q264.3057,55.7304,260.20640000000003,58.1308Q256.10699999999997,60.5312,254.002,61.3129Z" fill="#2F2E41" fill-opacity="1"/></g><g><path d="M216.6897,179L213.7291,181.83744L192.34119,227.6969L190,303.552L225.9347,303.552L242.7913,265.9876L254.1489,303.18899999999996L286.4593,303.18899999999996L293.949,235.65699999999998L273.815,187.89655L216.6897,179Z" fill="#2F2E41" fill-opacity="1"/></g><g><path d="M254.1017,85L230.1035,85L204,99.0472L210.08711,126.2051Q208.6824,142.5935,211.96007,154.7677Q215.2378,166.942,213.83303,182.8622L274.0019,187.779L275.8748,132.5264L274.9384,95.5354L254.1017,85Z" fill="#E6E6E6" fill-opacity="1"/></g><g><path d="M208.0708,99Q193.55536,99.46824,191.21415,108.83304Q188.87294,118.1978,187,166.4266Q188.40471,195.0445,204.0907,181.4379Q219.7768,167.8313,218.3721,126.6262L208.0708,99Z" fill="#E6E6E6" fill-opacity="1"/></g><g><path d="M378.883,311.93L283.83777,311.93C280.6189,311.93,278,309.312,278,306.093L278,207.83777C278,204.61857,280.6189,202,283.83777,202L378.883,202C382.102,202,384.721,204.61857,384.721,207.83777L384.721,306.093C384.721,309.312,382.102,311.93,378.883,311.93Z" fill="#FFFFFF" fill-opacity="1"/></g><g><path d="M379.483,312.13L284.4377,312.13C280.88809,312.13,278,309.243,278,305.693L278,207.4377C278,203.88809,280.88809,201,284.4377,201L379.483,201C383.033,201,385.921,203.88809,385.921,207.4377L385.921,305.693C385.921,309.243,383.033,312.13,379.483,312.13ZM284.4377,202.2C281.54961,202.2,279.2,204.54961,279.2,207.4377L279.2,305.693C279.2,308.581,281.54961,310.93,284.4377,310.93L379.483,310.93C382.371,310.93,384.721,308.581,384.721,305.693L384.721,207.4377C384.721,204.54961,382.371,202.2,379.483,202.2L284.4377,202.2Z" fill="#CBD2DF" fill-opacity="1"/></g><g><g><path d="M335.2967084375,285.9429984375L327.4630484375,285.9429984375C326.5092534375,285.9429984375,325.7333984375,285.3440984375,325.7333984375,284.6078984375L325.7333984375,250.8810284375C325.7333984375,250.1447994375,326.5092534375,249.5458984375,327.4630484375,249.5458984375L335.2967084375,249.5458984375C336.2504984375,249.5458984375,337.0263984375,250.1447994375,337.0263984375,250.8810284375L337.0263984375,284.6078984375C337.0263984375,285.3440984375,336.2504984375,285.9429984375,335.2967084375,285.9429984375Z" fill="#7B8AA4" fill-opacity="1"/></g><g><path d="M309.39752,266.0673828125C308.62699,266.0673828125,308,266.5513668125,308,267.1461328125L308,284.5701828125C308,285.1648828125,308.62699,285.6488828125,309.39752,285.6488828125L317.23119,285.6488828125C318.0017,285.6488828125,318.6287,285.1648828125,318.6287,284.5701828125L318.6287,267.1461328125C318.6287,266.5513668125,318.0017,266.0673828125,317.23119,266.0673828125L309.39752,266.0673828125Z" fill="#7B8AA4" fill-opacity="1"/></g><g><path d="M353.3611615625,285.9425L345.5275015625,285.9425C344.5737065625,285.9425,343.7978515625,285.3436,343.7978515625,284.6074L343.7978515625,229.33511C343.7978515625,228.598883,344.5737065625,228,345.5275015625,228L353.3611615625,228C354.3149515625,228,355.0908515625,228.598901,355.0908515625,229.33511L355.0908515625,284.6074C355.0908515625,285.3436,354.3149515625,285.9425,353.3611615625,285.9425Z" fill="#7B8AA4" fill-opacity="1"/></g></g><g><g><path d="M124.6194125,94.0681875L115.6710825,94.0681875C114.5815885,94.0681875,113.6953125,93.38408749999999,113.6953125,92.5430875L113.6953125,54.0172775C113.6953125,53.1763015,114.5815885,52.4921875,115.6710825,52.4921875L124.6194125,52.4921875C125.7089125,52.4921875,126.5952125,53.1762975,126.5952125,54.0172775L126.5952125,92.5430875C126.5952125,93.38408749999999,125.7089125,94.0681875,124.6194125,94.0681875Z" fill="#7B8AA4" fill-opacity="1"/></g><g><path d="M95.2916825,70.4921875C94.4115205,70.4921875,93.6953125,71.0450195,93.6953125,71.7244175L93.6953125,91.62768750000001C93.6953125,92.3070875,94.4115205,92.8598875,95.2916825,92.8598875L104.2400125,92.8598875C105.1201125,92.8598875,105.8363125,92.3070875,105.8363125,91.62768750000001L105.8363125,71.7244175C105.8363125,71.0450195,105.1201125,70.4921875,104.2400125,70.4921875L95.2916825,70.4921875Z" fill="#7B8AA4" fill-opacity="1"/></g><g><path d="M145.6194125,93.6791875L136.6710825,93.6791875C135.5815885,93.6791875,134.6953125,92.9950875,134.6953125,92.1541875L134.6953125,29.0172775C134.6953125,28.1763015,135.5815885,27.4921875,136.6710825,27.4921875L145.6194125,27.4921875C146.7089125,27.4921875,147.5951125,28.1762975,147.5951125,29.0172775L147.5951125,92.1541875C147.5951125,92.9950875,146.7089125,93.6791875,145.6194125,93.6791875Z" fill="#7B8AA4" fill-opacity="1"/></g></g><g><path d="M293.4502,252.2927C297.6215,251.8933,300.494,246.2566,299.8664,239.6999C299.6516,237.0772,298.8119,234.5442,297.4175,232.3127L296.6135,224.8919L296.7367,224.855L298.7575,189.6697C299.2274,181.4887,295.9889,173.44976,289.7496,168.1374C286.038,164.9771924,282.07851,163.37715,279.53238,167.37006C275.30751,173.99558,280.77993,201.3073,284.37366,216.8349L285.76698,233.4279C284.82048,235.8841,284.47611,238.5313,284.76271,241.14780000000002C285.38919,247.7024,289.279,252.692,293.4502,252.2927Z" fill="#FFB6B6" fill-opacity="1"/></g><g><path d="M270,96.1706Q282.1742,91.4882,287.7931,105.5354Q293.412,119.5826,299.4991,188.88209999999998L270.93648,183.73149999999998L270,96.1706Z" fill="#E6E6E6" fill-opacity="1"/></g><g><g><path d="M45.92457545166016,65.9448228125L27.710335451660157,65.9448228125C26.494815451660156,65.9448228125,25.505775451660156,64.9557528125,25.505775451660156,63.7402428125C25.505775451660156,62.5247378125,26.494822451660156,61.5361328125,27.710335451660157,61.5361328125L45.92457545166016,61.5361328125C47.14007545166015,61.5361328125,48.12867545166016,62.5247188125,48.12867545166016,63.7402428125C48.12867545166016,64.9557728125,47.14007545166015,65.9448228125,45.92457545166016,65.9448228125Z" fill="#CBD2DF" fill-opacity="1"/></g><g><path d="M45.92457545166016,48.9448228125L27.710335451660157,48.9448228125C26.494815451660156,48.9448228125,25.505775451660156,47.9557628125,25.505775451660156,46.7402428125C25.505775451660156,45.5247328125,26.494822451660156,44.5361328125,27.710335451660157,44.5361328125L45.92457545166016,44.5361328125C47.14007545166015,44.5361328125,48.12867545166016,45.5247148125,48.12867545166016,46.7402428125C48.12867545166016,47.9557828125,47.14007545166015,48.9448228125,45.92457545166016,48.9448228125Z" fill="#CBD2DF" fill-opacity="1"/></g><g><path d="M45.92457545166016,31.8002915625L27.710335451660157,31.8002915625C26.494815451660156,31.8002915625,25.505775451660156,30.8112315625,25.505775451660156,29.5957115625C25.505775451660156,28.3802015625,26.494822451660156,27.3916015625,27.710335451660157,27.3916015625L45.92457545166016,27.3916015625C47.14007545166015,27.3916015625,48.12867545166016,28.3801835625,48.12867545166016,29.5957115625C48.12867545166016,30.8112515625,47.14007545166015,31.8002915625,45.92457545166016,31.8002915625Z" fill="#CBD2DF" fill-opacity="1"/></g><g><path d="M24.505775451660156,94.1056025625C24.505775451660156,94.5016215625,24.823793451660155,94.8196015625,25.219811451660156,94.8196015625L147.79377545166017,94.8196015625C148.18977545166015,94.8196015625,148.50777545166017,94.5016215625,148.50777545166017,94.1056025625C148.50777545166017,93.7096195625,148.18977545166015,93.3916015625,147.79377545166017,93.3916015625L25.219811451660156,93.3916015625C24.823793451660155,93.3916015625,24.505775451660156,93.7096195625,24.505775451660156,94.1056025625Z" fill="#CBD2DF" fill-opacity="1"/></g></g><g><path d="M331,228.714001C331,229.11002,331.318018,229.428,331.714038,229.428L414.2881,229.42773C414.6841,229.42773,415.002,229.10989,415.002,228.713867C415.002,228.317883,414.6841,228,414.2881,228L331.714056,228C331.318036,228,331.0000183105,228.318018,331,228.714001Z" fill="#CBD2DF" fill-opacity="1"/></g><g><path d="M285,286.714001C285,287.11002,285.318018,287.428,285.714038,287.428L408.288,287.428C408.68399999999997,287.428,409.002,287.11002,409.002,286.714001C409.002,286.318018,408.68399999999997,286,408.288,286L285.714056,286C285.318036,286,285.0000183105,286.318018,285,286.714001Z" fill="#CBD2DF" fill-opacity="1"/></g><g transform="matrix(0.9887271523475647,-0.14972832798957825,0.14972832798957825,0.9887271523475647,-12.641082257032394,26.09809699654579)"><path d="M173.5022,97.0223956C169.33091,97.421801,166.458467,103.0585,167.0860559,109.6152C167.300833,112.2379,168.14055,114.7709,169.53494,117.0024L170.33894,124.42320000000001L170.21579,124.4601L168.19496,159.6454C167.725098,167.8264,170.96356,175.8653,177.2028,181.17770000000002C180.9145,184.3379,184.874,185.938,187.4201,181.945C191.6449,175.3195,186.1725,148.0078,182.5788,132.4802L181.1855,115.8872C182.132,113.431,182.4764,110.7838,182.1898,108.1673C181.5633,101.61274,177.6735,96.623056,173.5022,97.0223956Z" fill="#FFB6B6" fill-opacity="1"/></g></g></svg>