<svg xmlns="http://www.w3.org/2000/svg" xmlns:xlink="http://www.w3.org/1999/xlink" fill="none" version="1.1" width="38" height="38" viewBox="0 0 38 38"><g style="mix-blend-mode:passthrough"><g style="mix-blend-mode:passthrough"><path d="M24,19.2051C24,19.2051,14,19.2051,14,19.2051C14,19.2051,14,22.5063,14,22.5063C14,22.5063,24,22.5063,24,22.5063C24,22.5063,24,19.2051,24,19.2051C24,19.2051,24,19.2051,24,19.2051ZM28.6354,11.41614C28.6354,11.41614,23.5365,6.361076,23.5365,6.361076C23.3021,6.128955,22.9844,6,22.651,6C22.651,6,22.3333,6,22.3333,6C22.3333,6,22.3333,12.60253,22.3333,12.60253C22.3333,12.60253,29,12.60253,29,12.60253C29,12.60253,29,12.28791,29,12.28791C29,11.96289,28.8698,11.64826,28.6354,11.41614C28.6354,11.41614,28.6354,11.41614,28.6354,11.41614ZM20.6667,13.01522C20.6667,13.01522,20.6667,6,20.6667,6C20.6667,6,10.25,6,10.25,6C9.557292,6,9,6.5519300000000005,9,7.23797C9,7.23797,9,31.1722,9,31.1722C9,31.8582,9.557292,32.4101,10.25,32.4101C10.25,32.4101,27.75,32.4101,27.75,32.4101C28.4427,32.4101,29,31.8582,29,31.1722C29,31.1722,29,14.25317,29,14.25317C29,14.25317,21.9167,14.25317,21.9167,14.25317C21.2292,14.25317,20.6667,13.69608,20.6667,13.01522C20.6667,13.01522,20.6667,13.01522,20.6667,13.01522ZM12.33333,9.71392C12.33333,9.48593,12.51979,9.30127,12.75,9.30127C12.75,9.30127,16.91667,9.30127,16.91667,9.30127C17.14685,9.30127,17.33333,9.48593,17.33333,9.71392C17.33333,9.71392,17.33333,10.53924,17.33333,10.53924C17.33333,10.767240000000001,17.14685,10.9519,16.91667,10.9519C16.91667,10.9519,12.75,10.9519,12.75,10.9519C12.51979,10.9519,12.33333,10.767240000000001,12.33333,10.53924C12.33333,10.53924,12.33333,9.71392,12.33333,9.71392C12.33333,9.71392,12.33333,9.71392,12.33333,9.71392ZM12.33333,13.01522C12.33333,12.78717,12.51979,12.60253,12.75,12.60253C12.75,12.60253,16.91667,12.60253,16.91667,12.60253C17.14685,12.60253,17.33333,12.78717,17.33333,13.01522C17.33333,13.01522,17.33333,13.84048,17.33333,13.84048C17.33333,14.06852,17.14685,14.25317,16.91667,14.25317C16.91667,14.25317,12.75,14.25317,12.75,14.25317C12.51979,14.25317,12.33333,14.06852,12.33333,13.84048C12.33333,13.84048,12.33333,13.01522,12.33333,13.01522C12.33333,13.01522,12.33333,13.01522,12.33333,13.01522ZM25.6667,28.6962C25.6667,28.9242,25.4802,29.1089,25.25,29.1089C25.25,29.1089,21.0833,29.1089,21.0833,29.1089C20.8532,29.1089,20.6667,28.9242,20.6667,28.6962C20.6667,28.6962,20.6667,27.8709,20.6667,27.8709C20.6667,27.6429,20.8532,27.4582,21.0833,27.4582C21.0833,27.4582,25.25,27.4582,25.25,27.4582C25.4802,27.4582,25.6667,27.6429,25.6667,27.8709C25.6667,27.8709,25.6667,28.6962,25.6667,28.6962C25.6667,28.6962,25.6667,28.6962,25.6667,28.6962ZM25.6667,18.3797C25.6667,18.3797,25.6667,23.3316,25.6667,23.3316C25.6667,23.7876,25.2938,24.157,24.8333,24.157C24.8333,24.157,13.16667,24.157,13.16667,24.157C12.70625,24.157,12.33333,23.7876,12.33333,23.3316C12.33333,23.3316,12.33333,18.3797,12.33333,18.3797C12.33333,17.9238,12.70625,17.5544,13.16667,17.5544C13.16667,17.5544,24.8333,17.5544,24.8333,17.5544C25.2938,17.5544,25.6667,17.9238,25.6667,18.3797C25.6667,18.3797,25.6667,18.3797,25.6667,18.3797Z" fill="#3B437B" fill-opacity="1"/></g></g></svg>