<svg xmlns="http://www.w3.org/2000/svg" xmlns:xlink="http://www.w3.org/1999/xlink" fill="none" version="1.1" width="38" height="38" viewBox="0 0 38 38"><defs><clipPath id="master_svg0_1005_34264"><rect x="0" y="0" width="38" height="38" rx="0"/></clipPath></defs><g clip-path="url(#master_svg0_1005_34264)"><g><path d="M12.27078,27.5183L28.2804,27.5183C28.6247,27.5183,28.969,27.174,28.969,26.8297L28.969,9.09863C28.969,7.54932,27.9361,6.344292,26.3868,6.172146L26.3868,11.68082C26.3868,12.19726,25.8703,12.36941,25.526,12.19726L23.8046,11.164390000000001C23.6324,10.992239999999999,23.4603,10.992239999999999,23.2881,11.164390000000001L21.5667,12.19726C21.2224,12.36941,20.7059,12.19726,20.7059,11.68082L20.7059,6.344292L20.7059,6L11.92648,6C10.37717,6,9,7.37717,9,8.92649L9,28.7233C9,30.2726,10.37717,31.6498,11.92648,31.6498L27.2475,31.6498C27.7639,31.6498,28.2804,31.4776,28.6247,31.3055C29.3132,30.9612,28.969,29.9283,28.2804,29.9283L12.09863,29.9283C11.2379,29.9283,10.72146,29.2397,10.72146,28.379C10.89361,27.8626,11.58219,27.5183,12.27078,27.5183Z" fill="#3B437B" fill-opacity="1"/></g></g></svg>