<svg xmlns="http://www.w3.org/2000/svg" xmlns:xlink="http://www.w3.org/1999/xlink" fill="none" version="1.1" width="11.771134376525879" height="13.978264808654785" viewBox="0 0 11.771134376525879 13.978264808654785"><g><path d="M11.4834,1.96427C11.3157,1.81194,11.0947,1.72859,10.8662,1.72859C10.8454,1.72859,10.8246,1.72859,10.8038,1.73003C10.7912,1.73145,10.6457,1.74012,10.4183,1.74012C10.0415,1.74012,9.30578,1.71425,8.60888,1.54902C7.70902,1.3349,6.67049,0.3434,6.36836,0.14798C6.21605,0.0488629,6.04074,0,5.86509,0C5.69015,0,5.51484,0.0488629,5.36288,0.146557C5.32625,0.170988,4.23884,1.29608,3.17519,1.54902C2.47866,1.71425,1.72894,1.74012,1.35246,1.74012C1.12506,1.74012,0.97996,1.73145,0.965602,1.73003C0.94584,1.72859,0.926077,1.72859,0.905963,1.72859C0.677126,1.72859,0.455484,1.81193,0.287006,1.96427C0.104169,2.1295,0,2.36083,0,2.60368L0,4.79208C0,12.8819,5.47321,13.9237,5.70524,13.9653C5.75842,13.974,5.81194,13.9783,5.86547,13.9783C5.91863,13.9783,5.97287,13.974,6.02531,13.9653C6.25772,13.9237,11.7711,12.8819,11.7711,4.79208L11.7711,2.60368C11.7711,2.36083,11.6666,2.12952,11.4834,1.96427ZM9.46023,5.09383L5.66573,8.76517C5.64202,8.80393,5.61292,8.84278,5.57771,8.87581C5.46635,8.98358,5.31907,9.03531,5.1732,9.03243C5.02738,9.03531,4.88042,8.98358,4.76909,8.87581C4.7339,8.84278,4.70445,8.80393,4.68073,8.76517L2.65291,6.80234C2.43699,6.59397,2.43699,6.25632,2.65291,6.04651C2.86879,5.83821,3.21902,5.83821,3.43494,6.04651L5.17322,7.72917L8.67857,4.33807C8.89449,4.1297,9.24435,4.1297,9.46025,4.33807C9.67614,4.54636,9.67614,4.88551,9.46023,5.09383Z" fill="#3B437B" fill-opacity="1"/></g></svg>