<svg xmlns="http://www.w3.org/2000/svg" xmlns:xlink="http://www.w3.org/1999/xlink" fill="none" version="1.1" width="38" height="38" viewBox="0 0 38 38"><defs><clipPath id="master_svg0_1005_34260"><rect x="0" y="0" width="38" height="38" rx="0"/></clipPath></defs><g clip-path="url(#master_svg0_1005_34260)"><g><path d="M12.667314375,13.458895625L13.922904375,17.852615625C14.117214375,18.532115625,14.738434375,19.000615625000002,15.445274375,19.000615625000002L22.555984375,19.000615625000002C23.262784375,19.000615625000002,23.883984375,18.532215625,24.078384375,17.852615625L25.333984375,13.458895625L28.500684375,13.458895625C30.249584375,13.458905625,31.667284375,14.876665625,31.667284375,16.625615625000002L31.667284375,27.708915625C31.667284375,29.457815625,30.249584375,30.875615625,28.500684375,30.875615625L9.500654375,30.875615625C7.751754375,30.875615625,6.333984941244,29.457815625,6.333984375,27.708915625L6.333984375,16.625615625000002C6.333984375,14.876665625,7.7517443749999995,13.458905625,9.500654375,13.458895625L12.667314375,13.458895625ZM19.746384374999998,8.244985625L19.746384374999998,16.586015625C19.746384374999998,17.023215625,19.391984375,17.377615625,18.954784375,17.377615625C18.517484375000002,17.377615625,18.163084375,17.023215625,18.163084375,16.586015625L18.163084375,8.244985625L15.602024375,10.806025625C15.292624375,11.114775625,14.791564375,11.114425624999999,14.482594375,10.805245625000001C14.173634374999999,10.496055625,14.173634374999999,9.994995625,14.482614375,9.685815625L18.394284374999998,5.774191625C18.702884375,5.463290125,19.205784375,5.463290125,19.514484375000002,5.774191625L23.426084375,9.685815625C23.735084375,9.994995625,23.735084375,10.496055625,23.426084375,10.805245625000001C23.117084375,11.114425624999999,22.616084375,11.114775625,22.306684375,10.806025625L19.746384374999998,8.244985625ZM13.927654375,22.958915625C13.490424375,22.958915625,13.135984375,23.313315625,13.135984375,23.750615625C13.135984375,24.187815625,13.490424375,24.542215625,13.927654375,24.542215625L24.166284375,24.542215625C24.603484375,24.542215625,24.957984375,24.187815625,24.957984375,23.750615625C24.957984375,23.313315625,24.603484375,22.958915625,24.166284375,22.958915625L13.927654375,22.958915625Z" fill="#3B437B" fill-opacity="1"/></g></g></svg>