<svg xmlns="http://www.w3.org/2000/svg" viewBox="0 0 36 36" fill="none">
  <defs>
    <clipPath id="a">
      <rect width="36" height="36" rx="0"/>
    </clipPath>
  </defs>
  <g clip-path="url(#a)">
    <path fill="currentColor" d="M13 8c1.103 0 2 .897 2 2v3c0 1.102-.897 2-2 2h-3c-1.103 0-2-.898-2-2v-3c0-1.103.897-2 2-2h3Zm0-2h-3c-2.2 0-4 1.8-4 4v3c0 2.2 1.8 4 4 4h3c2.2 0 4-1.8 4-4v-3c0-2.2-1.8-4-4-4Zm13 2c1.102 0 2 .897 2 2v3c0 1.102-.898 2-2 2h-3c-1.103 0-2-.898-2-2v-3c0-1.103.897-2 2-2h3Zm0-2h-3c-2.2 0-4 1.8-4 4v3c0 2.2 1.8 4 4 4h3c2.2 0 4-1.8 4-4v-3c0-2.2-1.8-4-4-4Zm0 15c1.102 0 2 .897 2 2v3c0 1.102-.898 2-2 2h-3c-1.103 0-2-.898-2-2v-3c0-1.103.897-2 2-2h3Zm0-2h-3c-2.2 0-4 1.8-4 4v3c0 2.2 1.8 4 4 4h3c2.2 0 4-1.8 4-4v-3c0-2.2-1.8-4-4-4Zm-13 2c1.103 0 2 .897 2 2v3c0 1.102-.897 2-2 2h-3c-1.103 0-2-.898-2-2v-3c0-1.103.897-2 2-2h3Zm0-2h-3c-2.2 0-4 1.8-4 4v3c0 2.2 1.8 4 4 4h3c2.2 0 4-1.8 4-4v-3c0-2.2-1.8-4-4-4Z"/>
  </g>
</svg>