<svg xmlns="http://www.w3.org/2000/svg" xmlns:xlink="http://www.w3.org/1999/xlink" fill="none" version="1.1" width="14" height="13.2265625" viewBox="0 0 14 13.2265625"><g><g><rect x="4.0000834465026855" y="3.052091121673584" width="9.999917030334473" height="10.175137519836426" rx="1.36080002784729" fill="#3B437B" fill-opacity="1"/></g><g><rect x="0" y="0" width="10.612157821655273" height="10.79810619354248" rx="1.36080002784729" fill="#3B437B" fill-opacity="1"/></g><g><path d="M10.612608736114503,2.9909276962280273L10.612608736114503,9.437997696228027Q10.612608736114503,9.504847696228026,10.606058736114502,9.571377696228026Q10.599498736114501,9.637907696228027,10.586458736114501,9.703477696228028Q10.573418736114501,9.769047696228029,10.554008736114502,9.833017696228026Q10.534608736114503,9.896987696228027,10.509018736114502,9.958757696228027Q10.483438736114502,10.020517696228026,10.451928736114503,10.079477696228027Q10.420408736114503,10.138437696228028,10.383268736114502,10.194017696228027Q10.346128736114501,10.249607696228027,10.3037187361145,10.301277696228027Q10.261308736114502,10.352957696228028,10.214038736114503,10.400227696228027Q10.166768736114502,10.447497696228027,10.115088736114501,10.489907696228027Q10.063418736114503,10.532317696228027,10.0078287361145,10.569467696228028Q9.952238736114502,10.606607696228028,9.893288736114503,10.638117696228027Q9.834328736114502,10.669627696228027,9.772558736114501,10.695217696228028Q9.710798736114501,10.720797696228027,9.646828736114502,10.740207696228026Q9.582858736114503,10.759607696228027,9.517288736114502,10.772647696228027Q9.451718736114502,10.785697696228027,9.385188736114502,10.792247696228028Q9.318658736114502,10.798797696228029,9.251808736114501,10.798797696228029L3.6742787361145015,10.798797696228029L3.674278736114502,4.351727696228028Q3.674278736114502,4.284877696228027,3.680831356114502,4.218347696228028Q3.687383936114502,4.1518176962280275,3.700426136114502,4.086247696228027Q3.713468236114502,4.020677696228027,3.732874336114502,3.956708696228027Q3.752280336114502,3.892734696228027,3.7778637361145018,3.830971696228027Q3.803446736114502,3.769208696228027,3.834960736114502,3.7102506962280275Q3.866473736114502,3.6512926962280274,3.903614736114502,3.595707696228027Q3.940755736114502,3.5401226962280274,3.983165736114502,3.4884456962280272Q4.025576736114502,3.4367676962280274,4.072847736114502,3.3894966962280275Q4.120118736114502,3.3422256962280272,4.171796736114502,3.2998146962280273Q4.223473736114502,3.2574046962280274,4.279058736114502,3.2202636962280273Q4.334643736114502,3.1831226962280272,4.393601736114502,3.1516096962280273Q4.452559736114502,3.1200956962280273,4.514322736114502,3.094512696228027Q4.576085736114502,3.0689292962280272,4.640059736114502,3.049523296228027Q4.704028736114502,3.0301171962280273,4.769598736114502,3.0170750962280275Q4.835168736114502,3.0040328962280274,4.901698736114502,2.9974803162280272Q4.968228736114502,2.9909276962280273,5.035078736114502,2.9909276962280273L10.612608736114503,2.9909276962280273Z" fill-rule="evenodd" fill="#FFFFFF" fill-opacity="1"/></g></g></svg>