<svg xmlns="http://www.w3.org/2000/svg" xmlns:xlink="http://www.w3.org/1999/xlink" fill="none" version="1.1" width="16" height="16" viewBox="0 0 16 16"><defs><clipPath id="master_svg0_1135_042668"><rect x="0" y="0" width="16" height="16" rx="0"/></clipPath></defs><g clip-path="url(#master_svg0_1135_042668)"><g><path d="M8.003165,7.4326128125C7.875045,7.4279328125,7.751605,7.3951128125,7.637545,7.3373028125L3.0094149999999997,5.1591828125C2.6203570000000003,4.9857428125,2.445356,4.5294928125,2.618794,4.1404328125C2.696919,3.9654328125,2.835981,3.8263628125,3.0094149999999997,3.7498028125L7.407855,1.6685528125C7.784005,1.4919927125,8.219215,1.4919927125,8.595355,1.6685528125L12.995375,3.7498028125C13.384375,3.9232428125,13.559375,4.3794928125000006,13.385975,4.768552812499999C13.307875,4.9435528125,13.168775,5.0826128125,12.995375,5.1591828125L8.367235,7.3357428125C8.254735,7.3951128125,8.129735,7.4279328125,8.003165,7.4326128125ZM6.807855,14.5029328125C6.689105,14.5029328125,6.571915,14.4732328125,6.467235,14.4170328125L2.285981,12.4560328125C2.020356,12.3170328125,1.85629392,12.0420328125,1.859418869,11.7435328125L1.859418869,6.7435528125C1.86098135,6.4623028125,2.010981,6.2044928125,2.2516059999999998,6.0607428125C2.475044,5.9341828125,2.748482,5.9341828125,2.971915,6.0607428125L7.145355,8.020112812499999C7.396915,8.1560528125,7.557855,8.4169928125,7.568795,8.7029328125L7.568795,13.7091328125C7.565665,13.9888328125,7.418795,14.2466328125,7.179735,14.3920328125C7.067235,14.4591328125,6.939105,14.4982328125,6.807855,14.5029328125ZM9.196915,14.5029328125C9.067235,14.5029328125,8.939105,14.4685328125,8.825045,14.4045328125C8.585985,14.2591328125,8.439105,14.0013328125,8.435984999999999,13.7216328125L8.435984999999999,8.701362812500001C8.442235,8.4169928125,8.598485,8.1576128125,8.845355,8.018552812500001L13.046875,6.0466828125C13.268775,5.9294928125,13.537575,5.9357428125,13.753175,6.0638628125C13.995375,6.2060528125,14.143775,6.4654328125,14.145375,6.7466828125L14.145375,11.7435328125C14.151575,12.0388328125,13.993775,12.3138328125,13.735975,12.4560328125L9.539105,14.4185328125C9.432855,14.4748328125,9.315665,14.5045328125,9.196915,14.5029328125Z" fill="#3B437B" fill-opacity="1"/></g></g></svg>