<svg xmlns="http://www.w3.org/2000/svg" xmlns:xlink="http://www.w3.org/1999/xlink" fill="none" version="1.1" width="38" height="38" viewBox="0 0 38 38"><defs><clipPath id="master_svg0_1005_34239"><rect x="0" y="0" width="38" height="38" rx="0"/></clipPath></defs><g style="mix-blend-mode:passthrough" clip-path="url(#master_svg0_1005_34239)"><g style="mix-blend-mode:passthrough"><path d="M7.8,17.6C9.565000000000001,17.6,11,16.165,11,14.4C11,12.635,9.565000000000001,11.2,7.8,11.2C6.035,11.2,4.6,12.635,4.6,14.4C4.6,16.165,6.035,17.6,7.8,17.6C7.8,17.6,7.8,17.6,7.8,17.6ZM30.2,17.6C31.965,17.6,33.4,16.165,33.4,14.4C33.4,12.635,31.965,11.2,30.2,11.2C28.435,11.2,27,12.635,27,14.4C27,16.165,28.435,17.6,30.2,17.6C30.2,17.6,30.2,17.6,30.2,17.6ZM31.8,19.2C31.8,19.2,28.6,19.2,28.6,19.2C27.72,19.2,26.925,19.555,26.345,20.130000000000003C28.36,21.235,29.79,23.23,30.1,25.6C30.1,25.6,33.4,25.6,33.4,25.6C34.285,25.6,35,24.885,35,24C35,24,35,22.4,35,22.4C35,20.634999999999998,33.565,19.2,31.8,19.2C31.8,19.2,31.8,19.2,31.8,19.2ZM19,19.2C22.095,19.2,24.6,16.69498,24.6,13.6C24.6,10.504999999999999,22.095,8,19,8C15.905,8,13.4,10.504999999999999,13.4,13.6C13.4,16.69498,15.905,19.2,19,19.2C19,19.2,19,19.2,19,19.2ZM22.84,20.8C22.84,20.8,22.425,20.8,22.425,20.8C21.385,21.3,20.23,21.6,19,21.6C17.77,21.6,16.619999999999997,21.3,15.575,20.8C15.575,20.8,15.16,20.8,15.16,20.8C11.98001,20.8,9.4,23.380000000000003,9.4,26.56C9.4,26.56,9.4,28,9.4,28C9.4,29.325,10.47503,30.4,11.8,30.4C11.8,30.4,26.2,30.4,26.2,30.4C27.525,30.4,28.6,29.325,28.6,28C28.6,28,28.6,26.56,28.6,26.56C28.6,23.380000000000003,26.02,20.8,22.84,20.8C22.84,20.8,22.84,20.8,22.84,20.8ZM11.65501,20.130000000000003C11.075,19.555,10.280000000000001,19.2,9.4,19.2C9.4,19.2,6.2,19.2,6.2,19.2C4.4350000000000005,19.2,3,20.634999999999998,3,22.4C3,22.4,3,24,3,24C3,24.885,3.715002,25.6,4.6,25.6C4.6,25.6,7.895,25.6,7.895,25.6C8.21,23.23,9.64,21.235,11.65501,20.130000000000003C11.65501,20.130000000000003,11.65501,20.130000000000003,11.65501,20.130000000000003Z" fill="#3B437B" fill-opacity="1"/></g></g></svg>