<svg xmlns="http://www.w3.org/2000/svg" xmlns:xlink="http://www.w3.org/1999/xlink" fill="none" version="1.1" width="16" height="16" viewBox="0 0 16 16"><defs><clipPath id="master_svg0_1135_24961"><rect x="0" y="0" width="16" height="16" rx="0"/></clipPath></defs><g clip-path="url(#master_svg0_1135_24961)"><g><path d="M14.2559,13.825L13.825,13.825L13.825,8.697569999999999C13.825,8.21449,13.4385,7.84,12.9623,7.84L11.2686,7.84C10.78376,7.84,10.405,8.2239,10.405,8.697569999999999L10.405,13.825L9.55,13.825L9.55,1.860985C9.55,1.3838949999999999,9.16354,1,8.68731,1L6.99269,1C6.50876,1,6.13,1.385605,6.13,1.860985L6.13,13.825L5.275,13.825L5.275,5.27158C5.275,4.80048,4.88854,4.42,4.4123,4.42L2.7177,4.42C2.23377,4.42,1.855,4.80133,1.855,5.27158L1.855,13.825L1.42408,13.825C1.19323,13.825,1,14.0165,1,14.2525C1,14.4816,1.18981,14.68,1.42408,14.68L14.2551,14.68C14.4868,14.68,14.68,14.4885,14.68,14.2525C14.68,14.0234,14.4902,13.825,14.2559,13.825Z" fill="#3B437B" fill-opacity="1"/></g></g></svg>