<svg xmlns="http://www.w3.org/2000/svg" viewBox="0 0 36 36" fill="none">
  <defs>
    <clipPath id="a">
      <rect width="36" height="36" rx="0"/>
    </clipPath>
  </defs>
  <g clip-path="url(#a)">
    <path fill="currentColor" fill-rule="evenodd" d="M10.3 5.75c0-.58-.47-1.05-1.05-1.05h-3.5c-.58 0-1.05.47-1.05 1.05v3.5c0 .58.47 1.05 1.05 1.05h3.5c.58 0 1.05-.47 1.05-1.05v-3.5Zm21 0c0-.58-.47-1.05-1.05-1.05h-3.5c-.58 0-1.05.47-1.05 1.05v3.5c0 .58.47 1.05 1.05 1.05h3.5c.58 0 1.05-.47 1.05-1.05v-3.5Zm-7 1.75c0-.58-.47-1.05-1.05-1.05h-10.5a1.05 1.05 0 1 0 0 2.1h10.5c.58 0 1.05-.47 1.05-1.05ZM6.8 6.8h1.4v1.4H6.8V6.8Zm21 0h1.4v1.4h-1.4V6.8Zm-9.091 3.597a1.46 1.46 0 0 0-1.416 0h.002l-5.718 3.176c-.462.257-.75.744-.75 1.272v6.325c0 .53.287 1.018.75 1.275l5.712 3.178c.44.245.976.245 1.416 0l5.717-3.176c.464-.257.752-.746.751-1.276v-6.326a1.458 1.458 0 0 0-.75-1.272l-5.714-3.176ZM7.499 24.3c.58 0 1.05-.47 1.05-1.05v-10.5a1.05 1.05 0 1 0-2.1 0v10.5c0 .58.47 1.05 1.05 1.05Zm21 0c.58 0 1.05-.47 1.05-1.05v-10.5a1.05 1.05 0 1 0-2.1 0v10.5c0 .58.47 1.05 1.05 1.05Zm-14.464-9.694L18 12.404l3.96 2.201-3.964 2.201-3.961-2.2Zm-1.11 1.786v4.401l4.025 2.237v-4.404l-4.025-2.234Zm6.124 6.636 4.026-2.236V16.39l-4.027 2.234.001 4.403ZM10.3 26.75c0-.58-.47-1.05-1.05-1.05h-3.5c-.58 0-1.05.47-1.05 1.05v3.5c0 .58.47 1.05 1.05 1.05h3.5c.58 0 1.05-.47 1.05-1.05v-3.5Zm21 0c0-.58-.47-1.05-1.05-1.05h-3.5c-.58 0-1.05.47-1.05 1.05v3.5c0 .58.47 1.05 1.05 1.05h3.5c.58 0 1.05-.47 1.05-1.05v-3.5Zm-7 1.75c0-.58-.47-1.05-1.05-1.05h-10.5a1.05 1.05 0 1 0 0 2.1h10.5c.58 0 1.05-.47 1.05-1.05Zm-17.5.7v-1.4h1.4v1.4H6.8Zm21-1.4h1.4v1.4h-1.4v-1.4Z"/>
    <path fill="#F1EEFE" d="M10.2 5.75q0-.394-.279-.672Q9.643 4.8 9.25 4.8h-3.5q-.394 0-.672.278T4.8 5.75v3.5q0 .393.278.671.278.279.672.279h3.5q.393 0 .671-.279.279-.278.279-.671v-3.5Zm.2 0v3.5q0 .476-.337.813-.337.337-.813.337h-3.5q-.477 0-.813-.337Q4.6 9.726 4.6 9.25v-3.5q0-.477.337-.813.336-.337.813-.337h3.5q.476 0 .813.337.337.336.337.813Zm20.8 0q0-.394-.278-.672-.279-.278-.672-.278h-3.5q-.394 0-.672.278t-.278.672v3.5q0 .393.278.671.278.279.672.279h3.5q.393 0 .672-.279.278-.278.278-.671v-3.5Zm.2 0v3.5q0 .476-.337.813-.337.337-.813.337h-3.5q-.477 0-.813-.337-.337-.337-.337-.813v-3.5q0-.477.337-.813.336-.337.813-.337h3.5q.476 0 .813.337.337.336.337.813ZM24.2 7.5q0-.394-.279-.672-.278-.278-.671-.278h-10.5q-.394 0-.672.278T11.8 7.5q0 .393.278.671.278.279.672.279h10.5q.393 0 .671-.279.278-.278.278-.671Zm.2 0q0 .476-.337.813-.337.336-.813.337h-10.5q-.477 0-.813-.337-.337-.337-.337-.813 0-.477.337-.813.336-.337.813-.337h10.5q.476 0 .813.337.336.337.336.813ZM6.8 6.7h1.5v1.6H6.7V6.7h.1Zm0 .2v-.1h.1v1.4h-.1v-.1h1.4v.1h-.1V6.8h.1v.1H6.8Zm21-.2h1.5v1.6h-1.6V6.7h.1Zm0 .2v-.1h.1v1.4h-.1v-.1h1.4v.1h-.1V6.8h.1v.1h-1.4Zm-9.14 3.584q-.66-.366-1.319 0l-.048-.087v-.1h.387l-6.054 3.363q-.7.39-.7 1.185v6.325q0 .8.7 1.188l5.712 3.178q.66.366 1.319 0l5.717-3.176q.7-.388.7-1.189v-6.326q-.002-.798-.7-1.185l-5.714-3.176Zm.097-.175 5.714 3.176q.8.444.802 1.36v6.326q0 .918-.802 1.363l-5.717 3.177q-.757.42-1.513 0l-5.712-3.178q-.803-.445-.802-1.363v-6.325q0-.913.802-1.36l5.717-3.176.049.088v.1h-.388l.337-.188q.757-.42 1.513 0ZM7.5 24.2q.393 0 .671-.277.279-.279.279-.672v-10.5q0-.394-.279-.672-.278-.278-.671-.278-.394 0-.672.278t-.278.672v10.5q0 .393.278.672.278.278.672.278Zm0 .2q-.477 0-.813-.336-.337-.337-.337-.813v-10.5q0-.477.337-.813.336-.337.813-.337.476 0 .813.337.337.336.337.813v10.5q0 .476-.337.813-.337.337-.813.337Zm21-.2q.393 0 .672-.277.278-.279.278-.672v-10.5q0-.394-.278-.672-.279-.278-.672-.278-.394 0-.672.278t-.278.672v10.5q0 .393.278.672.278.278.672.278Zm0 .2q-.477 0-.813-.336-.337-.337-.337-.813v-10.5q0-.477.337-.813.336-.337.813-.337.476 0 .813.337.337.336.337.813v10.5q0 .476-.337.813-.337.337-.813.337Zm-14.514-9.88L18 12.289l4.166 2.316-4.17 2.316-4.167-2.315.157-.087Zm.097.175-.048-.088.048-.087 3.962 2.2-.049.087-.048-.087 3.964-2.201.048.087-.048.088-3.96-2.202.048-.087.049.087-3.966 2.203Zm-1.058 1.698v4.401h-.1l.048-.087 4.025 2.237-.048.087h-.1v-4.404h.1l-.049.088-4.025-2.234.049-.088h.1Zm-.2-.17 4.225 2.345V23.2l-4.225-2.348v-4.63ZM19 22.941l4.025-2.237.049.088h-.1V16.39h.1l.048.087-4.026 2.234-.049-.087h.1l.001 4.403h-.1l-.048-.087Zm-.052.257-.001-4.632 4.227-2.345v4.63l-4.077 2.265-.149.082ZM10.2 26.75q0-.394-.278-.672T9.25 25.8h-3.5q-.394 0-.672.278t-.278.672v3.5q0 .393.278.672.278.278.672.278h3.5q.393 0 .671-.278.279-.279.279-.672v-3.5Zm.2 0v3.5q0 .476-.336.813-.337.337-.813.337h-3.5q-.477 0-.813-.337-.337-.337-.337-.813v-3.5q0-.477.337-.813.336-.337.813-.337h3.5q.476 0 .813.337.337.336.337.813Zm20.8 0q0-.394-.277-.672-.279-.278-.672-.278h-3.5q-.394 0-.672.278t-.278.672v3.5q0 .393.278.672.278.278.672.278h3.5q.393 0 .672-.278.278-.279.278-.672v-3.5Zm.2 0v3.5q0 .476-.336.813-.337.337-.813.337h-3.5q-.477 0-.813-.337-.337-.337-.337-.813v-3.5q0-.477.337-.813.336-.337.813-.337h3.5q.476 0 .813.337.337.336.337.813Zm-7.2 1.75q0-.394-.277-.672-.279-.278-.672-.278h-10.5q-.394 0-.672.278t-.278.672q0 .393.278.672.278.278.672.278h10.5q.393 0 .672-.278.278-.279.278-.672Zm.2 0q0 .476-.336.813-.337.337-.813.337h-10.5q-.477 0-.813-.337-.337-.337-.337-.813 0-.477.337-.813.336-.337.813-.337h10.5q.476 0 .813.337.337.336.337.813Zm-17.7.7v-1.5h1.6v1.6H6.7v-.1Zm.2 0h-.1v-.1h1.4v.1h-.1v-1.4h.1v.1H6.8v-.1h.1v1.4Zm20.9-1.5h1.5v1.6h-1.6v-1.6h.1Zm0 .2v-.1h.1v1.4h-.1v-.1h1.4v.1h-.1v-1.4h.1v.1h-1.4Z"/>
  </g>
</svg>