<svg xmlns="http://www.w3.org/2000/svg" xmlns:xlink="http://www.w3.org/1999/xlink" fill="none" version="1.1" width="38" height="38" viewBox="0 0 38 38"><defs><clipPath id="master_svg0_1005_34256"><rect x="0" y="0" width="38" height="38" rx="0"/></clipPath></defs><g clip-path="url(#master_svg0_1005_34256)"><g><path d="M15.3671875,33.250825L12.9921875,33.250825L12.9921875,30.637925C12.9921875,30.073825,12.6064675,29.598625,12.0720975,29.479925C7.0252175,28.500225,3.4921875,23.929025,3.4921875,18.407125L3.4921875,17.219625L5.8671875,17.219625L5.8671875,18.407125C5.8671875,22.800825,8.5986575,26.393025,12.5174075,27.164925C14.1798875,27.491525,15.3671875,28.945525,15.3671875,30.667425L15.3671875,33.250825ZM25.0068875,33.250825L22.6318875,33.250825L22.6318875,30.637925C22.6318875,28.945725,23.8191875,27.462025,25.4816875,27.135425C29.4003875,26.393225,32.131887500000005,22.800825,32.131887500000005,18.407125L32.131887500000005,17.219625L34.506887500000005,17.219625L34.506887500000005,18.407125C34.506887500000005,23.929025,30.9738875,28.500225,25.9269875,29.479925C25.3925875,29.598625,25.0068875,30.073825,25.0068875,30.637925L25.0068875,33.250825ZM19.0289875,25.986125L17.485687499999997,24.590225C12.0231975,19.632325,8.4310075,16.871655,8.4310075,12.834154999999999C8.4310075,9.568535,10.9839175,7.015625,14.2495875,7.015625C16.0901875,7.015625,17.871187499999998,7.876562,19.0289875,9.242185C20.1867875,7.876561,21.9678875,7.015625,23.8084875,7.015625C27.0740875,7.015625,29.6280875,9.568535,29.6280875,12.834154999999999C29.6280875,16.841965000000002,26.0358875,19.632325,20.5733875,24.590225L19.0289875,25.986125Z" fill="#3B437B" fill-opacity="1"/></g></g></svg>