
<svg xmlns="http://www.w3.org/2000/svg" xmlns:xlink="http://www.w3.org/1999/xlink" fill="none" version="1.1" width="24.200000002980232" height="24.225474551320076" viewBox="0 0 24.200000002980232 24.225474551320076"><g><path d="M22.108000001490115,18.796400001490117L16.805600001490117,16.729900001490115Q15.794400001490116,16.337400001490117,15.401600001490117,15.951300001490116C15.149000001490116,15.703100001490116,15.167300001490116,15.117600001490116,15.390800001490117,14.369700001490116C15.614200001490117,13.621800001490117,18.332400001490115,10.582300001490117,18.332400001490115,7.821310001490116C18.332400001490115,3.5572600014901163,15.529200001490116,0.10000000149011612,12.071400001490115,0.10000000149011612C8.613880001490116,0.10000000149011612,5.810840001490116,3.5572600014901163,5.810840001490116,7.821550001490116C5.810840001490116,10.466000001490116,8.233100001490117,13.618700001490117,8.531970001490116,14.191700001490116C8.831080001490117,14.764700001490116,8.758300001490117,15.638000001490116,8.522130001490115,15.902500001490116Q8.167510001490117,16.299900001490116,6.871820001490116,16.698200001490115L2.0917100014901164,18.828600001490116C0.9750130014901162,19.229800001490116,0.10000000149011612,20.283100001490116,0.10000000149011612,21.471400001490117L0.10000000149011612,22.035000001490115C0.10000000149011612,23.331900001490116,1.1532900014901162,24.125500001490117,2.447760001490116,24.125500001490117L10.465100001490116,24.125500001490117L13.213100001490115,24.125500001490117L21.752000001490117,24.125500001490117C23.046700001490116,24.125500001490117,24.100000001490116,23.331900001490116,24.100000001490116,22.035000001490115L24.100000001490116,21.471400001490117C24.100000001490116,20.282800001490116,23.225000001490116,19.197400001490116,22.108000001490115,18.796400001490117ZM22.380600001490116,22.035000001490115C22.380600001490116,22.186400001490117,22.333800001490115,22.226200001490117,22.299500001490117,22.255200001490117C22.188100001490117,22.349700001490117,21.983400001490118,22.406100001490117,21.752000001490117,22.406100001490117L2.447760001490116,22.406100001490117C2.216470001490116,22.406100001490117,2.011840001490116,22.349700001490117,1.900430001490116,22.255200001490117C1.8662100014901162,22.226200001490117,1.8193400014901162,22.186400001490117,1.8193400014901162,22.035000001490115L1.8193400014901162,21.471400001490117C1.8193400014901162,21.068800001490118,2.194330001490116,20.618700001490115,2.673070001490116,20.446700001490115L2.7916000014901163,20.399000001490116L7.480500001490116,18.309300001490115C8.267340001490115,18.059300001490115,9.271640001490116,17.644900001490115,9.804970001490116,17.047300001490115C10.645700001490116,16.105700001490117,10.590100001490116,14.418700001490116,10.056160001490117,13.396000001490115C9.965680001490115,13.222500001490117,9.839650001490115,13.029700001490117,9.648910001490115,12.737900001490116C9.286470001490116,12.183400001490115,8.738690001490117,11.345300001490116,8.280000001490116,10.396200001490117C7.660290001490116,9.113880001490116,7.530210001490116,8.288300001490116,7.530210001490116,7.821520001490116C7.530210001490116,6.152110001490116,8.045120001490115,4.597650001490116,8.980100001490117,3.444500001490116C9.829780001490116,2.396510001490116,10.927600001490116,1.8193700014901162,12.071400001490115,1.8193700014901162C13.215300001490116,1.8193700014901162,14.313300001490116,2.3965300014901163,15.163100001490116,3.444530001490116C16.098100001490117,4.597670001490116,16.613100001490118,6.152030001490116,16.613100001490118,7.821300001490116C16.613100001490118,9.296170001490117,15.359900001490116,11.188300001490116,14.611200001490117,12.318800001490116C14.154300001490116,13.008600001490116,13.878600001490117,13.424900001490116,13.743300001490116,13.877500001490116C13.305900001490116,15.341800001490116,13.458300001490116,16.452100001490116,14.196300001490116,17.177500001490117C14.779000001490116,17.750100001490114,15.780000001490116,18.176200001490116,16.183400001490117,18.332700001490117L21.483700001490117,20.398400001490117L21.527100001490115,20.414600001490115C21.997700001490117,20.583600001490115,22.380600001490116,21.057600001490115,22.380600001490116,21.471300001490118L22.380600001490116,22.035000001490115L22.380600001490116,22.035000001490115Z" fill="currentColor" fill-opacity="1"/><path d="M24.200000001490118,22.035000001490115L24.200000001490118,21.471400001490117Q24.200000001490118,20.561700001490117,23.602400001490118,19.777900001490117Q23.024100001490115,19.019400001490116,22.143100001490115,18.702700001490115L16.841900001490117,16.636800001490116Q15.849800001490117,16.251600001490115,15.471700001490117,15.880000001490115Q15.141000001490116,15.555000001490116,15.486600001490116,14.398300001490115Q15.544500001490116,14.204400001490116,16.128000001490115,13.323400001490116Q17.139600001490116,11.796100001490116,17.605400001490118,10.842100001490117Q18.432500001490116,9.148420001490116,18.432400001490116,7.821310001490116Q18.432500001490116,4.587810001490116,16.576300001490115,2.2986500014901163Q14.712400001490115,0.0000015014901161153338,12.071400001490115,5.014901161143337e-7Q9.430630001490115,1.4901161138336505e-9,7.566880001490116,2.298690001490116Q5.710860001490116,4.587880001490116,5.710850001490116,7.821550001490116Q5.710850001490116,9.261320001490116,6.641880001490116,11.187800001490116Q7.151590001490116,12.242500001490116,8.125980001490117,13.733300001490116Q8.393880001490116,14.143100001490117,8.443310001490117,14.237900001490116Q8.644950001490116,14.624200001490117,8.627830001490116,15.159600001490116Q8.612100001490116,15.651600001490117,8.447530001490117,15.835900001490117Q8.111470001490115,16.212500001490117,6.842440001490116,16.602700001490117L6.836650001490116,16.604400001490117L2.054390001490116,18.735700001490116Q1.171740001490116,19.053900001490117,0.5980760014901161,19.793500001490116Q1.4901161138336505e-9,20.564600001490117,1.4901161138336505e-9,21.471400001490117L1.4901161138336505e-9,22.035000001490115Q1.4901161138336505e-9,23.029100001490114,0.7237770014901161,23.642800001490116Q1.4108400014901161,24.225500001490115,2.447760001490116,24.225500001490115L21.752000001490117,24.225500001490115Q22.789100001490116,24.225500001490115,23.476200001490117,23.642900001490116Q24.200000001490118,23.029100001490114,24.200000001490118,22.035000001490115ZM23.443300001490115,19.899200001490115Q24.000000001490115,20.629300001490115,24.000000001490115,21.471400001490117L24.000000001490115,22.035000001490115Q24.000000001490115,22.936500001490117,23.346800001490116,23.490300001490116Q22.715700001490116,24.025500001490116,21.752000001490117,24.025500001490116L2.447760001490116,24.025500001490116Q1.4842200014901161,24.025500001490116,0.8531280014901161,23.490300001490116Q0.20000000149011612,22.936500001490117,0.20000000149011612,22.035000001490115L0.19999990149011612,21.471400001490117Q0.19999990149011612,20.633100001490117,0.7561120014901161,19.916100001490115Q1.295250001490116,19.221000001490115,2.125530001490116,18.922700001490117L2.129020001490116,18.921400001490117L6.907010001490116,16.792000001490116Q8.224370001490117,16.386400001490117,8.596720001490116,15.969100001490116Q8.809670001490115,15.730600001490116,8.827730001490115,15.166000001490117Q8.846520001490116,14.578100001490116,8.620630001490117,14.145400001490117Q8.566660001490115,14.041900001490117,8.293400001490117,13.623900001490115Q5.910840001490116,9.978660001490116,5.910840001490116,7.821550001490116Q5.910840001490116,4.658770001490116,7.722230001490116,2.4246500014901162Q9.525930001490115,0.19999990149011612,12.071400001490115,0.20000000149011612Q14.617000001490116,0.1999985014901161,16.420900001490118,2.424620001490116Q18.232400001490117,4.658700001490116,18.232400001490117,7.821310001490116Q18.232400001490117,9.102200001490116,17.425700001490117,10.754400001490117Q16.965600001490117,11.696500001490117,15.961200001490116,13.213000001490116Q15.361400001490116,14.118700001490117,15.294900001490117,14.341100001490116Q14.914900001490116,15.613200001490116,15.331500001490117,16.022600001490115Q15.739000001490115,16.423100001490116,16.769300001490116,16.823100001490115L22.073000001490115,18.890000001490115L22.074200001490116,18.890500001490118Q22.900500001490116,19.187100001490116,23.443300001490115,19.899200001490115ZM22.280600001490114,21.471300001490118L22.280600001490114,22.035000001490115Q22.280600001490114,22.140100001490115,22.234900001490114,22.178900001490117Q22.084900001490116,22.306100001490115,21.752000001490117,22.306100001490115L2.447760001490116,22.306100001490115Q2.115050001490116,22.306100001490115,1.965120001490116,22.178900001490117L1.965100001490116,22.178900001490117Q1.919340001490116,22.140100001490115,1.919340001490116,22.035000001490115L1.919340001490116,21.471400001490117Q1.919340001490116,21.205600001490115,2.143510001490116,20.936600001490117Q2.373430001490116,20.660600001490117,2.706880001490116,20.540800001490116L2.708630001490116,20.540200001490117L2.830610001490116,20.491100001490118L7.516120001490116,18.402900001490117Q9.210490001490117,17.863600001490116,9.879560001490116,17.113900001490116Q10.503500001490115,16.415100001490117,10.546000001490116,15.255700001490116Q10.584900001490116,14.192800001490117,10.144800001490117,13.349800001490117Q10.052150001490116,13.172100001490117,9.733200001490117,12.684100001490116L9.732620001490115,12.683200001490116L9.732150001490115,12.682500001490116Q8.825770001490117,11.295700001490117,8.370030001490116,10.352700001490117Q7.630210001490116,8.821830001490117,7.630210001490116,7.821520001490116Q7.630210001490116,5.268170001490116,9.057780001490116,3.507480001490116Q10.345400001490116,1.919370001490116,12.071400001490115,1.919370001490116Q13.797500001490116,1.919370001490116,15.085400001490116,3.507510001490116Q16.513100001490116,5.268240001490116,16.513100001490116,7.821300001490116Q16.513100001490116,8.761500001490116,15.803800001490115,10.153800001490117Q15.399500001490116,10.947500001490116,14.527800001490116,12.263600001490117L14.527800001490116,12.263600001490117Q13.787000001490116,13.382000001490116,13.647500001490116,13.848900001490117Q12.971000001490117,16.113300001490117,14.126200001490115,17.248800001490117Q14.786600001490116,17.897800001490115,16.147100001490116,18.425900001490117L21.448700001490117,20.492000001490116L21.493300001490116,20.508700001490116Q21.819900001490115,20.626000001490116,22.052600001490116,20.914000001490116Q22.280600001490114,21.196400001490115,22.280600001490114,21.471300001490118ZM22.364200001490115,22.331400001490117Q22.480600001490117,22.232800001490116,22.480600001490117,22.035000001490115L22.480600001490117,21.471300001490118Q22.480600001490117,21.125700001490117,22.208100001490116,20.788400001490118Q21.940200001490116,20.456700001490116,21.560900001490115,20.320500001490117L21.518800001490117,20.304700001490115L16.219700001490118,18.239600001490118Q14.897400001490116,17.726300001490117,14.266400001490116,17.106200001490116Q13.197200001490117,16.055200001490114,13.839200001490116,13.906100001490117Q13.970200001490117,13.467700001490115,14.694500001490116,12.374100001490117L14.694500001490116,12.374000001490115Q15.572500001490116,11.048400001490116,15.982000001490116,10.244600001490117Q16.713100001490115,8.809500001490116,16.713100001490115,7.821300001490116Q16.713100001490115,5.197350001490116,15.240800001490117,3.3815400014901162Q13.892900001490116,1.719370001490116,12.071400001490115,1.719370001490116Q10.250000001490116,1.719370001490116,8.902430001490115,3.381520001490116Q7.430220001490116,5.197270001490116,7.430210001490116,7.821520001490116Q7.430210001490116,8.867620001490117,8.189960001490116,10.439700001490117Q8.651310001490117,11.394300001490116,9.564740001490117,12.791900001490117L9.565210001490117,12.792600001490117L9.565790001490116,12.793500001490116Q9.879360001490117,13.273200001490116,9.967500001490116,13.442200001490116Q10.383100001490115,14.238400001490117,10.346100001490116,15.248400001490117Q10.306300001490117,16.335700001490117,9.730370001490115,16.980700001490117Q9.096670001490116,17.690800001490118,7.450210001490116,18.214000001490117L7.4448900014901165,18.215700001490116L2.752590001490116,20.306900001490117L2.637470001490116,20.353200001490116Q2.253980001490116,20.491500001490117,1.9898500014901161,20.808500001490117Q1.7193400014901161,21.133200001490117,1.7193400014901161,21.471400001490117L1.7193400014901161,22.035000001490115Q1.7193400014901161,22.232700001490116,1.8357100014901162,22.331400001490117L1.8357300014901161,22.331400001490117Q2.041660001490116,22.506100001490115,2.447760001490116,22.506100001490115L21.752000001490117,22.506100001490115Q22.158300001490115,22.506100001490115,22.364200001490115,22.331400001490117Z" fill-rule="evenodd" fill="currentColor" fill-opacity="1"/></g></svg>
