
<svg xmlns="http://www.w3.org/2000/svg" xmlns:xlink="http://www.w3.org/1999/xlink" fill="none" version="1.1" width="20" height="20" viewBox="0 0 20 20"><defs><clipPath id="master_svg0_738_39815"><rect x="0" y="0" width="20" height="20" rx="0"/></clipPath></defs><g clip-path="url(#master_svg0_738_39815)"><g><path d="M15.3465,2.00000513619C13.8785,2.00000509949,12.6885,3.19003,12.6885,4.6579999999999995C12.6885,6.12598,13.8785,7.31601,15.3465,7.31601C16.814500000000002,7.31601,18.0045,6.12598,18.0045,4.65801C18.0017,3.1912000000000003,16.813299999999998,2.00282801,15.3465,2.00000513619ZM15.3465,6.3308C14.4185,6.33363,13.6644,5.58261,13.6635,4.65459C13.6625,3.72656,14.4151,2.974011,15.3431,2.974956C16.2711,2.9759,17.022199999999998,3.7299800000000003,17.0193,4.6579999999999995C17.0193,5.58186,16.270400000000002,6.3308,15.3465,6.3308ZM4.663209999999999,2.00000513619C3.1945699999999997,1.99716974,2.00197025,3.18594,2.0000792146,4.65458C1.99818821,6.12322,3.18772,7.31505,4.656359999999999,7.316C6.12501,7.31694,7.31608,6.12664,7.31608,4.65801C7.31327,3.1932,6.12801,2.00564713,4.663209999999999,2.00000513619ZM4.663209999999999,6.3308C3.7351900000000002,6.33363,2.981104,5.58262,2.980159,4.65459C2.979215,3.72656,3.73177,2.974011,4.65979,2.974956C5.58782,2.9759,6.33884,3.7299800000000003,6.336,4.6579999999999995C6.33319,5.5807,5.5859000000000005,6.32798,4.663209999999999,6.3308ZM15.3055,8.63987C13.8387,8.6427,12.6503,9.83107,12.6475,11.29787L12.6475,12.36L9.97408,13.8994L7.3366,12.36L7.3366,11.33379C7.34539,10.04392,6.44028,8.92812,5.17634,8.67066C3.52617,8.345939999999999,1.99304311,9.616109999999999,2.00520825,11.29787L2.00520825,17.2758C2.00801599,17.642200000000003,2.305847,17.9377,2.672274,17.9377L6.66954,17.9377C7.03595,17.9378,7.33378,17.642200000000003,7.3366,17.2758L7.3366,13.9046L9.62515,15.2336L9.661069999999999,15.2336C9.759689999999999,15.2936,9.87421,15.3222,9.98947,15.3157C10.10528,15.3128,10.21908,15.2847,10.323,15.2336L12.6475,13.8738L12.6475,17.2604C12.6389,17.625999999999998,12.9284,17.929299999999998,13.294,17.9377L17.2964,17.9377C17.662,17.9377,17.9583,17.6414,17.9583,17.2758L17.9583,11.29787C17.9555,9.83307,16.7703,8.645520000000001,15.3055,8.63987ZM6.43863,17.0449L2.918575,17.0449L2.918575,11.29787C2.918575,10.32584,3.70657,9.537849999999999,4.678599999999999,9.537849999999999C5.65064,9.537849999999999,6.43863,10.32584,6.43863,11.29787L6.43863,17.0449ZM17.0655,17.0449L13.5454,17.0449L13.5454,11.29787C13.5448,10.32536,14.333,9.536629999999999,15.3055,9.536629999999999C16.278,9.536629999999999,17.066200000000002,10.32536,17.0655,11.29787L17.0655,17.0449Z" fill="#363636" fill-opacity="1"/></g></g></svg>
