<svg xmlns="http://www.w3.org/2000/svg" fill="none" viewBox="0 0 16 16">
  <defs>
    <clipPath id="a">
      <rect width="16" height="16" rx="0"/>
    </clipPath>
  </defs>
  <g clip-path="url(#a)">
    <path d="M11.6 2.178q.431.384.687.648.256.264.392.448t.168.312q.032.128.032.224v.256h-2.352q-.176 0-.296-.12t-.2-.28q-.08-.16-.12-.328-.04-.168-.04-.28V1.09h.032q.144 0 .272.032.128.032.312.152t.448.336q.264.216.664.568Zm-2.737.912q0 .304.096.656.096.352.304.648.208.296.528.496.32.2.752.2h2.336v8.016q0 .464-.184.832-.184.368-.488.632t-.672.408q-.368.144-.72.144H3.92q-.304 0-.664-.176-.36-.176-.672-.464-.312-.288-.52-.664-.208-.376-.208-.776V3.154q0-.336.16-.704.16-.368.424-.664.264-.296.6-.496.336-.2.704-.2h5.12v2Zm-1.28 7.216q.192-.192.208-.512.016-.32-.176-.496l-2.624-2.64q-.192-.192-.472-.192-.28 0-.472.192-.192.208-.192.488t.192.472l2.144 2.176-2.144 2.16q-.192.192-.192.472 0 .28.192.488.192.192.472.192.28 0 .472-.192l2.592-2.608Zm3.28 1.776H7.855v1.008h3.008v-1.008Z" fill="currentColor"/>
  </g>
</svg>