<svg xmlns="http://www.w3.org/2000/svg" xmlns:xlink="http://www.w3.org/1999/xlink" fill="none" version="1.1" width="40" height="40" viewBox="0 0 40 40"><defs><clipPath id="master_svg0_3643_146553"><rect x="0" y="0" width="40" height="40" rx="20"/></clipPath></defs><g clip-path="url(#master_svg0_3643_146553)"><rect x="0" y="0" width="40" height="40" rx="20" fill="#E0FFF8" fill-opacity="1"/><g><path d="M13.156057,20.06995L13.156057,20.06941C12.9479811,19.863599999999998,12.9479811,19.5275,13.156057,19.32168L13.156057,19.320610000000002L16.895789999999998,15.58408C17.10227,15.37745,17.43716,15.37733,17.64379,15.58381C17.85042,15.7903,17.85054,16.12519,17.64406,16.33181L14.27819,19.69555L17.64406,23.0593C17.85159,23.2654,17.85207,23.6009,17.64512,23.807499999999997C17.43751,24.012999999999998,17.10311,24.0128,16.895789999999998,23.807000000000002L13.156589,20.07048L13.156057,20.06995ZM21.50806,13.397947C21.58314,13.112146,21.8763,12.9418743,22.161749999999998,13.018262C22.44721,13.0946498,22.61614,13.388575,22.53846,13.673681L19.22646,26.0342C19.15137,26.32,18.85822,26.490299999999998,18.57276,26.413899999999998C18.287309999999998,26.3375,18.11837,26.043599999999998,18.19606,25.758499999999998L21.50806,13.397947ZM27.777900000000002,20.06995L24.0382,23.807000000000002C23.8309,24.0128,23.496499999999997,24.012999999999998,23.288899999999998,23.807499999999997C23.081899999999997,23.6009,23.0824,23.2654,23.2899,23.0593L26.6558,19.69555L23.2899,16.33181C23.083399999999997,16.12519,23.0836,15.7903,23.2902,15.58381C23.4968,15.37733,23.831699999999998,15.37745,24.0382,15.58408L27.7774,19.320610000000002L27.777900000000002,19.32115L27.777900000000002,19.32168C27.986,19.5275,27.986,19.863599999999998,27.777900000000002,20.06942L27.777900000000002,20.06995Z" fill="#1CC29D" fill-opacity="1"/></g></g></svg>