<svg xmlns="http://www.w3.org/2000/svg" viewBox="0 0 32 32" fill="none">
  <defs>
    <clipPath id="a">
      <rect width="32" height="32" rx="0"/>
    </clipPath>
  </defs>
  <g clip-path="url(#a)">
    <path fill="currentColor" d="M9.333 10.667v-3.58C9.333 3.24 11.74 0 14.944 0h2.112c3.2 0 5.61 3.244 5.61 7.087v3.58h2.674c1.47 0 2.66 1.193 2.66 2.658v16.016A2.659 2.659 0 0 1 25.34 32H6.66A2.661 2.661 0 0 1 4 29.341V13.325a2.66 2.66 0 0 1 2.66-2.658h2.673Zm2.667 0h8v-3.58c0-2.514-1.419-4.42-2.944-4.42h-2.112C13.414 2.667 12 4.57 12 7.087v3.58Zm5.333 10.312a2.659 2.659 0 0 0 1.334-2.312A2.66 2.66 0 0 0 16 16a2.66 2.66 0 0 0-2.667 2.667c0 .993.536 1.853 1.334 2.312v3.009a1.333 1.333 0 1 0 2.666.013V20.98Z"/>
  </g>
</svg>