<svg xmlns="http://www.w3.org/2000/svg" xmlns:xlink="http://www.w3.org/1999/xlink" fill="none" version="1.1" width="42.517250061035156" height="51.818851470947266" viewBox="0 0 42.517250061035156 51.818851470947266"><g><path d="M37.4517,20.2672L5.06479,20.2672C2.26745,20.2672,0,22.53,0,25.322L0,46.7641C0,49.5561,2.26745,51.8189,5.06479,51.8189L37.4518,51.8189C40.2492,51.8189,42.5173,49.5561,42.5173,46.7641L42.5173,25.322C42.5172,22.53,40.2491,20.2672,37.4517,20.2672ZM23.3913,35.898L23.3913,41.5261C23.3913,42.7037,22.437,43.6593,21.2583,43.6593C20.0801,43.6593,19.1252,42.7037,19.1252,41.5261L19.1252,35.898C17.8515,35.1602,16.992,33.785,16.992,32.2065C16.992,29.8502,18.9019,27.9403,21.2583,27.9403C23.6146,27.9403,25.5251,29.8502,25.5251,32.2065C25.5252,33.785,24.6664,35.1602,23.3913,35.898ZM21.2583,0C13.0112,0,6.32516,6.59181,6.32516,15.2525L6.32516,21.8764L36.1921,23.2985L36.1921,15.2525C36.1921,6.59181,29.506,0,21.2583,0ZM10.594,21.5022L10.594,15.1042C10.594,9.21541,15.3687,4.43996,21.2582,4.43996C27.1483,4.43996,31.9224,9.21541,31.9224,15.1042L31.9224,21.6519L10.594,21.5022Z" fill="#B5BED0" fill-opacity="1"/></g></svg>