<svg xmlns="http://www.w3.org/2000/svg" xmlns:xlink="http://www.w3.org/1999/xlink" fill="none" version="1.1" width="66"
  height="66" viewBox="0 0 66 66">
  <defs>
    <clipPath id="master_svg0_2413_84806">
      <rect x="0" y="0" width="66" height="66" rx="0" />
    </clipPath>
    <mask id="master_svg1_2088_67954">
      <g>
        <path d="M0,0L66,66L66,0L0,0Z" fill="#FFFFFF" fill-opacity="1" />
      </g>
    </mask>
  </defs>
  <g clip-path="url(#master_svg0_2413_84806)">
    <g>
      <path d="M0,0L66,66L66,4C66,1.79086,64.2091,0,62,0L0,0Z" fill="#F2F3F5" fill-opacity="1" />
    </g>
    <g mask="url(#master_svg1_2088_67954)">
      <g>
        <g>
          <path
            d="M34.785709381103516,54.42857360839844L38.357139381103515,54.42857360839844L38.357139381103515,58.00000360839844L34.785709381103516,58.00000360839844L34.785709381103516,54.42857360839844Z"
            fill="#596780" fill-opacity="1" />
        </g>
        <g>
          <path
            d="M27.6429,27.6429L27.6429,8L8,8L8,27.6429L11.57143,27.6429L11.57143,31.2143L15.142859999999999,31.2143L15.142859999999999,27.6429L27.6429,27.6429ZM11.57143,24.0714L11.57143,11.57143L24.0714,11.57143L24.0714,24.0714L11.57143,24.0714Z"
            fill="#596780" fill-opacity="1" />
        </g>
        <g>
          <path
            d="M15.142855644226074,15.142857551574707L20.499995644226075,15.142857551574707L20.499995644226075,20.499997551574708L15.142855644226074,20.499997551574708L15.142855644226074,15.142857551574707Z"
            fill="#596780" fill-opacity="1" />
        </g>
        <g>
          <path
            d="M38.35713577270508,8L38.35713577270508,27.6429L58.000035772705075,27.6429L58.000035772705075,8L38.35713577270508,8ZM54.428535772705075,24.0714L41.92856577270508,24.0714L41.92856577270508,11.57143L54.428535772705075,11.57143L54.428535772705075,24.0714Z"
            fill="#596780" fill-opacity="1" />
        </g>
        <g>
          <path
            d="M45.49999237060547,15.142857551574707L50.85713237060547,15.142857551574707L50.85713237060547,20.499997551574708L45.49999237060547,20.499997551574708L45.49999237060547,15.142857551574707Z"
            fill="#596780" fill-opacity="1" />
        </g>
        <g>
          <path
            d="M15.142855644226074,45.5L20.499995644226075,45.5L20.499995644226075,50.85714L15.142855644226074,50.85714L15.142855644226074,45.5Z"
            fill="#596780" fill-opacity="1" />
        </g>
        <g>
          <path
            d="M8,31.21428680419922L11.57143,31.21428680419922L11.57143,34.78571680419922L8,34.78571680419922L8,31.21428680419922Z"
            fill="#596780" fill-opacity="1" />
        </g>
        <g>
          <path
            d="M15.142855644226074,31.21428680419922L18.714285644226074,31.21428680419922L18.714285644226074,34.78571680419922L15.142855644226074,34.78571680419922L15.142855644226074,31.21428680419922Z"
            fill="#596780" fill-opacity="1" />
        </g>
        <g>
          <path
            d="M18.7143,38.35714510314941L8,38.35714510314941L8,58.000015103149416L27.6429,58.000015103149416L27.6429,38.35714510314941L22.2857,38.35714510314941L22.2857,34.785715103149414L18.7143,34.785715103149414L18.7143,38.35714510314941ZM24.0714,41.92857510314941L24.0714,54.42861510314941L11.57143,54.42861510314941L11.57143,41.92857510314941L24.0714,41.92857510314941Z"
            fill="#596780" fill-opacity="1" />
        </g>
        <g>
          <path
            d="M31.21428108215332,9.785714387893677L34.78571108215332,9.785714387893677L34.78571108215332,15.142854387893678L31.21428108215332,15.142854387893678L31.21428108215332,9.785714387893677Z"
            fill="#596780" fill-opacity="1" />
        </g>
        <g>
          <path
            d="M31.21428108215332,18.714285850524902L34.78571108215332,18.714285850524902L34.78571108215332,22.285715850524902L31.21428108215332,22.285715850524902L31.21428108215332,18.714285850524902Z"
            fill="#596780" fill-opacity="1" />
        </g>
        <g>
          <path
            d="M41.928611288452146,31.21428340209961L38.357111288452145,31.21428340209961L34.78571128845215,31.21428340209961L34.78571128845215,25.85714340209961L31.21428128845215,25.85714340209961L31.21428128845215,31.21428340209961L22.28571128845215,31.21428340209961L22.28571128845215,34.78571340209961L31.21428128845215,34.78571340209961L34.78571128845215,34.78571340209961L38.357111288452145,34.78571340209961L38.357111288452145,38.35714340209961L41.928611288452146,38.35714340209961L41.928611288452146,34.78571340209961L41.928611288452146,31.21428340209961Z"
            fill="#596780" fill-opacity="1" />
        </g>
        <g>
          <path
            d="M41.92856216430664,38.35714340209961L45.49999216430664,38.35714340209961L45.49999216430664,41.92857340209961L41.92856216430664,41.92857340209961L41.92856216430664,38.35714340209961Z"
            fill="#596780" fill-opacity="1" />
        </g>
        <g>
          <path
            d="M31.21428108215332,38.35714340209961L34.78571108215332,38.35714340209961L34.78571108215332,43.71428340209961L31.21428108215332,43.71428340209961L31.21428108215332,38.35714340209961Z"
            fill="#596780" fill-opacity="1" />
        </g>
        <g>
          <path
            d="M31.21428108215332,47.28571701049805L34.78571108215332,47.28571701049805L34.78571108215332,54.428577010498046L31.21428108215332,54.428577010498046L31.21428108215332,47.28571701049805Z"
            fill="#596780" fill-opacity="1" />
        </g>
        <g>
          <path
            d="M38.35713577270508,43.71428680419922L41.92856577270508,43.71428680419922L41.92856577270508,54.42858680419922L38.35713577270508,54.42858680419922L38.35713577270508,43.71428680419922Z"
            fill="#596780" fill-opacity="1" />
        </g>
        <g>
          <path
            d="M49.07141876220703,38.35714340209961L57.99998876220703,38.35714340209961L57.99998876220703,41.92857340209961L49.07141876220703,41.92857340209961L49.07141876220703,38.35714340209961Z"
            fill="#596780" fill-opacity="1" />
        </g>
        <g>
          <path
            d="M54.42857360839844,31.21428680419922L58.00000360839844,31.21428680419922L58.00000360839844,34.78571680419922L54.42857360839844,34.78571680419922L54.42857360839844,31.21428680419922Z"
            fill="#596780" fill-opacity="1" />
        </g>
        <g>
          <path
            d="M45.49999237060547,31.21428680419922L52.64285237060547,31.21428680419922L52.64285237060547,34.78571680419922L45.49999237060547,34.78571680419922L45.49999237060547,31.21428680419922Z"
            fill="#596780" fill-opacity="1" />
        </g>
        <g>
          <path
            d="M45.49999237060547,43.71428680419922L49.07142237060547,43.71428680419922L49.07142237060547,47.28571680419922L45.49999237060547,47.28571680419922L45.49999237060547,43.71428680419922Z"
            fill="#596780" fill-opacity="1" />
        </g>
        <g>
          <path
            d="M54.42855896850586,47.28571680419922L52.64284896850586,47.28571680419922L52.64284896850586,50.85714680419922L56.21427896850586,50.85714680419922L56.21427896850586,47.28571680419922L57.99998896850586,47.28571680419922L57.99998896850586,43.71428680419922L54.42855896850586,43.71428680419922L54.42855896850586,47.28571680419922Z"
            fill="#596780" fill-opacity="1" />
        </g>
        <g>
          <path
            d="M45.49999237060547,50.85714340209961L49.07142237060547,50.85714340209961L49.07142237060547,54.42857340209961L45.49999237060547,54.42857340209961L45.49999237060547,50.85714340209961Z"
            fill="#596780" fill-opacity="1" />
        </g>
        <g>
          <path
            d="M49.07141876220703,54.42857360839844L57.99998876220703,54.42857360839844L57.99998876220703,58.00000360839844L49.07141876220703,58.00000360839844L49.07141876220703,54.42857360839844Z"
            fill="#596780" fill-opacity="1" />
        </g>
      </g>
    </g>
  </g>
</svg>
