<svg xmlns="http://www.w3.org/2000/svg" fill="none" width="14" height="14">
  <defs>
    <clipPath id="a">
      <rect width="14" height="14" rx="0"/>
    </clipPath>
  </defs>
  <g clip-path="url(#a)">
    <path d="M12.81.348H4.977c-.385 0-.7.315-.7.7 0 .385.315.7.7.7h7.133v10.5H4.977c-.385 0-.7.315-.7.7 0 .385.315.7.7.7h7.833c.385 0 .7-.315.7-.7v-11.9c0-.385-.315-.7-.7-.7Z" fill="currentColor"/>
    <path d="M4.326 9.127 2.884 7.7h5.404c.385 0 .7-.315.7-.7 0-.385-.315-.7-.7-.7H2.891l1.435-1.42a.697.697 0 0 0 .007-.988.706.706 0 0 0-.994-.014L.7 6.495a.7.7 0 0 0-.21.497.7.7 0 0 0 .21.497l2.646 2.625a.7.7 0 0 0 .987 0 .697.697 0 0 0-.007-.987Z" fill="currentColor"/>
  </g>
</svg>