<svg xmlns="http://www.w3.org/2000/svg" xmlns:xlink="http://www.w3.org/1999/xlink" fill="none" version="1.1"
  width="66.25" height="66" viewBox="0 0 66.25 66">
  <defs>
    <clipPath id="master_svg0_2413_84807">
      <rect x="0" y="0" width="66.25" height="66" rx="0" />
    </clipPath>
    <clipPath id="master_svg1_2088_68086">
      <rect x="10.25" y="6" width="56" height="56" rx="0" />
    </clipPath>
    <mask id="master_svg2_2088_68091">
      <g>
        <path d="M-0.25,-1L65.75,65L65.75,-1L-0.25,-1Z" fill="#FFFFFF" fill-opacity="1" />
      </g>
    </mask>
    <clipPath id="master_svg3_2088_68089">
      <rect x="5.25" y="6" width="67" height="67" rx="0" />
    </clipPath>
  </defs>
  <g clip-path="url(#master_svg0_2413_84807)">
    <g>
      <path d="M0,0L66,66L66,4C66,1.79086,64.2091,0,62,0L0,0Z" fill="#F2F3F5" fill-opacity="1" />
    </g>
    <g clip-path="url(#master_svg1_2088_68086)">
      <g mask="url(#master_svg2_2088_68091)">
        <g clip-path="url(#master_svg3_2088_68089)">
          <g>
            <path
              d="M58.928838671875,58.1624Q58.928838671875,59.811,58.269438671875,61.2288Q57.609938671875,62.6467,56.455938671875,63.7347Q55.301838671875,64.8228,53.752138671875,65.4493Q52.202438671875,66.0758,50.421938671875,66.0758L27.011528671875,66.0758Q25.231018671875,66.0758,23.681308671875,65.4493Q22.131608671875,64.8228,20.977568671874998,63.7347Q19.823538671875,62.6467,19.164086671875,61.2288Q18.504636675115,59.811,18.504638671875,58.1624L18.504638671875,13.979330000000001Q18.504638671875,12.33071,19.164086671875,10.87992Q19.823538671875,9.42913,20.977568671874998,8.34104Q22.131608671875,7.25295,23.681308671875,6.626476Q25.231018671875,6.000000311993,27.011528671875,6L50.421938671875,6Q52.202438671875,6,53.752138671875,6.626476Q55.301838671875,7.25295,56.455938671875,8.34104Q57.609938671875,9.42913,58.269438671875,10.87992Q58.928838671875,12.33071,58.928838671875,13.979330000000001L58.928838671875,58.1624ZM53.587338671875,17.1447L23.780228671875,17.1447L23.780228671875,54.9311L53.587338671875,54.9311L53.587338671875,17.1447ZM38.683738671875,56.7776Q37.298938671875,56.7776,36.276738671874995,57.7667Q35.254638671875,58.7559,35.254638671875,60.2067Q35.254638671875,61.5915,36.276738671874995,62.6137Q37.298938671875,63.6358,38.683738671875,63.6358Q40.134538671875,63.6358,41.123738671875,62.6137Q42.112938671875,61.5915,42.112938671875,60.2067Q42.112938671875,58.7559,41.123738671875,57.7667Q40.134538671875,56.7776,38.683738671875,56.7776ZM43.959338671875,11.53937Q43.959338671875,11.01181,43.629638671875,10.715060000000001Q43.299938671875,10.41831,42.904238671875,10.41831L34.529238671875,10.41831Q34.199538671875004,10.41831,33.836838671875,10.715060000000001Q33.474138671875,11.01181,33.474138671875,11.53937Q33.474138671875,12.06693,33.803838671875,12.363679999999999Q34.133538671875,12.66043,34.529238671875,12.66043L42.904238671875,12.66043Q43.299938671875,12.66043,43.629638671875,12.363679999999999Q43.959338671875,12.06693,43.959338671875,11.53937Z"
              fill="#596780" fill-opacity="1" />
          </g>
        </g>
      </g>
    </g>
  </g>
</svg>
