<svg xmlns="http://www.w3.org/2000/svg" xmlns:xlink="http://www.w3.org/1999/xlink" fill="none" version="1.1" width="63.470458984375" height="14" viewBox="0 0 63.470458984375 14"><defs><linearGradient x1="0.20568637549877167" y1="0.03765464946627617" x2="0.6880754828453064" y2="0.9298585653305054" id="master_svg0_755_10710"><stop offset="0%" stop-color="#ED78FF" stop-opacity="1"/><stop offset="100%" stop-color="#4417FF" stop-opacity="1"/></linearGradient></defs><g style="mix-blend-mode:passthrough"><g><g><path d="M4.69412,0L10.9529,0C13.5454,-4.86975e-16,15.6471,2.14903,15.6471,4.8L15.6471,9.2C15.6471,11.851,13.5454,14,10.9529,14L4.69412,14C2.10163,14,3.17488e-16,11.851,0,9.2L0,4.8C-3.17488e-16,2.14903,2.10163,4.86975e-16,4.69412,0Z" fill-rule="evenodd" fill="url(#master_svg0_755_10710)" fill-opacity="1"/></g><g><rect x="1.760253667831421" y="3.199902296066284" width="12.126465797424316" height="7.599998474121094" rx="3.799999237060547" fill="#FFFFFF" fill-opacity="1"/></g><g><rect x="4.69423770904541" y="5.199756145477295" width="1.564705729484558" height="3.5999999046325684" rx="0.782352864742279" fill="#724CFF" fill-opacity="1"/></g><g><rect x="9.388134956359863" y="5.199756145477295" width="1.564705729484558" height="3.5999999046325684" rx="0.782352864742279" fill="#724CFF" fill-opacity="1"/></g></g><g><g><path d="M24.49163,3.68051C25.603270000000002,3.68112,26.65933,4.17199,27.383470000000003,5.024649999999999L28.793390000000002,4.1145499999999995C27.34755,2.258454,24.89713,1.532422,22.68898,2.305882C20.48082,3.07934,19,5.18239,19,7.54492C19,9.90746,20.48082,12.0105,22.68898,12.784C24.89713,13.5574,27.34755,12.8314,28.793390000000002,10.97529L27.383470000000003,10.06519C26.23116,11.41496,24.31458,11.7917,22.74593,10.9768C21.17727,10.1619,20.36441,8.367239999999999,20.77904,6.63426C21.19367,4.90128,22.72799,3.68056,24.49163,3.68051Z" fill="#333333" fill-opacity="1"/></g><g><path d="M34.42492524139404,4.428248658676147C33.62009524139404,4.427578658676147,32.83499524139404,4.680068658676148,32.17848524139404,5.150728658676147L32.17848524139404,2.8404786586761475L30.516505241394043,2.8404786586761475L30.516505241394043,13.089578658676148L32.17848524139404,13.089578658676148L32.17848524139404,8.376678658676148C32.22096524139404,7.1541986586761475,33.21356524139404,6.185368658676147,34.423545241394045,6.185368658676147C35.63352524139404,6.185368658676147,36.62611524139405,7.1541986586761475,36.668595241394044,8.376678658676148L36.668595241394044,13.089578658676148L38.330575241394044,13.089578658676148L38.330575241394044,8.376678658676148C38.32752524139404,6.197298658676147,36.58069524139404,4.431338658676148,34.42492524139404,4.428248658676147Z" fill="#333333" fill-opacity="1"/></g><g><path d="M59.193648455810546,4.470508098602295C57.46357845581055,4.470508098602295,55.903919455810545,5.524238098602295,55.24211245581055,7.140228098602295C54.580302455810546,8.756218098602295,54.94671845581055,10.616118098602294,56.17045845581055,11.852458098602295C57.39418845581055,13.088798098602295,59.234188455810546,13.458018098602295,60.83223845581055,12.787918098602296C62.43028845581055,12.117818098602296,63.47159845581055,10.540388098602296,63.47047845581055,8.791378098602294C63.467418455810545,6.405208098602295,61.553958455810545,4.472050588602295,59.193648455810546,4.470508098602295ZM59.193648455810546,11.434858098602295C57.74950845581055,11.434858098602295,56.57879845581055,10.251328098602295,56.57879845581055,8.791378098602294C56.57879845581055,7.331418098602295,57.74950845581055,6.147888098602295,59.193648455810546,6.147888098602295C60.63778845581055,6.147888098602295,61.80849845581055,7.331418098602295,61.80849845581055,8.791378098602294C61.80849845581055,10.251328098602295,60.63778845581055,11.434858098602295,59.193648455810546,11.434858098602295Z" fill="#333333" fill-opacity="1"/></g><g><path d="M44.03949606628418,4.470539639002295C42.16704606628418,4.463355098602295,40.50766306628418,5.688348098602295,39.94443006628418,7.493658098602294C39.38119706628418,9.298958098602295,40.04508606628418,11.264748098602295,41.58279606628418,12.344898098602295C43.12050606628418,13.425038098602295,45.174446066284176,13.368358098602295,46.65156606628418,12.205008098602296L46.65156606628418,13.089898098602294L48.31354606628418,13.089898098602294L48.31354606628418,8.721428098602296C48.27426606628418,6.363108098602295,46.37259606628418,4.471764648602295,44.03949606628418,4.470539639002295ZM44.03949606628418,11.434918098602296C42.98163606628418,11.436058098602295,42.02731606628418,10.792708098602294,41.62171606628418,9.804998098602294C41.21611606628418,8.817288098602294,41.43914606628418,7.679818098602295,42.18676606628418,6.923198098602295C42.934386066284176,6.166588098602295,44.059296066284176,5.939908098602295,45.03673606628418,6.348908098602295C46.01418606628418,6.757908098602295,46.65156606628418,7.721988098602295,46.65156606628418,8.791438098602296C46.65156606628418,10.250298098602295,45.48255606628418,11.433378098602294,44.03949606628418,11.434918098602296Z" fill="#333333" fill-opacity="1"/></g><g><path d="M51.38789416381836,2.8404786586761475L49.72591516381836,2.8404786586761475L49.72591516381836,4.750288658676148L48.89492416381836,4.750288658676148L48.89492416381836,6.430468658676148L49.72591516381836,6.430468658676148L49.72591516381836,9.449188658676148C49.72591516381836,11.459718658676147,51.33811416381836,13.089578658676148,53.32687416381836,13.089578658676148L54.15785416381836,13.089578658676148L54.15785416381836,11.409398658676148L53.32687416381836,11.409398658676148C52.25600416381836,11.409398658676148,51.38789416381836,10.531778658676147,51.38789416381836,9.449188658676148L51.38789416381836,6.430468658676148L54.15785416381836,6.430468658676148L54.15785416381836,4.750288658676148L51.38789416381836,4.750288658676148L51.38789416381836,2.8404786586761475Z" fill="#333333" fill-opacity="1"/></g></g></g></svg>