<svg xmlns="http://www.w3.org/2000/svg" xmlns:xlink="http://www.w3.org/1999/xlink" fill="none" version="1.1" width="16" height="16" viewBox="0 0 16 16"><defs><clipPath id="master_svg0_3398_55065"><rect x="0" y="0" width="16" height="16" rx="0"/></clipPath></defs><g clip-path="url(#master_svg0_3398_55065)"><g><path d="M9.079684790039064,11.5356375C9.007814790039063,11.5356375,8.934374790039062,11.5294375,8.860934790039064,11.5184875C8.342184790039063,11.4356775,7.923434790039062,11.0731775,7.767184790039062,10.5716175L7.218754790039062,8.8059875L5.453126790039063,8.2575575C4.951563790039063,8.1013075,4.589063790039062,7.6825575,4.506251290039063,7.1638075C4.423438990039062,6.6450475,4.639063790039063,6.1341175,5.068751790039062,5.8309875L6.593754790039062,4.7528675L6.554684790039063,2.9138075C6.548434790039062,2.3888025,6.834374790039062,1.9138025,7.303124790039062,1.6747405C7.771874790039062,1.4356776,8.323434790039062,1.4825526,8.745314790039062,1.7966155L10.242184790039062,2.9138075L11.979684790039062,2.3091155C12.476564790039063,2.1403655,13.017184790039062,2.2669275,13.389064790039063,2.6372375C13.760934790039062,3.0091175,13.887504790039063,3.5481775,13.718754790039062,4.0466175L13.118754790039063,5.8153675L14.229684790039062,7.2809875C14.543784790039062,7.7028675,14.590584790039063,8.2544275,14.353124790039063,8.7231775C14.117184790039062,9.1856775,13.651564790039062,9.4716175,13.132814790039063,9.4716175L13.114064790039063,9.4716175L11.246874790039062,9.4481775L10.196874790039063,10.9575475C9.932814790039062,11.3247375,9.518754790039061,11.5356375,9.079684790039064,11.5356375ZM9.107814790039063,10.1544275L9.110934790039064,10.1544275L9.107814790039063,10.1544275ZM5.934374790039063,6.9356775L7.651564790039062,7.4700475C8.082814790039063,7.6044275,8.418754790039063,7.9403675,8.553124790039062,8.3716175L9.087504790039063,10.0887975L10.125004790039062,8.6200475C10.384374790039063,8.2512975,10.801564790039063,8.0403675,11.260934790039062,8.0403675L13.059374790039062,8.0637975L11.984374790039062,6.6231775C11.714064790039062,6.2622375,11.640624790039062,5.7903675,11.784374790039063,5.3637975L12.360944790039063,3.6606775L10.657814790039062,4.2372375C10.229684790039062,4.382547499999999,9.759374790039063,4.3075475,9.398444790039061,4.0372375L7.957814790039063,2.9622375L7.9812547900390625,4.7606775C7.987504790039063,5.2122375000000005,7.770314790039063,5.6356775,7.401564790039062,5.8966175L5.934374790039063,6.9356775Z" fill="#7C5CFC" fill-opacity="1"/></g><g><path d="M3.184382353515625,14.514065C2.754692353515625,14.514065,2.3265683535156247,14.351565,2.000006353515625,14.023435C1.346881353515625,13.370315,1.346881353515625,12.306255,2.000006353515625,11.653125L6.181252353515625,7.471875C6.454692353515625,7.1968751,6.900002353515625,7.1968751,7.175002353515625,7.471875C7.450002353515625,7.745313,7.450002353515625,8.190625,7.175002353515625,8.465625L2.992192353515625,12.646875C2.885942353515625,12.753125,2.885942353515625,12.925004999999999,2.992192353515625,13.031255C3.098442353515625,13.137505,3.270322353515625,13.135935,3.376572353515625,13.031255L7.593752353515625,8.814065C7.867192353515625,8.539065,8.312502353515626,8.539065,8.587502353515625,8.814065C8.862502353515625,9.087505,8.862502353515625,9.532815,8.587502353515625,9.807815L4.3687523535156245,14.025005C4.042192353515625,14.351565,3.612502353515625,14.514065,3.184382353515625,14.514065Z" fill="#7C5CFC" fill-opacity="1"/></g></g></svg>