<svg xmlns="http://www.w3.org/2000/svg" fill="none" width="14" height="15.455">
  <path d="M5.952.28a2.1 2.1 0 0 1 2.097 0l.001.001 4.9 2.8c.259.15.482.353.656.594a.698.698 0 0 1 .174.29c.144.29.22.608.22.933v5.601a2.098 2.098 0 0 1-1.05 1.817l-.003.001-4.897 2.799h-.001a2.1 2.1 0 0 1-.716.255.698.698 0 0 1-.666 0 2.1 2.1 0 0 1-.716-.255H5.95l-4.897-2.799-.003-.001A2.1 2.1 0 0 1 0 10.499V4.898a2.1 2.1 0 0 1 .22-.933.702.702 0 0 1 .174-.29 2.1 2.1 0 0 1 .656-.594l.003-.001L5.952.28ZM1.4 5.275v5.223a.7.7 0 0 0 .349.605h.001l4.55 2.6V8.11L1.4 5.275Zm6.3 2.834v5.594l4.55-2.6h.001a.7.7 0 0 0 .349-.605V5.275L7.7 8.109Zm4.173-4.03L7.35 1.493a.7.7 0 0 0-.7 0l-.003.001-4.52 2.583L7 6.897l4.873-2.819Z" fill-rule="evenodd" fill="currentColor"/>
</svg>