<svg xmlns="http://www.w3.org/2000/svg" viewBox="0 0 32 32" fill="none">
  <defs>
    <clipPath id="a">
      <rect width="32" height="32" rx="0"/>
    </clipPath>
  </defs>
  <g fill="currentColor" clip-path="url(#a)">
    <path d="m12.286 12 9.285 7-9.285 7V12ZM27.7 7.2c-.557-1-1.486-2-2.414-3.2-.929-1-2.043-2-2.972-2.8-1.485-1-2.228-1.2-2.6-1.2H5.23C4.114 0 3 1.2 3 2.6v27C3 30.8 4.114 32 5.229 32h21.357c1.3 0 2.414-1.2 2.414-2.6V10c0-.4-.186-1.2-1.3-2.8Zm-3.714-1.8c.928 1 1.671 1.8 2.043 2.6H21.57V3.2c.743.6 1.486 1.2 2.415 2.2Zm3.157 24.2c0 .2-.186.6-.557.6H5.229c-.186-.2-.372-.4-.372-.6v-27c0-.4.186-.6.372-.6h14.485v7c0 .6.372 1 .929 1h6.5v19.6Z"/>
    <path fill-rule="evenodd" d="M29.2 29.4V10q0-.994-1.33-2.906-.399-.71-1.59-2.172-.554-.68-.836-1.044l-.006-.008-.006-.006q-1.121-1.208-2.987-2.816l-.01-.007-.009-.007Q20.593-.2 19.714-.2H5.23q-.941 0-1.683.843Q2.8 1.49 2.8 2.6v27q0 .978.75 1.786.756.814 1.679.814h21.357q1.062 0 1.84-.839.774-.832.774-1.961ZM27.536 7.314Q28.8 9.13 28.8 10v19.4q0 .972-.666 1.689-.66.711-1.548.711H5.229q-.749 0-1.386-.686Q3.2 30.422 3.2 29.6v-27q0-.958.647-1.693Q4.469.2 5.229.2h14.485q.754 0 2.479 1.16 1.837 1.583 2.94 2.77.285.367.837 1.044 1.177 1.444 1.555 2.123l.005.01.006.007ZM27.343 29.6V9.8h-6.7q-.729 0-.729-.8V1.8H5.23q-.256 0-.42.236-.152.218-.152.564v27q0 .278.425.736l.06.064h21.444q.351 0 .578-.306.179-.24.179-.494Zm-.4-19.4v19.4q0 .121-.1.256-.107.144-.257.144H5.316q-.259-.29-.259-.4v-27q0-.4.172-.4h14.285V9q0 .529.31.861.314.339.819.339h6.3Zm-2.81-4.936q-.94-1.01-2.436-2.22l-.326-.263V8.2h4.97l-.131-.284q-.385-.829-2.078-2.652ZM21.77 3.622V7.8h3.921q-.477-.782-1.853-2.264-.815-.878-2.068-1.914Zm-9.685 7.977V26.4L21.904 19l-9.818-7.401Zm.4 14L21.239 19l-8.753-6.599V25.6Z"/>
  </g>
</svg>