<svg xmlns="http://www.w3.org/2000/svg" viewBox="0 0 32 32" fill="none">
  <defs>
    <clipPath id="a">
      <rect width="32" height="32" rx="0"/>
    </clipPath>
  </defs>
  <g clip-path="url(#a)">
    <path fill="currentColor" d="M24.277 6.53H22.68V5.357C22.68 3.507 21.164 2 19.302 2h-6.604A3.382 3.382 0 0 0 9.32 5.379v1.15H7.723A4.728 4.728 0 0 0 3 11.252v13.395a4.728 4.728 0 0 0 4.723 4.723h16.554A4.728 4.728 0 0 0 29 24.647V11.252a4.728 4.728 0 0 0-4.723-4.723Zm-12.97-1.151c0-.768.624-1.392 1.39-1.392h6.605c.78 0 1.391.602 1.391 1.371V6.53h-9.386V5.38Zm15.707 19.268a2.74 2.74 0 0 1-2.737 2.737H7.723a2.74 2.74 0 0 1-2.737-2.737V11.252a2.74 2.74 0 0 1 2.737-2.736h16.554a2.74 2.74 0 0 1 2.737 2.736v13.395Zm-6.735-8.928H18.23V13.67c0-.6-.492-1.092-1.093-1.092h-2.276c-.6 0-1.092.492-1.092 1.092v2.049H11.72c-.6 0-1.092.492-1.092 1.093v2.275c0 .602.491 1.093 1.092 1.093h2.049v2.049c0 .6.491 1.092 1.092 1.092h2.276c.601 0 1.093-.492 1.093-1.092V20.18h2.048c.6 0 1.093-.491 1.093-1.093v-2.275c0-.601-.492-1.093-1.093-1.093Z"/>
  </g>
</svg>