<svg xmlns="http://www.w3.org/2000/svg" fill="none" viewBox="0 0 28 28">
  <defs>
    <clipPath id="a">
      <rect width="28" height="28" rx="0"/>
    </clipPath>
  </defs>
  <g clip-path="url(#a)">
    <path d="M11.735 13.374H6.64C5.745 13.374 5 12.212 5 11.318V6.639C5 5.745 5.745 5 6.64 5h5.095c.894 0 1.64.745 1.64 1.64v5.065c0 .924-.746 1.67-1.64 1.67Zm.388-6.347a.738.738 0 0 0-.746-.746h-4.41a.732.732 0 0 0-.715.746v4.41c0 .417.327.745.745.745h4.41a.738.738 0 0 0 .745-.745v-4.41h-.03Zm9.238 6.347h-5.096c-.894 0-1.64-1.162-1.64-2.056V6.639c0-.894.746-1.639 1.64-1.639h5.096C22.255 5 23 5.745 23 6.64v5.065c0 .924-.715 1.67-1.64 1.67Zm.387-6.347a.738.738 0 0 0-.745-.746h-4.38a.738.738 0 0 0-.746.746v4.41c0 .417.328.745.746.745h4.41a.738.738 0 0 0 .745-.745v-4.41h-.03ZM21.361 23h-5.096c-.894 0-1.64-1.162-1.64-2.056v-4.65c0-.893.746-1.639 1.64-1.639h5.096c.894 0 1.639.746 1.639 1.64v5.066c0 .894-.715 1.639-1.64 1.639Zm.387-6.348a.738.738 0 0 0-.745-.745h-4.38a.738.738 0 0 0-.746.745v4.41c0 .418.328.746.746.746h4.41a.738.738 0 0 0 .745-.745v-4.41h-.03ZM11.735 23H6.64C5.745 23 5 21.838 5 20.944v-4.65c0-.893.745-1.639 1.64-1.639h5.095c.894 0 1.64.746 1.64 1.64v5.066c0 .894-.746 1.639-1.64 1.639Zm.388-6.348a.738.738 0 0 0-.746-.745h-4.41a.738.738 0 0 0-.745.745v4.41c0 .418.328.746.745.746h4.41a.738.738 0 0 0 .746-.745v-4.41Z" fill="currentColor"/>
  </g>
</svg>