<svg xmlns="http://www.w3.org/2000/svg" viewBox="0 0 16 16" fill="none">
  <defs>
    <clipPath id="a">
      <rect width="16" height="16" rx="0"/>
    </clipPath>
  </defs>
  <g clip-path="url(#a)">
    <path fill="currentColor" d="M8 3q-.074 0-.147-.007t-.146-.022q-.072-.014-.142-.036-.07-.021-.139-.05-.068-.027-.133-.062t-.126-.076q-.062-.04-.119-.087-.057-.047-.109-.1-.052-.051-.099-.108-.046-.057-.087-.119-.041-.06-.076-.126-.035-.065-.063-.133-.028-.068-.05-.139-.02-.07-.035-.142-.015-.073-.022-.146Q6.5 1.574 6.5 1.5t.007-.147q.007-.073.022-.146.014-.072.036-.142.021-.07.05-.139.027-.068.062-.133t.076-.126q.04-.062.087-.119.047-.057.1-.109.051-.052.108-.099.057-.046.119-.087.06-.041.126-.076.065-.035.133-.063.068-.028.139-.05.07-.02.142-.035.073-.015.146-.022Q7.926 0 8 0t.147.007q.073.007.146.022.072.014.142.036.07.021.139.05.068.027.133.062t.126.076q.062.04.119.087.057.047.109.1.052.051.099.108.046.057.087.119.041.06.076.126.035.065.063.133.028.068.05.139.02.07.035.142.015.073.022.146.007.073.007.147t-.007.147q-.007.073-.022.146-.014.072-.036.142-.021.07-.05.139-.027.068-.062.133t-.076.126q-.04.062-.087.119-.047.057-.1.109-.051.052-.108.099-.057.046-.119.087-.06.041-.126.076-.065.035-.133.063-.068.028-.139.05-.07.02-.142.035-.073.015-.146.022Q8.074 3 8 3Zm0 7q-.074 0-.147-.007t-.146-.022q-.072-.014-.142-.036-.07-.021-.139-.05-.068-.027-.133-.062t-.126-.076q-.062-.04-.119-.087-.057-.047-.109-.1-.052-.051-.099-.108-.046-.057-.087-.119-.041-.06-.076-.126-.035-.065-.063-.133-.028-.068-.05-.139-.02-.07-.035-.142-.015-.073-.022-.146Q6.5 8.574 6.5 8.5t.007-.147q.007-.073.022-.146.014-.072.036-.142.021-.07.05-.139.027-.068.062-.133t.076-.126q.04-.062.087-.119.047-.057.1-.109.051-.052.108-.099.057-.046.119-.087.06-.041.126-.076.065-.035.133-.063.068-.028.139-.05.07-.02.142-.035.073-.015.146-.022Q7.926 7 8 7t.147.007q.073.007.146.022.072.014.142.036.07.021.139.05.068.027.133.062t.126.076q.062.04.119.087.057.047.109.1.052.051.099.108.046.057.087.119.041.06.076.126.035.065.063.133.028.068.05.139.02.07.035.142.015.073.022.146.007.073.007.147t-.007.147q-.007.073-.022.146-.014.072-.036.142-.021.07-.05.139-.027.068-.062.133t-.076.126q-.04.062-.087.119-.047.057-.1.109-.051.052-.108.099-.057.046-.119.087-.06.041-.126.076-.065.035-.133.063-.068.028-.139.05-.07.02-.142.035-.073.015-.146.022Q8.074 10 8 10Zm0 6q-.074 0-.147-.007t-.146-.022q-.072-.014-.142-.036-.07-.021-.139-.05-.068-.027-.133-.062t-.126-.076q-.062-.04-.119-.087-.057-.047-.109-.1-.052-.051-.099-.108-.046-.057-.087-.119-.041-.06-.076-.126-.035-.065-.063-.133-.028-.068-.05-.139-.02-.07-.035-.142-.015-.073-.022-.146-.007-.073-.007-.147t.007-.147q.007-.073.022-.146.014-.072.036-.142.021-.07.05-.139.027-.068.062-.133t.076-.126q.04-.062.087-.119.047-.057.1-.109.051-.052.108-.099.057-.046.119-.087.06-.041.126-.076.065-.035.133-.063.068-.028.139-.05.07-.02.142-.035.073-.015.146-.022Q7.926 13 8 13t.147.007q.073.007.146.022.072.014.142.036.07.021.139.05.068.027.133.062t.126.076q.062.04.119.087.057.047.109.1.052.051.099.108.046.057.087.119.041.06.076.126.035.065.063.133.028.068.05.139.02.07.035.142.015.073.022.146.007.073.007.147t-.007.147q-.007.073-.022.146-.014.072-.036.142-.021.07-.05.139-.027.068-.062.133t-.076.126q-.04.062-.087.119-.047.057-.1.109-.051.052-.108.099-.057.046-.119.087-.06.041-.126.076-.065.035-.133.063-.068.028-.139.05-.07.02-.142.035-.073.015-.146.022Q8.074 16 8 16Z"/>
  </g>
</svg>