<svg xmlns="http://www.w3.org/2000/svg" viewBox="0 0 20 20" fill="none">
  <path fill="currentColor" d="m11.599 4.42-.38.38.024.024.027.02.329-.424Zm-6.08 1.073.51.168.006-.019.004-.019-.52-.13Zm-1.717 5.222.506.18.002-.006.002-.007-.51-.167Zm4.936 2.717.53.083v-.007l-.53-.076Zm-.358 2.29.524.116.003-.017.003-.017-.53-.083Zm.93 1.573.188-.502-.01-.004-.009-.003-.17.509Zm1.573-.5-.445-.3-.001.002.446.297Zm3.261-11.082-2.217-1.717-.657.848 2.217 1.717.657-.848ZM11.978 4.04c-.238-.238-.575-.377-.858-.458a3.33 3.33 0 0 0-.88-.128v1.073c.162 0 .381.028.585.086.218.062.347.138.394.186l.759-.759Zm-1.738-.586H7.522v1.073h2.718V3.455Zm-2.718 0c-.558 0-1.114.206-1.56.532-.446.327-.82.802-.963 1.376l1.04.26c.071-.284.27-.56.557-.77a1.62 1.62 0 0 1 .926-.325V3.455Zm-2.513 1.87-1.716 5.222 1.019.335 1.717-5.221-1.02-.335Zm-1.712 5.21c-.232.648-.152 1.303.217 1.803.365.496.966.773 1.647.773v-1.073c-.39 0-.649-.153-.784-.336-.132-.18-.195-.455-.07-.807l-1.01-.36Zm1.864 2.576h2.861v-1.073h-2.86v1.073Zm2.861 0c.065 0 .114.026.143.06.027.029.056.085.042.186l1.062.151c.119-.833-.5-1.47-1.247-1.47v1.073Zm.186.239-.358 2.288 1.06.166.358-2.289-1.06-.165Zm-.352 2.255c-.207.931.399 1.904 1.284 2.199l.34-1.018c-.403-.134-.656-.592-.576-.948l-1.048-.233Zm1.265 2.192c.427.16.88.126 1.257-.004.373-.128.73-.37.952-.701l-.893-.595a.82.82 0 0 1-.408.282.8.8 0 0 1-.53.014l-.378 1.004Zm2.208-.704 2.932-4.363-.89-.598-2.933 4.363.89.598Z"/>
  <path fill="currentColor" d="M16.927 6.137v7.01H18v-7.01h-1.073Zm0 7.01c0 .44-.096.595-.167.66-.081.075-.267.162-.727.162v1.073c.542 0 1.07-.092 1.455-.446.394-.364.512-.889.512-1.45h-1.073Zm-.894.822h-.715v1.073h.715v-1.073Zm-.715 0c-.46 0-.646-.087-.727-.162-.07-.065-.167-.22-.167-.66H13.35c0 .56.118 1.085.512 1.449.384.354.913.446 1.455.446v-1.073Zm-.894-.823v-7.01H13.35v7.01h1.073Zm0-7.01c0-.44.096-.595.167-.66.081-.075.267-.162.727-.162V4.242c-.542 0-1.071.092-1.455.446-.394.364-.512.888-.512 1.449h1.073Zm.894-.822h.715V4.242h-.715v1.072Zm.715 0c.46 0 .646.087.727.162.07.065.167.22.167.66H18c0-.56-.118-1.084-.512-1.448-.384-.354-.913-.446-1.455-.446v1.072Z"/>
</svg>