<svg xmlns="http://www.w3.org/2000/svg" fill="none" width="16.777" height="16.576" viewBox="0 0 16.776 16.576">
  <path d="m10.065 2.437-.398.398.025.025.029.022.344-.445ZM3.69 3.562l.534.176.007-.02.005-.02-.546-.136Zm-1.8 5.475.53.19.002-.007.002-.007-.534-.176Zm5.175 2.85.556.087v-.007l-.556-.08Zm-.375 2.4.55.122.003-.017.003-.018-.556-.087Zm.975 1.65.197-.526-.01-.004-.01-.003-.177.533Zm1.65-.525-.467-.313-.001.001.468.312Zm3.42-11.62-2.326-1.8-.688.89 2.325 1.8.688-.89ZM10.462 2.04c-.25-.25-.603-.396-.9-.48a3.493 3.493 0 0 0-.923-.135V2.55c.17 0 .4.03.614.09.228.066.363.145.413.195l.796-.795ZM8.64 1.425H5.79V2.55h2.85V1.425Zm-2.85 0c-.585 0-1.168.216-1.635.559-.468.342-.86.84-1.01 1.442l1.09.273c.075-.298.283-.587.584-.808.301-.22.656-.341.97-.341V1.425ZM3.156 3.387l-1.8 5.475 1.068.351 1.8-5.475-1.068-.351ZM1.36 8.848c-.243.68-.159 1.368.227 1.892.383.52 1.013.81 1.728.81v-1.125c-.41 0-.68-.16-.822-.352-.14-.19-.205-.477-.073-.846l-1.06-.379Zm1.955 2.702h3v-1.125h-3v1.125Zm3 0c.067 0 .119.027.15.063.027.03.058.089.043.195l1.114.16c.125-.874-.525-1.543-1.307-1.543v1.125Zm.194.25-.375 2.4 1.112.174.375-2.4-1.112-.173Zm-.368 2.365c-.217.977.418 1.997 1.346 2.306l.356-1.067c-.422-.14-.687-.621-.604-.995l-1.098-.244Zm1.326 2.3c.448.167.923.13 1.318-.005.392-.134.766-.388.998-.736l-.936-.624a.86.86 0 0 1-.427.296.841.841 0 0 1-.558.015l-.395 1.053Zm2.315-.739 3.075-4.575-.934-.627-3.075 4.575.934.627Z" fill="currentColor"/>
  <path d="M15.652 4.237v7.35h1.125v-7.35h-1.125Zm0 7.35c0 .462-.1.625-.175.693-.085.079-.28.17-.762.17v1.125c.568 0 1.123-.096 1.525-.468.414-.382.537-.931.537-1.52h-1.125Zm-.937.863h-.75v1.125h.75V12.45Zm-.75 0c-.482 0-.677-.091-.762-.17-.074-.068-.176-.23-.176-.692h-1.125c0 .588.124 1.137.538 1.52.402.37.957.467 1.525.467V12.45Zm-.938-.862v-7.35h-1.125v7.35h1.125Zm0-7.35c0-.462.102-.625.176-.693.085-.079.28-.17.762-.17V2.25c-.568 0-1.123.096-1.525.468-.414.382-.538.931-.538 1.52h1.125Zm.938-.863h.75V2.25h-.75v1.125Zm.75 0c.482 0 .677.091.762.17.074.068.175.23.175.692h1.125c0-.588-.123-1.137-.537-1.52-.402-.37-.957-.467-1.525-.467v1.125Z" fill="currentColor"/>
</svg>