<svg xmlns="http://www.w3.org/2000/svg" viewBox="0 0 16 16" fill="none">
  <defs>
    <clipPath id="a">
      <rect width="16" height="16" rx="0"/>
    </clipPath>
  </defs>
  <g clip-path="url(#a)">
    <path fill="currentColor" d="m9.599 2.353-.38.384.024.024.027.021.329-.43Zm-6.08 1.086.51.17.006-.02.004-.019-.52-.131ZM1.802 8.723l.506.183.002-.007.002-.006-.51-.17Zm4.936 2.751.53.084v-.007l-.53-.077Zm-.358 2.317.524.117.003-.016.003-.018-.53-.083Zm.93 1.592.188-.508-.01-.004-.009-.003-.17.515Zm1.573-.507-.445-.302-.001.001.446.301Zm3.261-11.215L9.927 1.923l-.657.859 2.217 1.737.657-.858ZM9.978 1.969c-.238-.242-.575-.382-.858-.464a3.294 3.294 0 0 0-.88-.13v1.086c.162 0 .381.029.585.088.218.063.347.14.394.188l.759-.768ZM8.24 1.375H5.522v1.086H8.24V1.375Zm-2.718 0c-.558 0-1.114.21-1.56.54-.446.33-.82.81-.963 1.392l1.04.263c.071-.287.27-.567.557-.78.287-.212.625-.329.926-.329V1.375ZM3.009 3.27 1.293 8.554l1.019.339 1.717-5.285-1.02-.339ZM1.297 8.541c-.232.656-.152 1.32.217 1.825.365.503.966.782 1.647.782v-1.086c-.39 0-.649-.154-.784-.34-.132-.182-.195-.46-.07-.816l-1.01-.365Zm1.864 2.607h2.861v-1.086h-2.86v1.086Zm2.861 0c.065 0 .114.027.144.06.026.03.055.087.04.19l1.063.153c.119-.843-.5-1.489-1.247-1.489v1.086Zm.186.242-.358 2.317 1.06.167.358-2.316-1.06-.168Zm-.352 2.283c-.207.942.399 1.927 1.284 2.225l.34-1.03c-.403-.136-.655-.6-.576-.96l-1.048-.235Zm1.265 2.219c.428.162.88.127 1.257-.004.374-.13.73-.375.952-.71l-.893-.603a.821.821 0 0 1-.407.286.792.792 0 0 1-.532.014l-.377 1.017Zm2.208-.713 2.932-4.416-.89-.605-2.933 4.416.89.605Z"/>
    <path fill="currentColor" d="M14.927 4.09v7.094H16V4.09h-1.073Zm0 7.094c0 .446-.096.603-.167.67-.081.075-.267.163-.727.163v1.086c.542 0 1.07-.093 1.455-.452.394-.368.512-.899.512-1.467h-1.073Zm-.894.833h-.715v1.086h.715v-1.086Zm-.715 0c-.46 0-.646-.088-.727-.164-.07-.066-.167-.223-.167-.669H11.35c0 .568.118 1.099.512 1.467.384.359.913.452 1.455.452v-1.086Zm-.894-.833V4.09H11.35v7.094h1.073Zm0-7.094c0-.445.096-.603.167-.669.081-.076.267-.163.727-.163V2.172c-.542 0-1.071.093-1.455.451-.394.369-.512.9-.512 1.467h1.073Zm.894-.832h.715V2.172h-.715v1.086Zm.715 0c.46 0 .646.087.727.163.07.066.167.224.167.67H16c0-.569-.118-1.1-.512-1.468-.384-.358-.913-.451-1.455-.451v1.086Z"/>
  </g>
</svg>