<svg xmlns="http://www.w3.org/2000/svg" xmlns:xlink="http://www.w3.org/1999/xlink" fill="currentColor" version="1.1" width="20" height="20" viewBox="0 0 20 20"><g style="mix-blend-mode:passthrough"><g style="mix-blend-mode:passthrough"><g style="mix-blend-mode:passthrough" transform="matrix(-1,0,0,-1,40,40)"><g style="mix-blend-mode:passthrough"><path d="M26.99169921875,35.40761875C26.99169921875,35.40761875,26.99169921875,26.94094875,26.99169921875,26.94094875C26.99169921875,26.60761875,27.09169841875,26.28261875,27.27503121875,26.00761875C27.27503121875,26.00761875,29.55002921875,22.62428775,29.55002921875,22.62428775C29.90836921875,22.08262075,30.80002921875,21.69928775,31.558369218750002,21.98262095C32.37502921875,22.25762075,32.91669921875,23.17428875,32.74169921875,23.99094875C32.74169921875,23.99094875,32.30836921875,26.71594875,32.30836921875,26.71594875C32.27502921875,26.96594875,32.34169921875,27.19094875,32.48336921875,27.36594875C32.62502921875,27.52428875,32.83336921875,27.624288749999998,33.05836921875,27.624288749999998C33.05836921875,27.624288749999998,36.48336921875,27.624288749999998,36.48336921875,27.624288749999998C37.14169921875,27.624288749999998,37.70839921875,27.89094875,38.04169921875,28.35761875C38.35839921875,28.80761875,38.41669921875,29.39094875,38.20839921875,29.98261875C38.20839921875,29.98261875,36.158369218749996,36.22431875,36.158369218749996,36.22431875C35.90002921875,37.25761875,34.77502921875,38.099318749999995,33.658369218749996,38.099318749999995C33.658369218749996,38.099318749999995,30.40836921875,38.099318749999995,30.40836921875,38.099318749999995C29.85002921875,38.099318749999995,29.06669921875,37.90761875,28.70836921875,37.54931875C28.70836921875,37.54931875,27.64169921875,36.72431875,27.64169921875,36.72431875C27.23336621875,36.41591875,26.99169921875,35.92431875,26.99169921875,35.40761875C26.99169921875,35.40761875,26.99169921875,35.40761875,26.99169921875,35.40761875Z" fill="currentColor" fill-opacity="1"/></g><g style="mix-blend-mode:passthrough"><path d="M24.34150390625,25.31640625C24.34150390625,25.31640625,23.48317390625,25.31640625,23.48317390625,25.31640625C22.19150390625,25.31640625,21.66650390625,25.81640625,21.66650390625,27.04973625C21.66650390625,27.04973625,21.66650390625,35.43310625,21.66650390625,35.43310625C21.66650390625,36.66640625,22.19150390625,37.16640625,23.48317390625,37.16640625C23.48317390625,37.16640625,24.34150390625,37.16640625,24.34150390625,37.16640625C25.63317390625,37.16640625,26.15817390625,36.66640625,26.15817390625,35.43310625C26.15817390625,35.43310625,26.15817390625,27.04973625,26.15817390625,27.04973625C26.15817390625,25.81640625,25.63317390625,25.31640625,24.34150390625,25.31640625C24.34150390625,25.31640625,24.34150390625,25.31640625,24.34150390625,25.31640625Z" fill="currentColor" fill-opacity="1"/></g><g style="opacity:0;mix-blend-mode:passthrough" transform="matrix(-1,-1.2246469849340659e-16,1.2246469849340659e-16,-1,80,80)"></g></g></g></g></svg>
