<svg xmlns="http://www.w3.org/2000/svg" xmlns:xlink="http://www.w3.org/1999/xlink" fill="none" version="1.1" width="14.545454025268555" height="13.090909957885742" viewBox="0 0 14.545454025268555 13.090909957885742"><g><path d="M13.4545,8.59855C13.4539,9.07105,13.0711,9.45394,12.5985,9.45455L1.94691,9.45455C1.4744,9.45395,1.09151,9.07105,1.09091,8.59855L1.09091,1.94727C1.09151,1.47471,1.47434,1.09171,1.94691,1.09091L12.5985,1.09091C13.0711,1.09171,13.4539,1.47471,13.4545,1.94727L13.4545,8.59855ZM12.5985,0L1.94691,0C0.8721,0.00140262,0.00120163,0.872464,0,1.94727L0,8.59855C0.00120175,9.6733,0.872159,10.5443,1.94691,10.5455L6.72727,10.5455L6.72727,12L4,12C3.69875,12,3.45455,12.2442,3.45455,12.5455C3.45455,12.8467,3.69875,13.0909,4,13.0909L10.5455,13.0909C10.8467,13.0909,11.0909,12.8467,11.0909,12.5455C11.0909,12.2442,10.8467,12,10.5455,12L7.81818,12L7.81818,10.5455L12.5985,10.5455C13.6733,10.5443,14.5443,9.6733,14.5455,8.59855L14.5455,1.94727C14.5443,0.872464,13.6734,0.00140262,12.5985,0Z" fill="#596780" fill-opacity="1"/></g></svg>