<svg xmlns="http://www.w3.org/2000/svg" viewBox="0 0 20 20" fill="none">
  <defs>
    <clipPath id="a">
      <rect width="20" height="20" rx="0"/>
    </clipPath>
  </defs>
  <g fill="currentColor" clip-path="url(#a)">
    <path d="M14.517 18.402c-.3 0-.58-.047-.834-.14-.325-.086-3.1-.916-6.863-4.68-3.648-3.646-4.563-6.517-4.663-6.854-.17-.428-.204-.95-.094-1.468.11-.52.356-.99.69-1.325l1.419-1.419A1.709 1.709 0 0 1 5.382 2c.517 0 1.005.247 1.339.677l2.078 2.679c.35.451.391 1.188.097 1.679l-1.014 1.68c.095.318.426 1.105 1.538 2.284 1.236 1.171 2.005 1.462 2.258 1.529l1.69-1.02a1.47 1.47 0 0 1 .75-.193c.35 0 .688.104.926.289l2.68 2.08c.404.313.642.752.673 1.236.03.483-.152.95-.513 1.31l-1.417 1.417c-.464.466-1.211.755-1.95.755ZM5.38 2.895a.824.824 0 0 0-.576.253L3.387 4.565c-.435.435-.62 1.296-.392 1.843l.002.002.016.047v.004c.007.028.83 2.877 4.439 6.486 3.726 3.725 6.446 4.444 6.473 4.451l.006.002.043.013.002.001c.155.06.343.09.541.09.502 0 1.02-.192 1.318-.49l1.417-1.417a.804.804 0 0 0 .253-.621.81.81 0 0 0-.329-.585l-2.678-2.08a.644.644 0 0 0-.376-.105.572.572 0 0 0-.29.067l-1.943 1.172-.126-.002c-.11-.002-1.125-.061-2.973-1.812l-.004-.004C7.11 9.857 6.97 8.793 6.959 8.677l-.013-.146L8.13 6.572c.108-.178.088-.501-.038-.666l-2.08-2.68a.795.795 0 0 0-.631-.33Z"/>
    <path fill-rule="evenodd" d="m16.608 17.789 1.417-1.417q.625-.625.571-1.465-.053-.84-.75-1.382l-2.68-2.08q-.427-.33-1.048-.33-.487 0-.854.222l-1.615.974q-.825-.258-2.088-1.454Q8.403 9.628 8.1 8.741l.968-1.604q.252-.421.22-.968-.03-.549-.331-.936L6.879 2.554Q6.292 1.8 5.38 1.8q-.776 0-1.35.575L2.61 3.794q-.56.56-.743 1.425-.182.855.1 1.574.274.927 1.016 2.22 1.368 2.385 3.695 4.71 2.399 2.4 4.762 3.752 1.295.74 2.182.979.412.148.894.148 1.281 0 2.091-.813Zm1.135-1.7-1.418 1.417q-.693.696-1.808.696-.417 0-.765-.127l-.009-.003-.008-.002q-.839-.224-2.095-.942-2.317-1.325-4.678-3.687-2.29-2.288-3.63-4.626-.723-1.26-.983-2.144l-.002-.008-.004-.009q-.242-.61-.084-1.352.159-.749.635-1.225l1.42-1.42Q4.77 2.2 5.38 2.2q.716 0 1.182.6L8.64 5.478q.224.29.248.714.025.424-.165.74l-1.06 1.756.026.085q.303 1.005 1.584 2.363l.004.004.004.004q1.402 1.328 2.345 1.577l.082.022 1.762-1.064q.271-.164.647-.164.484 0 .804.247l2.679 2.08q.554.43.596 1.09.042.66-.454 1.157ZM6.17 3.104q-.315-.409-.79-.409-.403 0-.717.31L3.245 4.425q-.368.368-.498.98-.131.614.063 1.081l.005.011.003.009.001.004q.168.672.889 1.95 1.325 2.352 3.603 4.629 2.346 2.347 4.66 3.65 1.166.656 1.897.852h.003l.027.009.006.002q.27.104.613.104.91 0 1.46-.55l1.417-1.417q.339-.34.31-.775-.028-.436-.405-.73l-2.679-2.08q-.187-.147-.498-.147-.239 0-.395.097l-1.892 1.141-.07-.001q-.269-.004-.752-.231-.94-.442-2.084-1.525-1.036-1.095-1.501-2.043-.243-.495-.27-.785l-.007-.08 1.15-1.903q.112-.187.097-.454-.016-.265-.149-.438l-2.08-2.68Zm-.79-.009q.278 0 .473.253l2.08 2.68q.163.213.025.441L6.742 8.483l.018.213q.034.364.309.924.492 1.004 1.572 2.144l.002.002.007.008.002.002q1.192 1.129 2.191 1.598.561.263.917.269l.183.003 1.993-1.202q.06-.038.186-.038.173 0 .253.063l2.678 2.08q.236.183.252.44.017.255-.194.466l-1.417 1.417q-.433.433-1.177.433-.244 0-.431-.064l-.007-.006-.089-.026-.007-.003-.006-.001q-.684-.182-1.81-.816-2.266-1.276-4.574-3.584-2.238-2.238-3.537-4.542-.681-1.209-.843-1.828v-.012l-.042-.122-.005-.005q-.128-.341-.028-.81.105-.495.39-.78L4.944 3.29q.197-.195.436-.195Z"/>
  </g>
</svg>