<svg xmlns="http://www.w3.org/2000/svg" viewBox="0 0 22 22" fill="none">
  <path fill="currentColor" d="M18.688 15.686a1.068 1.068 0 0 1 0 1.509l-.754.754c-.558.558-1.291.897-2.18 1.01a5.29 5.29 0 0 1-.665.04c-.647 0-1.345-.109-2.084-.326-2.005-.59-4.114-1.919-5.937-3.742C5.246 13.108 3.916 11 3.326 8.994c-.293-1-.39-1.924-.285-2.748.112-.889.452-1.622 1.01-2.18l.754-.754a1.068 1.068 0 0 1 1.509 0l3.32 3.32a1.068 1.068 0 0 1 0 1.509l-.755.754c-.427.427-.002 1.809 1.207 3.018 1.21 1.21 2.591 1.635 3.018 1.207l.755-.754a1.068 1.068 0 0 1 1.51 0l3.319 3.32Z"/>
</svg>
