<svg xmlns="http://www.w3.org/2000/svg" viewBox="0 0 32 32" fill="none">
  <defs>
    <clipPath id="a">
      <rect width="32" height="32" rx="0"/>
    </clipPath>
    <clipPath id="b">
      <rect width="16" height="14" x="13" y="14" rx="0"/>
    </clipPath>
  </defs>
  <g clip-path="url(#a)">
    <path fill="currentColor" fill-rule="evenodd" d="M24.1 9v3.333q0 .089.017.176.018.087.052.169.033.082.083.155.049.074.112.137.062.062.136.112.074.049.156.083t.168.051q.087.017.176.017t.176-.017q.087-.017.168-.051.082-.034.156-.083.074-.05.136-.112.063-.063.112-.137.05-.073.083-.155.034-.082.052-.17.017-.086.017-.175V9q0-2.03-1.435-3.465T21 4.1H11q-2.03 0-3.465 1.435T6.1 9v14q0 2.03 1.435 3.465T11 27.9h4q.089 0 .176-.017.087-.018.168-.052.082-.033.156-.083.074-.049.136-.112.063-.062.112-.136.05-.074.083-.156.034-.082.052-.168.017-.087.017-.176t-.017-.176q-.018-.087-.052-.168-.033-.082-.083-.156-.049-.074-.112-.136-.062-.063-.136-.112-.074-.05-.156-.083-.081-.034-.168-.052-.087-.017-.176-.017h-4q-1.284 0-2.192-.908Q7.9 24.284 7.9 23V9q0-1.284.908-2.192Q9.716 5.9 11 5.9h10q1.284 0 2.192.908.908.908.908 2.192Z"/>
    <g fill="currentColor" clip-path="url(#b)">
      <path fill-rule="evenodd" d="M13.667 20.763c1 3.134 3.933 5.267 7.333 5.267a7.751 7.751 0 0 0 7.333-5.267q.1-.2 0-.4c-1-3.133-3.933-5.266-7.333-5.266a7.751 7.751 0 0 0-7.333 5.266.425.425 0 0 0 0 .4ZM21 24.697c-2.733 0-5.067-1.667-5.933-4.134.866-2.466 3.266-4.133 5.933-4.133 2.733 0 5.067 1.667 5.933 4.133-.866 2.467-3.266 4.134-5.933 4.134Zm-2.533-4.067a2.532 2.532 0 1 0 5.067 0c0-1.4-1.134-2.533-2.534-2.533a2.532 2.532 0 0 0-2.533 2.533Zm1.333 0c0-.733.533-1.2 1.2-1.2.667 0 1.2.533 1.2 1.2 0 .667-.533 1.2-1.2 1.2-.733 0-1.2-.467-1.2-1.2Z"/>
      <path d="M13.762 20.733q.742 2.325 2.73 3.758Q18.489 25.93 21 25.93q2.461 0 4.458-1.44 1.989-1.433 2.78-3.759l.003-.006.003-.006q.078-.156 0-.31l-.004-.008-.002-.007q-.742-2.325-2.73-3.758-1.997-1.44-4.508-1.44-2.461 0-4.458 1.44-1.989 1.433-2.78 3.76l-.003.006-.003.006q-.078.155 0 .31l.004.008.002.007Zm-.19.06.095-.03-.09.045q-.122-.245 0-.49l.09.045-.095-.032q.812-2.386 2.853-3.857 2.05-1.477 4.575-1.477 2.576 0 4.625 1.477 2.042 1.471 2.804 3.859l-.096.03.09-.044q.122.244 0 .49l-.09-.046.095.033q-.812 2.386-2.853 3.857Q23.525 26.13 21 26.13q-2.576 0-4.625-1.477-2.042-1.472-2.804-3.86ZM21 24.798q-2.071 0-3.724-1.16-1.64-1.15-2.304-3.04l-.011-.034.011-.033q.66-1.879 2.33-3.04 1.665-1.16 3.698-1.16 2.071 0 3.724 1.16 1.64 1.15 2.304 3.04l.011.033-.011.033q-.66 1.88-2.33 3.041-1.665 1.16-3.698 1.16Zm0-.2q1.97 0 3.585-1.124 1.615-1.125 2.254-2.943l.094.033-.094.033q-.643-1.829-2.23-2.942Q23.008 16.53 21 16.53q-1.97 0-3.585 1.124t-2.254 2.942l-.094-.033.094-.033q.643 1.83 2.23 2.943 1.601 1.124 3.609 1.124Zm-2.433-3.967q0 1.009.712 1.721.712.712 1.721.712 1.009 0 1.721-.712.712-.712.712-1.721 0-1.009-.712-1.72-.712-.713-1.72-.713-1.01 0-1.722.712t-.712 1.721Zm-.2 0q0-1.091.77-1.862.772-.771 1.863-.771t1.862.77q.771.772.771 1.863t-.77 1.862q-.772.771-1.863.771t-1.862-.77q-.771-.772-.771-1.863Zm1.333 0q0-.581.38-.947.368-.353.92-.353.541 0 .92.38.38.379.38.92t-.38.92q-.379.38-.92.38-.591 0-.946-.354-.354-.355-.354-.946Zm.2 0q0 .509.296.804.295.296.804.296.459 0 .78-.32.32-.321.32-.78t-.32-.78q-.321-.32-.78-.32-.472 0-.78.297-.32.307-.32.803Z"/>
    </g>
  </g>
</svg>