<svg xmlns="http://www.w3.org/2000/svg" fill="none" viewBox="0 0 18 18">
  <defs>
    <clipPath id="a">
      <rect width="18" height="18" rx="0"/>
    </clipPath>
  </defs>
  <g clip-path="url(#a)">
    <path d="M3.6 4.16a.337.337 0 0 0-.337.338v9c0 .186.15.337.337.337h10.8a.337.337 0 0 0 .338-.337v-9a.337.337 0 0 0-.338-.338H3.6Zm0-1.125h10.8c.807 0 1.463.655 1.463 1.463v9c0 .807-.656 1.462-1.463 1.462H3.6a1.463 1.463 0 0 1-1.462-1.462v-9c0-.808.655-1.463 1.462-1.463Z" fill="currentColor"/>
    <path d="M14.4 13.839a.338.338 0 0 0 .337-.338v-2.488c0-.468-.264-.897-.684-1.107l-1.646-.822a1.237 1.237 0 0 0-1.262.093l-6.66 4.662H14.4Zm.157-4.939c.8.4 1.305 1.218 1.305 2.113v2.488c0 .807-.655 1.463-1.462 1.463H3.842a.923.923 0 0 1-.53-1.679l7.187-5.03a2.363 2.363 0 0 1 2.411-.177l1.647.822ZM5.85 7.648a.9.9 0 1 0 .001-1.8.9.9 0 0 0-.001 1.8Z" fill="#FFF"/>
  </g>
</svg>