<svg xmlns="http://www.w3.org/2000/svg" xmlns:xlink="http://www.w3.org/1999/xlink" fill="currentColor" version="1.1" width="16"
  height="16" viewBox="0 0 16 16">
  <defs>
    <clipPath id="master_svg0_3130_50496">
      <rect x="0" y="0" width="16" height="16" rx="0" />
    </clipPath>
  </defs>
  <g clip-path="url(#master_svg0_3130_50496)">
    <g>
      <path
        d="M8.01093,2C12.4711,2,14.7741,6.92885,14.8907,7.15144C15.0364,7.50123,15.0364,7.94642,14.8907,8.29621C14.7741,8.518799999999999,12.4711,13.4476,8.01093,13.4476C3.55075,13.4476,1.247788,8.518799999999999,1.131182,8.29621C0.9562728,7.94642,0.9562728,7.50123,1.131182,7.15144C1.247788,6.92885,3.55076,2,8.01093,2ZM2.18063,7.72382Q4.22124,12.1757,8.01093,12.1757Q11.8006,12.1757,13.8412,7.72382Q11.8006,3.27196,8.01093,3.27196Q4.22124,3.27196,2.18063,7.72382ZM5.67871,7.72361C5.67871,6.32445,6.72816,5.17969,8.01083,5.17969C9.2935,5.17969,10.34295,6.32445,10.34295,7.72361C10.34295,9.12277,9.2935,10.26753,8.01083,10.26753C6.72816,10.26753,5.67871,9.12277,5.67871,7.72361ZM6.84477,7.72361C6.84477,8.42319,7.3695,8.99557,8.01083,8.99557C8.65216,8.99557,9.17689,8.42319,9.17689,7.72361C9.17689,7.02403,8.65216,6.45165,8.01083,6.45165C7.3695,6.45165,6.84477,7.02403,6.84477,7.72361Z"
        fill-rule="evenodd" fill="currentColor" fill-opacity="1" />
    </g>
    <g>
      <path
        d="M15.455546051120757,2.031480402908325L1.455554051120758,14.031520402908326L0.5444460511207581,12.968520402908325L14.544446051120758,0.9685204029083252L15.455546051120757,2.031480402908325Z"
        fill-rule="evenodd" fill="currentColor" fill-opacity="1" />
      <path
        d="M1.3904750511207582,14.877520402908326L15.846046051120759,2.487030402908325L16.30154605112076,2.096560402908325L14.609546051120757,0.12249140290832516L-0.301582948879242,12.903420402908326L1.3904750511207582,14.877520402908326ZM15.000046051120759,2.421950402908325L1.911106051120758,13.641020402908325L1.455554051120758,14.031520402908326L1.0650790511207582,13.575920402908325L0.9349210511207581,13.424120402908326L0.5444460511207581,12.968520402908325L1.000000051120758,12.578020402908326L14.088846051120758,1.358995402908325L14.544446051120758,0.9685204029083252L14.934946051120757,1.4240744029083252L15.065046051120758,1.5759254029083252L15.455546051120757,2.031480402908325L15.000046051120759,2.421950402908325Z"
        fill-rule="evenodd" fill="#FFFFFF" fill-opacity="1" />
    </g>
  </g>
</svg>
