<svg xmlns="http://www.w3.org/2000/svg" xmlns:xlink="http://www.w3.org/1999/xlink" fill="none" version="1.1" width="18" height="17.997150421142578" viewBox="0 0 18 17.997150421142578"><g><path d="M17.5277,7.86099L15.8335,6.16678L15.8335,3.77166C15.8335,2.88359,15.1136,2.16367,14.2255,2.16367L11.8304,2.16367L10.1362,0.469466C9.51021,-0.156489,8.49069,-0.156489,7.86099,0.469466L6.16678,2.16367L3.77166,2.16367C2.88359,2.16367,2.16367,2.88359,2.16367,3.77166L2.16367,6.16678L0.469466,7.86099C-0.156489,8.48694,-0.156489,9.50646,0.469466,10.1362L2.16367,11.8304L2.16367,14.2255C2.16367,15.1136,2.88359,15.8335,3.77166,15.8335L6.16678,15.8335L7.86099,17.5277C8.48694,18.1536,9.50646,18.1536,10.1362,17.5277L11.8304,15.8335L14.2255,15.8335C15.1136,15.8335,15.8335,15.1136,15.8335,14.2255L15.8335,11.8304L17.5277,10.1362C18.1574,9.5085,18.1574,8.48864,17.5277,7.86099ZM13.1385,7.39995L7.91721,11.8191C7.77103,11.9428,7.58737,12.0103,7.39621,12.0103C7.37372,12.0103,7.35123,12.0103,7.32499,12.0065C7.11134,11.9878,6.91268,11.8866,6.77775,11.7217L4.76869,9.31155C4.48383,8.97046,4.52881,8.46445,4.86989,8.17958C5.21099,7.89472,5.717,7.94344,6.00186,8.28079L7.49366,10.0687L12.1002,6.17053C12.4413,5.88566,12.9473,5.92689,13.2322,6.26424C13.5208,6.60532,13.4796,7.11508,13.1385,7.39995Z" fill="#878787" fill-opacity="1"/></g></svg>