<svg xmlns="http://www.w3.org/2000/svg" viewBox="0 0 16 16" fill="none">
  <defs>
    <clipPath id="a">
      <rect width="16" height="16" rx="0"/>
    </clipPath>
  </defs>
  <g clip-path="url(#a)">
    <path fill="currentColor" d="M8 .75A7.25 7.25 0 0 0 .75 8l.002.158a7.215 7.215 0 0 0 1 3.522l.086.142-.427 1.174-.022.069c-.17.615.15 1.236.73 1.447l.078.026c.106.03.216.045.326.045h2.438l-.125-.058A7.25 7.25 0 1 0 8 .75Zm0 1.167a6.083 6.083 0 1 1 0 12.166c-.933 0-1.834-.21-2.654-.607a.582.582 0 0 0-.255-.059H2.523a.017.017 0 0 1-.016-.02l.008-.025.519-1.425a.583.583 0 0 0-.066-.527A6.083 6.083 0 0 1 8 1.917Z"/>
    <path fill="currentColor" d="M8 10.277A.664.664 0 1 0 8 11.604.664.664 0 0 0 8 10.277Zm0-5.881a2.25 2.25 0 0 0-1.569.632 2.213 2.213 0 0 0-.68 1.604v.113l.002.037a.517.517 0 1 0 1.023.037l.007-.053v-.134l.003-.061c.033-.585.567-1.052 1.215-1.052.672 0 1.217.501 1.217 1.113 0 .409-.25.787-.645.98l-.144.066a1.645 1.645 0 0 0-.664.608A1.92 1.92 0 0 0 7.483 9.3v.321l.002.032c.019.101.096.171.19.171h.65l.03-.003a.202.202 0 0 0 .161-.2v-.339l.003-.055a.633.633 0 0 1 .365-.538 2.234 2.234 0 0 0-.883-4.293Z"/>
  </g>
</svg>