<svg xmlns="http://www.w3.org/2000/svg" xmlns:xlink="http://www.w3.org/1999/xlink" fill="none" version="1.1" width="15" height="18.005352020263672" viewBox="0 0 15 18.005352020263672"><g><path d="M14.5779,10.4485C14.3094,9.79381,13.9566,9.21055,13.5882,8.75947C13.7609,8.53035,13.8709,8.18551,13.8709,7.79974C13.8709,7.27205,13.6652,6.82106,13.3748,6.6379C13.4202,6.34813,13.4439,6.05124,13.4439,5.74886C13.4439,2.57328,10.8503,0,7.65049,0C4.45227,0,1.85851,2.57328,1.85851,5.74886C1.85851,6.05412,1.88272,6.35375,1.92893,6.64616C1.64496,6.83447,1.44528,7.27999,1.44528,7.79974C1.44528,8.10131,1.51256,8.37789,1.62453,8.59373C1.25308,8.99469,0.891056,9.50877,0.594485,10.0995C-0.226852,11.7367,-0.104235,13.3915,0.40158,13.661C0.661037,13.7991,1.33763,13.3652,2.00214,12.5598C2.10993,13.5075,2.5584,14.3725,3.24474,15.0687C2.10766,15.4049,1.35404,16.0687,1.45503,16.7424C1.58082,17.5937,3.02062,18.1393,4.672,17.9611C5.8805,17.8302,6.86629,17.3478,7.25892,16.7646C7.36025,16.7692,7.46225,16.7716,7.56495,16.7716C7.72967,16.7716,7.89262,16.7653,8.05372,16.7537C8.455,17.3304,9.40521,17.8142,10.5577,17.9615C12.1588,18.1649,13.5447,17.6417,13.6523,16.7927C13.7385,16.1159,12.9883,15.436,11.8701,15.0845C12.5351,14.416,12.98,13.5902,13.1125,12.6841C13.7026,13.4909,14.3059,14.0063,14.6215,13.937C14.9944,13.8552,15.261,12.1152,14.5779,10.4485Z" fill="#878787" fill-opacity="1"/></g></svg>