<svg xmlns="http://www.w3.org/2000/svg" fill="none" viewBox="0 0 16 16">
  <defs>
    <clipPath id="a">
      <rect width="16" height="16" rx="0"/>
    </clipPath>
  </defs>
  <g clip-path="url(#a)">
    <path d="M7.819 0C5.043.308 3.5 1.511 3.192 3.608c-.062.679.278 1.05 1.018 1.11.37.063.678-.215.925-.832C5.505 2.59 6.4 1.943 7.82 1.943c1.726.123 2.651.987 2.776 2.59 0 1.481-1.005 1.722-1.551 2.169-.692.566-1.144 1.14-1.698 2.113q-.465.817-.545 2.566c0 .74.338 1.11 1.018 1.11.615 0 .956-.37 1.018-1.11q.081-1.963.873-2.83c.898-.984 3.043-1.673 3.105-4.202C12.568 1.696 10.903.247 7.82 0Zm0 13.424a1.288 1.288 0 1 0 0 2.576 1.288 1.288 0 0 0 0-2.576Z" fill="currentColor"/>
  </g>
</svg>