<svg xmlns="http://www.w3.org/2000/svg" fill="none" viewBox="0 0 16 16">
  <defs>
    <clipPath id="a">
      <rect width="16" height="16" rx="0"/>
    </clipPath>
  </defs>
  <g clip-path="url(#a)">
    <path d="M8 2c3.313 0 6 2.688 6 6 0 3.313-2.688 6-6 6-3.313 0-6-2.688-6-6 0-3.313 2.688-6 6-6Zm0-1C4.138 1 1 4.138 1 8c0 3.863 3.138 7 7 7 3.863 0 7-3.137 7-7 0-3.862-3.137-7-7-7Zm.5 11h-1v-1h1v1Zm.175-3.175-.088.075c-.05.037-.087.125-.087.2v.912h-1V9.1c0-.387.175-.75.463-.987l.087-.075c.875-.7 1.3-1.063 1.3-1.688C9.35 5.6 8.75 5 8 5c-.775 0-1.35.575-1.35 1.35h-1A2.332 2.332 0 0 1 8 4c1.3 0 2.35 1.05 2.35 2.35 0 1.138-.775 1.763-1.675 2.475Z" fill="currentColor"/>
  </g>
</svg>