<svg xmlns="http://www.w3.org/2000/svg" xmlns:xlink="http://www.w3.org/1999/xlink" fill="none" version="1.1" width="14" height="14" viewBox="0 0 14 14"><defs><clipPath id="master_svg0_3643_076882"><rect x="2" y="2" width="10" height="10" rx="4"/></clipPath></defs><g><g><rect x="0" y="0" width="14" height="14" rx="7" fill="#7C5CFC" fill-opacity="1"/></g><g clip-path="url(#master_svg0_3643_076882)"><g><path d="M10.62796,4.2050468125C10.79067,4.3677648125,10.79067,4.6315828125,10.62796,4.7943038125C10.62796,4.7943038125,6.04463,9.3776278125,6.04463,9.3776278125C5.8819099999999995,9.540337812499999,5.6180900000000005,9.540337812499999,5.45537,9.3776278125C5.45537,9.3776278125,3.372039,7.2943078125,3.372039,7.2943078125C3.2093204,7.1315778125,3.2093204,6.8677678125,3.372039,6.7050478125C3.534757,6.5423278125,3.798575,6.5423278125,3.961296,6.7050478125C3.961296,6.7050478125,5.75,8.4937578125,5.75,8.4937578125C5.75,8.4937578125,10.03871,4.2050468125,10.03871,4.2050468125C10.201419999999999,4.0423282125,10.465250000000001,4.0423282125,10.62796,4.2050468125C10.62796,4.2050468125,10.62796,4.2050468125,10.62796,4.2050468125Z" fill-rule="evenodd" fill="#FFFFFF" fill-opacity="1"/></g></g></g></svg>