<svg xmlns="http://www.w3.org/2000/svg" viewBox="0 0 16 16" fill="none">
  <defs>
    <clipPath id="a">
      <rect width="16" height="16" rx="0"/>
    </clipPath>
  </defs>
  <g fill="currentColor" clip-path="url(#a)">
    <path d="M10.723 9.85V8.02a.562.562 0 1 0-1.125 0V9.6H2.136V2.136h7.462V3.68a.562.562 0 1 0 1.125 0V1.887a.876.876 0 0 0-.875-.875H1.886a.876.876 0 0 0-.875.875v7.962c0 .483.392.875.875.875h7.962a.876.876 0 0 0 .875-.875Z"/>
    <path fill-rule="evenodd" d="M1.886 10.774h7.962q.383 0 .654-.27.271-.272.271-.655V8.02q0-.253-.179-.433-.18-.179-.433-.179-.254 0-.433.18-.18.179-.18.433v1.53H2.186V2.186h7.362V3.68q0 .254.18.434.179.179.433.179t.433-.18q.18-.179.18-.433V1.887q0-.383-.272-.654-.27-.271-.654-.271H1.886q-.383 0-.654.27-.271.272-.271.655v7.962q0 .383.27.654.272.271.655.271Zm8.545-.342q-.241.242-.583.242H1.886q-.342 0-.583-.242-.242-.241-.242-.583V1.887q0-.342.242-.583.241-.242.583-.242h7.962q.342 0 .583.242.242.241.242.583V3.68q0 .213-.15.363t-.362.15q-.213 0-.363-.15t-.15-.363V2.087H2.086v7.562h7.562V8.02q0-.212.15-.362t.363-.15q.212 0 .362.15t.15.363v1.83q0 .34-.242.582Z"/>
    <path d="M14.122 5.277H6.159a.876.876 0 0 0-.875.875v1.844a.562.562 0 1 0 1.125 0V6.402h7.463v7.463H6.409v-1.606a.562.562 0 1 0-1.125 0v1.854c0 .483.392.875.875.875h7.963a.876.876 0 0 0 .875-.875v-7.96a.876.876 0 0 0-.875-.876Z"/>
    <path fill-rule="evenodd" d="M15.047 14.113v-7.96q0-.383-.271-.655-.272-.27-.654-.27H6.159q-.383 0-.654.27-.27.272-.27.654v1.844q0 .254.178.433.18.18.434.18t.433-.18q.18-.179.18-.433V6.452h7.362v7.363H6.459v-1.556q0-.254-.18-.434-.178-.179-.432-.179t-.434.18q-.179.179-.179.433v1.854q0 .383.271.654t.654.271h7.963q.382 0 .654-.27.27-.272.27-.655Zm-.342-8.544q.242.242.242.583v7.961q0 .342-.242.583-.242.242-.583.242H6.159q-.341 0-.583-.242-.242-.241-.242-.583V12.26q0-.213.15-.363t.363-.15q.212 0 .362.15t.15.363v1.656h7.563V6.352H6.359v1.644q0 .213-.15.363t-.362.15q-.213 0-.363-.15t-.15-.363V6.152q0-.341.242-.583.242-.242.583-.242h7.963q.341 0 .583.242Z"/>
  </g>
</svg>