<svg xmlns="http://www.w3.org/2000/svg" xmlns:xlink="http://www.w3.org/1999/xlink" fill="none" version="1.1" width="23.000001907348633" height="20.8399600982666" viewBox="0 0 23.000001907348633 20.8399600982666"><g><path d="M1.5,8.33996L4.5,8.33996L4.5,20.34L1.5,20.34C0.947715,20.34,0.5,19.8922,0.5,19.34L0.5,9.33996C0.5,8.78767,0.947715,8.33996,1.5,8.33996ZM6.793,7.04696L13.193,0.64696C13.3689,0.4705889,13.6477,0.4505486,13.847,0.5999601L14.7,1.23996C15.1844,1.60363,15.4026,2.22297,15.253,2.80996L14.1,7.33996L20.5,7.33996C21.6046,7.33996,22.5,8.235389999999999,22.5,9.33996L22.5,11.444C22.5003,11.7053,22.4493,11.9642,22.35,12.206L19.255,19.721C19.1006,20.0957,18.7353,20.3401,18.33,20.34L7.5,20.34C6.94772,20.34,6.5,19.8922,6.5,19.34L6.5,7.75396C6.50006,7.48877,6.60545,7.23445,6.793,7.04696Z" fill="#FFFFFF" fill-opacity="1"/><path d="M6,7.75385Q6.00013,7.13259,6.4395,6.69335L12.8394,0.293407Q13.1027,0.029357999999999995,13.4754,0.0025780000000000247Q13.848,-0.024201999999999946,14.1469,0.199915L15.0001,0.840016Q15.4846,1.203766,15.6859,1.7751Q15.8871,2.3464400000000003,15.7375,2.93343L14.5846,7.46329L14.1,7.33996L14.1,6.83996L20.5,6.83996Q21.5355,6.83996,22.2678,7.57219Q23,8.30443,23,9.33996L23,11.444Q23.0005,11.9382,22.8125,12.3959L19.7173,19.9114Q19.5436,20.333,19.1647,20.5866Q18.7857,20.8402,18.3298,20.84L7.5,20.84Q6.87868,20.84,6.43934,20.4006Q6,19.9613,6,19.34L6,7.75396L6,7.75385ZM7,7.75396L7,19.34Q7,19.5471,7.14645,19.6935Q7.29289,19.84,7.5,19.84L18.3302,19.84Q18.6651,19.8401,18.7927,19.5306L21.8875,12.016Q22.0003,11.7414,22,11.444L22,9.33996Q22,8.71864,21.5607,8.2793Q21.1213,7.83996,20.5,7.83996L13.4568,7.83996L14.7685,2.68649Q14.9332,2.0402199999999997,14.3999,1.6399L13.5471,1.000005L13.5471,1.000005Q13.5471,1.000005,13.5466,1.000514L7.1465,7.40057Q7.00004,7.54698,7,7.75407L7,7.75396ZM0,9.33996Q0,8.71864,0.4393398,8.2793Q0.878679,7.83996,1.4999989999999999,7.83996L5,7.83996L5,20.84L1.5,20.84Q0.87868,20.84,0.4393398,20.4006Q0,19.9613,0,19.34L0,9.33996ZM1,9.33996L1,19.34Q1,19.5471,1.146447,19.6935Q1.2928950000000001,19.84,1.5,19.84L4.5,19.84L4.5,20.34L4,20.34L4,8.33996L4.5,8.33996L4.5,8.83996L1.5,8.83996Q1.2928929999999998,8.83996,1.146447,8.98641Q1,9.13285,1,9.33996Z" fill="#596780" fill-opacity="1"/></g></svg>