<svg xmlns="http://www.w3.org/2000/svg"
  xmlns:xlink="http://www.w3.org/1999/xlink" fill="none" version="1.1" width="20" height="20" viewBox="0 0 20 20">
  <defs>
    <clipPath id="master_svg0_5096_72211">
      <rect x="0" y="0" width="20" height="20" rx="0"/>
    </clipPath>
  </defs>
  <g clip-path="url(#master_svg0_5096_72211)">
    <g>
      <path d="M10.24621,4.5825700000000005C10.15075,4.48712,10.04469,4.44116,9.93863,4.41641C9.86792,4.38106,9.784839999999999,4.36869,9.70176,4.36869C9.618680000000001,4.36869,9.535599999999999,4.38106,9.46489,4.41641C9.358830000000001,4.4393899999999995,9.25101,4.48712,9.15732,4.5825700000000005L3.3505000000000003,10.38762C3.0906599999999997,10.64747,3.0906599999999997,11.0505,3.3505000000000003,11.31212C3.61035,11.57196,4.01338,11.57196,4.275,11.31212L9.10782,6.47929L9.10782,16.8096C9.10782,17.1419,9.36767,17.4018,9.7,17.4018C10.03232,17.4018,10.29217,17.1419,10.29217,16.8096L10.29217,6.47929L15.125,11.31212C15.3848,11.57196,15.7879,11.57196,16.049500000000002,11.31212C16.3093,11.05227,16.3093,10.64924,16.049500000000002,10.38762L10.24621,4.5825700000000005ZM16.8096,2L2.592171,2C2.259848,2,2,2.259848,2,2.592171C2,2.924494,2.259848,3.1843399999999997,2.592171,3.1843399999999997L16.8078,3.1843399999999997C17.1401,3.1843399999999997,17.4,2.924494,17.4,2.592171C17.4018,2.261616,17.1401,2,16.8096,2Z" fill="currentColor" fill-opacity="1"/>
    </g>
  </g>
</svg>
