<svg xmlns="http://www.w3.org/2000/svg"
  xmlns:xlink="http://www.w3.org/1999/xlink" fill="none" version="1.1" width="20" height="20" viewBox="0 0 20 20">
  <defs>
    <clipPath id="master_svg0_3698_67175">
      <rect x="0" y="0" width="20" height="20" rx="0"/>
    </clipPath>
    <linearGradient x1="-0.7822903990745544" y1="-1.0887359380722046" x2="1.274919033050537" y2="1.1853946447372437" id="master_svg1_374_20128">
      <stop offset="0%" stop-color="#0547FF" stop-opacity="1"/>
      <stop offset="100%" stop-color="#D683FF" stop-opacity="1"/>
    </linearGradient>
  </defs>
  <g clip-path="url(#master_svg0_3698_67175)">
    <g>
      <path d="M16.5132,1.5937686864C16.969,1.593287573,17.3906,1.835253,17.6202,2.2290229999999998L19.7969,5.96581C20.0634,6.42437,20.0208,6.99963,19.6894,7.41382L11.4872,17.68995C10.715,18.64755,9.25589,18.64755,8.48373,17.68995L0.281466,7.40915C-0.0498718,6.99496,-0.0925522,6.4197,0.174034,5.96114L2.3367,2.2290229999999998C2.57087,1.833031,2.9977,1.59116244,3.45774,1.5937686864L16.5132,1.5937686864ZM12.4074,9.36629L10.2494,12.39305C10.1207,12.57175,9.85482,12.57175,9.72621,12.39305L7.56354,9.36629C7.2849,8.86805,6.63625,8.720559999999999,6.16956,9.049330000000001C5.70288,9.3781,5.6234,10.03854,5.99876,10.46865L8.16142,13.49545C9.05566,14.74655,10.9152,14.74655,11.8095,13.49545L13.9721,10.46865C14.2497,10.03684,14.1394,9.46321,13.7215,9.16509C13.3037,8.86697,12.7254,8.94934,12.4074,9.35228L12.4074,9.36629Z" fill="url(#master_svg1_374_20128)" fill-opacity="1"/>
    </g>
  </g>
</svg>