<svg xmlns="http://www.w3.org/2000/svg" viewBox="0 0 16 16" fill="none">
  <defs>
    <clipPath id="a">
      <rect width="16" height="16" rx="0"/>
    </clipPath>
  </defs>
  <g clip-path="url(#a)">
    <path fill="currentColor" fill-rule="evenodd" d="M6.328 13.878c.43.463 1.04.728 1.672.728a2.29 2.29 0 0 0 1.672-.728L14.391 8.8a2.287 2.287 0 0 0 .351-2.61l-1.547-2.964A2.275 2.275 0 0 0 11.172 2H4.829c-.853 0-1.629.47-2.023 1.226L1.258 6.191A2.286 2.286 0 0 0 1.61 8.8l4.718 5.077ZM3.707 3.697c.219-.42.649-.68 1.122-.68h6.342c.473 0 .903.26 1.122.68l1.548 2.964c.247.474.169 1.056-.195 1.447l-4.719 5.078c-.242.26-.571.404-.927.404-.355 0-.685-.144-.927-.404L2.354 8.108a1.268 1.268 0 0 1-.194-1.447l1.547-2.964ZM5.062 6.01a2.938 2.938 0 0 0 2.935 2.935 2.938 2.938 0 0 0 2.935-2.935.508.508 0 1 0-1.017 0A1.92 1.92 0 0 1 7.997 7.93 1.92 1.92 0 0 1 6.08 6.01a.508.508 0 1 0-1.017 0Z"/>
  </g>
</svg>