<svg xmlns="http://www.w3.org/2000/svg" xmlns:xlink="http://www.w3.org/1999/xlink" fill="none" version="1.1" width="24" height="24" viewBox="0 0 24 24"><defs><clipPath id="master_svg0_2110_63175"><rect x="0" y="0" width="24" height="24" rx="0"/></clipPath><linearGradient x1="0" y1="0" x2="1" y2="1" id="master_svg1_1733_000418"><stop offset="0%" stop-color="#CE863A" stop-opacity="0.25"/><stop offset="99.99998807907104%" stop-color="#CE863A" stop-opacity="1"/></linearGradient></defs><g clip-path="url(#master_svg0_2110_63175)"><g><path d="M11.2446465625,14.1228Q11.2129665625,14.297,11.1654365625,14.3921Q11.1179165625,14.4871,10.9436565625,14.598Q10.5317765625,14.8515,10.0565265625,15.0099Q9.581276562500001,15.1683,9.1456365625,15.3584Q8.709996562499999,15.5485,8.385236562500001,15.8574Q8.0604865625,16.1663,7.9812765625,16.7366Q7.9495965625,16.910899999999998,7.9416765625,17.077199999999998Q7.9337565625,17.2436,7.9179165625,17.3861Q7.9020765625,17.4178,7.8862265625,17.4416Q7.8703865625,17.4653,7.8545465625,17.497Q7.2367265624999995,17.4495,6.6030665625000005,17.3861Q5.9693965625,17.3228,5.4387065625,17.2436Q4.9080165625,17.1644,4.5436575625,17.0851Q4.1793005625,17.0059,4.0842515625,16.9267Q3.9416770625,16.8158,3.8703899625,16.261400000000002Q3.7991027625,15.7069,3.9258354625,14.8198Q4.0050435625,14.3287,4.3297955625,14.0673Q4.6545485625000005,13.80594,5.0981165625,13.65545Q5.5416765625,13.50495,6.0090065625,13.37822Q6.476326562500001,13.25149,6.8406865625,13.0297Q7.1258365625,12.83961,7.2763265624999995,12.68119Q7.4268265625000005,12.52277,7.4901965624999995,12.35644Q7.5535565625,12.1901,7.5535565625,12.01584Q7.5535565625,11.84159,7.5377165625,11.63564Q7.5060365625,11.31881,7.3238565625,11.13663Q7.1416765625,10.954460000000001,6.9198965625,10.76436Q6.7931665625,10.68515,6.7060365625,10.51089Q6.618906562499999,10.33663,6.5555365625,10.162379999999999Q6.4921765625,9.97228,6.4288065625,9.73465Q6.3337565625,9.70297,6.2387065625,9.6396Q6.1594965625,9.57624,6.0723665625,9.44951Q5.9852465625,9.32277,5.906036562500001,9.10099Q5.8268265625,8.87921,5.8426665625,8.68119Q5.858506562500001,8.483170000000001,5.9218765625,8.340589999999999Q5.9852465625,8.16634,6.0961365625,8.05545Q6.0802865624999995,7.54851,6.1436565625,7.02574Q6.207026562499999,6.59802,6.3495965625,6.10693Q6.4921765625,5.61584,6.777316562499999,5.2198Q7.0307865624999994,4.839604,7.3476165625,4.60198Q7.6644465625,4.364356,7.9892065625,4.229703Q8.3139565625,4.0950495,8.6466265625,4.0475248Q8.9792965625,4.0000000149012,9.2961365625,4Q10.088216562500001,4,10.7218765625,4.332673Q11.3555365625,4.665347,11.672366562499999,5.04554Q11.8783065625,5.31485,11.9337565625,5.54455Q11.9891965625,5.77426,12.0842465625,6.0752500000000005Q11.7832565625,6.24951,11.442666562500001,6.5901Q11.102076562499999,6.93069,10.848606562499999,7.27921Q10.5317765625,7.722770000000001,10.3733565625,8.261389999999999Q10.2149465625,8.8,10.1357365625,9.259409999999999Q10.0565265625,9.81386,10.0565265625,10.36832Q9.9297965625,10.51089,9.8664265625,10.68515Q9.8030665625,10.84356,9.7872165625,11.05743Q9.7713765625,11.27129,9.8505865625,11.524750000000001Q9.9297965625,11.79406,10.024846562499999,11.936630000000001Q10.1198965625,12.07921,10.199106562499999,12.15841Q10.2941565625,12.25346,10.3892065625,12.28515Q10.4525665625,12.53861,10.5159365625,12.7604Q10.5792965625,12.95049,10.6664265625,13.14851Q10.7535565625,13.34653,10.8802865625,13.44158Q10.991186562500001,13.53663,11.0545465625,13.6Q11.1179165625,13.66336,11.1575165625,13.71881Q11.1971265625,13.77426,11.2050465625,13.8693Q11.2129665625,13.96435,11.2446465625,14.1228ZM19.6882265625,17.037599999999998Q19.7516265625,17.2594,19.7912265625,17.5762Q19.8308265625,17.8931,19.8308265625,18.2178Q19.8308265625,18.5426,19.783226562499998,18.8277Q19.7357265625,19.1129,19.6407265625,19.2554Q19.577326562499998,19.3505,19.2684265625,19.4455Q18.959526562500002,19.540599999999998,18.5001265625,19.619799999999998Q18.040726562499998,19.698999999999998,17.4862265625,19.7703Q16.9317265625,19.8416,16.3694265625,19.8891Q15.8070265625,19.9366,15.2842265625,19.9683Q14.7615265625,20,14.3654265625,20Q13.9694265625,20,13.4545465625,19.9683Q12.9396965625,19.9366,12.3852365625,19.8891Q11.8307865625,19.8416,11.2921665625,19.786099999999998Q10.7535565625,19.7307,10.3020765625,19.659399999999998Q9.8505865625,19.5881,9.541676562500001,19.5168Q9.2327665625,19.4455,9.1535565625,19.382199999999997Q9.0268265625,19.2713,8.9476165625,18.7168Q8.868406562499999,18.162399999999998,8.9951365625,17.2911Q9.0743465625,16.7842,9.399096562499999,16.5307Q9.7238565625,16.2772,10.1674165625,16.1188Q10.610986562499999,15.9604,11.0783065625,15.8416Q11.5456365625,15.7228,11.9099965625,15.4852Q12.1951365625,15.2951,12.3456365625,15.1366Q12.4961265625,14.9782,12.5674165625,14.8198Q12.6387065625,14.6614,12.6387065625,14.4871Q12.6387065625,14.3129,12.6228665625,14.0911Q12.5911765625,13.77426,12.4010765625,13.59208Q12.2109865625,13.4099,11.9891965625,13.23565Q11.8783065625,13.1406,11.791176562499999,12.96634Q11.7040465625,12.79208,11.640686562500001,12.61782Q11.5773165625,12.42773,11.513956562499999,12.1901Q11.4189065625,12.15842,11.3238565625,12.09505Q11.2446465625,12.03169,11.1575165625,11.90495Q11.070386562500001,11.778220000000001,10.9911765625,11.55644Q10.9119765625,11.33466,10.9278165625,11.13664Q10.9436565625,10.93861,11.007016562499999,10.81188Q11.070386562500001,10.65347,11.181276562499999,10.52673Q11.1654365625,10.0198,11.2288065625,9.497029999999999Q11.2921665625,9.05347,11.4268265625,8.5703Q11.561476562500001,8.08713,11.8466265625,7.67525Q12.1000865625,7.29505,12.4169265625,7.05743Q12.7337565625,6.8198,13.0664265625,6.68515Q13.3990965625,6.5504999999999995,13.7317765625,6.5029699999999995Q14.0644265625,6.45545,14.3654265625,6.45545Q15.1733265625,6.45545,15.8070265625,6.78812Q16.4407265625,7.1207899999999995,16.741626562500002,7.50099Q17.0902265625,7.928710000000001,17.2565265625,8.45941Q17.4228265625,8.9901,17.5020265625,9.44951Q17.5813265625,9.98812,17.5654265625,10.52673Q17.6446265625,10.5901,17.708026562500002,10.700990000000001Q17.755526562500002,10.79604,17.795126562500002,10.946539999999999Q17.834726562500002,11.09703,17.8030265625,11.31881Q17.7714265625,11.60396,17.6763265625,11.778220000000001Q17.5813265625,11.952480000000001,17.4862265625,12.04753Q17.3753265625,12.15842,17.232726562499998,12.1901Q17.1694265625,12.42772,17.1060265625,12.61782Q17.0426265625,12.79208,16.947626562499998,12.96634Q16.8525265625,13.1406,16.741626562500002,13.2198Q16.614926562500003,13.3307,16.5119265625,13.4099Q16.4090265625,13.48911,16.3298265625,13.57624Q16.250626562500003,13.66337,16.1951265625,13.77426Q16.1397265625,13.88515,16.1080265625,14.0436Q16.0763265625,14.2495,16.0842265625,14.4634Q16.0921265625,14.6772,16.1872265625,14.8832Q16.2822265625,15.0891,16.496126562500002,15.2792Q16.710026562499998,15.4693,17.0902265625,15.6119Q17.4228265625,15.7545,17.826826562500003,15.8574Q18.2308265625,15.9604,18.6030265625,16.103Q18.9753265625,16.2455,19.2684265625,16.4673Q19.5614265625,16.6891,19.6882265625,17.037599999999998Z" fill="url(#master_svg1_1733_000418)" fill-opacity="1"/></g></g></svg>