<svg xmlns="http://www.w3.org/2000/svg" xmlns:xlink="http://www.w3.org/1999/xlink" fill="none" version="1.1" width="24" height="24" viewBox="0 0 24 24"><defs><clipPath id="master_svg0_2100_48792"><rect x="0" y="0" width="24" height="24" rx="8"/></clipPath><linearGradient x1="0" y1="0" x2="1" y2="1" id="master_svg1_1733_000418"><stop offset="0%" stop-color="#CE863A" stop-opacity="0.25"/><stop offset="99.99998807907104%" stop-color="#CE863A" stop-opacity="1"/></linearGradient></defs><g clip-path="url(#master_svg0_2100_48792)"><g><path d="M17.3598125,10.015062499999999Q17.6638125,10.0470625,17.9678125,10.1750625Q18.2718125,10.3030625,18.4958125,10.5350625Q18.7198125,10.7670625,18.831812499999998,11.1190625Q18.9438125,11.4710625,18.8638125,11.9670625Q18.831812499999998,12.095062500000001,18.7358125,12.599062499999999Q18.639812499999998,13.1030625,18.511812499999998,13.759062499999999Q18.383812499999998,14.415062500000001,18.2238125,15.1110625Q18.063812499999997,15.8070625,17.9198125,16.3030625Q17.8398125,16.5910625,17.6878125,16.8950625Q17.5358125,17.1990625,17.2958125,17.4470625Q17.055812500000002,17.6950625,16.7198125,17.855062500000003Q16.383812499999998,18.0150625,15.9198125,18.0150625L7.0558125,18.0150625Q6.7198125,18.0150625,6.3598125,17.8710625Q5.9998125,17.727062500000002,5.6958125,17.4630625Q5.3918125,17.1990625,5.1998125,16.8230625Q5.007812380791,16.4470625,5.0078125,15.9830625L5.0078125,9.1190625Q5.0078125,8.1430625,5.5358125000000005,7.5910625Q6.0638125,7.0390625,7.0238125,7.0390625L14.8958125,7.0390625Q15.2478125,7.0390625,15.6238125,7.1750625Q15.9998125,7.3110625,16.3038125,7.5510625000000005Q16.6078125,7.7910625,16.7998125,8.1110625Q16.9918125,8.4310625,16.9918125,8.7990625L16.9918125,8.9750625L16.1598125,8.9750625Q15.5198125,8.9750625,14.6638125,8.9670625Q13.8078125,8.9590625,12.8398125,8.9590625Q11.8718125,8.9590625,11.031812500000001,8.951062499999999Q10.191812500000001,8.9430625,9.5838125,8.9430625L8.8478125,8.9430625Q8.4318125,8.9430625,8.1998125,9.2070625Q7.9678125,9.4710625,7.8398125,9.9030625Q7.711812500000001,10.3670625,7.5518125000000005,10.887062499999999Q7.3918125,11.4070625,7.2638125,11.855062499999999Q7.1038125,12.383062500000001,6.9438125,12.8790625Q6.9118125,13.0070625,6.9118125,13.0870625Q6.9118125,13.3590625,7.0958125,13.5430625Q7.2798125,13.727062499999999,7.5518125000000005,13.727062499999999Q8.0478125,13.727062499999999,8.223812500000001,13.1030625L9.0718125,9.9990625Q11.1518125,10.015062499999999,12.8798125,10.015062499999999L17.3598125,10.015062499999999Z" fill="url(#master_svg1_1733_000418)" fill-opacity="1"/></g></g></svg>