<svg xmlns="http://www.w3.org/2000/svg" viewBox="0 0 24 24" fill="none">
  <defs>
    <clipPath id="a">
      <rect width="24" height="24" rx="0"/>
    </clipPath>
  </defs>
  <g clip-path="url(#a)">
    <path fill="currentColor" d="m20.16 9.952-2.095-4.014A2.119 2.119 0 0 0 16.187 4.8H7.813c-.789 0-1.513.439-1.878 1.138L3.84 9.952a2.119 2.119 0 0 0 .327 2.422l6.28 6.76a2.119 2.119 0 0 0 3.105 0l6.281-6.76c.61-.657.742-1.627.326-2.422Zm-8.164 2.957a3.51 3.51 0 0 1-3.505-3.505.607.607 0 1 1 1.214 0 2.294 2.294 0 0 0 2.291 2.291 2.294 2.294 0 0 0 2.291-2.291.607.607 0 0 1 1.214 0 3.51 3.51 0 0 1-3.505 3.505Z"/>
  </g>
</svg>