<svg xmlns="http://www.w3.org/2000/svg" xmlns:xlink="http://www.w3.org/1999/xlink" fill="none" version="1.1" width="24" height="24" viewBox="0 0 24 24"><defs><clipPath id="master_svg0_2110_63065"><rect x="0" y="0" width="24" height="24" rx="0"/></clipPath><linearGradient x1="0" y1="0" x2="1" y2="1" id="master_svg1_1733_000418"><stop offset="0%" stop-color="#CE863A" stop-opacity="0.25"/><stop offset="99.99998807907104%" stop-color="#CE863A" stop-opacity="1"/></linearGradient></defs><g clip-path="url(#master_svg0_2110_63065)"><g><path d="M5.78116,10.76509C6.68811,7.676769999999999,8.67276,5.47334,12.30377,5.16131C12.55346,5.13891,12.90303,5.15811,13.18977,5.1053C13.43624,5.0573,13.73587,4.8796800000000005,14.0194,4.764468C15.1696,4.294019,17.71,3.469933,18.9939,4.481239C20.1071,5.36133,19.9025,7.50075,19.2146,8.8977C19.8831,10.24824,20.1328,11.7652,19.9331,13.25815C16.708,13.38937,12.94975,13.27575,9.816510000000001,13.31576C9.92122,14.9751,10.96832,16.2473,12.52446,16.4265C14.0452,16.6025,15.0955,15.748,15.7866,14.7847L19.654400000000003,14.7847C18.6492,17.6586,16.0943,19.886,12.13784,19.598C11.238949999999999,19.5308,10.53659,19.27,9.76013,18.9739C8.463339999999999,19.6796,5.5959,20.7277,4.453761,19.257199999999997C3.587087,18.1403,4.144465,16.1096,4.619686,14.7863C5.58302,12.10283,7.41463,9.44496,9.20758,7.9344C9.21725,7.88799,9.26235,7.87679,9.26235,7.820790000000001C7.84636,8.54086,6.8910800000000005,9.731390000000001,5.78116,10.76509ZM19.3789,6.574260000000001C19.3258,4.646056,16.8288,4.836476,15.5095,5.61256C16.9819,6.19822,18.058,7.19192,18.9359,8.38565C19.1276,7.78078,19.3983,7.27833,19.3789,6.574260000000001ZM9.8149,11.27395L15.9509,11.27395C15.7737,7.33594,10.00821,7.65437,9.8149,11.27395ZM5.28338,18.1819C5.59107,19.926000000000002,8.0445,19.4172,9.152809999999999,18.634700000000002C7.69815,17.8218,6.7895900000000005,16.448900000000002,6.05663,14.8967C5.7167200000000005,15.7368,5.0788,17.0313,5.28338,18.1819Z" fill="url(#master_svg1_1733_000418)" fill-opacity="1"/></g></g></svg>