<svg xmlns="http://www.w3.org/2000/svg" xmlns:xlink="http://www.w3.org/1999/xlink" fill="none" version="1.1" width="24" height="24" viewBox="0 0 24 24"><defs><clipPath id="master_svg0_2100_48801"><rect x="0" y="0" width="24" height="24" rx="8"/></clipPath><linearGradient x1="0" y1="0" x2="1" y2="1" id="master_svg1_1733_000418"><stop offset="0%" stop-color="#CE863A" stop-opacity="0.25"/><stop offset="99.99998807907104%" stop-color="#CE863A" stop-opacity="1"/></linearGradient></defs><g clip-path="url(#master_svg0_2100_48801)"><g><path d="M18.980425,7.242585C18.975625,7.074075000000001,18.918825,6.910585,18.846525,6.799805C18.596625,6.416525,18.241225,6.215975,17.823925,5.998585C17.408725,5.782291,16.924825,5.649057,16.442825,5.492541C16.294024999999998,5.444228,16.154625,5.441119,16.000125,5.397666C15.751625,5.327791,15.458825,5.293963,15.198825,5.228994C15.077625,5.198682,14.973665,5.215729,14.850975,5.186822C14.608055,5.129572,14.321675,5.137916,14.070835,5.081416L13.849445,5.0708691C13.671985,5.0318378,13.450705,5.0581659,13.269595,5.0181659L13.079865,5.0181659C12.903585,4.97980654,12.660875,5.0366035,12.478925,4.9970722C12.387765,4.97727537,12.250375,4.98654097,12.141585,4.98654097L11.530125,4.98654097C11.493285,5.0096347,11.396125,4.9970566,11.340365,4.9970722L10.939765000000001,5.0076191L9.832815,5.091947C9.399975000000001,5.188416,8.934765,5.174916,8.515035000000001,5.281713C8.201155,5.361572,7.8715150000000005,5.394135,7.566225,5.492557C6.888285,5.711151,6.251765,5.909432,5.7213,6.2621649999999995C5.444738,6.446075,4.9386595,6.826935,5.02551889,7.341665L5.02551889,16.709675C5.0271596,17.071575,5.246738,17.319875,5.457753,17.479275C5.568535,17.562875,5.674222,17.666674999999998,5.795097,17.742775C6.252255,18.030875,6.778315,18.189774999999997,7.344835,18.375375C7.6731549999999995,18.482975,8.047395,18.548275,8.399065,18.638875C8.601835,18.691175,8.814285,18.696675,9.010535,18.744374999999998C9.249445,18.802374999999998,9.503815,18.786275,9.737955,18.839174999999997L10.739485,18.923575L10.929255000000001,18.923575C11.105505,18.961775,11.348005,18.905175,11.530155,18.944675C11.659445,18.972575,11.846125,18.955175,11.994015000000001,18.955175C12.148705,18.955175,12.343015000000001,18.973575,12.478955,18.944675C12.662054999999999,18.905675000000002,12.903095,18.961475,13.079895,18.923575L13.269645,18.923575C13.448975,18.884375,13.651985,18.922674999999998,13.838925,18.881375C13.974365,18.851575,14.125845,18.871675,14.271165,18.839174999999997C14.590765,18.767975,14.946975,18.768875,15.251625,18.691575C15.412125,18.650875,15.559425,18.661175,15.715425,18.617775C16.128025,18.503275000000002,16.559925,18.428775,16.938425000000002,18.291075C17.401425,18.122574999999998,17.830925,17.984375,18.214025,17.742775C18.334825000000002,17.666674999999998,18.440525,17.562775000000002,18.551325,17.479275C18.763825,17.319274999999998,18.979824999999998,17.072175,18.983625,16.709675L18.983625,7.242585L18.980425,7.242585ZM17.613125,16.433875C17.580725,16.462474999999998,17.552125,16.497275000000002,17.518225,16.519875C17.401425,16.597675000000002,17.256825,16.674275,17.128125,16.730674999999998C16.812424999999998,16.869275000000002,16.469225,16.967075,16.126625,17.078575C15.764425,17.196575,15.367625,17.225675000000003,14.988025,17.321075C14.872055,17.350275,14.769705,17.334875,14.650675,17.363275C14.366305,17.431075,14.030005,17.412375,13.733485,17.479275C13.600445,17.509275000000002,13.456365,17.483275,13.332865,17.510875L12.710885000000001,17.531975C12.585055,17.559775000000002,12.406975,17.511775,12.268094999999999,17.542475C12.134675,17.571975000000002,11.874505,17.571275,11.740974999999999,17.542475C11.601785,17.512575,11.424205,17.559275,11.298195,17.531975L11.076815,17.531975C10.955594999999999,17.525175,10.791165,17.525375,10.676205,17.500275000000002L10.528615,17.500275000000002C10.344555,17.459274999999998,10.140865,17.491175,9.948775000000001,17.447575C9.809395,17.416075,9.654535,17.429675,9.506005,17.394875C9.234445000000001,17.331375,8.932205,17.316875,8.673165000000001,17.247275000000002C8.516705,17.205275,8.373205,17.206274999999998,8.219835,17.162975C7.760535,17.033175,7.312485000000001,16.905675000000002,6.912585,16.730775C6.740565,16.655475,6.522365,16.576475000000002,6.396005,16.444375L6.396005,14.829415C6.694595,14.951275,7.012665,15.051075,7.344805,15.159875C7.673145,15.267475,8.047365,15.332875,8.399035,15.423475C8.601805,15.475775,8.814275,15.481275,9.010505,15.528875C9.249414999999999,15.586875,9.503785,15.570875,9.737925,15.623775L10.739455,15.708075L10.929224999999999,15.708075C11.105475,15.746375,11.347975,15.689775,11.530125,15.729175C11.659415,15.757175,11.846095,15.739775,11.993985,15.739775C12.148675,15.739675,12.342984999999999,15.758075,12.478925,15.729175C12.662035,15.690275,12.903065,15.746075,13.079865,15.708075L13.269615,15.708075C13.448945,15.668975,13.651955,15.707175,13.838915,15.665975C13.974335,15.636075,14.125815,15.656175,14.271145,15.623775C14.590735,15.552475,14.946945,15.553475,15.251625,15.476175C15.412125,15.435475,15.559425,15.445775,15.715425,15.402375C16.127924999999998,15.287775,16.559925,15.213275,16.938325,15.075575C17.172425,14.990375,17.397824999999997,14.912965,17.613025,14.826045L17.613025,16.433875L17.613125,16.433875ZM17.613125,13.218415C17.580725,13.247055,17.552125,13.281855,17.518225,13.304435C17.401425,13.382225,17.256825,13.458835,17.128125,13.515295C16.812424999999998,13.653865,16.469225,13.751655,16.126625,13.863195C15.764425,13.981135,15.367625,14.010225,14.988025,14.105665C14.872055,14.134855,14.769705,14.119475,14.650675,14.147855C14.366305,14.215585,14.030005,14.196905,13.733485,14.263805C13.600445,14.293835,13.456365,14.267835,13.332865,14.295435L12.710885000000001,14.316525C12.585055,14.344365,12.406975,14.296335,12.268094999999999,14.327055C12.134675,14.356585,11.874505,14.355805,11.740974999999999,14.327055C11.601785,14.297115,11.424205,14.343805,11.298195,14.316525L11.076815,14.316525C10.955594999999999,14.309715,10.791165,14.309975,10.676205,14.284905L10.528615,14.284905C10.344555,14.243825,10.140865,14.275695,9.948775000000001,14.232185C9.809395,14.200615,9.654535,14.214265,9.506005,14.179475C9.234445000000001,14.115915,8.932205,14.101445,8.673165000000001,14.031885C8.516705,13.989885,8.373205,13.990905,8.219835,13.947545C7.760535,13.817775,7.312485000000001,13.690255,6.912585,13.515305C6.740565,13.440075,6.522365,13.361045,6.396005,13.228975L6.396005,11.751055000000001C6.694595,11.872935,7.012665,11.972715,7.344805,12.081545C7.673145,12.189135,8.047365,12.254465,8.399035,12.345105C8.601805,12.397365,8.814275,12.402895000000001,9.010505,12.450524999999999C9.249414999999999,12.508524999999999,9.503785,12.492474999999999,9.737925,12.545415L10.739455,12.629745L10.929224999999999,12.629745C11.105475,12.667975,11.347975,12.611415000000001,11.530125,12.650835C11.659415,12.678805,11.846095,12.661385,11.993985,12.661365C12.148675,12.661335000000001,12.342984999999999,12.679715,12.478925,12.650825000000001C12.662035,12.611895,12.903065,12.667645,13.079865,12.629725L13.269615,12.629725C13.448945,12.590544999999999,13.651955,12.628824999999999,13.838915,12.587575000000001C13.974335,12.557694999999999,14.125815,12.577805,14.271145,12.545415C14.590735,12.474155,14.946945,12.475135,15.251625,12.397825000000001C15.412125,12.357085,15.559425,12.367384999999999,15.715425,12.324045C16.127924999999998,12.209415,16.559925,12.134934999999999,16.938325,11.997215C17.172425,11.912054999999999,17.397824999999997,11.834605,17.613025,11.747685L17.613025,13.218415L17.613125,13.218415ZM17.613125,10.140075C17.580725,10.168695,17.552125,10.203515,17.518225,10.226085000000001C17.401425,10.303865,17.256825,10.380495,17.128125,10.436935C16.812424999999998,10.575495,16.469225,10.673275,16.126625,10.784835000000001C15.764425,10.902795000000001,15.367625,10.931835,14.988025,11.027305C14.872055,11.056474999999999,14.769705,11.041115,14.650675,11.069475C14.366305,11.137225,14.030005,11.118545000000001,13.733485,11.185445C13.600445,11.215475,13.456365,11.189475,13.332865,11.217075000000001L12.710885000000001,11.238165C12.585055,11.265975000000001,12.406975,11.217975,12.268094999999999,11.248695C12.134675,11.278224999999999,11.874505,11.277445,11.740974999999999,11.248695C11.601785,11.218725,11.424205,11.265435,11.298195,11.238165L11.076815,11.238165C10.955594999999999,11.231355,10.791165,11.231605,10.676205,11.206545L10.528615,11.206545C10.344555,11.165465000000001,10.140865,11.197334999999999,9.948775000000001,11.153825000000001C9.809395,11.122264999999999,9.654535,11.135885,9.506005,11.101115C9.234445000000001,11.037545,8.932205,11.023085,8.673165000000001,10.953524999999999C8.516705,10.911525000000001,8.373205,10.912524999999999,8.219835,10.869185C7.760535,10.739405,7.312485000000001,10.611885000000001,6.912585,10.436945C6.740565,10.361715,6.522365,10.282665,6.396005,10.150615L6.396005,8.565555C6.672175,8.678475,6.961475,8.774115,7.239395,8.866115C7.551805,8.969555,7.9079250000000005,9.036075,8.240915000000001,9.129685C8.427775,9.182195,8.629165,9.189855,8.810205,9.235105L9.737925,9.361605L10.739455,9.445945L10.929224999999999,9.445945C11.105415,9.484225,11.348085000000001,9.427545,11.530125,9.467044999999999C11.659395,9.495055,11.846125,9.477585000000001,11.993985,9.477575C12.148675,9.477575,12.343025,9.495965,12.478925,9.467044999999999L13.079865,9.456495C13.188285,9.432775,13.318425,9.461665,13.438305,9.435405C13.523175,9.416805,13.626365,9.435555,13.722945,9.414325C14.012055,9.350795,14.340785,9.373115,14.619055,9.308914999999999C14.818615,9.262865,15.003925,9.283135,15.198925,9.235115C15.627125,9.129605,16.078525,9.078795,16.474525,8.950465C16.661425,8.889915,16.830325000000002,8.863195000000001,17.012124999999997,8.802885C17.217925,8.734605,17.419725,8.656835000000001,17.613125,8.569885L17.613125,10.140075Z" fill="url(#master_svg1_1733_000418)" fill-opacity="1"/></g></g></svg>