<svg xmlns="http://www.w3.org/2000/svg" fill="none" width="36" height="33.75">
  <path d="M22.5 9.75h-3V7.2a3.79 3.79 0 0 0 2.25-3.45C21.75 1.65 20.1 0 18 0s-3.75 1.8-3.75 3.75c0 1.5.9 2.85 2.25 3.45v2.55h-3a9.73 9.73 0 0 0-9.75 9.75c0 5.4 4.35 9.75 9.75 9.75h9c5.4 0 9.75-4.35 9.75-9.75S27.9 9.75 22.5 9.75ZM18 3.15c.45 0 .75.3.75.75s-.3.75-.75.75-.75-.3-.75-.75.3-.75.75-.75Zm4.5 23.1h-9c-3.75 0-6.75-3-6.75-6.75s3-6.75 6.75-6.75h9c3.75 0 6.75 3 6.75 6.75s-3 6.75-6.75 6.75Zm-9.75-11.1c-2.55 0-4.5 1.95-4.5 4.5s1.95 4.5 4.5 4.5 4.5-1.95 4.5-4.5-1.95-4.5-4.5-4.5Zm0 6c-.9 0-1.5-.6-1.5-1.5s.6-1.5 1.5-1.5 1.5.6 1.5 1.5-.6 1.5-1.5 1.5Zm10.5-6c-2.55 0-4.5 1.95-4.5 4.5s1.95 4.5 4.5 4.5 4.5-1.95 4.5-4.5-1.95-4.5-4.5-4.5Zm0 6c-.9 0-1.5-.6-1.5-1.5s.6-1.5 1.5-1.5 1.5.6 1.5 1.5-.6 1.5-1.5 1.5Zm-21.75-6c-.9 0-1.5.6-1.5 1.5v6c0 .9.6 1.5 1.5 1.5s1.5-.6 1.5-1.5v-6c0-.9-.6-1.5-1.5-1.5Zm33 0c-.9 0-1.5.6-1.5 1.5v6c0 .9.6 1.5 1.5 1.5s1.5-.6 1.5-1.5v-6c0-.9-.6-1.5-1.5-1.5Zm-4.35 15.6H5.85c-.9 0-1.5.6-1.5 1.5s.6 1.5 1.5 1.5h24.3c.9 0 1.5-.6 1.5-1.5s-.75-1.5-1.5-1.5Z" fill="currentColor"/>
</svg>