<svg xmlns="http://www.w3.org/2000/svg" viewBox="0 0 32 32" fill="none">
  <defs>
    <clipPath id="a">
      <rect width="32" height="32" rx="0"/>
    </clipPath>
  </defs>
  <g clip-path="url(#a)">
    <path fill="currentColor" d="m8.481 3.344.125.103 3.017 3.019A10.45 10.45 0 0 1 16 5.51c1.563 0 3.046.341 4.38.955l3.018-3.019.122-.103A.889.889 0 0 1 24.76 4.58l-.103.125L21.98 7.38A10.477 10.477 0 0 1 26.49 16c0 1.479-.307 2.915-.89 4.236a4.087 4.087 0 0 1-1.32 7.844l-.279.009h-16a4.089 4.089 0 0 1-1.596-7.855A10.43 10.43 0 0 1 5.512 16a10.476 10.476 0 0 1 4.51-8.619L7.348 4.704a.889.889 0 0 1 1.134-1.36Zm15.52 18.345h-16a2.311 2.311 0 0 0-.236 4.61L8 26.31h16a2.311 2.311 0 1 0 0-4.622Zm-8-14.4C9.517 7.287 5.303 14.117 8.215 19.91h15.57l.017-.027c2.886-5.793-1.329-12.598-7.8-12.595Zm-12.8 4.622c.43 0 .798.307.875.729l.014.16v5.6a.889.889 0 0 1-1.763.16l-.014-.16v-5.6c0-.491.397-.889.888-.889Zm25.6 0c.43 0 .798.307.875.729l.014.16v5.6a.889.889 0 0 1-1.763.16l-.014-.16v-5.6c0-.491.398-.889.888-.889Zm-16 .889a1.6 1.6 0 1 1 0 3.2 1.6 1.6 0 0 1 0-3.2Zm6.4 0a1.6 1.6 0 1 1 0 3.2 1.6 1.6 0 0 1 0-3.2Z"/>
  </g>
</svg>