<svg xmlns="http://www.w3.org/2000/svg" viewBox="0 0 28 28" fill="none">
  <defs>
    <clipPath id="a">
      <rect width="28" height="28" rx="0"/>
    </clipPath>
  </defs>
  <g clip-path="url(#a)">
    <path fill="currentColor" fill-rule="evenodd" d="M12.163 7.8c0 .665.362 1.247.899 1.559v1.246h-2.58a2.694 2.694 0 0 0-2.69 2.691v6.653a2.694 2.694 0 0 0 2.69 2.69h6.963a2.694 2.694 0 0 0 2.69-2.69v-6.653a2.694 2.694 0 0 0-2.69-2.69h-2.583V9.36A1.801 1.801 0 0 0 13.963 6c-.993 0-1.8.807-1.8 1.8ZM5 18.447a.901.901 0 0 0 1.8 0V14.8a.901.901 0 0 0-1.8 0v3.647Zm16.2 0a.901.901 0 0 0 1.8 0V14.8a.901.901 0 0 0-1.8 0v3.647Zm-9.502-.795a1.028 1.028 0 1 1 .001-2.055 1.028 1.028 0 0 1 0 2.055Zm4.52 0a1.028 1.028 0 1 1 0-2.055 1.028 1.028 0 0 1 0 2.055Z"/>
  </g>
</svg>