<svg xmlns="http://www.w3.org/2000/svg" fill="none" viewBox="0 0 18 18">
  <defs>
    <clipPath id="a">
      <rect width="18" height="18" rx="0"/>
    </clipPath>
  </defs>
  <g clip-path="url(#a)">
    <path d="m9.281 3.985.002-.001c1.855-1.855 4.434-2.515 6.727-1.955.56 2.293-.1 4.873-1.954 6.728a6.546 6.546 0 0 1-.078.076l-1.02 1.02.844 1.49a1.35 1.35 0 0 1-.067 1.436l-2.22 3.191a1.35 1.35 0 0 1-1.944.29l.006-.008a.732.732 0 0 1-.263-.958c.44-.75.492-1.731.194-2.733a3.372 3.372 0 0 1-3.124-.907 3.372 3.372 0 0 1-.907-3.123c-1-.298-1.982-.245-2.731.194l-.001-.001a.732.732 0 0 1-.958-.261l-.006.005a1.35 1.35 0 0 1 .296-1.936l3.193-2.22a1.35 1.35 0 0 1 1.433-.069l1.484.835 1.061-1.06.033-.033Zm-4.596 6.66c.314.808.655 1.397 1.023 1.765.36.36.916.678 1.666.954a.338.338 0 0 1 .086.587l-1.28.96a.338.338 0 0 1-.532-.348l.056-.234a.338.338 0 0 0-.49-.375l-1.13.618a.337.337 0 0 1-.457-.458l.659-1.206a.337.337 0 0 0-.344-.496l-.569.082a.337.337 0 0 1-.317-.537L4.1 10.565a.338.338 0 0 1 .584.08Zm6.234-3.525a1.35 1.35 0 1 0 1.91-1.908 1.35 1.35 0 0 0-1.91 1.908Z" fill="currentColor"/>
  </g>
</svg>