<svg xmlns="http://www.w3.org/2000/svg" fill="none" viewBox="0 0 16 16">
  <defs>
    <clipPath id="a">
      <rect width="16" height="16" rx="0"/>
    </clipPath>
  </defs>
  <g clip-path="url(#a)">
    <path d="M7.994 13.802c-3.206 0-5.814-2.605-5.814-5.805 0-3.202 2.607-5.805 5.814-5.805 3.206 0 5.814 2.605 5.814 5.805 0 3.201-2.608 5.805-5.814 5.805Zm0-12.77c-3.849 0-6.978 3.124-6.978 6.965 0 3.84 3.13 6.965 6.978 6.965 3.847 0 6.978-3.125 6.978-6.965-.002-3.84-3.131-6.966-6.978-6.966Zm1.945 5.46-2.758 3.01-1.128-1.263a.581.581 0 1 0-.867.773l1.558 1.743c.11.122.265.192.43.193h.003a.586.586 0 0 0 .43-.189l3.19-3.482a.58.58 0 1 0-.858-.785Z" fill="currentColor"/>
  </g>
</svg>