<svg xmlns="http://www.w3.org/2000/svg" viewBox="0 0 24 24" fill="none">
  <defs>
    <clipPath id="a">
      <rect width="24" height="24" rx="0"/>
    </clipPath>
  </defs>
  <g clip-path="url(#a)">
    <path fill="currentColor" d="m20.017 13.575-1.424-1.08c.015-.15.03-.315.03-.495s-.015-.345-.03-.495l1.424-1.08c.39-.3.495-.825.24-1.275l-1.589-2.685a1.026 1.026 0 0 0-1.229-.45l-1.694.66a5.747 5.747 0 0 0-.884-.495l-.255-1.725a1.004 1.004 0 0 0-1.004-.855h-3.208c-.51 0-.93.36-1.004.84l-.24 1.74c-.3.135-.585.3-.884.495l-1.694-.66c-.12-.045-.24-.06-.36-.06-.36 0-.704.18-.87.495L3.74 9.15a.979.979 0 0 0 .24 1.275l1.424 1.08c-.015.18-.03.345-.03.495 0 .15 0 .315.03.495l-1.424 1.08c-.39.3-.495.825-.24 1.275l1.589 2.685a1.026 1.026 0 0 0 1.229.45l1.694-.66c.284.195.584.36.884.495l.255 1.725c.06.48.495.855 1.004.855h3.208c.51 0 .93-.36 1.004-.84l.255-1.74c.3-.135.585-.3.884-.495l1.694.66c.12.045.24.06.36.06.36 0 .704-.18.87-.495l1.603-2.715a.976.976 0 0 0-.255-1.26ZM15.595 12a3.61 3.61 0 0 1-3.597 3.6A3.61 3.61 0 0 1 8.401 12a3.61 3.61 0 0 1 3.597-3.6 3.61 3.61 0 0 1 3.597 3.6Z"/>
  </g>
</svg>