<svg xmlns="http://www.w3.org/2000/svg" viewBox="0 0 16 16" fill="none">
  <defs>
    <clipPath id="a">
      <rect width="16" height="16" rx="0"/>
    </clipPath>
  </defs>
  <g clip-path="url(#a)">
    <path fill="currentColor" d="M14.854 5.806c-.082-.432-.346-.711-.673-.711H14.111a1.716 1.716 0 0 1-1.714-1.714c0-.307.148-.65.15-.653a.9.9 0 0 0-.304-1.087l-.02-.015-1.737-.965-.022-.01A.995.995 0 0 0 9.39.866c-.19.197-.847.759-1.353.759-.51 0-1.17-.573-1.362-.773A.995.995 0 0 0 5.6.63l-.022.01-1.798.987-.021.015a.898.898 0 0 0-.305 1.086c.001.003.15.345.15.654 0 .945-.77 1.714-1.714 1.714h-.072c-.326 0-.59.279-.672.711C1.14 5.838 1 6.59 1 7.177c0 .588.14 1.34.146 1.372.082.432.346.711.673.711H1.889c.946 0 1.715.769 1.715 1.714 0 .307-.148.65-.15.653a.9.9 0 0 0 .303 1.088l.02.014 1.703.952.022.01a.978.978 0 0 0 1.079-.226c.242-.263.898-.806 1.383-.806.525 0 1.198.609 1.393.822a.978.978 0 0 0 .716.306c.128 0 .25-.025.36-.073l.023-.01 1.766-.975.02-.015a.898.898 0 0 0 .305-1.085c-.002-.004-.15-.35-.15-.655 0-.945.769-1.714 1.714-1.714h.058a.57.57 0 0 0 .012 0c.327 0 .591-.28.673-.711.001-.008.146-.769.146-1.372 0-.59-.14-1.34-.146-1.37Zm-8.976 6.97-1.49-.833c.065-.168.2-.562.2-.97a2.696 2.696 0 0 0-2.49-2.689c-.034-.199-.114-.71-.114-1.107 0-.396.08-.907.115-1.107a2.696 2.696 0 0 0 2.488-2.689c0-.406-.133-.798-.198-.967l1.585-.871c.058.058.286.285.602.51.516.368 1.007.554 1.46.554.449 0 .936-.182 1.45-.543a4.71 4.71 0 0 0 .597-.5l1.53.848c-.066.17-.2.563-.2.969a2.696 2.696 0 0 0 2.489 2.69c.034.2.114.712.114 1.106 0 .397-.08.908-.114 1.107a2.696 2.696 0 0 0-2.489 2.69c0 .406.134.8.2.968l-1.549.855a4.817 4.817 0 0 0-.604-.533c-.526-.39-1.029-.589-1.496-.589-.462 0-.962.194-1.485.578a4.843 4.843 0 0 0-.601.523Zm4.571-5.608A2.482 2.482 0 0 0 7.97 4.69a2.482 2.482 0 0 0-2.478 2.48A2.482 2.482 0 0 0 7.97 9.647a2.482 2.482 0 0 0 2.48-2.48ZM7.97 5.673c.826 0 1.497.67 1.497 1.495 0 .825-.671 1.496-1.496 1.496a1.497 1.497 0 0 1-1.496-1.496c0-.824.671-1.495 1.496-1.495Z"/>
  </g>
</svg>
