<svg xmlns="http://www.w3.org/2000/svg" xmlns:xlink="http://www.w3.org/1999/xlink" fill="none" version="1.1" viewBox="0 0 24 24"><defs><clipPath id="master_svg0_3435_51269"><rect x="0" y="0" width="24" height="24" rx="0"/></clipPath></defs><g clip-path="url(#master_svg0_3435_51269)"><g><path d="M20.1815,3.0000982877L15.2723,3.0000982877C15.0468,3.0000982877,14.8535,3.081759,14.6942,3.246714C14.5369,3.402629,14.4499,3.618792,14.4538,3.843381C14.4538,4.07475,14.5332,4.2723700000000004,14.6942,4.43678C14.853,4.6017399999999995,15.0468,4.68394,15.2723,4.68394L18.2058,4.68394L11.41712,11.66321C11.26122,11.81856,11.17577,12.03399,11.18154,12.25715C11.18154,12.49669,11.25936,12.69703,11.41448,12.856C11.56959,13.0182,11.76495,13.0983,11.99948,13.0983C12.22977,13.0983,12.42354,13.0161,12.5813,12.85328L19.3631,5.87401L19.3631,8.89001C19.3631,9.123560000000001,19.4425,9.32172,19.6029,9.48613C19.7628,9.65054,19.9555,9.73275,20.1815,9.73275C20.4071,9.73275,20.6003,9.65109,20.7596,9.48613C20.9201,9.32172,21,9.123560000000001,21,8.88947L21,3.842837C21,3.61201,20.9206,3.411124,20.7596,3.246714C20.6084,3.0858821,20.3991,2.99661136,20.1815,3.0000982877ZM11.09895,3.0463727C10.003589999999999,3.156343,8.93842,3.475908,7.95689,3.987104C5.98171,5.0093700000000005,4.44057,6.742179999999999,3.626304,8.856259999999999C3.210764,9.93835,2.99825584,11.09157,3.0000107436,12.25498C3.0000107436,13.512,3.236658,14.7124,3.7088929999999998,15.8568C4.1483,16.939,4.78995,17.9211,5.6333,18.8004C6.48936,19.6692,7.44442,20.3274,8.49689,20.7798C9.60865,21.2654,10.77601,21.5093,11.99948,21.5093C13.1306,21.5111,14.2518,21.2922,15.3035,20.8642C16.3183,20.4517,17.252000000000002,19.8533,18.0591,19.0981C18.8737,18.3348,19.5454,17.4244,20.0407,16.412100000000002C20.5366,15.4028,20.8464,14.3079,20.9545,13.1826C20.9756,12.93058,20.9068,12.71445,20.7464,12.52936C20.5925,12.34939,20.369,12.24889,20.136,12.25498C19.9274,12.25498,19.7453,12.32684,19.5896,12.47056C19.4329,12.61483,19.3451,12.7972,19.3239,13.0106C19.2377,13.9331,18.985500000000002,14.831,18.5801,15.6586C18.1753,16.488500000000002,17.6232,17.2331,16.9521,17.8542C16.296799999999998,18.4771,15.5336,18.9679,14.7021,19.3012C13.8412,19.6493,12.92408,19.8274,11.99895,19.826C10.9973,19.826,10.04277,19.6278,9.134830000000001,19.2348C8.27401,18.8619,7.49207,18.3191,6.78901,17.6097C6.098660000000001,16.8873,5.57242,16.0854,5.21083,15.198C4.8271,14.2672,4.63115,13.266,4.63483,12.25497C4.63483,11.29573,4.8053,10.36807,5.14572,9.47307C5.46902,8.61777,5.9462399999999995,7.83283,6.55236,7.15935C7.77061,5.76957,9.45125,4.89992,11.26254,4.72205C11.47165,4.69919,11.64636,4.60936,11.78665,4.44713C11.92747,4.2881599999999995,11.99842,4.10034,11.99842,3.886934C11.99842,3.719801,11.96771,3.578256,11.90524,3.46012C11.84997,3.349347,11.76464,3.2574389999999998,11.65959,3.19554C11.56778,3.143524,11.46995,3.103648,11.36842,3.0768598C11.27913,3.0558842,11.18789,3.0449323,11.0963,3.0441956L11.09842,3.0463731L11.09895,3.0463727Z" fill="currentColor" fill-opacity="1"/></g></g></svg>
