<svg xmlns="http://www.w3.org/2000/svg" fill="none" viewBox="0 0 18 18">
  <defs>
    <clipPath id="a">
      <rect width="18" height="18" rx="0"/>
    </clipPath>
  </defs>
  <g clip-path="url(#a)">
    <path d="M16 15.348a2.552 2.552 0 0 0-2.546-2.558c-.625 0-1.19.236-1.634.612L6.776 10.16c.194-.362.315-.768.315-1.208 0-.4-.1-.774-.263-1.111l5.057-3.283c.434.344.975.557 1.569.557a2.552 2.552 0 0 0 2.545-2.558A2.552 2.552 0 0 0 13.454 0a2.552 2.552 0 0 0-2.545 2.558c0 .35.07.682.197.985L6.026 6.84l.055.085a2.516 2.516 0 0 0-1.536-.53A2.551 2.551 0 0 0 2 8.953a2.552 2.552 0 0 0 2.545 2.558c.495 0 .952-.148 1.343-.393l5.19 3.335a2.54 2.54 0 0 0-.169.895 2.552 2.552 0 0 0 2.545 2.558A2.553 2.553 0 0 0 16 15.348ZM12.745 3.62l-.518-.807-.018.012a1.276 1.276 0 0 1 1.244-1.546c.703 0 1.272.572 1.272 1.279 0 .706-.57 1.279-1.272 1.279-.262 0-.505-.08-.708-.217ZM3.273 8.953c0-.706.57-1.28 1.272-1.28.703 0 1.273.573 1.273 1.28 0 .706-.57 1.279-1.273 1.279a1.276 1.276 0 0 1-1.272-1.28Zm8.907 6.395c0-.707.57-1.279 1.273-1.279s1.273.572 1.273 1.279c0 .706-.57 1.28-1.273 1.28a1.276 1.276 0 0 1-1.273-1.28Z" fill="currentColor"/>
  </g>
</svg>