<svg xmlns="http://www.w3.org/2000/svg" xmlns:xlink="http://www.w3.org/1999/xlink" fill="none" version="1.1" width="22" height="22" viewBox="0 0 22 22"><defs><clipPath id="master_svg0_3726_76007"><rect x="0" y="0" width="22" height="22" rx="0"/></clipPath></defs><g clip-path="url(#master_svg0_3726_76007)"><g><path d="M9.33698,10.2582L5.12908,10.2582C2.3017,10.2582,0,7.95645,0,5.12908C0,2.3017,2.29924,0,5.12908,0C7.95891,0,10.2582,2.3017,10.2582,5.12908L10.2582,9.33698C10.2582,9.84547,9.84547,10.2582,9.33698,10.2582ZM5.12908,1.83988C3.31621,1.83988,1.83988,3.31621,1.83988,5.12908C1.83988,6.94194,3.31376,8.41827,5.12908,8.41827L8.41827,8.41827L8.41827,5.12908C8.41581,3.31376,6.94194,1.83988,5.12908,1.83988ZM16.8709,10.2606L12.663,10.2606C12.1545,10.2606,11.7418,9.84793,11.7418,9.33944L11.7418,5.13153C11.7418,2.30415,14.0435,0.00245642,16.8709,0.00245642C19.6983,0.00245642,22,2.3017,22,5.13153C22,7.96137,19.7008,10.2606,16.8709,10.2606ZM13.5842,8.42072L16.8709,8.42072C18.6838,8.42072,20.1601,6.9444,20.1601,5.13153C20.1601,3.31867,18.6862,1.84234,16.8709,1.84234C15.0556,1.84234,13.5842,3.31621,13.5842,5.13153L13.5842,8.42072ZM5.12908,22.0049C2.3017,22.0049,0,19.7032,0,16.8758C0,14.0485,2.29924,11.7443,5.12908,11.7443L9.33698,11.7443C9.84547,11.7443,10.2582,12.157,10.2582,12.6655L10.2582,16.8734C10.2582,19.7032,7.95645,22.0049,5.12908,22.0049ZM5.12908,13.5866C3.31621,13.5866,1.83988,15.063,1.83988,16.8758C1.83988,18.6887,3.31376,20.1626,5.12908,20.1626C6.9444,20.1626,8.41581,18.6887,8.41581,16.8734L8.41581,13.5866L5.12908,13.5866ZM16.8709,22.0049C14.0435,22.0049,11.7418,19.7032,11.7418,16.8758L11.7418,12.6679C11.7418,12.1594,12.1545,11.7468,12.663,11.7468L16.8709,11.7468C19.6983,11.7468,22,14.0485,22,16.8758C22,19.7032,19.7008,22.0049,16.8709,22.0049ZM13.5842,13.5866L13.5842,16.8758C13.5842,18.6912,15.0581,20.165,16.8709,20.165C18.6838,20.165,20.1601,18.6912,20.1601,16.8758C20.1601,15.0605,18.6862,13.5866,16.8709,13.5866L13.5842,13.5866Z" fill="currentColor" fill-opacity="1"/></g></g></svg>