<svg xmlns="http://www.w3.org/2000/svg" viewBox="0 0 14 14" fill="none">
  <defs>
    <clipPath id="a">
      <rect width="14" height="14" rx="0"/>
    </clipPath>
  </defs>
  <g clip-path="url(#a)">
    <path fill="currentColor" d="M13.125 8.086V5.044l.002-.01-.002-.01V2.624a.438.438 0 0 0-.437-.438H1.312a.437.437 0 0 0-.437.438v2.398l-.002.01.002.011v3.042l-.002.01.002.01v3.707c0 .241.196.437.437.437h11.376a.438.438 0 0 0 .437-.438V8.107l.002-.01-.002-.011Zm-7.656-.427V5.47h2.843V7.66H5.47Zm2.843.875v2.841H5.47V8.534h2.843ZM1.75 5.47h2.844V7.66H1.75V5.47Zm7.437 0h3.063V7.66H9.187V5.47Zm3.063-2.409v1.534H1.75V3.062h10.5ZM1.75 8.535h2.844v2.841H1.75V8.534Zm7.437 2.841V8.534h3.063v2.841H9.187Z"/>
  </g>
</svg>