<svg xmlns="http://www.w3.org/2000/svg" viewBox="0 0 32 32" fill="none">
  <defs>
    <clipPath id="a">
      <rect width="32" height="32" rx="0"/>
    </clipPath>
  </defs>
  <g clip-path="url(#a)">
    <path fill="currentColor" d="M30.896 12.036c.71-.43 1.121-1.098 1.121-1.835 0-.737-.407-1.405-1.12-1.835L17.873.486C16.808-.16 15.207-.16 14.139.485L1.12 8.365C.407 8.796 0 9.465 0 10.202c0 .737.407 1.405 1.12 1.835l3.484 2.111.038 10.722c.004 1.38.802 2.629 2.035 3.182A22.346 22.346 0 0 0 15.848 30a21.799 21.799 0 0 0 9.806-2.326 2.797 2.797 0 0 0 1.514-2.462l.083-10.96 3.645-2.217ZM15.381 2.643a1.485 1.485 0 0 1 1.255 0l12.487 7.551-12.487 7.551a1.485 1.485 0 0 1-1.255 0l-8.712-5.26a1.216 1.216 0 0 0-.48-.293l-3.296-1.991L15.38 2.643Zm9.34 22.543a.26.26 0 0 1-.138.235 19.171 19.171 0 0 1-8.735 2.073c-2.82.007-5.61-.586-8.194-1.741a.977.977 0 0 1-.562-.893l-.037-9.23 7.084 4.295a3.853 3.853 0 0 0 3.74 0l6.913-4.184-.072 9.445Zm6.035-11.894c-.675 0-1.222.56-1.222 1.252v10.862c.024.675.564 1.209 1.222 1.209.659 0 1.199-.534 1.223-1.209V14.544c-.001-.692-.549-1.252-1.223-1.252Z"/>
  </g>
</svg>