<svg xmlns="http://www.w3.org/2000/svg" xmlns:xlink="http://www.w3.org/1999/xlink" fill="none" version="1.1" width="22" height="17" viewBox="0 0 22 17"><defs><linearGradient x1="0.5" y1="0" x2="0.24279530346393585" y2="1" id="master_svg0_3643_069886"><stop offset="0%" stop-color="#7C5CFC" stop-opacity="1"/><stop offset="100%" stop-color="#D771FF" stop-opacity="1"/></linearGradient></defs><g><g transform="matrix(1,0,0,-1,0,34)"><path d="M1.41204,26.98973C0.636663,27.7976,0.675571,29.084600000000002,1.49833,29.8442L5.42539,33.4695C5.79484,33.8106,6.27921,34,6.78203,34L11,34L15.218,34C15.7208,34,16.2052,33.8106,16.5746,33.4695L20.5017,29.8442C21.3244,29.084600000000002,21.3633,27.7976,20.588,26.98973L12.4429,18.5034C11.6558,17.683262,10.3442,17.683262,9.55707,18.5034L1.41204,26.98973Z" fill="url(#master_svg0_3643_069886)" fill-opacity="1"/></g><g transform="matrix(0.7071067690849304,-0.7071067690849304,0.7071067690849304,0.7071067690849304,-2.010087034199387,6.631595232989639)"><path d="M6.188823,12.5556175L13.01121,12.4599875L12.98879,10.8601475L7.811177,10.932717499999999L7.882045,5.7531322L6.282195,5.7312428L6.188823,12.5556175Z" fill-rule="evenodd" fill="#FFFFFF" fill-opacity="1"/></g></g></svg>