<svg xmlns="http://www.w3.org/2000/svg" fill="none" width="15" height="12.5">
  <path d="M5.625 1.25a1.875 1.875 0 1 0 0 3.75 1.875 1.875 0 0 0 0-3.75ZM2.5 3.125a3.125 3.125 0 1 1 6.25 0 3.125 3.125 0 0 1-6.25 0ZM9.395.551a.625.625 0 0 1 .76-.45 3.125 3.125 0 0 1 0 6.054.625.625 0 1 1-.31-1.21 1.875 1.875 0 0 0 0-3.633.625.625 0 0 1-.45-.76ZM.915 8.415a3.125 3.125 0 0 1 2.21-.915h5a3.125 3.125 0 0 1 3.125 3.125v1.25a.625.625 0 1 1-1.25 0v-1.25A1.875 1.875 0 0 0 8.125 8.75h-5a1.875 1.875 0 0 0-1.875 1.875v1.25a.625.625 0 1 1-1.25 0v-1.25c0-.829.33-1.624.915-2.21Zm10.98-.365a.625.625 0 0 1 .761-.449A3.125 3.125 0 0 1 15 10.625v1.25a.625.625 0 1 1-1.25 0v-1.25a1.875 1.875 0 0 0-1.406-1.814.625.625 0 0 1-.45-.761Z" fill-rule="evenodd" fill="currentColor"/>
</svg>