<svg xmlns="http://www.w3.org/2000/svg" xmlns:xlink="http://www.w3.org/1999/xlink" fill="none" version="1.1" width="40" height="40" viewBox="0 0 40 40"><defs><clipPath id="master_svg0_3643_005978"><rect x="0" y="0" width="40" height="40" rx="20"/></clipPath></defs><g clip-path="url(#master_svg0_3643_005978)"><rect x="0" y="0" width="40" height="40" rx="20" fill="#E0EAFF" fill-opacity="1"/><g><path d="M26.181794921875,22.05558125C26.181194921875,22.52808125,25.798394921875,22.91097125,25.325794921875,22.911581249999998L14.674204921874999,22.911581249999998C14.201694921875,22.91098125,13.818804921875,22.52808125,13.818204921875001,22.05558125L13.818204921875001,15.40430125C13.818804921875,14.93174125,14.201634921875,14.548741249999999,14.674204921874999,14.547941250000001L25.325794921875,14.547941250000001C25.798394921875,14.548741249999999,26.181194921875,14.93174125,26.181794921875,15.40430125L26.181794921875,22.05558125ZM25.325794921875,13.45703125L14.674204921874999,13.45703125C13.599394921875,13.45843387,12.728496551875,14.32949525,12.727294921875,15.40430125L12.727294921875,22.05558125C12.728496671875,23.130331249999998,13.599453921875,24.00133125,14.674204921874999,24.00253125L19.454564921875,24.00253125L19.454564921875,25.45703125L16.727294921875,25.45703125C16.426044921875,25.45703125,16.181844921875,25.70123125,16.181844921875,26.00253125C16.181844921875,26.30373125,16.426044921875,26.547931249999998,16.727294921875,26.547931249999998L23.272794921875,26.547931249999998C23.573994921875,26.547931249999998,23.818194921874998,26.30373125,23.818194921874998,26.00253125C23.818194921874998,25.70123125,23.573994921875,25.45703125,23.272794921875,25.45703125L20.545474921874998,25.45703125L20.545474921874998,24.00253125L25.325794921875,24.00253125C26.400594921874998,24.00133125,27.271594921875,23.130331249999998,27.272794921875,22.05558125L27.272794921875,15.40430125C27.271594921875,14.32949525,26.400694921875,13.45843387,25.325794921875,13.45703125Z" fill="#4381FF" fill-opacity="1"/></g></g></svg>