
<svg xmlns="http://www.w3.org/2000/svg" xmlns:xlink="http://www.w3.org/1999/xlink" fill="none" version="1.1" width="46" height="12" viewBox="0 0 46 12"><g><g><rect x="0" y="3" width="1.2000000476837158" height="6" rx="0.6000000238418579" fill="#303133" fill-opacity="1"/></g><g><rect x="3.200000047683716" y="4" width="1.2000000476837158" height="4" rx="0.6000000238418579" fill="#303133" fill-opacity="1"/></g><g><rect x="6.399999618530273" y="3" width="1.2000000476837158" height="6" rx="0.6000000238418579" fill="#303133" fill-opacity="1"/></g><g><rect x="9.59999942779541" y="4" width="1.2000000476837158" height="4" rx="0.6000000238418579" fill="#303133" fill-opacity="1"/></g><g><rect x="12.799999237060547" y="0" width="1.2000000476837158" height="12" rx="0.6000000238418579" fill="#303133" fill-opacity="1"/></g><g><rect x="15.999999046325684" y="2" width="1.2000000476837158" height="8" rx="0.6000000238418579" fill="#303133" fill-opacity="1"/></g><g><rect x="19.200000762939453" y="4" width="1.2000000476837158" height="4" rx="0.6000000238418579" fill="#303133" fill-opacity="1"/></g><g><rect x="22.400001525878906" y="3" width="1.2000000476837158" height="6" rx="0.6000000238418579" fill="#303133" fill-opacity="1"/></g><g><rect x="25.60000228881836" y="4" width="1.2000000476837158" height="4" rx="0.6000000238418579" fill="#303133" fill-opacity="1"/></g><g><rect x="28.800003051757812" y="1" width="1.2000000476837158" height="10" rx="0.6000000238418579" fill="#303133" fill-opacity="1"/></g><g><rect x="32.000003814697266" y="4" width="1.2000000476837158" height="4" rx="0.6000000238418579" fill="#303133" fill-opacity="1"/></g><g><rect x="35.20000457763672" y="3" width="1.2000000476837158" height="6" rx="0.6000000238418579" fill="#303133" fill-opacity="1"/></g><g><rect x="38.40000534057617" y="4" width="1.2000000476837158" height="4" rx="0.6000000238418579" fill="#303133" fill-opacity="1"/></g><g><rect x="41.600006103515625" y="2" width="1.2000000476837158" height="8" rx="0.6000000238418579" fill="#303133" fill-opacity="1"/></g><g><rect x="44.80000686645508" y="4" width="1.2000000476837158" height="4" rx="0.6000000238418579" fill="#303133" fill-opacity="1"/></g></g></svg>
