<svg xmlns="http://www.w3.org/2000/svg" fill="none" viewBox="0 0 20 20">
  <defs>
    <clipPath id="a">
      <rect width="20" height="20" rx="0"/>
    </clipPath>
  </defs>
  <g clip-path="url(#a)">
    <path d="M12.973 7.197c.196 0 .389.014.58.035-.52-2.399-3.113-4.181-6.07-4.181-3.309 0-6.018 2.23-6.018 5.064 0 1.635.902 2.977 2.408 4.019l-.602 1.792 2.103-1.044c.753.147 1.357.298 2.108.298.189 0 .376-.009.562-.023a4.386 4.386 0 0 1-.186-1.248c0-2.6 2.257-4.712 5.115-4.712ZM9.74 5.582c.453 0 .753.296.753.744 0 .446-.3.745-.753.745-.452 0-.904-.3-.904-.745 0-.448.452-.744.904-.744ZM5.527 7.071c-.45 0-.906-.3-.906-.745 0-.448.455-.744.906-.744s.752.296.752.744c0 .446-.3.745-.752.745Zm12.939 4.767c0-2.38-2.408-4.321-5.111-4.321-2.863 0-5.118 1.94-5.118 4.32 0 2.385 2.255 4.321 5.118 4.321.599 0 1.203-.149 1.805-.298l1.65.894-.452-1.488c1.208-.897 2.108-2.086 2.108-3.428Zm-6.77-.746c-.3 0-.603-.294-.603-.595 0-.297.303-.596.602-.596.455 0 .753.299.753.596 0 .3-.298.595-.753.595Zm3.309 0c-.297 0-.598-.294-.598-.595 0-.297.3-.596.598-.596.451 0 .753.299.753.596 0 .3-.302.595-.753.595Z" fill="currentColor"/>
  </g>
</svg>