<svg xmlns="http://www.w3.org/2000/svg" fill="none" viewBox="0 0 16 16">
  <defs>
    <clipPath id="a">
      <rect width="16" height="16" rx="0"/>
    </clipPath>
  </defs>
  <g clip-path="url(#a)">
    <path d="M15.7 9.496c0-1.016-.461-1.967-1.302-2.677-.75-.635-1.722-1.005-2.762-1.063-.229-1.047-.877-1.999-1.83-2.684C8.844 2.379 7.621 2 6.363 2c-1.417 0-2.753.47-3.762 1.322C1.57 4.196 1 5.363 1 6.61c0 .643.15 1.267.45 1.853.26.51.622.971 1.074 1.368l-.368 2.048a.502.502 0 0 0 .666.561l3.365-1.222c.408-.009.799-.038 1.167-.089.18.382.426.72.739 1.003.774.706 1.916 1.078 3.398 1.11l.023.001 2.462.577a.49.49 0 0 0 .444-.11.506.506 0 0 0 .17-.424l-.11-1.187c.778-.692 1.22-1.63 1.22-2.603Zm-9.606.75-.082.002-2.747.999.253-1.4a.691.691 0 0 0-.24-.655c-.836-.687-1.297-1.604-1.297-2.577 0-2.004 1.967-3.637 4.388-3.637 2.065 0 3.825 1.176 4.277 2.825a4.594 4.594 0 0 0-2.327 1.02c-.839.71-1.302 1.662-1.302 2.678 0 .237.017.468.053.688-.31.03-.637.053-.976.057Zm7.6 1.243a.542.542 0 0 0-.204.479l.071.756-1.819-.423a.772.772 0 0 0-.224-.031c-2.305-.047-3.525-1.008-3.525-2.774 0-1.528 1.51-2.773 3.367-2.773s3.364 1.245 3.364 2.773c0 .757-.366 1.465-1.03 1.993ZM3.886 5.836a.666.666 0 1 0 1.331 0 .666.666 0 0 0-1.33 0Zm3.528.066a.666.666 0 1 0 1.33 0 .666.666 0 0 0-1.33 0Zm1.908 3.129a.555.555 0 1 0 1.109 0 .555.555 0 0 0-1.11 0Zm2.485 0a.555.555 0 1 0 1.109 0 .555.555 0 0 0-1.11 0Z" fill="currentColor"/>
  </g>
</svg>