<svg xmlns="http://www.w3.org/2000/svg" xmlns:xlink="http://www.w3.org/1999/xlink" fill="none" version="1.1" width="40" height="40" viewBox="0 0 40 40"><defs><clipPath id="master_svg0_1_11280"><rect x="0" y="0" width="40" height="40" rx="20"/></clipPath><clipPath id="master_svg1_1_11287"><rect x="8" y="8" width="24" height="24" rx="0"/></clipPath></defs><g clip-path="url(#master_svg0_1_11280)"><rect x="0" y="0" width="40" height="40" rx="20" fill="#E0EAFF" fill-opacity="1"/><g clip-path="url(#master_svg1_1_11287)"><g><path d="M23.285538203125,10.6872425625Q21.976318203125,10.1572265625,19.998798203125,10.1572265625Q18.021378203125,10.1572265625,16.712158203125,10.7643285625L23.287528203125,17.4545365625L23.285538203125,10.6872425625Z" fill="#FB5453" fill-opacity="1"/></g><g><path d="M27.012589140625,13.10505125Q25.561149140624998,11.72864025,24.157900340625,11.23828125L24.109619140625,20.42747125L29.041129140625,15.75562125C29.041129140625,15.75762125,28.466089140625,14.48147125,27.012609140625,13.10508125L27.012589140625,13.10505125Z" fill="#6468F1" fill-opacity="1"/></g><g><path d="M29.245876171875,16.6435546875L22.465576171875,23.1300446875L29.324956171875,23.1300446875Q29.862846171875,21.8381946875,29.862846171875,19.8858546875Q29.860816171875,17.9354946875,29.245876171875,16.6435546875Z" fill="#5283F0" fill-opacity="1"/></g><g><path d="M24.3271284375,28.8055275Q25.6586784375,28.2701675,27.093528437499998,26.9164175Q28.5284384375,25.5627375,29.0411784375,24.2565465L19.4521484375,24.2109375L24.3271284375,28.8055275Z" fill="#00B2FE" fill-opacity="1"/></g><g><path d="M16.714033603125,29.3562571875Q18.023348203125,29.8861771875,20.000768203125,29.8861771875Q21.980178203125,29.8861771875,23.287498203125,29.2790971875L16.712158203125,22.5888671875L16.714033603125,29.3562571875Z" fill="#66D020" fill-opacity="1"/></g><g><path d="M13.26138015625,26.9386009375Q14.71296015625,28.3151309375,16.11621015625,28.8054009375L16.16442015625,19.6162109375L11.23291015625,24.2880109375C11.23487889625,24.2861309375,11.80991815625,25.5621909375,13.26138015625,26.9386009375Z" fill="#9AD122" fill-opacity="1"/></g><g><path d="M10.674993890625,16.6435546875Q10.136962890625,17.9351246875,10.136962890625,19.8867846875Q10.136962890625,21.8385746875,10.752056890625,23.1300446875L17.534212890625,16.6455473875L10.674993890625,16.6455473875L10.674993890625,16.6435546875Z" fill="#FFC71A" fill-opacity="1"/></g><g><path d="M15.94699015625,11.23828125Q14.61541015625,11.77366425,13.180570156249999,13.12734125Q11.74567615625,14.48105125,11.23291015625,15.78736125L20.82194015625,15.83287125L15.94699015625,11.23828125Z" fill="#FF7612" fill-opacity="1"/></g></g></g></svg>