<svg xmlns="http://www.w3.org/2000/svg" xmlns:xlink="http://www.w3.org/1999/xlink" fill="none" version="1.1" width="40" height="40" viewBox="0 0 40 40"><defs><clipPath id="master_svg0_4533_81940"><rect x="0" y="0" width="40" height="40" rx="20"/></clipPath></defs><g clip-path="url(#master_svg0_4533_81940)"><rect x="0" y="0" width="40" height="40" rx="20" fill="#E0FFF8" fill-opacity="1"/><g><path d="M27.7828,19.9743L26.7297,18.92123C26.659399999999998,18.85091,26.5656,18.81241,26.466900000000003,18.81241C26.1354,18.81241,25.9696,19.21254,26.204,19.446930000000002L26.9942,20.23715C27.1399,20.38281,27.1399,20.61719,26.9942,20.76285L25.2782,22.4789L25.2782,24.9065C25.2782,25.1124,25.1124,25.2782,24.9065,25.2782L22.4789,25.2782L20.76285,26.9942C20.61719,27.1399,20.38281,27.1399,20.23715,26.9942L18.73874,25.4958L18.5211,25.2782L16.0935,25.2782C15.88758,25.2782,15.72183,25.1124,15.72183,24.9065L15.72183,22.4789L14.00578,20.76285C13.860121,20.61719,13.860121,20.38281,14.00578,20.23715L15.72183,18.5211L15.72183,16.0935C15.72183,15.88758,15.88758,15.72183,16.0935,15.72183L18.52109,15.72183L20.23715,14.00578C20.38281,13.860121,20.61719,13.860121,20.76285,14.00578L22.26126,15.50419L22.4789,15.72183L24.9065,15.72183C25.1124,15.72183,25.2782,15.88758,25.2782,16.0935L25.2782,16.56563C25.2782,16.77156,25.4439,16.9373,25.6498,16.9373C25.855800000000002,16.9373,26.0215,16.77156,26.0215,16.56563L26.0215,15.72183C26.0215,15.31165,25.688299999999998,14.97849,25.2782,14.97849L22.78696,14.97849L21.0257,13.217228C20.736060000000002,12.9275908,20.263939999999998,12.9275908,19.9743,13.217228L18.21304,14.97849L15.72183,14.97849C15.31165,14.97849,14.97849,15.31165,14.97849,15.72183L14.97849,18.21304L13.217228,19.9743C12.9275908,20.263939999999998,12.9275908,20.736060000000002,13.217228,21.0257L14.97849,22.78696L14.97849,25.2782C14.97849,25.688299999999998,15.31165,26.0215,15.72183,26.0215L18.21304,26.0215L19.9743,27.7828C20.263939999999998,28.072400000000002,20.736060000000002,28.072400000000002,21.0257,27.7828L22.78696,26.0215L25.2782,26.0215C25.688299999999998,26.0215,26.0215,25.688299999999998,26.0215,25.2782L26.0215,22.78696L27.7828,21.0257C28.072400000000002,20.736060000000002,28.072400000000002,20.263939999999998,27.7828,19.9743ZM23.151899999999998,18.378790000000002L19.70475,21.825969999999998L17.84807,19.96928C17.70241,19.82362,17.463,19.82362,17.31734,19.96928C17.171689999999998,20.11493,17.171689999999998,20.35434,17.31734,20.5L19.43856,22.621209999999998C19.51222,22.694879999999998,19.60765,22.73003,19.70308,22.73003C19.79851,22.73003,19.895609999999998,22.693199999999997,19.9676,22.621209999999998L23.6827,18.90951C23.8283,18.763849999999998,23.8283,18.52444,23.6827,18.378790000000002C23.537,18.23313,23.2976,18.23313,23.151899999999998,18.378790000000002Z" fill="#1CC29D" fill-opacity="1"/><path d="M26.2215,22.869799999999998L27.9242,21.16712Q28.2,20.89131,28.2,20.5Q28.2,20.10869,27.9242,19.83288L26.8711,18.77981Q26.703699999999998,18.61241,26.466900000000003,18.61241Q26.084600000000002,18.61241,25.9384,18.96523Q25.792299999999997,19.31806,26.0626,19.58835L26.852800000000002,20.37857Q26.9742,20.5,26.852800000000002,20.62143L25.078200000000002,22.39606L25.078200000000002,24.9065Q25.078200000000002,25.078200000000002,24.9065,25.078200000000002L22.39606,25.078200000000002L20.62143,26.852800000000002Q20.5,26.9742,20.37857,26.852800000000002L18.88016,25.3544L18.60394,25.078200000000002L16.0935,25.078200000000002Q15.92183,25.078200000000002,15.92183,24.9065L15.92183,22.39606L14.1472,20.62143Q14.02577,20.5,14.1472,20.37857L15.92183,18.60394L15.92183,16.0935Q15.92183,15.92183,16.0935,15.92183L18.60394,15.92183L20.37857,14.1472Q20.5,14.02577,20.62143,14.1472L22.11984,15.64561L22.39606,15.92183L24.9065,15.92183Q25.078200000000002,15.92183,25.078200000000002,16.0935L25.078200000000002,16.56563Q25.078200000000002,16.80292,25.2454,16.97011Q25.412599999999998,17.1373,25.6498,17.1373Q25.8871,17.1373,26.054299999999998,16.97011Q26.2215,16.80292,26.2215,16.56563L26.2215,15.72183Q26.2215,15.33135,25.9451,15.05492Q25.668599999999998,14.77849,25.2782,14.77849L22.869799999999998,14.77849L21.16712,13.0758062Q20.89131,12.8,20.5,12.8Q20.10869,12.8,19.83288,13.0758064L18.130200000000002,14.77849L15.72183,14.77849Q15.33135,14.77849,15.05492,15.05492Q14.77849,15.33135,14.77849,15.72183L14.77849,18.130200000000002L13.0758062,19.83288Q12.8,20.10869,12.8,20.5Q12.8,20.89131,13.0758059,21.16712L14.77849,22.869799999999998L14.77849,25.2782Q14.77849,25.668599999999998,15.05492,25.9451Q15.33135,26.2215,15.72183,26.2215L18.130200000000002,26.2215L19.83288,27.9242Q20.10869,28.2,20.5,28.2Q20.89131,28.2,21.16712,27.9242L22.869799999999998,26.2215L25.2782,26.2215Q25.668599999999998,26.2215,25.9451,25.9451Q26.2215,25.668599999999998,26.2215,25.2782L26.2215,22.869799999999998ZM27.8,20.5Q27.8,20.72563,27.6414,20.88428L25.8215,22.70411L25.8215,25.2782Q25.8215,25.503,25.6622,25.6622Q25.503,25.8215,25.2782,25.8215L22.70412,25.8215L20.88428,27.6414Q20.72563,27.8,20.5,27.8Q20.27437,27.8,20.11572,27.6414L18.29589,25.8215L15.72183,25.8215Q15.49704,25.8215,15.33776,25.6622Q15.17849,25.503,15.17849,25.2782L15.17849,22.70412L13.358649,20.88428Q13.2,20.72563,13.2,20.5Q13.2,20.27437,13.358649,20.11572L15.17849,18.29589L15.17849,15.72183Q15.17849,15.49704,15.33776,15.33776Q15.49704,15.17849,15.72183,15.17849L18.29589,15.17849L20.11573,13.358649Q20.27437,13.2,20.5,13.2Q20.72563,13.2,20.88428,13.358649L22.70411,15.17849L25.2782,15.17849Q25.503,15.17849,25.6622,15.33776Q25.8215,15.49704,25.8215,15.72183L25.8215,16.56563Q25.8215,16.7373,25.6498,16.7373Q25.4782,16.7373,25.4782,16.56563L25.4782,16.0935Q25.4782,15.85622,25.311,15.68902Q25.1438,15.52183,24.9065,15.52183L22.56175,15.52183L22.40268,15.36276L20.90427,13.864355Q20.736449999999998,13.696535,20.5,13.696535Q20.263550000000002,13.696535,20.09573,13.864355L18.43825,15.52183L16.0935,15.52183Q15.85622,15.52183,15.68902,15.68902Q15.52183,15.85622,15.52183,16.0935L15.52183,18.43825L13.864355,20.09573Q13.696534,20.263550000000002,13.696534,20.5Q13.696534,20.736449999999998,13.864355,20.90427L15.52183,22.56175L15.52183,24.9065Q15.52183,25.1438,15.68902,25.311Q15.85622,25.4782,16.0935,25.4782L18.43825,25.4782L18.59732,25.6372L20.09573,27.1356Q20.263550000000002,27.3035,20.5,27.3035Q20.736449999999998,27.3035,20.90427,27.1356L22.56175,25.4782L24.9065,25.4782Q25.1438,25.4782,25.311,25.311Q25.4782,25.1438,25.4782,24.9065L25.4782,22.56175L27.1356,20.90427Q27.3035,20.736449999999998,27.3035,20.5Q27.3035,20.263550000000002,27.1356,20.09573L26.345399999999998,19.305509999999998Q26.2641,19.22421,26.308,19.11831Q26.3519,19.01241,26.466900000000003,19.01241Q26.538,19.01241,26.5883,19.062649999999998L27.6414,20.11572Q27.8,20.27437,27.8,20.5ZM23.9919,18.64415Q23.9919,18.40519,23.8241,18.23737Q23.6563,18.06955,23.417299999999997,18.06955Q23.1783,18.06955,23.0105,18.23737L19.70475,21.543120000000002L17.98949,19.82786Q17.82167,19.660040000000002,17.58271,19.660040000000002Q17.34374,19.660040000000002,17.175919999999998,19.82786Q17.0081,19.99568,17.0081,20.23464Q17.0081,20.4736,17.175919999999998,20.64142L19.29714,22.76263Q19.46453,22.930030000000002,19.70308,22.930030000000002Q19.94162,22.930030000000002,20.10902,22.76263L23.823999999999998,19.05099Q23.9919,18.883110000000002,23.9919,18.64415ZM23.417299999999997,18.469549999999998Q23.4906,18.469549999999998,23.5412,18.52021Q23.6652,18.64415,23.5413,18.76802L19.82618,22.47979Q19.77594,22.53004,19.70308,22.53004Q19.63022,22.53004,19.57998,22.47979L17.45877,20.35858Q17.33483,20.23464,17.45877,20.1107Q17.58271,19.98676,17.70665,20.1107L19.70475,22.10881L23.2934,18.52021Q23.344,18.469549999999998,23.417299999999997,18.469549999999998Z" fill-rule="evenodd" fill="#0BC792" fill-opacity="1"/></g></g></svg>