
<svg xmlns="http://www.w3.org/2000/svg" xmlns:xlink="http://www.w3.org/1999/xlink" fill="none" version="1.1" width="40" height="40" viewBox="0 0 40 40"><defs><clipPath id="master_svg0_5495_88631"><rect x="0" y="0" width="40" height="40" rx="20"/></clipPath><clipPath id="master_svg1_5495_88838"><rect x="12" y="12" width="16" height="16" rx="0"/></clipPath></defs><g clip-path="url(#master_svg0_5495_88631)"><rect x="0" y="0" width="40" height="40" rx="20" fill="#F1EEFE" fill-opacity="1"/><g clip-path="url(#master_svg1_5495_88838)"><g><path d="M20,13C15.58625,13,12,16.075,12,19.85687C12,22.04687,13.2175,24.105600000000003,15.2725,25.391199999999998L15.2725,27.2269C15.2725,27.5156,15.43375,27.776899999999998,15.69125,27.9069C15.805,27.971899999999998,15.93812,28,16.07125,28C16.22375,28,16.375619999999998,27.9531,16.50875,27.8694L17.46938,27.2456C17.49812,27.2269,17.5175,27.2175,17.53625,27.198700000000002L18.47813,26.5837C18.99187,26.6675,19.50562,26.714399999999998,20,26.714399999999998C24.404400000000003,26.714399999999998,28,23.639400000000002,28,19.85687C28,16.07438,24.404400000000003,13,20,13ZM23.8812,21.403750000000002C23.2912,22.82,21.759999999999998,23.779400000000003,20.05687,23.779400000000003C18.36375,23.779400000000003,16.82312,22.82938,16.23312,21.403750000000002C16.1,21.086869999999998,16.261870000000002,20.73312,16.57562,20.6025C16.89422,20.47526,17.2563,20.6238,17.39375,20.938119999999998C17.793120000000002,21.8975,18.85875,22.55,20.05687,22.55C21.25562,22.55,22.321199999999997,21.90625,22.720599999999997,20.9375C22.855,20.62008,23.2203,20.4705,23.5387,20.6025C23.858800000000002,20.724800000000002,24.014,21.087870000000002,23.8812,21.403750000000002Z" fill="#7C5CFC" fill-opacity="1"/></g></g></g></svg>
