<svg xmlns="http://www.w3.org/2000/svg" xmlns:xlink="http://www.w3.org/1999/xlink" fill="none" version="1.1" width="40" height="40" viewBox="0 0 40 40"><defs><clipPath id="master_svg0_3960_66974"><rect x="0" y="0" width="40" height="40" rx="20"/></clipPath></defs><g clip-path="url(#master_svg0_3960_66974)"><rect x="0" y="0" width="40" height="40" rx="20" fill="#E0EAFF" fill-opacity="1"/><g><path d="M18.19236,20.69098C18.19236,21.04609,18.48023,21.33395,18.83533,21.33395C19.19043,21.33395,19.4783,21.04608,19.4783,20.69098C19.4783,20.33588,19.19043,20.048009999999998,18.83533,20.048009999999998C18.48023,20.048009999999998,18.19236,20.33588,18.19236,20.69098ZM15.382200000000001,20.69098C15.38196,21.04626,15.6699,21.3344,16.02517,21.3344C16.38045,21.3344,16.66839,21.04626,16.66814,20.69098C16.66814,20.33588,16.38028,20.048009999999998,16.02517,20.048009999999998C15.670069999999999,20.048009999999998,15.382200000000001,20.33588,15.382200000000001,20.69098ZM21.00252,20.69098C21.00252,21.04608,21.29038,21.33395,21.645490000000002,21.33395C22.000590000000003,21.33395,22.28846,21.04608,22.28846,20.69098C22.28846,20.33588,22.000590000000003,20.048009999999998,21.645490000000002,20.048009999999998C21.29038,20.048009999999998,21.00252,20.33588,21.00252,20.69098ZM23.6658,23.91583C23.6631,23.91583,23.6491,23.926299999999998,23.6175,23.95989L23.622500000000002,23.95676C23.631999999999998,23.94848,23.6419,23.94036,23.6506,23.93176C23.6558,23.92661,23.660800000000002,23.92114,23.6658,23.91583ZM14.0533,17.42395L14.0483,17.42723C14.03877,17.43551,14.02877,17.44286,14.02017,17.45208C14.01486,17.45723,14.00986,17.462699999999998,14.00455,17.4677C14.007670000000001,17.46817,14.02158,17.45739,14.0533,17.42395ZM16.35267,14.998483L16.34767,15.00161C16.33814,15.00989,16.3283,15.01723,16.31955,15.02645C16.314239999999998,15.03161,16.30939,15.03708,16.30392,15.04208C16.30705,15.04286,16.32111,15.03208,16.35267,14.998483ZM26.9089,14.842389C26.7299,14.354421,26.3081,14.047233,25.7928,14.00504553C25.678800000000003,13.99567056,25.5619,14.00223303,25.447699999999998,14.00223303L16.57689,14.00223303C16.41596,14.00223303,16.252670000000002,14.0233268,16.10299,14.083483C15.63127,14.273014,15.30736,14.69567,15.30033,15.21348C15.295490000000001,15.58223,15.30033,15.95145,15.30033,16.32036L15.30033,16.42755L14.36767,16.42755C14.20424,16.42755,14.04158,16.43083,13.883299,16.47958C13.359861,16.64036,13.00236118,17.11317,13.000486135,17.66145C12.99939239,18.048009999999998,13.000486135,18.43458,13.000486135,18.82114L13.000486135,23.56458C13.000486135,23.7438,12.99611115,23.923949999999998,13.0540799,24.0972C13.17908,24.473,13.456424,24.7424,13.822517,24.8836C13.980799,24.944699999999997,14.15236,24.9568,14.320640000000001,24.9568L15.69924,24.9568C15.96205,25.3146,16.22455,25.6725,16.48267,26.0336L16.7433,26.398C16.84189,26.535800000000002,16.9708,26.6299,17.147669999999998,26.6299C17.324550000000002,26.6299,17.45345,26.536099999999998,17.55205,26.398C17.87267,25.9496,18.19564,25.5046,18.5258,25.063299999999998C18.54908,25.0321,18.57267,25.000799999999998,18.595489999999998,24.9696L19.9922,24.9566C20.39127,24.9529,20.79049,24.9566,21.18955,24.9566L23.3997,24.9566C23.6141,24.9568,23.8256,24.9068,24.017200000000003,24.8107C24.433799999999998,24.6044,24.6697,24.1583,24.6697,23.705199999999998L24.6697,22.53067L25.2791,22.53067C25.427500000000002,22.53067,25.576,22.53239,25.7245,22.53067C26.1708,22.52583,26.6241,22.28536,26.8288,21.87755C26.922800000000002,21.690170000000002,26.971,21.48313,26.9694,21.27348L26.9694,15.27583C26.9692,15.12989,26.959400000000002,14.980358,26.9089,14.842389ZM23.6341,23.949260000000002C23.6303,23.95192,23.6263,23.954259999999998,23.622500000000002,23.95676C23.6164,23.96162,23.610599999999998,23.966839999999998,23.6052,23.97239L23.6175,23.959110000000003C23.5985,23.97114,23.5789,23.98223,23.5589,23.99255C23.5295,24.0026,23.4996,24.011,23.4692,24.017699999999998C23.3442,24.0261,23.2178,24.019,23.0942,24.019L20.33361,24.019C19.97767,24.019,19.62189,24.0229,19.26611,24.0261L18.41533,24.034100000000002L18.36361,24.034100000000002C18.18314,24.0444,18.064700000000002,24.1261,17.95924,24.2661L17.95658,24.2696C17.94845,24.2802,17.94095,24.291,17.93267,24.3016L17.69486,24.619300000000003Q17.41845,24.988500000000002,17.14799,25.3613Q16.86314,24.9666,16.57533,24.5741L16.33814,24.2521Q16.317520000000002,24.223599999999998,16.29595,24.1982C16.2648,24.1582,16.22739,24.1234,16.18517,24.095399999999998L16.1783,24.0907L16.17377,24.087899999999998C16.137999999999998,24.0651,16.09902,24.0479,16.05814,24.0368C16.05017,24.034599999999998,16.04252,24.0327,16.03377,24.031C16.00093,24.023699999999998,15.9674,24.0201,15.933769999999999,24.02L14.413920000000001,24.02C14.34267,24.02,14.27064,24.022199999999998,14.19939,24.0183C14.16968,24.0118,14.14031,24.003700000000002,14.11142,23.99411Q14.07924,23.97739,14.04892,23.95786C14.03924,23.94942,14.02924,23.942230000000002,14.02033,23.93255C14.01142,23.92286,14.00158,23.91317,13.992517,23.90333C13.980017,23.88301,13.968142,23.8627,13.956892,23.84208C13.950173,23.82114,13.944236,23.8002,13.939236,23.7788C13.936267,23.72036,13.93783,23.6613,13.93783,23.60286L13.93783,18.361449999999998C13.93783,18.12192,13.935486000000001,17.88239,13.93783,17.6427C13.93783,17.63036,13.93783,17.61817,13.93908,17.60598C13.943923999999999,17.58442,13.950017,17.56333,13.956736,17.54239C13.96783,17.52176,13.979705,17.50176,13.991736,17.4813C13.996110999999999,17.47661,14.00064,17.47192,14.00502,17.46708C14.00142,17.46708,14.01642,17.44723,14.03627,17.43364L14.04799,17.42629C14.054079999999999,17.42098,14.06002,17.41551,14.06533,17.40989L14.05299,17.42301C14.07205,17.41098,14.09158,17.39989,14.11142,17.38958C14.14031,17.38001,14.16968,17.37193,14.19939,17.36536C14.28908,17.35989,14.38017,17.36364,14.46939,17.36364L22.32346,17.36364C22.68814,17.36364,23.052799999999998,17.36192,23.4172,17.36364C23.435000000000002,17.36364,23.4528,17.36442,23.470599999999997,17.36536C23.500500000000002,17.37192,23.529899999999998,17.38006,23.5589,17.38973C23.5803,17.40083,23.601300000000002,17.4127,23.6214,17.42583C23.631,17.434260000000002,23.6411,17.44239,23.65,17.45114C23.6589,17.45989,23.668599999999998,17.47051,23.6777,17.48036C23.6902,17.50067,23.702199999999998,17.52098,23.7135,17.54176C23.72,17.56254,23.726100000000002,17.58348,23.731,17.60426C23.7339,17.66286,23.7324,17.72176,23.7324,17.7802L23.7324,23.02176C23.7324,23.261139999999997,23.7349,23.50083,23.7324,23.74051C23.7324,23.75286,23.7324,23.765050000000002,23.731299999999997,23.77739C23.726300000000002,23.79879,23.7203,23.82004,23.7136,23.840980000000002C23.7024,23.861449999999998,23.6906,23.881610000000002,23.6785,23.90192C23.6741,23.90676,23.6697,23.911450000000002,23.6652,23.91614C23.6694,23.916449999999998,23.654400000000003,23.935670000000002,23.6341,23.949260000000002ZM25.9336,21.52395C25.9297,21.526609999999998,25.925800000000002,21.528950000000002,25.9219,21.53145C25.9158,21.53635,25.91,21.54156,25.9045,21.54708L25.9169,21.5338C25.8978,21.54583,25.8783,21.556919999999998,25.8585,21.567230000000002C25.828,21.57743,25.7969,21.58594,25.7655,21.5927C25.587699999999998,21.60645,25.4039,21.5927,25.2272,21.5927L24.6697,21.5927L24.6697,17.7802C24.6697,17.52926,24.6428,17.28958,24.5203,17.06145C24.3016,16.653480000000002,23.8522,16.42723,23.3994,16.4263L16.23705,16.4263L16.23705,15.35739C16.23705,15.29848,16.23564,15.23911,16.23861,15.1802C16.24353,15.15914,16.24932,15.13829,16.25595,15.1177C16.2672,15.09708,16.27892,15.07708,16.29111,15.05661L16.30439,15.04239C16.3008,15.04239,16.3158,15.02255,16.33564,15.00895L16.347360000000002,15.00161C16.35344,14.99646,16.35923,14.990983,16.3647,14.985202L16.35236,14.998484C16.37142,14.986452,16.39095,14.975202,16.41095,14.96489C16.43985,14.955322,16.46921,14.947239,16.49892,14.940671C16.58845,14.935202,16.6797,14.938953,16.76892,14.938953L24.622999999999998,14.938953C24.9877,14.938953,25.3524,14.937234,25.7167,14.938953C25.7345,14.938953,25.7524,14.938953,25.77,14.940671C25.7999,14.947218,25.8294,14.955355,25.8585,14.965046C25.8799,14.976140000000001,25.9008,14.988015,25.921,15.00114C25.9306,15.00958,25.9406,15.0177,25.9495,15.02645C25.9585,15.0352,25.9683,15.04583,25.9774,15.05583C25.9899,15.07598,26.0017,15.0963,26.012999999999998,15.11708C26.0197,15.13786,26.0256,15.15895,26.0306,15.17958C26.0336,15.23817,26.032,15.29708,26.032,15.35551L26.032,20.59583C26.032,20.8352,26.034399999999998,21.07489,26.032,21.31458C26.032,21.32692,26.032,21.33926,26.0308,21.35145C26.026,21.37286,26.0199,21.39411,26.0131,21.41505C26.002000000000002,21.43551,25.9902,21.455669999999998,25.978099999999998,21.47598C25.9738,21.48083,25.9692,21.485509999999998,25.9649,21.4902C25.9692,21.49114,25.9536,21.51036,25.9336,21.52395ZM25.9653,21.49051C25.9625,21.49051,25.9485,21.50098,25.9169,21.53458L25.9219,21.53145C25.9314,21.52317,25.9414,21.51583,25.95,21.50645C25.9553,21.50208,25.9603,21.49598,25.9653,21.49051Z" fill="#4381FF" fill-opacity="1"/></g></g></svg>