<svg xmlns="http://www.w3.org/2000/svg" fill="none" viewBox="0 0 16 16">
  <defs>
    <clipPath id="a">
      <rect width="16" height="16" rx="0"/>
    </clipPath>
  </defs>
  <g clip-path="url(#a)">
    <path d="M14.497 7.133 13.206 5.84V4.016c0-.677-.549-1.226-1.226-1.226h-1.825L8.863 1.498a1.23 1.23 0 0 0-1.734 0L5.837 2.79H4.012c-.677 0-1.226.549-1.226 1.226V5.84L1.495 7.133a1.23 1.23 0 0 0 0 1.734l1.291 1.291v1.826c0 .677.549 1.226 1.226 1.226h1.825L7.13 14.5a1.23 1.23 0 0 0 1.734 0l1.292-1.291h1.825c.677 0 1.226-.549 1.226-1.226v-1.826l1.291-1.29c.48-.48.48-1.257 0-1.735Zm-3.345-.352-3.98 3.369a.613.613 0 0 1-.397.146c-.018 0-.035 0-.055-.003a.606.606 0 0 1-.417-.217L4.772 8.238a.612.612 0 1 1 .94-.785l1.137 1.363 3.511-2.972a.614.614 0 0 1 .792.937Z" fill="currentColor"/>
  </g>
</svg>